<?xml version="1.0" encoding="utf-8"?>
<!-- Generator: Adobe Illustrator 19.0.0, SVG Export Plug-In . SVG Version: 6.00 Build 0)  -->
<svg version="1.1" id="Camada_1" xmlns="http://www.w3.org/2000/svg" xmlns:xlink="http://www.w3.org/1999/xlink" x="0px" y="0px"
	 viewBox="0 0 600 300" style="enable-background:new 0 0 600 300;" xml:space="preserve">
<style type="text/css">
	.st0{fill:#444242;}
</style>
<g>
	<g id="XMLID_415_">
		<path id="XMLID_416_" class="st0" d="M406,178.8c0.3-1.7,0.2-3.3-0.2-4.9c-0.4-1.6-1.2-3.1-2.3-4.5c-1.1-1.4-2.6-2.6-4.4-3.6
			c-1.8-1.1-4-1.9-6.6-2.5c-1.1-0.2-2.4-0.4-4.1-0.4c-1.6,0-3.4,0-5.2,0.3c-1.9,0.2-3.7,0.6-5.6,1c-1.9,0.5-3.6,1.1-5.1,2
			c-1.5,0.8-2.8,1.9-3.9,3.1c-1,1.2-1.6,2.6-1.8,4.2c-0.1,1.7,0.3,3.3,1.3,4.9c1,1.6,2.5,3.2,4.5,4.7c0.6,0.4,0.9,0.6,1.1,0.4
			c0.1-0.2-0.1-0.5-0.6-1c-0.6-0.5-1.2-1.1-1.9-1.8c-0.7-0.7-1.3-1.5-1.9-2.4c-0.6-0.9-1-1.8-1.3-2.8c-0.3-1-0.3-2,0-3.1
			c0.4-1.4,1.1-2.6,2.1-3.6c1-1,2.3-1.8,3.7-2.5c1.4-0.7,3-1.2,4.7-1.5c1.7-0.3,3.4-0.6,5.1-0.7c1.7-0.1,3.3-0.1,4.8,0
			c1.5,0.1,2.8,0.3,3.8,0.5c3.3,0.8,6,2,8,3.8c2,1.8,3.4,3.7,4,6c0.6,2.2,0.6,4.5-0.2,6.9c-0.7,2.4-2.2,4.6-4.4,6.7
			c-0.8,0.8-1.8,1.5-2.9,2.2c-1.1,0.7-2.2,1.2-3.4,1.8c-1.2,0.5-2.3,0.9-3.5,1.2c-1.2,0.3-2.3,0.5-3.3,0.5c-1,0.1-2,0-2.8-0.3
			c-0.8-0.2-1.4-0.7-1.8-1.3c-0.2-0.3-0.4-0.7-0.5-1.2c-0.1-0.5,0-0.9,0.1-1.3c0.2-0.7,0.6-1.6,1.1-2.7c0.5-1.1,1.1-2.4,1.8-3.7
			c0.7-1.4,1.4-2.8,2.2-4.2c0.8-1.5,1.6-2.9,2.3-4.2c0.8-1.3,1.5-2.6,2.2-3.7c0.7-1.1,1.2-2,1.7-2.7c0.1-0.2,0.1-0.3,0-0.4
			c-0.1-0.1-0.3-0.1-0.5-0.1c-0.2,0-0.4,0.1-0.6,0.2c-0.2,0.1-0.4,0.3-0.5,0.4c-0.4,0.5-0.9,1.2-1.4,2.1c-0.5,0.9-1.1,1.9-1.7,2.9
			c-0.6,1.1-1.2,2.3-1.9,3.5c-0.6,1.3-1.3,2.5-1.9,3.8c-0.6,1.3-1.2,2.6-1.8,3.8c-0.6,1.3-1.1,2.5-1.5,3.6c0,0.1-0.1,0.2,0,0.2
			c0.1,0,0,0-0.1,0c-1.2,0.2-1.4,0.9-0.8,2.2c0.1,0.2,0.1,0.3,0.1,0.3c0,0,0,0.1,0,0.3c-0.2,0.6-0.3,1.3-0.5,2
			c-0.2,0.7-0.3,1.3-0.4,1.8c-0.1,0.6,0,0.8,0.2,0.8c0.2,0,0.3-0.3,0.4-0.7c0.1-0.6,0.2-1,0.3-1.5c0.1-0.4,0.2-0.8,0.4-1.3
			c0.1-0.2,0.2-0.4,0.3-0.4c0.1,0,0.2,0.1,0.3,0.3c0.5,1,1.3,1.7,2.3,2s2,0.5,3.2,0.4c1.2-0.1,2.5-0.4,3.8-0.8
			c1.3-0.5,2.6-1,3.8-1.6c1.2-0.6,2.3-1.2,3.4-1.9c1-0.7,1.9-1.3,2.5-1.8c1.7-1.5,3-3,4-4.7C405.1,182.2,405.7,180.5,406,178.8z
			 M427.5,190c-0.6,0.9-1.2,1.8-2,2.8c-0.8,1-1.7,2-2.7,2.9c-2.1,2-3.9,3.3-5.2,3.9c-0.9,0.4-1.8,0.6-2.8,0.7
			c-1,0.1-1.7-0.1-2.3-0.5c-0.6-0.4-0.9-1-1-1.9c0-0.1,0-0.3,0-0.4c0-0.1,0-0.2,0-0.4c0-0.8,0.2-1.7,0.4-2.9
			c0.2-1.1,0.5-2.3,0.8-3.6c0.3-1.3,0.7-2.5,1.1-3.8c0.4-1.2,0.9-2.3,1.4-3.3c0.6-1.2,1.3-2.5,1.9-3.7c0.7-1.2,1.3-2.4,2-3.7
			c0-0.1,0-0.1-0.1-0.3c-0.1-0.1-0.2-0.2-0.3-0.2c-0.1,0-0.2,0-0.2,0.1c-0.2,0.3-0.5,0.5-1,0.6c-0.1,0-0.3,0-0.8,0
			c-0.3-0.1-0.7-0.1-1-0.2c-0.3,0-0.7,0-1,0c-0.3,0-0.6,0.1-0.9,0.2c-0.3,0.1-0.5,0.2-0.8,0.3c-1,0.5-2.1,1.2-3.2,2.2
			c-1.1,0.9-2.3,2.1-3.6,3.6c-2.7,3.2-4,5.7-3.8,7.6c0.1,0.9,0.5,1.4,1.1,1.3c0.3,0,0.6-0.2,0.9-0.4c1.6-1.1,3.5-2.7,5.7-4.9
			c1.1-1.1,2-2.1,2.9-3c0.8-0.9,1.5-1.8,2.1-2.6c0-0.1,0.1-0.1,0.1-0.1c0.2,0,0.2,0.1,0.1,0.4c-0.4,0.7-0.8,1.5-1.1,2.4
			c-0.4,0.9-0.7,1.8-1.1,2.8c-0.3,0.8-0.6,1.8-0.9,2.8c-0.3,1.1-0.5,2.1-0.8,3.2c-0.2,1.1-0.4,2.1-0.5,3c-0.1,0.9-0.2,1.7-0.1,2.2
			c0,0.7,0.2,1.3,0.4,1.8c0.3,0.5,0.6,0.9,1.2,1.2c0.5,0.3,1,0.5,1.5,0.6c0.6,0.1,1.2,0.2,1.8,0.1c0.4,0,0.8-0.1,1.2-0.2
			c0.4-0.1,0.7-0.2,1.1-0.4c0.7-0.3,1.5-0.8,2.4-1.5c0.8-0.7,1.8-1.5,2.8-2.5c1.1-1.1,2.1-2.2,2.8-3.3c0.8-1.1,1.4-2.1,2-3
			c0.1-0.2,0.1-0.3,0.1-0.4c0-0.1,0-0.1-0.1-0.1C427.9,189.5,427.7,189.7,427.5,190z M415.4,178.9c-1.7,2.4-3.3,4.4-4.8,6.2
			c-1.5,1.7-3,3.1-4.4,4.1c-0.2,0.2-0.4,0.2-0.6,0.3c-0.5,0-0.8-0.3-0.8-0.9c0-0.3,0-0.6,0.1-0.9c0.3-0.9,0.7-1.8,1.3-2.8
			c0.5-1,1.2-2,2-3.1c1.7-2.2,3.2-3.6,4.5-4c0.3-0.1,0.6-0.2,0.9-0.2c0.5,0,1,0,1.4,0.3c0.4,0.2,0.6,0.5,0.6,0.8
			C415.5,178.7,415.4,178.8,415.4,178.9z M427.7,188.3h29.9v-28.9H475v-16.1h-17.4v-11.9h20.5v-16.6h-50.4V188.3z M538,109.9
			c-2.5-4.7-18-4.3-25.3-0.7l-8.6,16h15.5L538,109.9z M519.7,173.4c-7.6,0-10.5-1.9-12.2-5.9l39.4-4.7c0-19.7-8.9-33.6-32.4-33.6
			c-23.5,0-34.4,13.7-34.4,30.2c0,16.2,11.3,30.5,36.1,30.5c14,0,22.8-2.5,28.6-4.5l-5.1-15C535.8,172,528.1,173.4,519.7,173.4z
			 M513.3,143.2c5,0,6.8,4.1,6.8,10.8l-14.8,2C504.4,147.8,507.6,143.2,513.3,143.2z M144.8,155.4c-1.9,1.2-4.8,2.3-8.4,2.3
			c-8.6,0-14.2-7.4-14.2-17.9c0-10.1,4.9-17.6,14.5-17.6c3.8,0,6.7,1.3,8.2,2.3l1.8-3.8c-2-1.5-5.8-2.9-11.5-2.9
			c-11.4,0-20,8.4-20,22.3c0,13.7,8.6,22.4,19.8,22.4c5.7,0,9.7-1.4,11.8-2.9L144.8,155.4z M170.1,117.8c-6.4,0-12.2,1.7-15.2,2.9
			l1.8,3.8c2.8-1.3,7.8-2.5,12.2-2.5c7,0,12.2,2.1,12.2,9v2.6c-15.9,1.3-29.2,4.6-29.2,16.2c0,7.6,5.9,12.6,19,12.6
			c7,0,12.9-1.1,16.7-2.9v-27.9C187.5,121.3,179.6,117.8,170.1,117.8z M181,157c-2.2,1-5.6,1.7-9.5,1.7c-7.9,0-13-2.7-13-9
			c0-9.2,8.9-11.3,22.5-12.7V157z M218.2,162.5c6.9,0,12.3-1.3,15.6-2.9V99.3H227V119c-2.3-0.6-5.5-0.9-8.8-0.9
			c-13.4,0-22.4,8.5-22.4,22.8C195.8,154.1,203.3,162.5,218.2,162.5z M219.6,121.8c2.7,0,5.2,0.2,7.3,0.7v34.1
			c-1.7,1-4.8,1.7-8.4,1.7c-11.2,0-15.8-7.1-15.8-18C202.8,131,207.3,121.8,219.6,121.8z M262.6,117.8c-11.8,0-20.5,7.6-20.5,22.2
			c0,15.3,9.4,22.5,22.7,22.5c6.8,0,12.3-1.4,15.3-2.9l-2-4.4c-2.6,1.3-7,2.6-12.8,2.6c-9.6,0-15.7-5.1-16.6-15.1l33.2-4
			C281.9,124.4,274.6,117.8,262.6,117.8z M248.4,139.1c-0.1-11.9,6.4-17.3,14-17.3c7.6,0,12.8,4.1,12.8,14L248.4,139.1z
			 M339.2,117.8c-6.9,0-12.2,2.1-15.9,5.2c-3.1-3.2-7.7-5.2-15.6-5.2c-7.2,0-13.3,1.3-17.5,2.9v40.7h6.9v-37.9
			c2.5-0.9,5.8-1.6,10.3-1.6c7.7,0,12.1,3.3,12.1,8.2v31.3h6.9V126c3.1-2.8,6.9-4.1,11.4-4.1c7.7,0,10.9,4.3,10.9,8.6v30.9h6.8v-31
			C355.7,124.7,351.4,117.8,339.2,117.8z M373.1,118.8h-6.9v42.6h6.9V118.8z M369.7,110.7c2.4,0,4.3-1.7,4.3-3.8
			c0-2.1-1.9-3.9-4.3-3.9c-2.4,0-4.3,1.7-4.3,3.9C365.3,109,367.3,110.7,369.7,110.7z M381.7,149.9c0,7.6,5.9,12.6,19,12.6
			c7,0,12.9-1.1,16.7-2.9v-27.9c0-10.4-7.9-13.8-17.5-13.8c-6.4,0-12.2,1.7-15.2,2.9l1.8,3.8c2.8-1.3,7.8-2.5,12.2-2.5
			c7,0,12.2,2.1,12.2,9v2.6C394.9,135,381.7,138.3,381.7,149.9z M410.9,157c-2.2,1-5.6,1.7-9.5,1.7c-7.9,0-13-2.7-13-9
			c0-9.2,8.9-11.3,22.5-12.7V157z M75,144.5H99l-0.4,16.9h7.9l0.2-54.4h-6.4l-46.8,54.4h7.2L75,144.5z M95.4,119.5
			c3.6-4.4,5.4-7,5.4-7h0.2c0,0-0.6,2.7-0.8,7l-0.8,21H78.1L95.4,119.5z M61.3,186.1c-0.3,0.1-0.6,0.1-1,0.1c-0.8,0-1.5-0.3-2-1
			c-0.5-0.7-0.8-1.6-0.8-2.8c0-1.2,0.2-2.1,0.7-2.8c0.5-0.7,1.2-1,2.1-1c0.4,0,0.7,0.1,1,0.2c0.3,0.1,0.5,0.2,0.7,0.3l0.8-1.8
			c-0.3-0.2-0.8-0.4-1.3-0.6c-0.5-0.2-1.2-0.2-2-0.2c-0.8,0-1.5,0.1-2.2,0.4c-0.7,0.3-1.3,0.6-1.8,1.2c-0.5,0.5-0.9,1.1-1.2,1.9
			c-0.3,0.7-0.5,1.6-0.5,2.5c0,1,0.1,1.8,0.4,2.5c0.3,0.7,0.7,1.4,1.2,1.9c0.5,0.5,1.1,0.9,1.8,1.2c0.7,0.3,1.4,0.4,2.2,0.4
			c0.9,0,1.6-0.1,2.1-0.3c0.6-0.2,1-0.4,1.3-0.6l-0.8-1.9C61.9,185.9,61.6,186,61.3,186.1z M81,178.3c-0.5-0.5-1.2-1-1.9-1.2
			c-0.8-0.3-1.6-0.4-2.6-0.4c-1,0-1.9,0.1-2.6,0.4c-0.8,0.3-1.4,0.7-1.9,1.2c-0.5,0.5-0.9,1.2-1.2,1.9c-0.3,0.7-0.4,1.5-0.4,2.4
			c0,0.9,0.1,1.7,0.4,2.4c0.3,0.7,0.7,1.4,1.2,1.9c0.5,0.5,1.2,0.9,1.9,1.2c0.8,0.3,1.6,0.5,2.6,0.5c1,0,1.9-0.2,2.6-0.5
			c0.8-0.3,1.4-0.7,1.9-1.2c0.5-0.5,0.9-1.2,1.2-1.9c0.3-0.7,0.4-1.5,0.4-2.4c0-0.9-0.1-1.7-0.4-2.4C81.9,179.4,81.5,178.8,81,178.3
			z M78.7,184c-0.1,0.5-0.2,0.9-0.4,1.2c-0.2,0.4-0.4,0.6-0.7,0.8c-0.3,0.2-0.7,0.3-1.2,0.3c-0.5,0-0.8-0.1-1.2-0.3
			c-0.3-0.2-0.6-0.5-0.8-0.8c-0.2-0.4-0.3-0.8-0.4-1.2c-0.1-0.5-0.1-1-0.1-1.5c0-0.5,0-1,0.1-1.5c0.1-0.5,0.2-0.9,0.4-1.3
			c0.2-0.4,0.4-0.6,0.7-0.9c0.3-0.2,0.7-0.3,1.2-0.3c0.5,0,0.9,0.1,1.2,0.3c0.3,0.2,0.6,0.5,0.7,0.9c0.2,0.4,0.3,0.8,0.4,1.3
			s0.1,1,0.1,1.5C78.8,183.1,78.8,183.5,78.7,184z M109,177.7c-0.4-0.3-0.9-0.6-1.5-0.8c-0.6-0.2-1.3-0.3-2.1-0.3
			c-1.1,0-2,0.1-2.7,0.3c-0.7,0.2-1.3,0.5-1.8,0.8c-0.4-0.3-0.9-0.6-1.6-0.8c-0.7-0.2-1.6-0.3-2.7-0.3c-1.1,0-2.1,0.1-3,0.2
			c-0.9,0.1-1.7,0.4-2.4,0.6v10.8h3.7v-9.4c0.2-0.1,0.5-0.1,0.8-0.2c0.3,0,0.6-0.1,1-0.1c0.7,0,1.3,0.1,1.7,0.4
			c0.4,0.3,0.6,0.7,0.6,1.2v8.1h3.7v-9.1c0.5-0.4,1.2-0.6,1.9-0.6c0.7,0,1.3,0.2,1.6,0.5c0.3,0.3,0.5,0.7,0.5,1.2v8.1h3.7v-8.1
			c0-0.5-0.1-0.9-0.3-1.4C109.7,178.4,109.4,178,109,177.7z M126.8,186.1c-0.2,0.1-0.5,0.2-0.8,0.2c-0.3,0.1-0.7,0.1-1.1,0.1
			c-0.7,0-1.2-0.2-1.6-0.5c-0.3-0.3-0.5-0.7-0.5-1.2v-7.8h-3.7v7.7c0,1.4,0.5,2.4,1.4,3c0.9,0.7,2.3,1,4.2,1c1.3,0,2.4-0.1,3.3-0.2
			c0.9-0.2,1.7-0.4,2.3-0.6v-10.8h-3.7V186.1z M149.4,177.4c-1-0.6-2.5-0.9-4.4-0.9c-1.1,0-2.1,0.1-3.1,0.2
			c-0.9,0.2-1.7,0.4-2.4,0.6v10.8h3.7v-9.5c0.2-0.1,0.4-0.1,0.7-0.2c0.3,0,0.6-0.1,0.9-0.1c0.7,0,1.2,0.1,1.7,0.4
			c0.4,0.3,0.7,0.7,0.7,1.3v8h3.7v-8.1C150.9,178.9,150.4,178,149.4,177.4z M160,188.3h3.7v-11.4H160V188.3z M163.2,172.5
			c-0.4-0.3-0.9-0.5-1.4-0.5c-0.6,0-1,0.2-1.4,0.5c-0.4,0.3-0.6,0.7-0.6,1.1c0,0.4,0.2,0.8,0.6,1.1c0.4,0.3,0.9,0.5,1.4,0.5
			c0.6,0,1-0.2,1.4-0.5c0.4-0.3,0.6-0.7,0.6-1.1C163.8,173.2,163.6,172.8,163.2,172.5z M180.5,176.8c-0.2-0.1-0.5-0.1-0.9-0.1
			c-0.4,0-0.8-0.1-1.2-0.1c-0.9,0-1.7,0.1-2.4,0.4c-0.7,0.3-1.4,0.7-1.9,1.2c-0.5,0.5-0.9,1.2-1.2,1.9c-0.3,0.7-0.4,1.6-0.4,2.5
			c0,2,0.6,3.4,1.7,4.4c1.2,1,2.8,1.5,4.9,1.5c1.2,0,2.2-0.1,3-0.2c0.8-0.1,1.5-0.4,2.2-0.6v-16.1h-3.6V176.8z M180.5,186.3
			c-0.2,0.1-0.4,0.1-0.6,0.2c-0.3,0-0.5,0.1-0.8,0.1c-1.1,0-1.8-0.3-2.3-1c-0.5-0.7-0.7-1.7-0.7-3c0-0.6,0.1-1.1,0.2-1.6
			c0.1-0.5,0.3-0.9,0.6-1.3c0.3-0.4,0.6-0.6,1-0.8c0.4-0.2,0.9-0.3,1.4-0.3c0.5,0,0.9,0,1.3,0.1V186.3z M202.3,177.5
			c-0.5-0.3-1-0.6-1.7-0.7c-0.6-0.1-1.3-0.2-2.1-0.2c-1.2,0-2.2,0.1-3,0.3c-0.9,0.2-1.5,0.4-2,0.6l0.8,1.8c0.4-0.2,1-0.3,1.6-0.5
			c0.6-0.1,1.3-0.2,1.9-0.2c0.8,0,1.4,0.1,1.9,0.3c0.5,0.2,0.7,0.7,0.7,1.3v0.6c-1,0.1-2,0.2-3,0.4c-0.9,0.2-1.8,0.4-2.5,0.7
			c-0.7,0.3-1.3,0.7-1.7,1.2c-0.4,0.5-0.6,1.1-0.6,1.9c0,1.2,0.5,2.1,1.5,2.7c1,0.6,2.4,0.9,4.4,0.9c1.2,0,2.2-0.1,3.1-0.2
			c0.9-0.2,1.6-0.4,2.2-0.6v-7c0-0.8-0.1-1.4-0.4-1.9C203.2,178.3,202.8,177.8,202.3,177.5z M200.4,186.5c-0.2,0.1-0.4,0.2-0.7,0.2
			c-0.3,0.1-0.6,0.1-0.9,0.1c-0.8,0-1.5-0.2-1.9-0.5c-0.5-0.3-0.7-0.8-0.7-1.5c0-0.5,0.1-0.9,0.3-1.2c0.2-0.3,0.5-0.6,0.9-0.8
			c0.4-0.2,0.8-0.3,1.4-0.4c0.5-0.1,1.1-0.2,1.7-0.2V186.5z M220.6,176.8c-0.2-0.1-0.5-0.1-0.9-0.1c-0.4,0-0.8-0.1-1.2-0.1
			c-0.9,0-1.7,0.1-2.4,0.4c-0.7,0.3-1.4,0.7-1.9,1.2s-0.9,1.2-1.2,1.9c-0.3,0.7-0.4,1.6-0.4,2.5c0,2,0.6,3.4,1.7,4.4
			c1.2,1,2.8,1.5,4.9,1.5c1.2,0,2.2-0.1,3-0.2c0.8-0.1,1.5-0.4,2.2-0.6v-16.1h-3.6V176.8z M220.6,186.3c-0.2,0.1-0.4,0.1-0.6,0.2
			c-0.3,0-0.5,0.1-0.8,0.1c-1.1,0-1.8-0.3-2.3-1c-0.5-0.7-0.7-1.7-0.7-3c0-0.6,0.1-1.1,0.2-1.6c0.1-0.5,0.3-0.9,0.6-1.3
			c0.3-0.4,0.6-0.6,1-0.8c0.4-0.2,0.9-0.3,1.4-0.3c0.5,0,0.9,0,1.3,0.1V186.3z M243.3,178.2c-0.9-1.1-2.4-1.6-4.3-1.6
			c-1,0-1.8,0.1-2.6,0.4c-0.8,0.3-1.4,0.7-1.9,1.2c-0.5,0.5-0.9,1.1-1.2,1.9c-0.3,0.7-0.4,1.6-0.4,2.5c0,0.9,0.1,1.8,0.4,2.5
			c0.3,0.7,0.7,1.4,1.3,1.9c0.6,0.5,1.2,0.9,2.1,1.2c0.8,0.3,1.7,0.4,2.8,0.4c1.1,0,2.1-0.1,2.9-0.3c0.8-0.2,1.4-0.4,1.9-0.6l-0.8-2
			c-0.4,0.2-0.9,0.3-1.5,0.4c-0.6,0.1-1.4,0.2-2.2,0.2c-2,0-3.2-0.9-3.5-2.7l8.4-1C244.7,180.7,244.3,179.3,243.3,178.2z
			 M236.1,182.1c0-0.6,0-1.1,0.2-1.6c0.1-0.5,0.3-0.8,0.6-1.2c0.3-0.3,0.5-0.5,0.9-0.7c0.3-0.1,0.7-0.2,1.1-0.2
			c0.8,0,1.4,0.2,1.8,0.7c0.4,0.5,0.6,1.2,0.6,2.3L236.1,182.1z M273.4,186.1c-0.3,0.1-0.6,0.1-1,0.1c-0.8,0-1.5-0.3-2-1
			c-0.5-0.7-0.8-1.6-0.8-2.8c0-1.2,0.2-2.1,0.7-2.8c0.5-0.7,1.2-1,2.1-1c0.4,0,0.7,0.1,1,0.2c0.3,0.1,0.5,0.2,0.7,0.3l0.8-1.8
			c-0.3-0.2-0.8-0.4-1.3-0.6c-0.5-0.2-1.2-0.2-2-0.2c-0.8,0-1.5,0.1-2.2,0.4c-0.7,0.3-1.3,0.6-1.8,1.2c-0.5,0.5-0.9,1.1-1.2,1.9
			c-0.3,0.7-0.5,1.6-0.5,2.5c0,1,0.1,1.8,0.4,2.5c0.3,0.7,0.7,1.4,1.2,1.9c0.5,0.5,1.1,0.9,1.8,1.2c0.7,0.3,1.4,0.4,2.2,0.4
			c0.9,0,1.6-0.1,2.1-0.3c0.6-0.2,1-0.4,1.3-0.6l-0.8-1.9C274,185.9,273.7,186,273.4,186.1z M289,176.6c-1.3,0-2.4,0.1-3.3,0.2
			c-0.9,0.1-1.7,0.4-2.4,0.6v10.8h3.7v-9.4c0.4-0.2,0.8-0.2,1.4-0.2c0.6,0,1.1,0.1,1.6,0.3l0.7-2.2c-0.2,0-0.4,0-0.8-0.1
			C289.6,176.6,289.3,176.6,289,176.6z M298.7,188.3h3.7v-11.4h-3.7V188.3z M301.9,172.5c-0.4-0.3-0.9-0.5-1.4-0.5
			c-0.6,0-1,0.2-1.4,0.5c-0.4,0.3-0.6,0.7-0.6,1.1c0,0.4,0.2,0.8,0.6,1.1c0.4,0.3,0.9,0.5,1.4,0.5c0.6,0,1-0.2,1.4-0.5
			c0.4-0.3,0.6-0.7,0.6-1.1C302.5,173.2,302.3,172.8,301.9,172.5z M318.7,182.5c-0.4-0.2-0.8-0.4-1.3-0.6c-0.5-0.2-0.9-0.3-1.3-0.5
			c-0.4-0.2-0.7-0.4-1-0.6c-0.3-0.2-0.4-0.5-0.4-0.9c0-0.4,0.2-0.7,0.5-0.9c0.3-0.3,0.8-0.4,1.3-0.4c0.5,0,0.9,0.1,1.3,0.2
			c0.4,0.1,0.7,0.3,0.9,0.4l0.9-1.8c-0.5-0.3-1.1-0.5-1.7-0.6c-0.6-0.1-1.3-0.2-2.2-0.2c-0.7,0-1.3,0.1-1.9,0.3
			c-0.6,0.2-1.1,0.5-1.5,0.8c-0.4,0.3-0.7,0.7-0.9,1.1c-0.2,0.4-0.3,0.9-0.3,1.3c0,0.6,0.1,1.1,0.4,1.4c0.3,0.4,0.6,0.7,0.9,0.9
			c0.4,0.2,0.8,0.4,1.2,0.6c0.4,0.1,0.8,0.3,1.2,0.5c0.4,0.2,0.7,0.4,0.9,0.6c0.3,0.2,0.4,0.5,0.4,0.9c0,0.4-0.2,0.7-0.6,1
			c-0.4,0.3-0.8,0.4-1.4,0.4c-0.5,0-1-0.1-1.5-0.2c-0.5-0.1-0.9-0.3-1.1-0.5l-0.9,2c0.4,0.2,1,0.4,1.7,0.6c0.7,0.2,1.5,0.3,2.3,0.3
			c0.8,0,1.5-0.1,2.2-0.3c0.6-0.2,1.2-0.5,1.6-0.8c0.5-0.3,0.8-0.7,1-1.2c0.2-0.4,0.4-0.9,0.4-1.4c0-0.6-0.1-1.1-0.4-1.5
			C319.4,183,319.1,182.7,318.7,182.5z M333.3,173.6l-3.7,0.8v2.5h-1.7v2h1.7v6.4c0,0.4,0.1,0.9,0.2,1.3c0.2,0.4,0.4,0.7,0.7,1
			c0.3,0.3,0.8,0.5,1.3,0.7c0.5,0.2,1.1,0.3,1.8,0.3c0.4,0,0.8,0,1.2-0.1c0.3-0.1,0.6-0.1,0.7-0.2v-2c-0.2,0-0.3,0.1-0.4,0.1
			c-0.1,0-0.3,0-0.4,0c-0.5,0-0.8-0.1-1.1-0.4c-0.2-0.3-0.4-0.6-0.4-1v-6.1h2.3v-2h-2.3V173.6z M348.1,174.7c0.3,0,0.5,0,0.8,0.1
			c0.3,0.1,0.5,0.2,0.8,0.3c0.3,0.1,0.5,0.2,0.8,0.3c0.3,0.1,0.6,0.1,0.9,0.1c0.5,0,1-0.1,1.4-0.3c0.4-0.2,0.7-0.5,0.9-1l-0.9-1.3
			c-0.2,0.3-0.4,0.6-0.8,0.7c-0.3,0.1-0.7,0.2-1.1,0.2c-0.3,0-0.5,0-0.8-0.1c-0.2-0.1-0.5-0.2-0.7-0.3c-0.3-0.1-0.5-0.2-0.8-0.3
			c-0.3-0.1-0.6-0.1-0.9-0.1c-1.1,0-1.9,0.4-2.3,1.3l0.9,1.3C346.7,175,347.3,174.7,348.1,174.7z M353.1,177.5
			c-0.5-0.3-1-0.6-1.7-0.7c-0.6-0.1-1.3-0.2-2.1-0.2c-1.2,0-2.2,0.1-3,0.3c-0.9,0.2-1.5,0.4-2,0.6l0.8,1.8c0.4-0.2,1-0.3,1.6-0.5
			c0.6-0.1,1.3-0.2,1.9-0.2c0.8,0,1.4,0.1,1.9,0.3c0.5,0.2,0.7,0.7,0.7,1.3v0.6c-1,0.1-2,0.2-3,0.4c-0.9,0.2-1.8,0.4-2.5,0.7
			c-0.7,0.3-1.3,0.7-1.7,1.2c-0.4,0.5-0.6,1.1-0.6,1.9c0,1.2,0.5,2.1,1.5,2.7c1,0.6,2.4,0.9,4.4,0.9c1.2,0,2.2-0.1,3.1-0.2
			c0.9-0.2,1.6-0.4,2.2-0.6v-7c0-0.8-0.1-1.4-0.4-1.9C353.9,178.3,353.6,177.8,353.1,177.5z M351.2,186.5c-0.2,0.1-0.4,0.2-0.7,0.2
			c-0.3,0.1-0.6,0.1-0.9,0.1c-0.8,0-1.5-0.2-1.9-0.5c-0.5-0.3-0.7-0.8-0.7-1.5c0-0.5,0.1-0.9,0.3-1.2c0.2-0.3,0.5-0.6,0.9-0.8
			c0.4-0.2,0.8-0.3,1.4-0.4c0.5-0.1,1.1-0.2,1.7-0.2V186.5z"/>
	</g>
</g>
</svg>
