<?xml version="1.0" encoding="utf-8"?>
<!-- Generator: Adobe Illustrator 19.0.0, SVG Export Plug-In . SVG Version: 6.00 Build 0)  -->
<svg version="1.1" id="Camada_1" xmlns="http://www.w3.org/2000/svg" xmlns:xlink="http://www.w3.org/1999/xlink" x="0px" y="0px"
	 viewBox="0 0 612 792" style="enable-background:new 0 0 612 792;" xml:space="preserve">
<path d="M306.5,128C158.8,128,39,247.8,39,395.5S158.8,663,306.5,663C454.2,663,574,543.2,574,395.5S454.2,128,306.5,128z
	 M548.1,393c0.1,5.6-1.3,11.1-3.1,15.9c-2,4.8-4.4,8.7-6.2,11.1c-1.9,2.5-4,3.7-5.9,3.7c-1.9,0-3.4-1.2-4.4-3.5
	c-0.1-0.2-0.2-0.5-0.3-0.7c1.8-1.3,6.5-4.9,9.5-10.3c0,0-1.7,1.5-3.8,3c-2.1,1.6-4.6,3.2-6.2,3.7c-0.1-2.1,0.3-4.4,1-6.7
	c0.7-2.2,1.6-4.4,2.9-6.2c2.9-4.1,5.8-4.9,8.6-5.5C542.8,396.9,545.6,396.5,548.1,393z M545.3,361c0.5,2.8,0.4,5.6,0.2,8.4
	c-0.3,2.8-0.7,5.4-1.4,7.9c-0.3,1.2-0.7,2.4-1.1,3.5c-0.4,1.1-0.9,2.2-1.3,3.2c-0.9,2-1.8,3.6-2.6,4.9c-3.2,5.2-7.7,5.5-10,1.1
	c-0.1-0.2-0.2-0.5-0.3-0.7c1.6-1.4,6-5.4,8.2-11c0,0-0.4,0.4-1,1c-0.6,0.6-1.5,1.5-2.4,2.3c-1.9,1.7-4.2,3.6-5.7,4.2
	c-0.3-2.1-0.1-4.4,0.3-6.6c0.4-2.2,1.1-4.5,2.1-6.4c2.4-4.3,5.1-5.5,7.8-6.4C540.7,365.5,543.4,364.8,545.3,361z M538.6,330.5
	c1.7,5.3,1.5,10.9,0.9,15.8c-0.2,1.2-0.3,2.4-0.6,3.5c-0.3,1.1-0.6,2.2-0.9,3.2c-0.6,2-1.3,3.7-1.9,5.1c-2.5,5.4-6.8,6.2-9.5,2.2
	c-0.1-0.2-0.3-0.4-0.4-0.6c0.7-0.8,2-2.2,3.3-4.3c1.3-2,2.6-4.6,3.3-7.4c0,0-1.2,1.7-2.8,3.6c-1.6,1.9-3.6,4-5,4.8
	c-0.9-4-0.9-8.9,0.8-12.8c1.8-4.5,4.3-5.9,6.7-7.1C534.8,335.4,537.2,334.4,538.6,330.5z M523.2,308.5c2.2-1.4,4.4-2.7,5.3-6.6
	c1,2.5,1.8,5,2.2,7.6c0.4,2.6,0.5,5.1,0.5,7.6c0,2.4-0.2,4.7-0.5,6.6c-0.4,2-0.8,3.8-1.3,5.1c-1.8,5.5-5.8,6.8-8.9,3.3
	c-0.2-0.2-0.3-0.4-0.4-0.6c0.6-0.8,1.7-2.4,2.7-4.5c1-2.1,1.8-4.7,2.2-7.5c0,0-1,1.8-2.3,3.8c-1.3,2-2.9,4.2-4.2,5.2
	c-1.5-3.7-2-8.4-0.9-12.5c0.7-2.3,1.4-3.8,2.4-5C521,310,522.1,309.3,523.2,308.5z M511.1,282.7c2-1.6,4-3.1,4.4-6.9
	c1.2,2.3,2.2,4.7,2.9,7.1c0.4,1.2,0.7,2.4,0.9,3.6c0.2,1.2,0.4,2.4,0.5,3.6c0.4,4.7,0.3,8.7-0.3,11.5c-1.1,5.5-4.9,7.3-8.3,4.2
	c-0.2-0.2-0.3-0.3-0.5-0.5c1-1.8,3.2-6.5,3.2-12.1c0,0-0.8,1.9-1.8,4c-1,2.1-2.3,4.4-3.4,5.4c-1-1.7-1.7-3.7-2.1-5.7
	c-0.4-2.1-0.4-4.2-0.2-6.2C507.2,286.2,509.1,284.3,511.1,282.7z M496.7,259.2c1.7-1.8,3.6-3.4,3.6-7.1c1.5,2,2.6,4.2,3.5,6.5
	c0.9,2.2,1.6,4.5,2.2,6.7c0.9,4.4,1.1,8.4,0.9,11.1c-0.1,2.7-1.2,4.6-2.5,5.4c-1.4,0.9-3.1,0.7-5-0.5c-0.2-0.1-0.4-0.3-0.5-0.4
	c0.7-1.8,2.4-6.6,1.9-12c0,0-0.5,1.9-1.3,4c-0.8,2.1-1.8,4.5-2.7,5.6c-1.1-1.5-2-3.4-2.5-5.3c-0.6-1.9-1-3.9-0.9-5.9
	C493.3,263,495,261,496.7,259.2z M480.6,238.1c1.5-1.9,3.1-3.5,2.8-7.1c1.6,1.8,2.9,3.7,4,5.8c1.1,2.1,1.9,4.2,2.6,6.2
	c1.4,4.1,1.9,8,2,10.6c0.1,5.2-3,7.6-6.8,5.5c-0.2-0.1-0.4-0.2-0.6-0.3c0.3-0.9,0.7-2.5,0.9-4.6c0.1-1,0.2-2.2,0.2-3.4
	c-0.1-1.2-0.2-2.4-0.5-3.7c0,0-0.3,1.8-0.8,3.9c-0.5,2.1-1.3,4.5-2.1,5.7c-0.6-0.7-1.1-1.5-1.6-2.3c-0.5-0.8-1-1.7-1.4-2.6
	c-0.8-1.8-1.3-3.7-1.4-5.6C477.7,242,479,240,480.6,238.1z M463.3,219.4c1.3-1.9,2.7-3.6,2.2-7.1c6.7,6.4,9.6,16,10.2,21
	c0.6,5-2.2,7.6-6.1,5.9c-0.2-0.1-0.4-0.2-0.6-0.3c0.4-1.8,1-6.5-0.4-11.3c0,0-0.2,1.8-0.5,3.9c-0.3,2.1-0.9,4.4-1.5,5.6
	c-2.6-2.4-4.6-6.1-5.2-9.7C460.7,223.4,461.9,221.3,463.3,219.4z M445.1,202.7c1.1-1.9,2.4-3.7,1.6-6.9c6.9,5.6,10.5,14.6,11.4,19.3
	c1,4.7-1.5,7.4-5.4,6.1c-0.2-0.1-0.4-0.1-0.6-0.2c0.2-1.7,0.5-6.4-1.3-10.8c0,0,0,0.4,0,1.1c0,0.7-0.1,1.6-0.2,2.6
	c-0.2,2-0.5,4.4-1.1,5.5c-2.6-2.1-5-5.5-5.8-8.9C443,206.7,444,204.6,445.1,202.7z M426.5,188c1-1.9,2.1-3.7,1.1-6.8
	c1.8,1.2,3.3,2.7,4.7,4.2c1.4,1.6,2.6,3.2,3.6,4.8c2,3.3,3.4,6.4,4,8.7c1.2,4.5-1,7.3-4.8,6.3c-0.2,0-0.4-0.1-0.6-0.2
	c0.1-1.7,0-6.1-2-10.3c0,0,0.1,1.7,0.1,3.6c0,2-0.2,4.2-0.6,5.4c-2.8-1.8-5.2-5-6.2-8.1C424.7,192.1,425.5,190,426.5,188z
	 M408.2,168.6c7.2,4.3,11.7,12,13.1,16.2c1.5,4.2-0.5,7-4.2,6.4c-0.2,0-0.4-0.1-0.6-0.1c0-1.6-0.4-5.9-2.6-9.8c0,0,0.2,1.6,0.3,3.5
	c0.1,1.9,0.1,4-0.2,5.2c-2.8-1.5-5.4-4.4-6.6-7.4C404.7,175.8,410.4,174.3,408.2,168.6z M388.3,157.7c7.7,3.7,12.4,10.8,14.1,14.8
	c1.7,4,0,6.8-3.7,6.4c-0.2,0-0.4-0.1-0.6-0.1c-0.2-1.5-0.7-5.7-3.2-9.2c0,0,0.3,1.5,0.5,3.3c0.2,1.8,0.4,3.9,0.1,5
	c-2.8-1.3-5.5-3.9-6.9-6.7c-1.6-3.2-1.1-5.2-0.4-7.1C389,162.2,389.8,160.4,388.3,157.7z M376.3,186.4c1.2-1.6,2.6-3.2,6-3.6
	c3-0.3,6.4,0.7,8.8,2.6c-0.9,0.8-2.8,1.6-4.4,2.3c-1.6,0.7-3,1.2-3,1.2c4,0.2,7.8-1.1,9.3-1.6c0.1,0.1,0.2,0.3,0.3,0.5
	c1.8,3.1-0.1,5.8-4.1,6.1c-4.1,0.3-11.9-0.3-17.6-3.6C374,189.6,375.1,188,376.3,186.4z M410.5,199.3c0.1,0.2,0.2,0.3,0.3,0.5
	c1.7,3.4-0.5,6-4.8,6c-4.3,0-12.2-1.1-18.2-5.3c5.7-0.6,5-6.3,12-6.6c3.2-0.1,6.6,1.3,9,3.4c-1,0.7-3,1.5-4.8,2
	c-1.8,0.6-3.3,1-3.3,1C404.9,200.8,409,199.7,410.5,199.3z M427.8,213c0.1,0.2,0.2,0.4,0.2,0.5c1.5,3.6-1,6.1-5.4,5.8
	c-2.2-0.2-5.4-0.6-8.7-1.7c-1.6-0.6-3.4-1.2-5-2c-1.7-0.8-3.3-1.8-4.8-3c3-0.1,4.4-1.6,6-3.1c1.6-1.5,3.3-2.9,7-2.8
	c3.3,0.1,6.8,1.8,9,4.1c-1.1,0.7-3.2,1.3-5.1,1.7c-1.9,0.5-3.4,0.8-3.4,0.8C421.9,214.3,426.3,213.4,427.8,213z M444.7,228.6
	c0.1,0.2,0.2,0.4,0.2,0.6c1.3,3.8-1.5,6.1-6,5.5c-4.5-0.7-12.8-3.1-18.5-8.3c3.1,0.1,4.7-1.4,6.4-2.8c1.8-1.4,3.7-2.8,7.4-2.3
	c3.3,0.4,6.9,2.3,9,4.9c-1.2,0.6-3.4,1-5.4,1.4c-1,0.2-1.9,0.3-2.5,0.4c-0.7,0.1-1.1,0.2-1.1,0.2C438.5,229.3,443,228.8,444.7,228.6
	z M460.7,245.9c0.1,0.2,0.1,0.4,0.2,0.6c0.9,4-2.2,6.2-6.7,5.1c-4.6-1.1-12.9-4.1-18.3-10c3.1,0.3,4.9-1,6.8-2.3
	c1.9-1.3,4-2.5,7.9-1.8c3.5,0.6,6.8,3,8.8,5.8c-1.3,0.5-3.6,0.8-5.7,1c-2.1,0.2-3.8,0.2-3.8,0.2C454.2,246.2,459,246,460.7,245.9z
	 M467.9,264c1.1,0.3,2.1,0.6,3.1,0.7c2,0.4,3.6,0.5,4.6,0.5c0,0.2,0.1,0.4,0.1,0.6c0.6,4.1-2.8,6.1-7.4,4.6
	c-2.3-0.7-5.4-2.2-8.8-4.1c-1.6-1-3.3-2.1-4.8-3.4c-1.5-1.3-3.1-2.7-4.3-4.3c3.2,0.6,5.1-0.6,7.2-1.8c2.1-1.1,4.4-2.3,8.3-1.1
	c1.7,0.5,3.4,1.4,4.9,2.6c0.7,0.6,1.4,1.2,2.1,1.9c0.6,0.7,1.1,1.5,1.6,2.2c-1.3,0.4-3.7,0.4-5.9,0.4c-2.1,0-3.9-0.1-3.9-0.1
	C465.7,263.3,466.9,263.7,467.9,264z M488.9,286.5c0,0.2,0.1,0.4,0.1,0.6c0.1,2.1-0.9,3.6-2.3,4.3c-1.5,0.7-3.5,0.5-5.8-0.4
	c-2.3-1-5.5-2.7-8.5-5.1c-1.6-1.1-3.2-2.4-4.6-3.9c-1.5-1.4-2.7-3.1-3.9-4.8c3.3,0.9,5.3-0.1,7.6-1.1c2.3-1,4.7-1.9,8.6-0.3
	c1.7,0.7,3.4,1.8,4.8,3.1c1.4,1.4,2.5,3,3.2,4.6c-1.4,0.3-3.9,0.1-6.1-0.2c-2.2-0.2-4-0.5-4-0.5C482,285.4,487.1,286.2,488.9,286.5z
	 M500.2,309.7c0,0.2,0,0.5,0,0.7c-0.4,4.4-4.4,5.6-8.7,3c-2.2-1.3-5.3-3.4-8.2-6.1c-0.7-0.7-1.4-1.4-2.1-2.2
	c-0.7-0.7-1.4-1.5-2.1-2.3c-1.3-1.6-2.5-3.4-3.5-5.3c3.1,1.3,5.4,0.4,7.9-0.3c2.4-0.7,5-1.4,8.9,0.6c1.8,0.9,3.2,2.2,4.5,3.8
	c1.3,1.6,2.3,3.3,2.9,5.1c-1.5,0.1-4.1-0.4-6.3-0.9c-2.2-0.5-4-1-4-1C493.2,307.8,498.4,309.2,500.2,309.7z M504.3,332.6
	c1.9,1.1,3.6,1.8,4.5,2.2c0,0.2-0.1,0.5-0.1,0.7c-0.9,4.4-5.2,5.1-9.3,1.9c-1-0.8-2.2-1.8-3.5-3.1c-1.3-1.2-2.7-2.6-4.1-4.1
	c-1.3-1.5-2.6-3.2-3.7-5.1c-1.2-1.8-2.2-3.7-3-5.7c3.1,1.7,5.5,1.1,8.1,0.6c1.3-0.2,2.6-0.4,4.1-0.3c1.5,0.2,3.1,0.7,4.9,1.9
	c3.2,2.2,5.7,6.2,6.4,9.9c-1.5-0.1-4.1-0.9-6.3-1.7c-2.2-0.8-4-1.5-4-1.5C500.1,330.2,502.4,331.6,504.3,332.6z M515.6,418.6
	c-0.1,0.2-0.2,0.4-0.3,0.7c-1.2,2.1-3.1,2.9-4.9,2.6c-1.8-0.3-3.7-1.7-5.3-4.2c-1.6-2.5-3.5-6.2-5-10.5c-1.6-4.3-2.7-9.2-2.7-14
	c2.5,3,5.1,3.4,7.9,4c2.8,0.6,5.6,1.4,8.4,5.4c1.2,1.8,2.2,3.9,2.6,6.1c0.4,2.2,0.5,4.5,0.2,6.5c-1.5-0.7-3.8-2.5-5.8-4.2
	c-1.9-1.7-3.5-3.1-3.5-3.1C509.7,413.1,514,417.1,515.6,418.6z M508.4,443.7c1.4,2,2.7,3.6,3.5,4.4c-0.1,0.2-0.3,0.4-0.4,0.6
	c-3.1,3.9-7.6,2.5-10.2-2.8c-1.2-2.6-3-6.6-4.1-11c-0.3-1.1-0.5-2.3-0.7-3.4c-0.2-1.2-0.5-2.4-0.6-3.6c-0.3-2.4-0.4-4.9-0.1-7.3
	c2.2,3.3,4.9,3.9,7.7,4.8c2.8,0.9,5.7,1.9,8.2,6.3c2.2,3.8,2.6,9,1.7,13.1c-1.5-0.9-3.7-3-5.5-4.9c-1.8-1.9-3.3-3.5-3.3-3.5
	C505.5,439.2,507,441.7,508.4,443.7z M504.5,477.5c-0.2,0.2-0.4,0.4-0.5,0.6c-3.7,3.5-8.1,1.3-10-4.3c-1-2.8-2.2-7-2.8-11.6
	c-0.4-2.3-0.6-4.7-0.6-7.1c0-1.2,0.1-2.4,0.2-3.6c0.1-1.2,0.2-2.4,0.5-3.6c2,3.5,4.7,4.5,7.5,5.7c2.7,1.2,5.5,2.6,7.5,7.3
	c0.9,2.1,1.4,4.5,1.3,6.8c-0.1,2.3-0.5,4.7-1.3,6.6c-1.4-1.1-3.3-3.5-4.9-5.7c-1.6-2.1-2.9-3.9-2.9-3.9
	C499.7,470.4,503.2,475.6,504.5,477.5z M492.3,505.9c-0.2,0.2-0.4,0.3-0.6,0.5c-4.3,2.9-8.3-0.2-9.3-6.1c-0.2-1.5-0.5-3.3-0.7-5.4
	c-0.2-2-0.3-4.3-0.2-6.5c-0.1-4.7,0.6-9.5,2.1-14.1c1.5,3.8,4.1,5.2,6.7,6.8c1.3,0.8,2.6,1.7,3.8,3c1.1,1.3,2.1,3,2.7,5.5
	c0.5,2.2,0.7,4.7,0.3,7.1c-0.4,2.3-1.3,4.6-2.4,6.5c-1.2-1.3-2.8-4.1-4-6.5c-1.3-2.4-2.3-4.4-2.3-4.4
	C488.8,498,491.4,503.8,492.3,505.9z M474.8,532.1c-0.2,0.1-0.5,0.2-0.7,0.4c-2.4,1.1-4.5,0.5-5.9-0.9c-1.4-1.5-2.2-3.9-2.2-7.1
	c0-1.6,0.1-3.4,0.4-5.5c0.2-2,0.5-4.3,0.9-6.6c0.2-1.1,0.5-2.3,0.8-3.4c0.3-1.2,0.6-2.3,0.9-3.5c0.4-1.1,0.8-2.3,1.3-3.3
	c0.5-1.1,1-2.2,1.6-3.2c0.5,2,1.3,3.5,2.3,4.7c1,1.2,2.1,2.2,3.3,3.3c2.3,2.1,4.6,4.4,5,9.8c0.2,2.4-0.3,4.8-1.1,7.1
	c-0.8,2.3-2,4.5-3.6,6c-1-1.6-1.9-4.6-2.7-7.3c-0.8-2.7-1.5-4.9-1.5-4.9C473,523.5,474.2,529.7,474.8,532.1z M516.5,389.5
	c-0.1,0.2-0.2,0.4-0.3,0.7c-2,4.3-6.5,3.8-10-0.6c-0.9-1.1-1.9-2.5-2.9-4.1c-0.5-0.8-1-1.7-1.5-2.5c-0.5-0.9-0.9-1.8-1.5-2.8
	c-1-1.9-1.9-4-2.6-6.1c-0.7-2.1-1.1-4.4-1.5-6.6c2.9,2.5,5.4,2.6,8.2,2.8c2.7,0.2,5.6,0.6,8.7,4.2c1.4,1.6,2.5,3.5,3.2,5.6
	c0.7,2.1,0.9,4.2,0.8,6.2c-1.5-0.5-3.9-2.1-5.9-3.5c-2-1.4-3.7-2.6-3.7-2.6C510.3,384.7,514.8,388.3,516.5,389.5z M510,358.7
	c1.8,1.3,3.4,2.3,4.3,2.8c-0.1,0.2-0.1,0.5-0.2,0.7c-1.5,4.4-5.9,4.5-9.8,0.7c-1-0.9-2.1-2.2-3.2-3.6c-0.6-0.7-1.1-1.5-1.7-2.3
	c-0.6-0.8-1.2-1.6-1.8-2.5c-2.4-3.5-4.3-7.5-5.5-11.8c3,2.1,5.6,1.8,8.3,1.6c2.7-0.1,5.5-0.1,8.9,2.9c3,2.7,5.2,7,5.3,10.9
	c-1.5-0.3-4-1.5-6.1-2.6c-2.2-1.1-4-2-4-2C506.3,355.6,508.2,357.4,510,358.7z M452,554.9c-0.3,0.1-0.5,0.2-0.8,0.2
	c-5.2,1.1-7.9-3.4-6.6-9.7c0.3-1.6,0.9-3.4,1.5-5.5c0.6-2.1,1.4-4.3,2.3-6.5c0.9-2.2,1.9-4.5,3.1-6.6c1.2-2.1,2.5-4.2,4.2-6
	c0.1,4.2,2,6.5,4,9.1c1.9,2.6,3.8,5.5,3.1,10.8c-0.2,1.2-0.5,2.4-0.9,3.6c-0.2,0.6-0.4,1.2-0.7,1.7c-0.3,0.6-0.6,1.1-0.9,1.6
	c-1.3,2.1-3,4-4.8,5.4c-0.6-1.8-1-5.1-1.3-8c-0.3-2.9-0.5-5.2-0.5-5.2c-1,2.9-1.4,6-1.6,8.8C451.9,551.4,451.9,553.7,452,554.9z
	 M425.9,567.6c-0.7,2.7-1.1,5-1.2,6.3c-0.3,0-0.6,0.1-0.8,0.1c-5.5,0.3-7.5-4.7-5-10.9c1.3-3,3.4-7.4,6.1-11.5
	c1.3-2.1,2.9-4.2,4.6-6.2c1.6-2,3.5-3.8,5.5-5.4c-0.8,4.2,0.7,7,2.1,10c0.7,1.5,1.4,3,1.7,4.9c0.3,1.8,0.2,4-0.7,6.6
	c-0.8,2.3-2.1,4.6-3.8,6.6c-1.7,1.9-3.8,3.5-5.8,4.6c-0.3-1.9-0.1-5.4,0.1-8.3c0.2-2.9,0.5-5.4,0.5-5.4
	C427.5,561.8,426.5,564.9,425.9,567.6z M359.6,285.1c5.6-8.5,18.3-21.8,20-26.9c3.1-9.2-5-17.4-5.2-26.2
	c-0.2-6.5,5.5-13.5,13.6-16.5c-6.1,3.6-8.1,8.4-6.4,13c2.4,6.4,11.8,10.5,15.3,16.4c2,3.2,2.8,6.8-0.2,10.6c4.8-3.4,5.4-10,2.6-14.1
	c4.2,1.8,7,5.7,7.9,9.9c1.3,6.5-4.8,13.6,0.4,21.2c6.5,9.4,19.1,18.4,16.2,33.2c-2.8,14.4-16.5,21-26.1,23.8
	c3.5-1.9,6.7-4.1,8.8-6.6c6.2-6.9,6.7-18.2-2-23.1c3.9,2.9,3.2,9.3-0.9,10.6c-3.7,1.1-5.6-2.8-4-6c1.9-3.8,5.3-7.2,5.3-11.6
	c0.3-3.8-2.2-7.8-5-9.8c1.4,6.6-3.1,11.6-7.1,14.2h-0.3c2.8-2,4.7-5.3,5.6-8.4c3.1-10.5-4.7-23.4-14-27.2c4.5,4,2.8,11,1.2,15.6
	c-4,11-15.9,17.2-16.7,31.4c-0.4,7.5,4.2,14.2,10.1,18.6c-10.5-3.6-18.6-9.2-22.2-17.3C353,301.7,353.9,293.7,359.6,285.1z
	 M393.9,589.2c-0.3,0-0.6,0-0.9,0c-5.7-0.4-7.1-5.7-3.7-11.6c0.9-1.5,2-3.3,3.4-5.2c1.3-1.9,3-3.9,4.7-5.9c1.7-2,3.7-3.9,5.8-5.7
	c2-1.8,4.3-3.4,6.7-4.7c-1.5,4.3-0.5,7.3,0.4,10.5c0.9,3.2,1.8,6.7-0.9,11.9c-1.2,2.3-2.9,4.4-4.9,6.1c-2,1.7-4.3,3.1-6.6,3.9
	c-0.1-2,0.6-5.4,1.3-8.4c0.3-1.5,0.7-2.8,0.9-3.8c0.2-1,0.4-1.6,0.4-1.6C396.5,579.9,394.6,586.7,393.9,589.2z M297.1,170.9
	c1.8-2.7,5.8-6.9,6.3-8.5c1-2.9-1.6-5.5-1.6-8.3c-0.1-2.1,1.8-4.3,4.3-5.2c-1.9,1.1-2.6,2.7-2,4.1c0.8,2,3.7,3.3,4.9,5.2
	c0.6,1,0.9,2.1-0.1,3.4c1.5-1.1,1.7-3.2,0.8-4.5c1.3,0.6,2.2,1.8,2.5,3.1c0.4,2.1-1.5,4.3,0.1,6.7c2.1,3,6,5.8,5.1,10.5
	c-0.9,4.5-5.2,6.6-8.3,7.5c1.1-0.6,2.1-1.3,2.8-2.1c2-2.2,2.1-5.8-0.6-7.3c1.2,0.9,1,3-0.3,3.3c-1.2,0.4-1.8-0.9-1.3-1.9
	c0.6-1.2,1.7-2.3,1.7-3.7c0.1-1.2-0.7-2.5-1.6-3.1c0.4,2.1-1,3.7-2.3,4.5h-0.1c0.9-0.6,1.5-1.7,1.8-2.7c1-3.3-1.5-7.4-4.4-8.6
	c1.4,1.3,0.9,3.5,0.4,4.9c-1.3,3.5-5,5.4-5.3,9.9c-0.1,2.4,1.3,4.5,3.2,5.9c-3.3-1.1-5.9-2.9-7-5.5
	C295,176.2,295.3,173.7,297.1,170.9z M277.8,327.6c4.6-1.1,9.2-1.7,13.9-1.7c2,0,3.6,0,4.8,0c9.7,0,17.4,2.8,23.2,8.4
	c5.8,5.6,8.7,12.6,8.7,21c0,1.5-0.5,4.9-1.5,10.2c-1,5.3-3.2,11.7-6.7,19.1c-3.5,7.4-9.4,17.5-17.8,30.1l-4,6l-19.2,26.6l-7.8,11.9
	c-4.7,7.9-7.8,13.8-9.2,17.7c-1.5,3.8-2.2,7.9-2.2,12.1c0,4,1.2,7.2,3.7,9.7c2.5,2.5,5.8,3.7,10,3.7c1.5,0,5-0.6,10.6-1.9
	c5.6-1.2,15-7.3,28.2-18.2c13.2-10.9,26-25.2,38.2-42.9c12.2-17.7,21.1-33.2,26.5-46.4c5.4-13.2,8.2-23.8,8.2-31.7
	c0-10.4-4.1-15.6-12.2-15.6c-1.5,0-2.6,0.1-3.3,0.4l-1.1,0.4c-0.7,0-1.4-0.2-1.9-0.7c-0.5-0.5-0.4-2.1,0.4-4.8
	c0.5-2.5,1.5-4.6,3-6.5c1.5-1.9,2.8-3.2,4.1-4.1c1.2-0.9,2.8-1.6,4.8-2.2c2-0.6,4.1-0.9,6.3-0.9c4.9,0,9,1.7,12.1,5
	c3.1,3.3,4.6,7.7,4.6,13.2c0,4.7-0.6,9.5-1.9,14.5c-1.2,5-4.8,14.2-10.6,27.7c-5.8,13.5-14.8,28.4-26.9,44.7
	c-12.1,16.3-22.2,28.7-30.1,37.1c-7.9,8.4-17.1,16.9-27.7,25.4c-10.5,8.5-18.7,14-24.5,16.5c-5.8,2.5-11,4.5-15.6,5.9
	c-4.6,1.5-9.1,2.2-13.5,2.2c-1.2,0-2.6-0.1-4.1-0.4c-1.5-0.2-3.7-0.6-6.7-1.1c-3-0.5-6.1-2.9-9.5-7.2c-3.3-4.3-5-9.2-5-14.7
	c0-1.2,0.3-3.5,0.9-6.9c0.6-3.3,1.7-7.1,3.3-11.3c1.6-4.2,3.8-9.2,6.5-14.8l41.9-63.2l9.7-15.5c4.5-7.5,7.6-13,9.5-16.6
	c1.9-3.6,3.4-7.3,4.5-11c1.1-3.7,1.7-7,1.7-9.7c0-10.2-5-15.3-14.8-15.3c-10.9,0-22.2,3-33.8,9.1c-11.6,6.1-22.2,14.7-31.7,25.7
	c-9.5,11-16.4,21.3-20.6,30.7c-4.2,9.4-6.3,16.9-6.3,22.3c0,14.2,6.6,21.2,19.7,21.2c2,0,3.8-0.2,5.4-0.6c1.6-0.4,3.3-0.9,5.2-1.5
	c1.9-0.6,3.8-1.4,5.8-2.4l10-7.4l4.1-4.1c0.2-0.2,0.5-0.4,0.7-0.4l0.7,0.4c-0.2,2-0.9,3.5-1.9,4.5l-6.7,8.2c-2,2.2-3.5,3.9-4.6,5
	c-1.1,1.1-4.7,4-10.8,8.5c-6.1,4.6-13.2,6.9-21.3,6.9c-11.9,0-19.8-6.5-23.8-19.4c-1-4-1.5-7.1-1.5-9.3c0-9.7,4-21.5,12.1-35.4
	c8-13.9,17.6-25.6,28.6-35c11-9.4,22.5-16.7,34.3-21.8C265,331.8,273.2,328.7,277.8,327.6z M380,580.2c0.6,3.4,1,7-2.3,12
	c-1.4,2.2-3.4,4.2-5.7,5.8c-2.2,1.6-4.7,2.7-7.1,3.4c0.1-2,1.1-5.5,2.1-8.5c1-3,1.9-5.4,1.9-5.4c-4.7,5.1-7.3,11.9-8.2,14.4
	c-0.3,0-0.6,0-0.9-0.1c-5.8-0.8-6.9-6.3-2.8-12.2c2.1-2.9,5.4-6.9,9.5-10.7c4.1-3.8,9-7.4,14.3-9.5
	C378.7,573.6,379.4,576.8,380,580.2z M347.1,591.7c0.3,3.5,0.4,7.2-3.2,12.2c-1.6,2.2-3.8,4.1-6.2,5.6c-1.2,0.7-2.6,1.5-3.9,2.1
	c-0.7,0.3-1.3,0.6-2,0.8c-0.7,0.3-1.3,0.5-2,0.7c0-1,0.3-2.5,0.8-4.1c0.5-1.5,1.2-3.2,1.9-4.8c0.3-0.8,0.7-1.5,1-2.2
	c0.3-0.7,0.7-1.3,0.9-1.8c0.4-1,0.7-1.6,0.7-1.6c-1.2,1.2-2.7,2.8-3.9,4.2c-1.2,1.5-2.2,3-3,4.4c-1.6,2.9-2.5,5.3-2.9,6.7
	c-0.3,0-0.7,0.1-1,0.1c-1.6,0-3-0.3-4-0.9c-1-0.6-1.8-1.4-2.2-2.5c-0.8-2.2-0.2-5.3,2.5-8.9c1.3-1.7,3.1-3.8,5.4-6
	c1.1-1,2.4-2.1,3.7-3.2l1-0.8l0.5-0.4l0.4-0.4c0.5-0.5,1.1-0.9,1.7-1.4c4.6-3.7,10-7.1,15.7-9C346.3,584.8,346.8,588.1,347.1,591.7z
	 M278.5,600.2c0.2,0.5,0.5,1.1,0.9,1.8c0.3,0.7,0.7,1.4,1,2.2c0.7,1.6,1.4,3.2,1.9,4.8c0.5,1.6,0.8,3,0.8,4.1
	c-0.7-0.2-1.3-0.5-2-0.7c-0.7-0.2-1.3-0.5-2-0.8c-1.3-0.6-2.7-1.4-3.9-2.1c-2.4-1.5-4.5-3.4-6.2-5.6c-3.7-4.9-3.5-8.7-3.2-12.2
	c0.3-3.5,0.8-6.8-1.9-11c5.8,1.9,11.2,5.3,15.7,9c0.6,0.5,1.1,0.9,1.7,1.4l0.4,0.4l0.5,0.4l1,0.8c1.3,1.1,2.6,2.1,3.7,3.2
	c2.3,2.2,4.1,4.2,5.4,6c2.6,3.6,3.3,6.7,2.5,8.9c-0.4,1.1-1.2,1.9-2.2,2.5c-1.1,0.6-2.4,0.9-4,0.9c-0.3,0-0.7,0-1-0.1
	c-0.4-1.4-1.3-3.8-2.9-6.7c-0.8-1.5-1.8-2.9-3-4.4c-1.2-1.5-2.8-3-3.9-4.2C277.8,598.5,278.1,599.2,278.5,600.2z M245.9,592.9
	c1,3,2,6.4,2.1,8.5c-2.4-0.6-4.9-1.8-7.1-3.4c-2.2-1.6-4.2-3.6-5.7-5.8c-3.2-5-2.8-8.6-2.3-12c0.6-3.4,1.3-6.6-0.9-10.8
	c5.3,2.2,10.2,5.8,14.3,9.5c4.1,3.8,7.5,7.8,9.5,10.7c4.1,5.9,3,11.4-2.8,12.2c-0.3,0-0.6,0.1-0.9,0.1c-0.9-2.5-3.5-9.3-8.2-14.4
	C244,587.5,244.9,590,245.9,592.9z M212.9,576.2c0.3,1,0.6,2.3,0.9,3.8c0.7,3,1.4,6.4,1.3,8.4c-2.3-0.8-4.6-2.2-6.6-3.9
	c-2-1.8-3.7-3.9-4.9-6.1c-2.6-5.2-1.8-8.7-0.9-11.9c1-3.3,2-6.2,0.4-10.5c2.4,1.3,4.6,2.9,6.7,4.7c2.1,1.8,4,3.7,5.8,5.7
	c1.7,2,3.4,4,4.7,5.9c1.3,1.9,2.5,3.7,3.4,5.2c3.5,6,2,11.3-3.7,11.6c-0.3,0-0.6,0-0.9,0c-0.7-2.5-2.6-9.3-6.6-14.6
	C212.5,574.6,212.6,575.2,212.9,576.2z M184.4,564.4c0.2,2.9,0.5,6.4,0.1,8.3c-2.1-1.1-4.1-2.7-5.8-4.6c-1.7-1.9-3-4.2-3.8-6.6
	c-0.9-2.6-1-4.8-0.7-6.6c0.3-1.8,1-3.4,1.7-4.9c1.4-3,2.9-5.7,2.1-10c2,1.5,3.9,3.3,5.5,5.4c1.7,1.9,3.2,4,4.6,6.2
	c2.8,4.2,4.8,8.5,6.1,11.5c2.5,6.1,0.5,11.1-5,10.9c-0.3,0-0.6,0-0.8-0.1c-0.2-1.3-0.6-3.5-1.2-6.3c-0.7-2.7-1.7-5.8-3.2-8.6
	C183.9,559,184.2,561.4,184.4,564.4z M160.9,548.8c-0.2-2.7-0.6-5.9-1.6-8.8c0,0-0.2,2.4-0.5,5.2c-0.3,2.8-0.7,6.2-1.3,8
	c-1.8-1.3-3.5-3.2-4.8-5.4c-0.3-0.5-0.6-1.1-0.9-1.6c-0.3-0.6-0.5-1.2-0.7-1.7c-0.4-1.2-0.7-2.4-0.9-3.6c-0.8-5.3,1.2-8.2,3.1-10.8
	c1.9-2.6,3.9-5,4-9.1c1.7,1.8,2.9,3.9,4.2,6c1.3,2.1,2.3,4.4,3.1,6.6c1,2.2,1.7,4.4,2.3,6.5c0.6,2.1,1.2,3.9,1.5,5.5
	c1.3,6.2-1.3,10.8-6.6,9.7c-0.3-0.1-0.5-0.1-0.8-0.2C161.1,553.7,161.1,551.4,160.9,548.8z M139.4,517.5c0,0-0.6,2.2-1.5,4.9
	c-0.9,2.7-1.8,5.8-2.7,7.3c-1.6-1.6-2.8-3.7-3.6-6c-0.8-2.3-1.3-4.7-1.1-7.1c0.4-5.3,2.7-7.6,5-9.8c1.2-1.1,2.3-2,3.3-3.3
	c1-1.2,1.8-2.7,2.3-4.7c0.6,1,1.1,2.2,1.6,3.2c0.5,1.1,0.9,2.2,1.3,3.3c0.4,1.1,0.7,2.3,0.9,3.5c0.3,1.2,0.6,2.3,0.8,3.4
	c0.5,2.3,0.7,4.6,0.9,6.6c0.2,2,0.4,3.9,0.4,5.5c0,3.1-0.8,5.6-2.2,7.1c-1.4,1.5-3.6,2-5.9,0.9c-0.2-0.1-0.5-0.2-0.7-0.4
	C138.8,529.7,140,523.5,139.4,517.5z M122.3,496.6c-1.3,2.4-2.8,5.2-4,6.5c-1.1-1.9-1.9-4.1-2.4-6.5c-0.4-2.3-0.3-4.8,0.3-7.1
	c0.6-2.5,1.6-4.2,2.7-5.5c1.2-1.3,2.5-2.2,3.8-3c2.6-1.6,5.2-3.1,6.7-6.8c1.6,4.6,2.2,9.4,2.1,14.1c0.1,2.3,0,4.5-0.2,6.5
	c-0.2,2-0.5,3.9-0.7,5.4c-1,5.9-5,9-9.3,6.1c-0.2-0.1-0.4-0.3-0.6-0.5c0.9-2.1,3.6-8,3.9-13.8C124.5,492.2,123.6,494.2,122.3,496.6z
	 M111.6,468.7c-1.6,2.1-3.5,4.6-4.9,5.7c-0.8-2-1.2-4.3-1.3-6.6c0-2.3,0.5-4.7,1.3-6.8c2-4.7,4.7-6.1,7.5-7.3
	c2.8-1.2,5.5-2.2,7.4-5.7c0.2,1.2,0.4,2.4,0.5,3.6c0.1,1.2,0.2,2.4,0.2,3.6c0,2.4-0.2,4.8-0.6,7.1c-0.6,4.5-1.7,8.7-2.8,11.6
	c-1.9,5.6-6.3,7.8-10,4.3c-0.2-0.2-0.4-0.4-0.5-0.6c1.3-1.9,4.8-7.1,5.9-12.7C114.5,464.8,113.2,466.6,111.6,468.7z M105.2,440
	c-1.8,1.9-4,4-5.5,4.9c-1-4.1-0.5-9.3,1.7-13.1c2.5-4.4,5.4-5.4,8.2-6.3c2.8-0.9,5.5-1.5,7.7-4.8c0.3,2.4,0.2,4.9-0.1,7.3
	c-0.1,1.2-0.4,2.4-0.6,3.6c-0.2,1.2-0.4,2.3-0.7,3.4c-1.1,4.4-2.9,8.4-4.1,11c-2.6,5.3-7.2,6.7-10.2,2.8c-0.2-0.2-0.3-0.4-0.4-0.6
	c0.8-0.8,2.1-2.4,3.5-4.4c1.4-2,2.9-4.5,3.9-7.2C108.5,436.4,107,438.1,105.2,440z M102.1,411c-1.9,1.6-4.2,3.5-5.8,4.2
	c-0.3-2-0.2-4.3,0.2-6.5c0.5-2.2,1.4-4.3,2.6-6.1c2.8-4,5.7-4.8,8.4-5.4c2.8-0.6,5.4-1,7.9-4c0.1,4.8-1,9.7-2.7,14
	c-1.5,4.3-3.4,8-5,10.5c-1.6,2.5-3.5,3.9-5.3,4.2c-1.8,0.3-3.7-0.5-4.9-2.6c-0.1-0.2-0.2-0.4-0.3-0.7c1.7-1.5,5.9-5.5,8.2-10.7
	C105.6,407.9,104,409.4,102.1,411z M110.7,329.9c-2.2,0.8-4.8,1.6-6.3,1.7c0.7-3.7,3.3-7.7,6.4-9.9c1.8-1.3,3.5-1.8,4.9-1.9
	c1.5-0.2,2.8,0,4.1,0.3c2.6,0.5,5,1,8.1-0.6c-0.7,2-1.8,3.9-3,5.7c-1.1,1.8-2.4,3.5-3.7,5.1c-1.3,1.5-2.7,2.9-4.1,4.1
	c-1.3,1.2-2.5,2.3-3.5,3.1c-4.2,3.2-8.4,2.5-9.3-1.9c0-0.2-0.1-0.4-0.1-0.7c0.9-0.4,2.6-1.1,4.5-2.2c1.9-1.1,4.1-2.5,6-4.3
	C114.7,328.4,112.9,329.1,110.7,329.9z M119.7,305.7c-2.2,0.5-4.8,1-6.3,0.9c0.6-1.7,1.6-3.5,2.9-5.1c1.3-1.5,2.7-2.9,4.5-3.8
	c3.9-2,6.5-1.3,8.9-0.6c2.4,0.7,4.7,1.6,7.9,0.3c-0.9,1.9-2.1,3.7-3.5,5.3c-0.7,0.8-1.4,1.6-2.1,2.3c-0.7,0.8-1.4,1.5-2.1,2.2
	c-2.9,2.7-6,4.8-8.2,6.1c-4.3,2.6-8.3,1.5-8.7-3c0-0.2,0-0.4,0-0.7c1.8-0.5,7-1.9,10.9-5C123.7,304.7,121.9,305.2,119.7,305.7z
	 M112.6,344.4c2.7,0.1,5.3,0.4,8.3-1.6c-1.2,4.2-3,8.3-5.5,11.8c-0.6,0.9-1.2,1.7-1.8,2.5c-0.6,0.8-1.1,1.6-1.7,2.3
	c-1.1,1.4-2.2,2.6-3.2,3.6c-3.9,3.8-8.3,3.7-9.8-0.7c-0.1-0.2-0.1-0.4-0.2-0.7c0.9-0.5,2.5-1.5,4.3-2.8c1.8-1.3,3.7-3.1,5.5-5.1
	c0,0-1.8,1-4,2c-2.1,1.1-4.6,2.3-6.1,2.6c0.1-3.9,2.3-8.2,5.3-10.9C107.1,344.3,109.9,344.3,112.6,344.4z M99.8,374.4
	c3.1-3.5,6-3.9,8.7-4.2c2.8-0.2,5.3-0.3,8.2-2.8c-0.4,2.2-0.7,4.5-1.5,6.6c-0.7,2.1-1.6,4.2-2.6,6.1c-0.5,1-1,1.9-1.5,2.8
	c-0.5,0.9-1,1.7-1.5,2.5c-1,1.6-2,3-2.9,4.1c-3.5,4.4-8,4.9-10,0.6c-0.1-0.2-0.2-0.4-0.3-0.7c1.8-1.3,6.2-4.8,8.9-9.4
	c0,0-1.7,1.2-3.7,2.6c-2,1.4-4.4,2.9-5.9,3.5c-0.1-2,0.1-4.2,0.8-6.2C97.3,377.9,98.4,375.9,99.8,374.4z M145.3,282
	c-1.4,1.4-3,2.7-4.6,3.9c-3.1,2.4-6.2,4.1-8.5,5.1c-2.3,1-4.3,1.1-5.8,0.4c-1.5-0.7-2.4-2.2-2.3-4.3c0-0.2,0-0.4,0.1-0.6
	c1.9-0.3,6.9-1.1,11-3.6c0,0-1.8,0.3-4,0.5c-2.2,0.2-4.7,0.4-6.1,0.2c0.7-1.6,1.9-3.2,3.2-4.6c1.4-1.4,3.1-2.4,4.8-3.1
	c3.9-1.5,6.3-0.6,8.6,0.3c2.3,1,4.3,2,7.6,1.1C148,278.9,146.7,280.6,145.3,282z M144.7,270.4c-4.6,1.5-8-0.4-7.4-4.6
	c0-0.2,0.1-0.4,0.1-0.6c0.9,0,2.6-0.1,4.6-0.5c1-0.2,2-0.4,3.1-0.7c1.1-0.3,2.2-0.7,3.3-1.2c0,0-1.8,0.1-3.9,0.1
	c-2.1,0-4.6,0-5.9-0.4c0.4-0.8,0.9-1.5,1.6-2.2c0.6-0.7,1.3-1.3,2.1-1.9c1.5-1.2,3.2-2.1,4.9-2.6c3.9-1.1,6.2,0,8.3,1.1
	c2.1,1.2,4,2.4,7.2,1.8c-1.3,1.6-2.8,3-4.3,4.3c-1.5,1.3-3.2,2.4-4.8,3.4C150.1,268.2,147,269.7,144.7,270.4z M158.8,251.6
	c-4.5,1.1-7.6-1.1-6.7-5.1c0-0.2,0.1-0.4,0.2-0.6c1.7,0.1,6.5,0.3,10.8-1.4c0,0-1.7-0.1-3.8-0.2c-2-0.2-4.4-0.5-5.7-1
	c2-2.7,5.4-5.2,8.8-5.8c3.9-0.7,6,0.5,7.9,1.8c1.9,1.3,3.7,2.7,6.8,2.3C171.7,247.5,163.4,250.5,158.8,251.6z M177.7,227.9
	c-0.7-0.1-1.6-0.2-2.5-0.4c-1.9-0.3-4.2-0.8-5.4-1.4c2.1-2.6,5.6-4.5,9-4.9c3.8-0.4,5.7,0.9,7.4,2.3c1.7,1.4,3.3,2.9,6.4,2.8
	c-5.8,5.2-14,7.6-18.5,8.3c-4.5,0.6-7.3-1.8-6-5.5c0.1-0.2,0.1-0.4,0.2-0.6c1.7,0.3,6.2,0.7,10.5-0.5
	C178.8,228.1,178.4,228,177.7,227.9z M191.9,212.6c-1.9-0.5-4-1.1-5.1-1.7c2.3-2.3,5.7-4,9-4.1c3.7-0.1,5.4,1.3,7,2.8
	c1.6,1.5,3,3,6,3.1c-1.5,1.2-3.1,2.2-4.8,3c-1.7,0.8-3.4,1.4-5,2c-3.3,1.1-6.5,1.6-8.7,1.7c-4.4,0.3-6.9-2.2-5.4-5.8
	c0.1-0.2,0.2-0.4,0.2-0.5c1.6,0.3,6,1.2,10.2,0.3C195.3,213.3,193.7,213,191.9,212.6z M209,199.3c-1.8-0.6-3.8-1.3-4.8-2
	c2.3-2,5.8-3.5,9-3.4c7.1,0.3,6.3,6,12,6.6c-6,4.1-14,5.2-18.2,5.3c-4.2,0-6.4-2.6-4.8-6c0.1-0.2,0.2-0.3,0.3-0.5
	c1.5,0.4,5.6,1.6,9.7,1C212.2,200.3,210.7,199.8,209,199.3z M236.7,186.4c1.2,1.6,2.3,3.2,4.9,3.8c-5.7,3.3-13.5,3.9-17.6,3.6
	c-4.1-0.3-6-3-4.1-6.1c0.1-0.2,0.2-0.3,0.3-0.5c1.4,0.6,5.3,1.9,9.3,1.6c0,0-1.4-0.5-3-1.2c-1.6-0.7-3.5-1.5-4.4-2.3
	c2.4-1.9,5.8-2.9,8.8-2.6C234.1,183.2,235.4,184.8,236.7,186.4z M210.6,172.5c1.8-3.9,6.5-11.1,14.1-14.8c-1.5,2.7-0.7,4.5-0.1,6.4
	c0.7,1.9,1.1,4-0.4,7.1c-1.4,2.8-4.1,5.3-6.9,6.7c-0.3-1.1-0.1-3.2,0.1-5c0.2-1.8,0.5-3.3,0.5-3.3c-2.5,3.5-3,7.7-3.2,9.2
	c-0.2,0-0.4,0.1-0.6,0.1C210.6,179.3,208.8,176.4,210.6,172.5z M191.7,184.8c1.5-4.2,5.9-11.9,13.1-16.2c-2.2,5.7,3.5,7.2,0.8,14
	c-1.2,3-3.8,5.8-6.6,7.4c-0.3-1.2-0.3-3.3-0.2-5.2c0.1-1.9,0.3-3.5,0.3-3.5c-2.2,3.8-2.6,8.1-2.6,9.8c-0.2,0-0.4,0.1-0.6,0.1
	C192.1,191.9,190.2,189.1,191.7,184.8z M173,199c0.6-2.3,2-5.4,4-8.7c1-1.7,2.2-3.3,3.6-4.8c1.4-1.5,3-3,4.7-4.2
	c-1,3,0.1,4.8,1.1,6.8c1,1.9,1.9,4,0.7,7.7c-1,3.2-3.5,6.3-6.2,8.1c-0.4-1.2-0.6-3.4-0.6-5.4c0-2,0.1-3.6,0.1-3.6
	c-2,4.2-2.1,8.6-2,10.3c-0.2,0.1-0.4,0.1-0.6,0.2C174,206.3,171.8,203.5,173,199z M154.9,215.1c0.9-4.7,4.5-13.7,11.4-19.3
	c-0.8,3.2,0.4,5,1.6,6.9c1.1,1.9,2.2,4,1.3,7.9c-0.8,3.4-3.1,6.7-5.8,8.9c-0.5-1.2-0.9-3.5-1.1-5.5c-0.1-1-0.1-2-0.2-2.6
	c0-0.7,0-1.1,0-1.1c-1.8,4.4-1.5,9.1-1.3,10.8c-0.2,0.1-0.4,0.2-0.6,0.2C156.4,222.5,153.9,219.8,154.9,215.1z M137.4,233.2
	c0.6-5,3.5-14.5,10.2-21c-0.5,3.4,0.9,5.2,2.2,7.1c1.3,1.9,2.6,4,1.9,8c-0.6,3.5-2.6,7.3-5.2,9.7c-0.6-1.2-1.2-3.5-1.5-5.6
	c-0.3-2.1-0.5-3.9-0.5-3.9c-1.5,4.8-0.8,9.5-0.4,11.3c-0.2,0.1-0.4,0.2-0.6,0.3C139.6,240.8,136.8,238.3,137.4,233.2z M122.9,243.1
	c0.7-2,1.6-4.2,2.6-6.2c1.1-2.1,2.5-4,4-5.8c-0.3,3.6,1.3,5.2,2.8,7.1c1.5,1.9,2.9,3.9,2.7,8.1c-0.1,1.9-0.6,3.8-1.4,5.6
	c-0.4,0.9-0.9,1.8-1.4,2.6c-0.5,0.8-1,1.6-1.6,2.3c-0.8-1.1-1.6-3.6-2.1-5.7c-0.5-2.1-0.8-3.9-0.8-3.9c-0.3,1.2-0.4,2.5-0.5,3.7
	c0,1.2,0,2.4,0.2,3.4c0.2,2.1,0.7,3.7,0.9,4.6c-0.2,0.1-0.4,0.2-0.6,0.3c-3.8,2.1-6.9-0.3-6.8-5.5
	C121.1,251.1,121.5,247.2,122.9,243.1z M107,265.3c0.5-2.2,1.2-4.4,2.2-6.7c0.9-2.2,2-4.5,3.5-6.5c0,3.7,1.8,5.3,3.6,7.1
	c1.7,1.8,3.5,3.7,3.6,8.1c0.1,1.9-0.3,3.9-0.9,5.9c-0.6,2-1.5,3.8-2.5,5.3c-0.9-1.1-1.9-3.5-2.7-5.6c-0.8-2.1-1.3-4-1.3-4
	c-0.5,5.4,1.1,10.2,1.9,12c-0.2,0.1-0.4,0.3-0.5,0.4c-1.9,1.2-3.6,1.4-5,0.5c-1.4-0.9-2.4-2.8-2.5-5.4
	C105.9,273.7,106.1,269.7,107,265.3z M93.1,290c0.1-1.2,0.3-2.4,0.5-3.6c0.2-1.2,0.6-2.4,0.9-3.6c0.7-2.4,1.7-4.8,2.9-7.1
	c0.5,3.9,2.5,5.3,4.4,6.9c2,1.6,3.9,3.5,4.5,7.9c0.2,1.9,0.2,4.1-0.2,6.2c-0.4,2.1-1.1,4-2.1,5.7c-1.1-1-2.4-3.3-3.4-5.4
	c-1-2.1-1.8-4-1.8-4c0,5.6,2.2,10.3,3.2,12.1c-0.2,0.2-0.3,0.3-0.5,0.5c-3.4,3.1-7.1,1.3-8.3-4.2C92.8,298.7,92.7,294.7,93.1,290z
	 M82.2,309.5c0.5-2.5,1.2-5.1,2.2-7.6c0.9,3.9,3.1,5.1,5.3,6.6c1.1,0.7,2.2,1.5,3.2,2.7c1,1.2,1.7,2.7,2.4,5c1.1,4,0.6,8.8-0.9,12.5
	c-1.3-0.9-2.9-3.1-4.2-5.2c-1.3-2-2.3-3.8-2.3-3.8c0.3,2.8,1.1,5.4,2.2,7.5c1,2.1,2.1,3.7,2.7,4.5c-0.1,0.2-0.3,0.4-0.4,0.6
	c-3.1,3.5-7.2,2.2-8.9-3.3c-0.4-1.4-0.9-3.1-1.3-5.1c-0.3-2-0.5-4.2-0.5-6.6C81.7,314.7,81.9,312.1,82.2,309.5z M74.4,330.5
	c1.4,3.9,3.8,4.9,6.2,6.1c2.4,1.2,4.9,2.6,6.7,7.1c1.6,4,1.6,8.9,0.8,12.8c-1.4-0.8-3.4-2.9-5-4.8c-1.6-1.9-2.8-3.6-2.8-3.6
	c0.6,2.8,2,5.4,3.3,7.4c1.3,2,2.6,3.5,3.3,4.3c-0.1,0.2-0.3,0.4-0.4,0.6c-2.7,4-7,3.2-9.5-2.2c-0.6-1.4-1.3-3.1-1.9-5.1
	c-0.3-1-0.6-2.1-0.9-3.2c-0.2-1.1-0.4-2.3-0.6-3.5C72.9,341.4,72.7,335.7,74.4,330.5z M67.7,361c1.9,3.8,4.5,4.5,7.1,5.4
	c2.6,0.9,5.4,2.1,7.8,6.4c1.1,1.9,1.8,4.1,2.1,6.4c0.4,2.2,0.6,4.5,0.3,6.6c-1.5-0.6-3.8-2.5-5.7-4.2c-1-0.9-1.8-1.7-2.4-2.3
	c-0.6-0.6-1-1-1-1c2.2,5.6,6.6,9.7,8.2,11c-0.1,0.2-0.2,0.5-0.3,0.7c-2.3,4.4-6.8,4.1-10-1.1c-0.8-1.3-1.7-3-2.6-4.9
	c-0.4-1-0.9-2-1.3-3.2c-0.4-1.1-0.8-2.3-1.1-3.5c-0.6-2.5-1.1-5.1-1.4-7.9C67.3,366.6,67.2,363.8,67.7,361z M72.9,397.5
	c2.8,0.6,5.7,1.4,8.6,5.5c1.3,1.8,2.2,4,2.9,6.2c0.7,2.2,1,4.5,1,6.7c-1.6-0.5-4.1-2.2-6.2-3.7c-2.1-1.6-3.8-3-3.8-3
	c2.9,5.4,7.6,9.1,9.5,10.3c-0.1,0.2-0.2,0.5-0.3,0.7c-1,2.3-2.5,3.5-4.4,3.5c-1.9,0-4-1.2-5.9-3.7c-1.9-2.5-4.3-6.4-6.2-11.1
	c-1.8-4.7-3.2-10.2-3.1-15.9C67.4,396.5,70.2,396.9,72.9,397.5z M67.2,433.4c-0.8-2.7-1.4-5.6-1.6-8.5c2.9,3.4,5.7,3.6,8.6,4
	c2.9,0.4,5.9,1,9.3,4.9c3,3.5,5.1,8.4,5.3,12.8c-1.7-0.4-4.4-1.8-6.7-3.2c-2.3-1.4-4.2-2.7-4.2-2.7c1.7,2.7,3.9,4.8,5.9,6.4
	c2,1.6,3.9,2.7,4.9,3.2c0,0.3-0.1,0.5-0.2,0.8c-1.4,5-6.1,5.6-10.6,0.9c-2.3-2.3-5.1-6.2-7.5-10.9c-0.6-1.2-1.2-2.4-1.8-3.7
	C68,436.1,67.6,434.8,67.2,433.4z M72.1,466.8c-0.6-1.4-1.2-2.8-1.6-4.2c-0.4-1.4-0.8-2.9-1-4.4c3.3,3.2,6.1,3.1,9.2,3.2
	c3,0.1,6.2,0.3,10.2,4c1.8,1.6,3.2,3.6,4.5,5.8c1.3,2.1,2.2,4.4,2.6,6.7c-1.7-0.1-4.7-1.3-7.3-2.4c-2.6-1.1-4.7-2.3-4.7-2.3
	c4.4,5,10.1,7.7,12.3,8.5c0,0.3,0,0.5-0.1,0.8c-0.6,5.2-5.3,6.6-10.6,2.4c-2.6-2.1-6-5.7-9.2-10.3C74.8,472.1,73.4,469.5,72.1,466.8
	z M87.6,508.1c-3.8-4.3-7.7-9.8-9.6-15.8c3.9,2.9,6.8,2.3,9.8,2c1.5-0.2,3.1-0.3,4.9,0c1.8,0.3,3.8,1,6.1,2.6
	c2.1,1.4,3.8,3.2,5.5,5.2c1.6,2,3,4.2,3.8,6.3c-1.8,0.1-5-0.5-7.8-1.2c-2.8-0.7-5.1-1.6-5.1-1.6c5.3,4.5,11.5,6.3,14,6.7
	c0,0.3,0.1,0.6,0.1,0.8c0.3,5.4-4.2,7.6-10.3,4.2c-1.6-0.8-3.3-2.1-5.2-3.6C91.6,512,89.6,510.2,87.6,508.1z M105.3,540.6
	c-1.2-0.9-2.5-1.9-3.6-2.9c-1.2-1.1-2.3-2.2-3.4-3.4c-1.1-1.2-2.2-2.5-3.2-3.8c-1-1.3-1.8-2.8-2.6-4.2c2.2,1.2,4,1.5,5.7,1.4
	c1.7-0.1,3.1-0.6,4.7-1.1c3-0.9,6.3-1.7,11.6,0.6c2.3,1.1,4.6,2.5,6.6,4.2c2,1.7,3.7,3.7,5,5.6c-1.8,0.5-5.2,0.5-8.1,0.3
	c-2.9-0.2-5.4-0.7-5.4-0.7c6,3.7,12.9,4,15.4,4.1c0.1,0.3,0.2,0.6,0.2,0.8c0.6,2.8,0,4.8-1.7,6c-1.7,1.2-4.5,1.4-7.9,0.2
	c-1.7-0.6-3.8-1.4-6-2.6C110.1,543.9,107.8,542.4,105.3,540.6z M129.7,569.9c-2.8-1.3-5.6-3-8.3-5c-2.7-2-5.2-4.4-7.5-6.9
	c5,1.4,7.6-0.2,10.5-1.7c2.9-1.5,5.9-2.8,11.7-1.7c1.3,0.3,2.5,0.7,3.8,1.2c0.6,0.2,1.2,0.5,1.8,0.8c0.6,0.3,1.2,0.6,1.8,0.9
	c2.4,1.3,4.5,2.9,6.2,4.7c-1.7,0.9-5,1.5-8.1,1.8c-3,0.4-5.6,0.5-5.6,0.5c3.4,1.1,6.9,1.5,9.7,1.6c2.9,0,5.3-0.4,6.5-0.6
	c0.1,0.3,0.3,0.5,0.4,0.8c2.4,5.2-1.1,9-8.4,8.1c-1.8-0.3-4.1-0.6-6.5-1.4C135.3,572.2,132.5,571.2,129.7,569.9z M159.5,594.4
	c-3-0.8-6.1-1.9-9.2-3.3c-3-1.5-6-3.3-8.7-5.4c5.3,0.4,7.6-1.8,10.2-3.8c1.3-1,2.7-2.1,4.4-2.8c1.8-0.7,4-1.1,7-1.1
	c2.7,0,5.4,0.6,8,1.5c2.6,0.8,5,2.1,7,3.6c-1.5,1.1-4.8,2.4-7.8,3.3c-3,0.9-5.6,1.5-5.6,1.5c3.6,0.5,7.1,0.3,10-0.2
	c2.9-0.5,5.2-1.3,6.4-1.7c0.2,0.2,0.4,0.5,0.5,0.7c3.2,4.8,0.2,9.2-7.2,9.6C171,596.4,165.5,595.9,159.5,594.4z M201.3,614.1
	c-2.6,0.1-5.5,0.1-8.6-0.3c-3.1-0.4-6.3-0.9-9.5-1.9c-3.2-1-6.4-2.2-9.3-4c5.2-0.4,7.3-3,9.6-5.5c2.3-2.5,4.9-4.9,10.9-5.7
	c2.7-0.4,5.5-0.2,8.2,0.4c2.7,0.5,5.3,1.4,7.5,2.6c-1.4,1.4-4.6,3.1-7.4,4.4c-1.4,0.7-2.8,1.2-3.8,1.7c-1,0.4-1.6,0.6-1.6,0.6
	c7.4,0,13.9-2.9,16.2-4.2c0.2,0.2,0.4,0.4,0.6,0.6c3.8,4.4,1.2,9.3-6.1,10.6C206.1,613.8,203.9,614,201.3,614.1z M227.6,629.2
	c-6.1,0-13-1-19.2-3.7c5.1-1.1,6.9-4,8.9-6.8c2-2.8,4.4-5.6,10.4-7c2.7-0.6,5.5-0.8,8.3-0.5c2.8,0.3,5.5,0.9,7.8,2
	c-1.3,1.5-4.4,3.5-7.2,5.1c-2.8,1.6-5.2,2.8-5.2,2.8c7.4-0.7,13.7-4.3,16-5.7c0.2,0.2,0.5,0.4,0.7,0.6c4.2,4.2,1.9,9.3-5.4,11.3
	C239.2,628.3,233.8,629.2,227.6,629.2z M282.5,634.4c-1.2,1.9-3.7,3.6-6.6,4.5c-1.5,0.5-3.4,1.1-5.3,1.6c-1,0.3-2.1,0.6-3.2,0.8
	l-0.8,0.2l-0.4,0.1l-0.5,0.1c-0.7,0.1-1.5,0.1-2.3,0.2c-6.1,0.3-12.9-0.2-19.3-2.4c5-1.5,6.6-4.6,8.5-7.6c1.9-3,4-6,10-7.9
	c2.6-0.8,5.6-1.1,8.4-1c1.4,0.1,2.7,0.2,3.9,0.5c0.6,0.1,1.2,0.3,1.8,0.5c0.6,0.2,1.1,0.5,1.7,0.7c-0.7,0.8-1.8,1.6-3,2.6
	c-1.2,1-2.6,2-3.8,2.9c-0.6,0.5-1.2,0.9-1.7,1.3c-0.5,0.4-1,0.7-1.5,1c-0.9,0.6-1.5,0.9-1.5,0.9c2-0.3,3.3-0.8,4.8-1.4
	c1.5-0.6,2.9-1.3,4.1-1.8c2.5-1.2,4.7-2.5,5.9-3.1c0.2,0.2,0.4,0.4,0.5,0.7c0.8,1.1,1.2,2.3,1.2,3.4
	C283.4,632.4,283.1,633.4,282.5,634.4z M299.5,632.9c-1.2-1.1-2.5-2.2-3.9-3.2c-5-3.7-11-6.9-17.6-9.3c-1.7-0.6-3.4-1.2-5.1-1.8
	c-1.8-0.6-3.6-1.1-5.4-1.7c-3.7-1.2-7.4-2.4-11.2-3.7c-15.2-5.2-31.6-11.1-48.3-19c-16.7-7.8-33.7-17.6-49.5-30.2
	c-15.7-12.7-29.9-28.4-40.7-46.7c-5.4-9.1-9.9-18.8-13.7-28.8c-3.7-10-6.5-20.4-8.9-30.9c-4.3-21-6-42.5-5.9-63.5
	c0.1-21.1,3.2-41.8,8.6-61.1c0.3-1.2,0.7-2.4,1-3.6c0.3-1.2,0.8-2.4,1.2-3.6c0.8-2.4,1.6-4.7,2.4-7c0.4-1.2,0.8-2.3,1.3-3.5
	c0.5-1.1,0.9-2.3,1.4-3.4c0.9-2.3,1.8-4.5,2.7-6.7c1-2.2,2-4.4,3-6.5c0.5-1.1,1-2.2,1.5-3.2c0.5-1.1,1.1-2.1,1.6-3.1
	c1.1-2.1,2.2-4.2,3.3-6.2c1.1-2.1,2.3-4,3.5-6c4.6-8,9.7-15.3,14.7-22.3c1.3-1.7,2.6-3.4,3.9-5.1c1.3-1.7,2.6-3.4,3.9-4.9
	c2.7-3.2,5.3-6.4,8-9.3c10.7-11.9,21.5-21.9,31.5-30.3c10-8.3,19.2-14.9,27-20.1c7.8-5.2,14.1-8.9,18.5-11.3
	c4.4-2.4,6.8-3.6,6.8-3.6s-2.4,1.2-6.7,3.6c-4.3,2.5-10.6,6.2-18.4,11.4c-7.7,5.2-16.9,11.9-26.8,20.3c-9.9,8.4-20.6,18.5-31.1,30.5
	c-2.7,2.9-5.2,6.1-7.9,9.3c-1.4,1.6-2.6,3.3-3.9,5c-1.3,1.7-2.6,3.4-3.9,5.1c-5,7-10,14.4-14.5,22.3c-1.1,2-2.3,4-3.4,6
	c-1.1,2.1-2.1,4.1-3.2,6.2c-0.5,1-1.1,2.1-1.6,3.1c-0.5,1.1-1,2.2-1.5,3.2c-1,2.2-2,4.3-2.9,6.5c-1,2.2-1.8,4.5-2.7,6.7
	c-0.4,1.1-0.9,2.3-1.3,3.4c-0.5,1.1-0.9,2.3-1.2,3.4c-0.8,2.3-1.5,4.7-2.3,7c-0.4,1.2-0.8,2.3-1.1,3.5c-0.3,1.2-0.6,2.4-1,3.6
	c-10.9,38.4-10,82.1-1.7,123.6c2.4,10.3,5.2,20.5,9,30.4c3.8,9.8,8.4,19.3,13.7,28.2c10.7,17.8,24.7,33.1,40.2,45.4
	c15.6,12.2,32.4,21.7,48.9,29.3c16.5,7.6,32.8,13.4,48,18.4c3.8,1.2,7.5,2.4,11.2,3.6c1.8,0.6,3.6,1.1,5.4,1.7
	c1.8,0.6,3.6,1.2,5.4,1.8c7.1,2.5,13.5,5.9,19,9.9c1.6,1.2,3.1,2.4,4.6,3.7C302.1,630.2,300.8,631.4,299.5,632.9z M305.4,642.1
	l-4.4-3c3.3-5,7.9-9.6,13.4-13.6c5.5-4,11.9-7.3,19-9.9c1.8-0.6,3.6-1.2,5.4-1.8c1.8-0.6,3.6-1.1,5.4-1.7c3.7-1.1,7.4-2.3,11.2-3.6
	c15.1-5,31.4-10.8,48-18.4c16.6-7.5,33.4-17,48.9-29.3c15.5-12.3,29.5-27.6,40.2-45.4c5.3-8.9,9.9-18.4,13.7-28.2
	c3.8-9.8,6.6-20.1,9-30.4c8.4-41.5,9.2-85.2-1.7-123.6c-0.3-1.2-0.6-2.4-1-3.6c-0.3-1.2-0.8-2.4-1.1-3.5c-0.8-2.3-1.5-4.7-2.3-7
	c-0.4-1.2-0.8-2.3-1.2-3.4c-0.4-1.1-0.9-2.3-1.3-3.4c-0.9-2.2-1.7-4.5-2.7-6.7c-1-2.2-2-4.4-2.9-6.5c-0.5-1.1-1-2.2-1.5-3.2
	c-0.5-1-1.1-2.1-1.6-3.1c-1.1-2.1-2.1-4.2-3.2-6.2c-1.1-2.1-2.3-4-3.4-6c-4.5-8-9.5-15.3-14.5-22.3c-1.3-1.7-2.6-3.4-3.9-5.1
	c-1.3-1.7-2.5-3.4-3.9-5c-2.7-3.2-5.2-6.4-7.9-9.3c-10.6-12-21.2-22.1-31.1-30.5c-9.9-8.4-19.1-15.1-26.8-20.3
	c-7.7-5.2-14-9-18.4-11.4c-4.4-2.5-6.7-3.6-6.7-3.6s2.4,1.1,6.8,3.6c4.4,2.4,10.7,6.1,18.5,11.3c7.8,5.2,17,11.8,27,20.1
	c10,8.3,20.8,18.3,31.5,30.3c2.7,2.9,5.3,6.1,8,9.3c1.4,1.6,2.6,3.3,3.9,4.9c1.3,1.7,2.6,3.4,3.9,5.1c5.1,7,10.2,14.3,14.7,22.3
	c1.1,2,2.4,4,3.5,6c1.1,2.1,2.2,4.1,3.3,6.2c0.5,1,1.1,2.1,1.6,3.1c0.5,1.1,1,2.2,1.5,3.2c1,2.2,2,4.3,3,6.5c1,2.2,1.8,4.5,2.7,6.7
	c0.5,1.1,0.9,2.3,1.4,3.4c0.5,1.1,0.9,2.3,1.3,3.5c0.8,2.3,1.6,4.7,2.4,7c0.4,1.2,0.8,2.3,1.2,3.6c0.3,1.2,0.7,2.4,1,3.6
	c5.5,19.3,8.5,40,8.6,61.1c0.1,21-1.6,42.5-5.9,63.5c-2.3,10.5-5.1,20.9-8.9,30.9c-3.8,10-8.3,19.7-13.7,28.8
	c-10.8,18.3-25,34-40.7,46.7c-15.8,12.6-32.8,22.4-49.5,30.2c-16.7,7.9-33.1,13.8-48.3,19c-3.8,1.3-7.5,2.5-11.2,3.7
	c-1.8,0.6-3.6,1.2-5.4,1.7c-1.7,0.6-3.4,1.2-5.1,1.8c-6.7,2.5-12.6,5.6-17.6,9.3C312.4,633.4,308.3,637.6,305.4,642.1z M349.6,641.9
	c-0.8,0-1.5-0.1-2.3-0.2l-0.5-0.1l-0.4-0.1l-0.8-0.2c-1.1-0.3-2.1-0.5-3.2-0.8c-2-0.5-3.8-1.1-5.3-1.6c-2.9-1-5.4-2.6-6.6-4.5
	c-0.6-1-1-2-1-3.1c0-1.1,0.4-2.2,1.2-3.4c0.2-0.2,0.3-0.4,0.5-0.7c1.1,0.6,3.3,1.9,5.9,3.1c1.3,0.6,2.7,1.3,4.1,1.8
	c1.5,0.6,2.8,1.1,4.8,1.4c0,0-0.6-0.3-1.5-0.9c-0.5-0.3-1-0.6-1.5-1c-0.5-0.4-1.1-0.8-1.7-1.3c-1.2-0.9-2.6-1.9-3.8-2.9
	c-1.2-0.9-2.3-1.8-3-2.6c0.5-0.3,1.1-0.5,1.7-0.7c0.6-0.2,1.2-0.4,1.8-0.5c1.3-0.3,2.5-0.5,3.9-0.5c2.8-0.1,5.8,0.2,8.4,1
	c6,1.8,8.1,4.8,10,7.9c1.9,3,3.5,6,8.5,7.6C362.6,641.7,355.8,642.2,349.6,641.9z M385.4,629.2c-6.1,0-11.6-0.8-15.2-1.8
	c-7.2-2-9.5-7.1-5.4-11.3c0.2-0.2,0.4-0.4,0.7-0.6c2.3,1.5,8.7,5,16,5.7c0,0-2.4-1.2-5.2-2.8c-2.8-1.6-5.8-3.6-7.2-5.1
	c2.3-1.1,5-1.7,7.8-2c2.8-0.3,5.7-0.2,8.3,0.5c6,1.4,8.3,4.2,10.4,7c2,2.8,3.8,5.7,8.9,6.8C398.4,628.1,391.5,629.1,385.4,629.2z
	 M429.8,611.9c-3.2,1-6.4,1.5-9.5,1.9c-3.1,0.4-6,0.4-8.6,0.3c-2.6-0.1-4.9-0.3-6.7-0.7c-7.3-1.3-9.9-6.2-6.1-10.6
	c0.2-0.2,0.4-0.4,0.6-0.6c2.4,1.3,8.9,4.2,16.2,4.2c0,0-0.6-0.2-1.6-0.6c-1-0.4-2.3-1-3.8-1.7c-2.9-1.3-6-3-7.4-4.4
	c2.2-1.2,4.8-2.1,7.5-2.6c2.7-0.6,5.5-0.7,8.2-0.4c6,0.8,8.6,3.2,10.9,5.7c2.3,2.5,4.3,5.1,9.6,5.5
	C436.2,609.6,433,610.9,429.8,611.9z M462.6,591.1c-3.1,1.4-6.2,2.5-9.2,3.3c-6,1.5-11.5,2-15.2,1.8c-7.4-0.4-10.4-4.8-7.2-9.6
	c0.2-0.2,0.3-0.5,0.5-0.7c1.2,0.4,3.5,1.3,6.4,1.7c2.9,0.5,6.4,0.7,10,0.2c0,0-2.6-0.6-5.6-1.5c-3-0.9-6.2-2.1-7.8-3.3
	c2-1.5,4.4-2.7,7-3.6c2.6-0.9,5.3-1.5,8-1.5c3,0,5.2,0.4,7,1.1c1.8,0.7,3.1,1.8,4.4,2.8c2.6,2.1,4.9,4.2,10.2,3.8
	C468.6,587.8,465.6,589.6,462.6,591.1z M491.6,565c-2.8,1.9-5.6,3.6-8.3,5c-2.8,1.3-5.5,2.3-8,3c-2.4,0.8-4.7,1.1-6.5,1.4
	c-7.3,0.9-10.8-2.9-8.4-8.1c0.1-0.3,0.3-0.5,0.4-0.8c1.3,0.2,3.6,0.6,6.5,0.6c2.9,0,6.3-0.4,9.7-1.6c0,0-2.6-0.1-5.6-0.5
	c-3-0.4-6.4-1-8.1-1.8c1.7-1.8,3.8-3.4,6.2-4.7c0.6-0.3,1.2-0.6,1.8-0.9c0.6-0.3,1.2-0.6,1.8-0.8c1.2-0.5,2.5-0.9,3.8-1.2
	c5.8-1.2,8.9,0.1,11.7,1.7c2.9,1.5,5.5,3.2,10.5,1.7C496.8,560.6,494.3,563,491.6,565z M517.9,530.4c-1,1.3-2.1,2.6-3.2,3.8
	c-1.1,1.2-2.2,2.4-3.4,3.4c-1.2,1.1-2.4,2-3.6,2.9c-2.5,1.8-4.8,3.3-7.1,4.5c-2.3,1.1-4.3,2-6,2.6c-3.4,1.2-6.1,0.9-7.9-0.2
	c-1.7-1.2-2.3-3.2-1.7-6c0.1-0.3,0.1-0.6,0.2-0.8c2.4,0,9.3-0.4,15.4-4.1c0,0-2.5,0.4-5.4,0.7c-2.9,0.3-6.3,0.2-8.1-0.3
	c1.4-1.9,3-3.9,5-5.6c2-1.7,4.3-3.1,6.6-4.2c5.2-2.3,8.5-1.6,11.6-0.6c1.5,0.5,3,1,4.7,1.1c1.6,0.1,3.4-0.2,5.7-1.4
	C519.7,527.6,518.9,529.1,517.9,530.4z M525.4,508.1c-2,2.1-4.1,4-6,5.5c-1.9,1.5-3.7,2.8-5.2,3.6c-6.2,3.4-10.6,1.2-10.3-4.2
	c0-0.3,0-0.5,0.1-0.8c2.5-0.4,8.7-2.2,14-6.7c0,0-2.4,0.8-5.1,1.6c-2.8,0.8-6,1.4-7.8,1.2c0.8-2.2,2.1-4.3,3.8-6.3
	c1.6-2,3.4-3.8,5.5-5.2c2.3-1.5,4.3-2.3,6.1-2.6c1.8-0.3,3.3-0.2,4.9,0c3.1,0.4,5.9,0.9,9.8-2C533.1,498.3,529.3,503.7,525.4,508.1z
	 M542.5,462.5c-0.4,1.4-1,2.9-1.6,4.2c-1.2,2.7-2.7,5.3-4.1,7.6c-3.2,4.6-6.7,8.2-9.2,10.3c-5.4,4.2-10,2.9-10.6-2.4
	c0-0.3,0-0.5-0.1-0.8c2.2-0.8,7.9-3.5,12.3-8.5c0,0-2.1,1.1-4.7,2.3c-2.6,1.1-5.5,2.3-7.3,2.4c0.4-2.2,1.4-4.5,2.6-6.7
	c1.2-2.2,2.7-4.2,4.5-5.8c4-3.6,7.2-3.9,10.2-4c3-0.1,5.9,0.1,9.2-3.2C543.3,459.6,542.9,461.1,542.5,462.5z M545.8,433.4
	c-0.4,1.4-0.8,2.7-1.4,4c-0.6,1.3-1.1,2.5-1.8,3.7c-2.5,4.7-5.2,8.6-7.5,10.9c-4.5,4.7-9.2,4.1-10.6-0.9c-0.1-0.2-0.1-0.5-0.2-0.8
	c1-0.5,2.9-1.6,4.9-3.2c2-1.6,4.1-3.8,5.9-6.4c0,0-1.9,1.3-4.2,2.7c-2.3,1.4-5,2.9-6.7,3.2c0.2-4.4,2.3-9.3,5.3-12.8
	c3.4-4,6.4-4.6,9.3-4.9c2.9-0.4,5.7-0.5,8.6-4C547.2,427.8,546.6,430.7,545.8,433.4z"/>
</svg>
