<?xml version="1.0" encoding="utf-8"?>
<!-- Generator: Adobe Illustrator 19.0.0, SVG Export Plug-In . SVG Version: 6.00 Build 0)  -->
<svg version="1.1" id="Camada_1" xmlns="http://www.w3.org/2000/svg" xmlns:xlink="http://www.w3.org/1999/xlink" x="0px" y="0px"
	 viewBox="0 0 200 100" style="enable-background:new 0 0 200 100;" xml:space="preserve">
<g>
	<g id="XMLID_1038_">
		<path id="XMLID_1039_" d="M47,85.3c0.3,0.5,0.4,0.9,0.5,1.1c0.1,0,0.1,0,0.2,0c0.3,0,0.5,0,0.7-0.1c0.2-0.1,0.3-0.2,0.4-0.4
			c0.1-0.4,0-0.9-0.4-1.5c-0.2-0.3-0.5-0.6-0.9-1c-0.2-0.2-0.4-0.3-0.6-0.5l-0.2-0.1l-0.1-0.1l-0.1-0.1c-0.1-0.1-0.2-0.2-0.3-0.2
			c-0.8-0.6-1.7-1.2-2.6-1.5c0.4,0.7,0.4,1.2,0.3,1.8c-0.1,0.6-0.1,1.2,0.5,2c0.3,0.4,0.6,0.7,1,0.9c0.2,0.1,0.4,0.3,0.6,0.3
			c0.1,0,0.2,0.1,0.3,0.1c0.1,0,0.2,0.1,0.3,0.1c0-0.2-0.1-0.4-0.1-0.7c-0.1-0.3-0.2-0.5-0.3-0.8c-0.1-0.1-0.1-0.3-0.2-0.4
			c-0.1-0.1-0.1-0.2-0.1-0.3c-0.1-0.2-0.1-0.3-0.1-0.3c0.2,0.2,0.5,0.5,0.7,0.7C46.7,84.8,46.9,85,47,85.3z M41.7,84.4
			c1-0.1,1.1-1,0.5-2c-0.3-0.5-0.9-1.2-1.6-1.8c-0.7-0.6-1.5-1.2-2.4-1.6c0.4,0.7,0.3,1.2,0.2,1.8c-0.1,0.6-0.2,1.2,0.4,2
			c0.2,0.4,0.6,0.7,0.9,1c0.4,0.3,0.8,0.5,1.2,0.6c0-0.3-0.2-0.9-0.3-1.4c-0.2-0.5-0.3-0.9-0.3-0.9c0.8,0.9,1.2,2,1.4,2.4
			C41.7,84.4,41.7,84.4,41.7,84.4z M36.2,82.3c0.9-0.1,1.2-0.9,0.6-1.9c-0.1-0.2-0.3-0.5-0.6-0.9c-0.2-0.3-0.5-0.6-0.8-1
			c-0.3-0.3-0.6-0.7-1-1c-0.3-0.3-0.7-0.6-1.1-0.8c0.3,0.7,0.1,1.2-0.1,1.8c-0.2,0.5-0.3,1.1,0.1,2c0.2,0.4,0.5,0.7,0.8,1
			c0.3,0.3,0.7,0.5,1.1,0.6c0-0.3-0.1-0.9-0.2-1.4c-0.1-0.2-0.1-0.5-0.2-0.6c0-0.2-0.1-0.3-0.1-0.3c0.7,0.9,1,2,1.1,2.4
			C36.1,82.3,36.2,82.3,36.2,82.3z M31,79.7c0,0,0.1,0,0.1,0c0.9,0,1.2-0.8,0.8-1.8c-0.2-0.5-0.6-1.2-1-1.9c-0.2-0.4-0.5-0.7-0.8-1
			c-0.3-0.3-0.6-0.6-0.9-0.9c0.1,0.7-0.1,1.2-0.4,1.7c-0.1,0.2-0.2,0.5-0.3,0.8c0,0.3,0,0.7,0.1,1.1c0.1,0.4,0.4,0.8,0.6,1.1
			c0.3,0.3,0.6,0.6,1,0.8c0.1-0.3,0-0.9,0-1.4c0-0.5-0.1-0.9-0.1-0.9c0.3,0.5,0.4,1,0.5,1.4C30.9,79.1,31,79.5,31,79.7z M26.6,76.6
			c0.9,0.2,1.3-0.6,1.1-1.6c-0.1-0.3-0.1-0.6-0.2-0.9c-0.1-0.3-0.2-0.7-0.4-1.1c-0.1-0.4-0.3-0.8-0.5-1.1c-0.2-0.4-0.4-0.7-0.7-1
			c0,0.7-0.3,1.1-0.7,1.5c-0.3,0.4-0.6,0.9-0.5,1.8c0,0.2,0.1,0.4,0.1,0.6c0,0.1,0.1,0.2,0.1,0.3c0,0.1,0.1,0.2,0.2,0.3
			c0.2,0.3,0.5,0.7,0.8,0.9c0.1-0.3,0.2-0.9,0.2-1.3c0-0.5,0.1-0.9,0.1-0.9c0.2,0.5,0.2,1,0.3,1.5c0,0.4,0,0.8,0,1
			C26.5,76.6,26.5,76.6,26.6,76.6z M22.8,72.8c0.4,0.2,0.8,0.1,1-0.2c0.2-0.2,0.4-0.7,0.4-1.2c0-0.3,0-0.6-0.1-0.9
			c0-0.3-0.1-0.7-0.2-1.1c0-0.2-0.1-0.4-0.1-0.6c0-0.2-0.1-0.4-0.2-0.6s-0.1-0.4-0.2-0.6c-0.1-0.2-0.2-0.4-0.3-0.5
			c-0.1,0.3-0.2,0.6-0.4,0.8c-0.2,0.2-0.4,0.4-0.5,0.5c-0.4,0.4-0.8,0.7-0.8,1.6c0,0.4,0,0.8,0.2,1.2c0.1,0.4,0.3,0.7,0.6,1
			c0.2-0.3,0.3-0.8,0.5-1.2c0.1-0.4,0.2-0.8,0.2-0.8c0.1,1-0.1,2-0.2,2.4C22.7,72.8,22.7,72.8,22.8,72.8z M19.9,68.5
			c0.7,0.5,1.4,0,1.5-1c0-0.2,0.1-0.6,0.1-0.9c0-0.3,0-0.7,0-1.1c0-0.8-0.1-1.6-0.4-2.4c-0.3,0.6-0.7,0.9-1.1,1.1
			c-0.2,0.1-0.4,0.3-0.6,0.5c-0.2,0.2-0.3,0.5-0.5,0.9c-0.1,0.4-0.1,0.8,0,1.2c0.1,0.4,0.2,0.8,0.4,1.1c0.2-0.2,0.5-0.7,0.7-1.1
			c0.2-0.4,0.4-0.7,0.4-0.7c-0.1,1-0.5,1.9-0.6,2.3C19.8,68.5,19.8,68.5,19.9,68.5z M17.8,63.8c0.6,0.6,1.3,0.2,1.7-0.7
			c0.2-0.5,0.4-1.2,0.5-1.9C20,60.8,20,60.4,20,60c0-0.2,0-0.4,0-0.6c0-0.2,0-0.4-0.1-0.6c-0.3,0.6-0.8,0.8-1.2,1
			c-0.5,0.2-0.9,0.4-1.2,1.2c-0.1,0.3-0.2,0.7-0.2,1.1c0,0.4,0.1,0.8,0.2,1.1c0.2-0.2,0.5-0.6,0.8-0.9c0.3-0.4,0.5-0.7,0.5-0.7
			C18.5,62.5,18,63.4,17.8,63.8C17.8,63.7,17.8,63.8,17.8,63.8z M16.5,58.8c0,0,0,0.1,0.1,0.1c0.5,0.7,1.3,0.4,1.7-0.5
			c0.2-0.4,0.5-1.1,0.7-1.8c0-0.2,0.1-0.4,0.1-0.6c0-0.2,0.1-0.4,0.1-0.6c0-0.4,0.1-0.8,0-1.2c-0.4,0.5-0.8,0.7-1.3,0.8
			c-0.5,0.1-0.9,0.3-1.4,1c-0.4,0.6-0.4,1.5-0.3,2.2c0.2-0.1,0.6-0.5,0.9-0.8c0.3-0.3,0.5-0.6,0.5-0.6c-0.2,0.5-0.4,0.9-0.6,1.2
			C16.9,58.4,16.6,58.7,16.5,58.8z M15.9,53.9c0,0,0,0.1,0.1,0.1c0.2,0.3,0.5,0.5,0.8,0.4c0.3-0.1,0.6-0.3,0.9-0.7
			c0.3-0.4,0.6-1,0.8-1.7c0.3-0.7,0.5-1.5,0.4-2.3c-0.4,0.5-0.9,0.6-1.3,0.7c-0.5,0.1-0.9,0.2-1.4,0.9c-0.2,0.3-0.4,0.7-0.4,1
			c-0.1,0.4-0.1,0.7,0,1.1c0.3-0.1,0.6-0.4,1-0.7c0.3-0.3,0.6-0.5,0.6-0.5C16.9,53,16.2,53.7,15.9,53.9z M15.6,48.5
			c0.3-0.1,0.7-0.3,1-0.6c0.3-0.2,0.6-0.4,0.6-0.4c-0.5,0.8-1.2,1.4-1.5,1.6c0,0,0,0.1,0,0.1c0.3,0.7,1.1,0.6,1.7-0.1
			c0.1-0.2,0.3-0.4,0.5-0.7c0.1-0.1,0.2-0.3,0.2-0.4c0.1-0.1,0.2-0.3,0.2-0.5c0.2-0.3,0.3-0.7,0.4-1c0.1-0.4,0.2-0.7,0.2-1.1
			c-0.5,0.4-0.9,0.4-1.4,0.5c-0.5,0-0.9,0.1-1.4,0.7c-0.2,0.3-0.4,0.6-0.5,0.9C15.7,47.8,15.6,48.2,15.6,48.5z M16.1,43.9
			c0.3,0,0.7-0.3,1-0.4c0.4-0.2,0.7-0.3,0.7-0.3c-0.3,0.3-0.6,0.6-0.9,0.9c-0.3,0.2-0.6,0.4-0.7,0.5c0,0,0,0.1,0,0.1
			c0.2,0.7,1,0.7,1.6,0.1c0.2-0.2,0.3-0.4,0.5-0.6c0.1-0.1,0.2-0.2,0.3-0.4c0.1-0.1,0.2-0.3,0.3-0.4c0.4-0.6,0.7-1.3,0.9-2
			c-0.5,0.3-0.9,0.3-1.4,0.3c-0.5,0-0.9,0-1.5,0.5C16.5,42.5,16.1,43.2,16.1,43.9z M17,40c0,0,0,0.1,0,0.1c0.2,0.7,0.9,0.8,1.5,0.3
			c0.2-0.1,0.4-0.3,0.6-0.5c0.2-0.2,0.5-0.4,0.7-0.7c0.2-0.3,0.4-0.5,0.6-0.8c0.2-0.3,0.4-0.6,0.5-0.9c-0.5,0.3-0.9,0.2-1.3,0.1
			c-0.2,0-0.4-0.1-0.7,0c-0.2,0-0.5,0.1-0.8,0.3c-0.5,0.4-1,1-1.1,1.6c0.2,0,0.7-0.2,1-0.3c0.4-0.1,0.7-0.2,0.7-0.2
			c-0.3,0.3-0.7,0.5-1,0.7C17.5,39.8,17.2,39.9,17,40z M18.5,35.9c0.1,0.7,0.7,0.9,1.5,0.5c0.4-0.2,0.9-0.6,1.4-1
			c0.1-0.1,0.2-0.2,0.4-0.4c0.1-0.1,0.2-0.3,0.4-0.4c0.2-0.3,0.4-0.6,0.6-0.9c-0.5,0.2-0.9,0.1-1.3-0.1c-0.4-0.1-0.8-0.2-1.5,0.1
			c-0.3,0.1-0.5,0.4-0.7,0.6c-0.2,0.3-0.4,0.6-0.5,0.8c0.2,0,0.7-0.1,1-0.1c0.4-0.1,0.7-0.2,0.7-0.2c-0.6,0.5-1.5,0.7-1.8,0.8
			C18.5,35.8,18.5,35.9,18.5,35.9z M23.2,30.2c-0.4-0.2-0.8-0.3-1.4-0.1c-0.3,0.1-0.6,0.3-0.8,0.5c-0.2,0.2-0.4,0.5-0.5,0.8
			c0.2,0,0.7,0,1,0c0.4,0,0.7-0.1,0.7-0.1c-0.7,0.4-1.5,0.6-1.8,0.6c0,0,0,0.1,0,0.1c0,0.4,0.1,0.6,0.4,0.7c0.2,0.1,0.6,0.1,1-0.1
			c0.4-0.2,0.9-0.5,1.4-0.8c0.3-0.2,0.5-0.4,0.8-0.6c0.2-0.2,0.5-0.5,0.7-0.8C24,30.5,23.6,30.4,23.2,30.2z M26,28
			c0.3-0.2,0.5-0.4,0.7-0.7c-0.5,0.1-0.9-0.1-1.2-0.3c-0.3-0.2-0.7-0.4-1.4-0.2c-0.3,0.1-0.6,0.2-0.8,0.4c-0.1,0.1-0.2,0.2-0.3,0.3
			c-0.1,0.1-0.2,0.2-0.3,0.4c0.2,0.1,0.6,0.1,1,0.1c0.4,0,0.7,0,0.7,0c-0.2,0.1-0.4,0.2-0.5,0.2c-0.2,0.1-0.4,0.1-0.5,0.1
			c-0.3,0.1-0.6,0.1-0.8,0.1c0,0,0,0.1,0,0.1c-0.1,0.7,0.5,1,1.2,0.8c0.4-0.1,0.9-0.4,1.5-0.7C25.5,28.4,25.7,28.2,26,28z M28,24.1
			c-0.3-0.2-0.7-0.4-1.3-0.3c-0.6,0.1-1.1,0.5-1.5,1c0.2,0.1,0.6,0.1,0.9,0.2c0.3,0,0.6,0,0.6,0c-0.7,0.3-1.5,0.2-1.8,0.2
			c0,0,0,0.1,0,0.1c-0.2,0.7,0.4,1,1.1,0.9c0.8-0.2,2.1-0.7,3-1.7C28.6,24.5,28.3,24.3,28,24.1z M27.7,22.3
			C27.7,22.3,27.6,22.4,27.7,22.3c-0.2,0.7,0.2,1.1,1,1c0.8-0.1,2.1-0.5,3.1-1.4c-0.5,0-0.8-0.2-1.1-0.5c-0.3-0.2-0.6-0.5-1.2-0.4
			c-0.6,0.1-1.1,0.4-1.5,0.8c0.2,0.1,0.6,0.2,0.9,0.2c0.2,0,0.3,0,0.4,0.1c0.1,0,0.2,0,0.2,0C28.7,22.4,28,22.4,27.7,22.3z
			 M30.5,19.7C30.4,19.8,30.4,19.8,30.5,19.7c-0.3,0.7,0.1,1.1,0.9,1.1c0.4,0,0.9-0.1,1.4-0.3c0.3-0.1,0.6-0.2,0.8-0.3
			c0.3-0.1,0.5-0.3,0.8-0.5c-0.5,0-0.7-0.3-1-0.5c-0.3-0.2-0.5-0.5-1.2-0.5c-0.5,0-1.1,0.3-1.5,0.7c0.2,0.1,0.5,0.2,0.8,0.3
			c0.3,0.1,0.6,0.1,0.6,0.1C31.5,19.9,30.7,19.8,30.5,19.7z M33.3,17.4C33.3,17.5,33.3,17.5,33.3,17.4c-0.3,0.6,0,1.1,0.7,1.1
			c0.7,0,2-0.2,3-0.9c-0.9-0.1-0.8-1.1-2-1.1c-0.5,0-1.1,0.2-1.5,0.6c0.2,0.1,0.5,0.2,0.8,0.3c0.3,0.1,0.5,0.2,0.5,0.2
			C34.3,17.7,33.6,17.5,33.3,17.4z M36.6,15.1c0.1,0.1,0.5,0.3,0.7,0.4c0.3,0.1,0.5,0.2,0.5,0.2c-0.7,0-1.3-0.2-1.5-0.3
			c0,0,0,0.1-0.1,0.1c-0.3,0.5,0,1,0.7,1c0.7,0.1,2,0,2.9-0.6c-0.4-0.1-0.6-0.4-0.8-0.6c-0.2-0.3-0.4-0.5-1-0.6
			C37.5,14.6,37,14.8,36.6,15.1z M46.5,88.6c-0.2,0.1-0.6,0.3-1,0.5c-0.2,0.1-0.4,0.2-0.7,0.3c-0.2,0.1-0.5,0.2-0.8,0.2
			c0,0,0.1-0.1,0.3-0.2c0.1,0,0.2-0.1,0.2-0.2c0.1-0.1,0.2-0.1,0.3-0.2c0.2-0.2,0.4-0.3,0.6-0.5c0.2-0.2,0.4-0.3,0.5-0.4
			c-0.1,0-0.2-0.1-0.3-0.1c-0.1,0-0.2-0.1-0.3-0.1c-0.2,0-0.4-0.1-0.7-0.1c-0.5,0-1,0-1.4,0.2c-1,0.3-1.4,0.8-1.7,1.3
			c-0.3,0.5-0.6,1-1.4,1.3c1,0.4,2.2,0.4,3.2,0.4c0.1,0,0.3,0,0.4,0l0.1,0l0.1,0l0.1,0c0.2,0,0.4-0.1,0.5-0.1
			c0.3-0.1,0.6-0.2,0.9-0.3c0.5-0.2,0.9-0.4,1.1-0.8c0.1-0.2,0.2-0.3,0.2-0.5c0-0.2-0.1-0.4-0.2-0.6C46.6,88.7,46.5,88.6,46.5,88.6z
			 M40.9,86.7c0,0-0.1-0.1-0.1-0.1c-0.4,0.2-1.4,0.8-2.7,1c0,0,0.4-0.2,0.9-0.5c0.5-0.3,1-0.6,1.2-0.9c-0.4-0.2-0.8-0.3-1.3-0.3
			c-0.5,0-0.9,0-1.4,0.1c-1,0.2-1.4,0.7-1.7,1.2c-0.3,0.5-0.6,0.9-1.5,1.1c1,0.4,2.2,0.6,3.2,0.6c1,0,1.9-0.1,2.5-0.3
			C41.2,88.3,41.6,87.4,40.9,86.7z M35.3,84.5c0,0-0.1-0.1-0.1-0.1c-0.4,0.2-1.5,0.7-2.7,0.7c0,0,0.1,0,0.3-0.1
			c0.2-0.1,0.4-0.2,0.6-0.3c0.5-0.2,1-0.5,1.2-0.7c-0.4-0.2-0.8-0.4-1.2-0.4c-0.4-0.1-0.9-0.1-1.4-0.1c-1,0.1-1.4,0.5-1.8,0.9
			c-0.4,0.4-0.7,0.8-1.6,0.9c0.5,0.3,1,0.5,1.6,0.7c0.5,0.2,1.1,0.3,1.6,0.3c0.5,0.1,1,0.1,1.4,0.1c0.4,0,0.8-0.1,1.1-0.1
			C35.5,86.1,35.9,85.3,35.3,84.5z M29.9,81.8c0,0-0.1-0.1-0.1-0.1c-0.2,0.1-0.6,0.2-1.1,0.3c-0.5,0.1-1.1,0.1-1.7,0
			c0,0,0.4-0.1,0.9-0.3c0.5-0.2,1-0.4,1.3-0.5c-0.3-0.2-0.7-0.5-1.2-0.6c-0.4-0.1-0.9-0.2-1.3-0.3c-0.5,0-0.9,0.1-1.2,0.2
			c-0.3,0.1-0.5,0.3-0.7,0.5c-0.4,0.3-0.8,0.7-1.7,0.6c0.4,0.4,0.9,0.7,1.4,0.9c0.5,0.2,1,0.4,1.5,0.6c1,0.2,1.9,0.3,2.5,0.3
			C30,83.4,30.4,82.6,29.9,81.8z M25.1,78.4c0,0,0-0.1-0.1-0.1c-0.2,0-0.6,0.1-1.1,0.1c-0.5,0-1-0.1-1.6-0.3c0,0,0.4,0,0.9-0.1
			c0.5-0.1,1.1-0.2,1.3-0.3c-0.3-0.3-0.6-0.6-1-0.8c-0.1-0.1-0.2-0.1-0.3-0.1c-0.1,0-0.2-0.1-0.3-0.1c-0.2-0.1-0.4-0.1-0.6-0.2
			c-1-0.2-1.5,0-1.9,0.3c-0.5,0.3-0.9,0.5-1.7,0.3c0.4,0.4,0.8,0.8,1.2,1.2c0.5,0.3,0.9,0.6,1.4,0.8c0.5,0.2,0.9,0.4,1.3,0.5
			c0.4,0.1,0.8,0.2,1.1,0.2C24.9,79.9,25.5,79.3,25.1,78.4z M20.7,75.3c0.3-0.2,0.4-0.5,0.3-1c0,0,0-0.1,0-0.1
			c-0.4,0-1.6-0.1-2.5-0.7c0,0,0.4,0.1,0.9,0.1c0.5,0,1.1,0,1.3,0c-0.2-0.3-0.5-0.7-0.8-0.9c-0.3-0.3-0.7-0.5-1.1-0.7
			c-0.9-0.4-1.4-0.3-1.9-0.1C16.5,71.9,16.3,72,16,72c-0.3,0-0.6,0-0.9-0.2c0.1,0.2,0.3,0.5,0.4,0.7c0.2,0.2,0.3,0.4,0.5,0.6
			c0.2,0.2,0.4,0.4,0.6,0.6c0.2,0.2,0.4,0.3,0.6,0.5c0.4,0.3,0.8,0.6,1.2,0.7c0.4,0.2,0.7,0.3,1,0.4C19.9,75.6,20.4,75.5,20.7,75.3z
			 M16.1,70.3c1,0.6,1.8,0.2,1.7-0.7c0,0,0-0.1,0-0.1c-0.4-0.1-1.4-0.4-2.3-1.1c0,0,0.4,0.1,0.9,0.3c0.5,0.1,1,0.2,1.3,0.2
			c-0.1-0.4-0.4-0.7-0.6-1.1c-0.3-0.3-0.6-0.6-0.9-0.9c-0.4-0.3-0.7-0.4-1-0.4c-0.3-0.1-0.6,0-0.8,0c-0.5,0.1-1,0.2-1.6-0.3
			c0.3,1,1,1.9,1.6,2.6c0.3,0.4,0.7,0.7,1,0.9C15.6,69.9,15.9,70.2,16.1,70.3z M13.9,64.9c0.9,0.7,1.7,0.5,1.8-0.4c0,0,0-0.1,0-0.1
			c-0.4-0.1-1.3-0.6-2-1.4c0,0,0.4,0.2,0.8,0.4c0.4,0.2,0.9,0.4,1.2,0.4c-0.1-0.4-0.2-0.7-0.4-1.1c-0.2-0.4-0.4-0.7-0.7-1
			c-0.7-0.6-1.2-0.7-1.7-0.7c-0.5,0-1,0-1.5-0.5c0,0.2,0.1,0.5,0.2,0.7c0.1,0.2,0.2,0.5,0.3,0.7c0.2,0.5,0.4,0.9,0.7,1.3
			C12.9,64,13.5,64.5,13.9,64.9z M12.6,59.5c0.8,0.8,1.5,0.7,1.8-0.1c0,0,0-0.1,0-0.1c-0.2-0.1-0.5-0.3-0.8-0.5
			c-0.3-0.3-0.7-0.6-1-1.1c0,0,0.3,0.2,0.7,0.5c0.4,0.2,0.8,0.5,1.1,0.5c0-0.7-0.4-1.6-0.9-2.1c-0.6-0.7-1.1-0.8-1.5-0.8
			c-0.5-0.1-0.9-0.1-1.4-0.7c0,0.5,0.1,1,0.3,1.4c0.1,0.2,0.1,0.4,0.2,0.7c0.1,0.2,0.2,0.4,0.3,0.6C11.8,58.4,12.3,59.1,12.6,59.5z
			 M12.1,54.1c0.3,0.4,0.7,0.6,1,0.6c0.3,0,0.6-0.2,0.7-0.6c0,0,0-0.1,0-0.1c-0.3-0.2-1.1-0.8-1.6-1.7c0,0,0.3,0.2,0.6,0.5
			c0.4,0.3,0.8,0.5,1,0.6c0-0.4,0-0.7-0.2-1.1c-0.1-0.4-0.3-0.7-0.5-1c-0.5-0.7-1-0.8-1.4-0.9c-0.5-0.1-0.9-0.2-1.3-0.8
			c0,0.9,0.2,1.9,0.5,2.6C11.4,53.1,11.8,53.7,12.1,54.1z M11.2,47c0,0.2,0.1,0.4,0.2,0.6c0.1,0.2,0.1,0.4,0.2,0.5
			c0.1,0.3,0.3,0.6,0.4,0.8c0.5,0.9,1.3,0.9,1.7,0.2c0,0,0-0.1,0.1-0.1c-0.3-0.2-1-0.9-1.4-1.8c0,0,0.1,0.1,0.2,0.2
			c0.1,0.1,0.2,0.2,0.4,0.4c0.3,0.3,0.7,0.6,0.9,0.7c0-0.3,0-0.7-0.1-1.1c-0.1-0.4-0.2-0.7-0.4-1.1c-0.4-0.7-0.9-0.9-1.3-1.1
			c-0.4-0.2-0.9-0.3-1.2-0.9c-0.1,0.5-0.1,0.9,0,1.4C11,46.2,11.1,46.6,11.2,47z M12,42.5c0,0.2,0.1,0.4,0.1,0.5
			c0.1,0.3,0.2,0.6,0.3,0.8c0.4,0.9,1.1,1,1.6,0.4c0,0,0-0.1,0.1-0.1c-0.1-0.1-0.3-0.4-0.5-0.7c-0.2-0.3-0.4-0.8-0.5-1.2
			c0,0,0.2,0.3,0.5,0.6c0.3,0.3,0.6,0.7,0.8,0.8c0.1-0.7,0.1-1.5-0.1-2.1c-0.3-0.7-0.7-1-1.1-1.2c-0.4-0.2-0.8-0.4-1-1
			c-0.3,0.9-0.2,1.8-0.1,2.6C12,42.1,12,42.3,12,42.5z M13.6,39c0.3,0.9,1,1.1,1.5,0.5c0,0,0.1-0.1,0.1-0.1
			c-0.1-0.1-0.3-0.4-0.4-0.7c-0.2-0.3-0.3-0.8-0.4-1.2c0,0,0.2,0.3,0.4,0.6c0.2,0.3,0.5,0.7,0.7,0.9c0.2-0.6,0.3-1.4,0.1-2.1
			c-0.1-0.4-0.2-0.6-0.4-0.8c-0.2-0.2-0.3-0.3-0.5-0.4c-0.4-0.2-0.7-0.4-0.9-1.1c-0.2,0.4-0.3,0.8-0.4,1.3c-0.1,0.4-0.1,0.9-0.1,1.3
			c0,0.4,0,0.8,0.1,1.1C13.4,38.5,13.5,38.8,13.6,39z M16.6,35.1C16.6,35.1,16.7,35.1,16.6,35.1c-0.1-0.4-0.4-1.2-0.5-2.1
			c0,0,0.1,0.3,0.3,0.7c0.2,0.3,0.4,0.7,0.6,0.9c0.2-0.3,0.3-0.6,0.3-1c0.1-0.3,0.1-0.7,0-1c-0.1-0.7-0.4-1.1-0.7-1.3
			c-0.3-0.3-0.7-0.5-0.7-1.2c-0.2,0.4-0.4,0.8-0.5,1.2c-0.1,0.2-0.1,0.4-0.2,0.6c0,0.2-0.1,0.4-0.1,0.6c-0.1,0.8,0,1.5,0,1.9
			C15.4,35.4,16,35.6,16.6,35.1z M17.8,31.2c0.2,0.1,0.5,0.1,0.8-0.1c0,0,0.1,0,0.1-0.1c-0.1-0.3-0.4-1.1-0.3-2c0,0,0.1,0.3,0.2,0.7
			c0.1,0.4,0.3,0.8,0.5,0.9c0.2-0.3,0.3-0.6,0.4-0.9c0.1-0.3,0.2-0.7,0.2-1c0-0.7-0.3-1.1-0.6-1.4c-0.3-0.3-0.6-0.6-0.6-1.2
			c-0.3,0.3-0.4,0.7-0.6,1.1c-0.2,0.4-0.3,0.7-0.4,1.1c-0.2,0.7-0.2,1.4-0.1,1.8C17.4,30.7,17.5,31,17.8,31.2z M20.9,27.4
			C21,27.4,21,27.4,20.9,27.4c0-0.2,0-0.5-0.1-0.8c0-0.2,0-0.4,0-0.6c0-0.2,0-0.4,0.1-0.6c0,0,0.1,0.3,0.1,0.7
			c0.1,0.3,0.2,0.8,0.3,0.9c0.1-0.1,0.2-0.2,0.3-0.4c0.1-0.1,0.2-0.3,0.2-0.4c0.1-0.3,0.2-0.6,0.2-0.9c0-0.7-0.2-1-0.4-1.4
			c-0.3-0.3-0.5-0.6-0.5-1.2c-0.3,0.3-0.5,0.6-0.7,1c-0.2,0.3-0.3,0.7-0.4,1c-0.2,0.7-0.3,1.3-0.3,1.8
			C19.8,27.3,20.3,27.7,20.9,27.4z M23.5,24.1C23.6,24,23.6,24,23.5,24.1c0-0.3-0.1-1.1,0.2-1.9c0,0,0,0.3,0.1,0.6
			c0.1,0.3,0.1,0.7,0.3,0.9c0.4-0.4,0.8-1,0.9-1.6c0.1-0.7-0.1-1-0.3-1.3c-0.2-0.3-0.5-0.6-0.4-1.2c-1.1,1.1-1.6,2.7-1.7,3.5
			C22.4,23.9,22.9,24.3,23.5,24.1z M26.3,21.1C26.4,21.1,26.4,21.1,26.3,21.1c0.1-0.3,0-1.1,0.3-1.8c0,0,0,0.1,0,0.2
			c0,0.1,0,0.3,0,0.4c0,0.3,0.1,0.7,0.2,0.9c0.4-0.4,0.8-0.9,1-1.5c0.1-0.6,0-1-0.2-1.3c-0.2-0.3-0.4-0.6-0.3-1.2
			c-1.2,0.9-1.7,2.4-1.9,3.2C25.3,20.9,25.7,21.3,26.3,21.1z M29.3,18.4C29.3,18.4,29.3,18.4,29.3,18.4c0.1-0.3,0.1-1,0.4-1.7
			c0,0,0,0.3,0,0.6c0,0.3,0,0.7,0.1,0.9c0.5-0.3,0.9-0.8,1-1.4c0.2-0.6,0-1-0.1-1.3c-0.2-0.3-0.3-0.6-0.2-1.1
			c-0.3,0.2-0.6,0.4-0.8,0.7c-0.2,0.3-0.4,0.5-0.6,0.8c-0.3,0.5-0.6,1.1-0.7,1.4C28.2,18.1,28.6,18.6,29.3,18.4z M32.3,16.1
			C32.3,16.1,32.3,16.1,32.3,16.1c0.1-0.3,0.2-1,0.5-1.6c0,0,0,0.3-0.1,0.6c0,0.3,0,0.7,0,0.9c0.5-0.3,0.9-0.7,1.1-1.2
			c0.5-1.1-0.5-1.4-0.1-2.3c-1.2,0.7-1.9,2-2.2,2.7C31.3,15.7,31.6,16.2,32.3,16.1z M35.3,14C35.3,14,35.4,14,35.3,14
			c0.1-0.3,0.2-1,0.6-1.5c0,0-0.1,0.3-0.1,0.6c0,0.3-0.1,0.6,0,0.8c0.5-0.2,0.9-0.6,1.1-1.1c0.3-0.5,0.2-0.9,0.1-1.2
			c-0.1-0.3-0.2-0.6,0-1.1c-1.3,0.6-2.1,1.8-2.3,2.5C34.4,13.6,34.7,14.1,35.3,14z M56.2,87.2c0.3-0.1,0.6-0.2,0.9-0.3
			c0.6-0.2,1.2-0.4,1.9-0.6c2.5-0.9,5.2-1.9,8-3.2c2.8-1.3,5.6-2.9,8.2-5c2.6-2.1,5-4.7,6.8-7.8c0.9-1.5,1.6-3.1,2.3-4.8
			c0.6-1.7,1.1-3.4,1.5-5.1c0.7-3.5,1-7.1,1-10.6c0-3.5-0.5-7-1.4-10.2c-0.1-0.2-0.1-0.4-0.2-0.6c-0.1-0.2-0.1-0.4-0.2-0.6
			c-0.1-0.4-0.3-0.8-0.4-1.2c-0.1-0.2-0.1-0.4-0.2-0.6c-0.1-0.2-0.2-0.4-0.2-0.6c-0.2-0.4-0.3-0.8-0.5-1.1c-0.2-0.4-0.3-0.7-0.5-1.1
			c-0.1-0.2-0.2-0.4-0.2-0.5c-0.1-0.2-0.2-0.3-0.3-0.5c-0.2-0.3-0.4-0.7-0.5-1c-0.2-0.3-0.4-0.7-0.6-1c-0.8-1.3-1.6-2.5-2.4-3.7
			c-0.2-0.3-0.4-0.6-0.7-0.8c-0.2-0.3-0.4-0.6-0.7-0.8c-0.4-0.5-0.9-1.1-1.3-1.5c-1.8-2-3.6-3.6-5.2-5c-1.7-1.4-3.2-2.5-4.5-3.3
			c-1.3-0.9-2.3-1.5-3.1-1.9c-0.7-0.4-1.1-0.6-1.1-0.6s0.4,0.2,1.1,0.6c0.7,0.4,1.8,1,3.1,1.9c1.3,0.9,2.8,2,4.5,3.4
			c1.6,1.4,3.4,3.1,5.2,5.1c0.4,0.5,0.9,1,1.3,1.6c0.2,0.3,0.4,0.5,0.6,0.8c0.2,0.3,0.4,0.6,0.6,0.8c0.8,1.2,1.7,2.4,2.4,3.7
			c0.2,0.3,0.4,0.7,0.6,1c0.2,0.3,0.4,0.7,0.5,1c0.1,0.2,0.2,0.3,0.3,0.5c0.1,0.2,0.2,0.4,0.2,0.5c0.2,0.4,0.3,0.7,0.5,1.1
			c0.2,0.4,0.3,0.7,0.4,1.1c0.1,0.2,0.1,0.4,0.2,0.6c0.1,0.2,0.1,0.4,0.2,0.6c0.1,0.4,0.3,0.8,0.4,1.2c0.1,0.2,0.1,0.4,0.2,0.6
			c0.1,0.2,0.1,0.4,0.2,0.6c1.8,6.4,1.7,13.6,0.3,20.5c-0.4,1.7-0.9,3.4-1.5,5.1c-0.6,1.6-1.4,3.2-2.3,4.7c-1.8,3-4.1,5.5-6.7,7.5
			c-2.6,2-5.4,3.6-8.1,4.9c-2.7,1.3-5.4,2.2-8,3.1c-0.6,0.2-1.2,0.4-1.9,0.6c-0.3,0.1-0.6,0.2-0.9,0.3c-0.3,0.1-0.6,0.2-0.9,0.3
			c-1.2,0.4-2.2,1-3.1,1.6c-0.9,0.7-1.7,1.4-2.2,2.3l0.7,0.5c0.5-0.7,1.2-1.4,2-2.1c0.8-0.6,1.8-1.1,2.9-1.6
			C55.6,87.4,55.9,87.3,56.2,87.2z M55.1,82.3c-0.1,0.1-0.2,0.2-0.3,0.2l-0.1,0.1l-0.1,0.1l-0.2,0.1c-0.2,0.2-0.4,0.4-0.6,0.5
			c-0.4,0.4-0.7,0.7-0.9,1c-0.4,0.6-0.5,1.1-0.4,1.5c0.1,0.2,0.2,0.3,0.4,0.4c0.2,0.1,0.4,0.1,0.7,0.1c0.1,0,0.1,0,0.2,0
			c0.1-0.2,0.2-0.6,0.5-1.1c0.1-0.2,0.3-0.5,0.5-0.7c0.2-0.2,0.5-0.5,0.7-0.7c0,0,0,0.1-0.1,0.3c0,0.1-0.1,0.2-0.1,0.3
			c-0.1,0.1-0.1,0.2-0.2,0.4c-0.1,0.3-0.2,0.5-0.3,0.8c-0.1,0.3-0.1,0.5-0.1,0.7c0.1,0,0.2-0.1,0.3-0.1c0.1,0,0.2-0.1,0.3-0.1
			c0.2-0.1,0.4-0.2,0.6-0.3c0.4-0.3,0.8-0.6,1-0.9c0.6-0.8,0.6-1.4,0.5-2c-0.1-0.6-0.1-1.1,0.3-1.8C56.7,81.2,55.8,81.7,55.1,82.3z
			 M60.6,80.6c-0.7,0.6-1.2,1.3-1.6,1.8c-0.7,1-0.5,1.9,0.5,2c0,0,0.1,0,0.1,0c0.1-0.4,0.6-1.5,1.4-2.4c0,0-0.2,0.4-0.3,0.9
			c-0.2,0.5-0.3,1.1-0.3,1.4c0.4-0.1,0.8-0.3,1.2-0.6c0.4-0.3,0.7-0.6,0.9-1c0.5-0.8,0.5-1.4,0.4-2c-0.1-0.6-0.2-1.1,0.2-1.8
			C62.1,79.3,61.3,79.9,60.6,80.6z M66,80.7c-0.1,0.5-0.2,1.1-0.2,1.4c0.4-0.1,0.8-0.4,1.1-0.6c0.3-0.3,0.6-0.6,0.8-1
			c0.4-0.9,0.3-1.4,0.1-2c-0.2-0.5-0.3-1-0.1-1.8c-0.4,0.2-0.8,0.5-1.1,0.8c-0.3,0.3-0.7,0.6-1,1c-0.3,0.3-0.6,0.7-0.8,1
			c-0.2,0.3-0.4,0.6-0.6,0.9c-0.6,1-0.3,1.9,0.6,1.9c0,0,0.1,0,0.1,0c0.1-0.4,0.4-1.5,1.1-2.4c0,0,0,0.1-0.1,0.3
			C66.1,80.3,66.1,80.5,66,80.7z M70.9,79.5c0.3-0.2,0.7-0.4,1-0.8c0.3-0.3,0.5-0.7,0.6-1.1c0.2-0.4,0.2-0.8,0.1-1.1
			c0-0.3-0.2-0.6-0.3-0.8c-0.2-0.5-0.5-1-0.4-1.7c-0.3,0.3-0.6,0.6-0.9,0.9c-0.3,0.3-0.5,0.7-0.8,1c-0.5,0.7-0.8,1.4-1,1.9
			c-0.4,1-0.1,1.9,0.8,1.8c0,0,0.1,0,0.1,0c0-0.2,0.1-0.6,0.2-1c0.1-0.5,0.3-1,0.5-1.4c0,0,0,0.4-0.1,0.9
			C70.8,78.6,70.8,79.2,70.9,79.5z M75,74.1c0,0,0,0.4,0.1,0.9c0,0.5,0.1,1,0.2,1.3c0.3-0.2,0.6-0.5,0.8-0.9
			c0.1-0.1,0.1-0.2,0.2-0.3c0-0.1,0.1-0.2,0.1-0.3c0.1-0.2,0.1-0.4,0.1-0.6c0.1-0.9-0.2-1.4-0.5-1.8c-0.3-0.4-0.6-0.8-0.7-1.5
			c-0.3,0.3-0.5,0.6-0.7,1c-0.2,0.3-0.4,0.7-0.5,1.1c-0.2,0.4-0.3,0.7-0.4,1.1c-0.1,0.3-0.2,0.6-0.2,0.9c-0.2,1,0.2,1.8,1.1,1.6
			c0,0,0.1,0,0.1,0c0-0.2,0-0.6,0-1C74.8,75.1,74.9,74.6,75,74.1z M78.6,71.2c0.1,0.5,0.3,1,0.5,1.2c0.3-0.3,0.5-0.6,0.6-1
			c0.1-0.4,0.2-0.8,0.2-1.2c-0.1-0.9-0.5-1.3-0.8-1.6c-0.2-0.2-0.4-0.3-0.5-0.5c-0.2-0.2-0.3-0.5-0.4-0.8c-0.1,0.2-0.2,0.4-0.3,0.5
			c-0.1,0.2-0.2,0.4-0.2,0.6s-0.1,0.4-0.2,0.6c0,0.2-0.1,0.4-0.1,0.6c-0.1,0.4-0.1,0.8-0.2,1.1c0,0.3-0.1,0.7-0.1,0.9
			c0,0.5,0.1,0.9,0.4,1.2c0.2,0.2,0.6,0.3,1,0.2c0,0,0.1,0,0.1-0.1c-0.1-0.4-0.3-1.4-0.2-2.4C78.3,70.4,78.4,70.7,78.6,71.2z
			 M81.9,68c0.2-0.3,0.3-0.7,0.4-1.1c0.1-0.4,0-0.8,0-1.2c-0.1-0.4-0.3-0.7-0.5-0.9c-0.2-0.2-0.4-0.4-0.6-0.5
			c-0.4-0.3-0.9-0.5-1.1-1.1c-0.3,0.8-0.4,1.6-0.4,2.4c0,0.4,0,0.7,0,1.1c0,0.3,0.1,0.6,0.1,0.9c0.2,1,0.8,1.5,1.5,1
			c0,0,0.1,0,0.1-0.1c-0.1-0.3-0.6-1.3-0.6-2.3c0,0,0.2,0.3,0.4,0.7C81.4,67.3,81.7,67.7,81.9,68z M83.8,63.2
			c0.1-0.3,0.2-0.7,0.2-1.1c0-0.4-0.1-0.8-0.2-1.1c-0.3-0.8-0.8-1-1.2-1.2c-0.5-0.2-0.9-0.4-1.2-1c0,0.2-0.1,0.4-0.1,0.6
			c0,0.2,0,0.4,0,0.6c0,0.4,0,0.8,0.1,1.2c0.1,0.8,0.3,1.4,0.5,1.9c0.3,0.9,1,1.3,1.7,0.7c0,0,0.1-0.1,0.1-0.1
			c-0.2-0.3-0.8-1.2-1-2.1c0,0,0.2,0.3,0.5,0.7C83.2,62.6,83.5,63,83.8,63.2z M84.9,58.3c0.2-0.7,0.1-1.5-0.3-2.2
			c-0.4-0.7-0.9-0.9-1.4-1c-0.5-0.1-0.9-0.3-1.3-0.8c0,0.4,0,0.8,0,1.2c0,0.2,0.1,0.4,0.1,0.6c0,0.2,0.1,0.4,0.1,0.6
			c0.2,0.7,0.5,1.4,0.7,1.8c0.4,0.9,1.2,1.1,1.7,0.5c0,0,0-0.1,0.1-0.1c-0.1-0.1-0.3-0.4-0.6-0.7c-0.2-0.3-0.5-0.8-0.6-1.2
			c0,0,0.2,0.3,0.5,0.6C84.3,57.8,84.7,58.1,84.9,58.3z M85.5,53.3c0.1-0.3,0-0.7,0-1.1c-0.1-0.4-0.2-0.7-0.4-1
			c-0.5-0.7-0.9-0.8-1.4-0.9c-0.5-0.1-0.9-0.2-1.3-0.7c0,0.8,0.2,1.6,0.4,2.3c0.2,0.7,0.6,1.3,0.8,1.7c0.3,0.4,0.6,0.6,0.9,0.7
			c0.3,0.1,0.6-0.1,0.8-0.4c0,0,0-0.1,0.1-0.1c-0.3-0.2-1-0.9-1.4-1.8c0,0,0.3,0.2,0.6,0.5C84.9,52.9,85.2,53.2,85.5,53.3z
			 M85.6,48.5c0-0.3,0-0.7-0.1-1c-0.1-0.3-0.3-0.7-0.5-0.9c-0.5-0.6-1-0.7-1.4-0.7c-0.5,0-0.9-0.1-1.4-0.5c0.1,0.4,0.1,0.7,0.2,1.1
			c0.1,0.4,0.3,0.7,0.4,1c0.1,0.2,0.2,0.3,0.2,0.5c0.1,0.1,0.2,0.3,0.2,0.4c0.2,0.3,0.3,0.5,0.5,0.7c0.6,0.7,1.3,0.8,1.7,0.1
			c0,0,0-0.1,0-0.1c-0.3-0.2-1-0.8-1.5-1.6c0,0,0.3,0.2,0.6,0.4C84.9,48.2,85.3,48.4,85.6,48.5z M85.2,43.9c0-0.6-0.4-1.4-0.9-1.8
			c-0.6-0.5-1-0.5-1.5-0.5c-0.4,0-0.9,0.1-1.4-0.3c0.2,0.7,0.5,1.4,0.9,2c0.1,0.1,0.2,0.3,0.3,0.4c0.1,0.1,0.2,0.3,0.3,0.4
			c0.2,0.2,0.4,0.4,0.5,0.6c0.6,0.6,1.4,0.6,1.6-0.1c0,0,0-0.1,0-0.1c-0.2-0.1-0.4-0.2-0.7-0.5c-0.3-0.2-0.6-0.5-0.9-0.9
			c0,0,0.3,0.2,0.7,0.3C84.5,43.6,84.9,43.8,85.2,43.9z M84.2,39.4c-0.1-0.6-0.5-1.3-1.1-1.6c-0.3-0.2-0.6-0.3-0.8-0.3
			c-0.2,0-0.5,0-0.7,0c-0.4,0.1-0.8,0.2-1.3-0.1c0.1,0.3,0.3,0.7,0.5,0.9c0.2,0.3,0.4,0.6,0.6,0.8c0.2,0.3,0.5,0.5,0.7,0.7
			c0.2,0.2,0.4,0.4,0.6,0.5c0.7,0.5,1.4,0.4,1.5-0.3c0,0,0-0.1,0-0.1c-0.2-0.1-0.4-0.2-0.7-0.4c-0.3-0.2-0.7-0.4-1-0.7
			c0,0,0.3,0.1,0.7,0.2C83.5,39.3,83.9,39.4,84.2,39.4z M82.7,35.3c-0.1-0.3-0.3-0.6-0.5-0.8c-0.2-0.3-0.5-0.5-0.7-0.6
			c-0.6-0.3-1.1-0.2-1.5-0.1c-0.4,0.1-0.8,0.3-1.3,0.1c0.2,0.3,0.4,0.6,0.6,0.9c0.1,0.1,0.2,0.3,0.4,0.4c0.1,0.1,0.2,0.2,0.4,0.4
			c0.5,0.5,1,0.8,1.4,1c0.7,0.4,1.4,0.2,1.5-0.5c0,0,0-0.1,0-0.1c-0.3-0.1-1.2-0.3-1.8-0.8c0,0,0.3,0.1,0.7,0.2
			C82,35.2,82.4,35.3,82.7,35.3z M80.7,31.4c-0.1-0.3-0.3-0.5-0.5-0.8c-0.2-0.2-0.5-0.4-0.8-0.5c-0.7-0.3-1.1-0.1-1.4,0.1
			c-0.4,0.2-0.7,0.3-1.3,0.2c0.2,0.3,0.4,0.6,0.7,0.8c0.2,0.2,0.5,0.5,0.8,0.6c0.5,0.4,1,0.7,1.4,0.8c0.4,0.2,0.7,0.2,1,0.1
			c0.2-0.1,0.4-0.4,0.4-0.7c0,0,0-0.1,0-0.1c-0.3,0-1.1-0.2-1.8-0.6c0,0,0.3,0,0.7,0.1C80.1,31.5,80.5,31.5,80.7,31.4z M78.5,27.9
			c-0.1-0.1-0.2-0.3-0.3-0.4c-0.1-0.1-0.2-0.2-0.3-0.3c-0.2-0.2-0.5-0.3-0.8-0.4c-0.6-0.2-1,0-1.4,0.2c-0.3,0.2-0.7,0.4-1.2,0.3
			c0.2,0.3,0.5,0.5,0.7,0.7c0.3,0.2,0.5,0.4,0.8,0.6c0.6,0.3,1.1,0.6,1.5,0.7c0.8,0.2,1.3-0.1,1.2-0.8c0,0,0-0.1,0-0.1
			c-0.2,0-0.4,0-0.8-0.1c-0.2,0-0.3-0.1-0.5-0.1c-0.2-0.1-0.4-0.1-0.5-0.2c0,0,0.3,0,0.7,0C77.9,28,78.3,28,78.5,27.9z M76,24.8
			c-0.3-0.5-0.9-0.9-1.5-1c-0.6-0.1-1,0.1-1.3,0.3c-0.3,0.2-0.6,0.4-1.1,0.4c0.9,1,2.3,1.5,3,1.7c0.8,0.2,1.3-0.2,1.1-0.9
			c0,0,0-0.1,0-0.1c-0.3,0-1.1,0-1.8-0.2c0,0,0.3,0,0.6,0C75.4,24.9,75.8,24.8,76,24.8z M72.4,22.1c0.3-0.1,0.7-0.1,0.9-0.2
			c-0.3-0.4-0.9-0.8-1.5-0.8c-0.6-0.1-0.9,0.2-1.2,0.4c-0.3,0.2-0.6,0.5-1.1,0.5c1,0.9,2.3,1.3,3.1,1.4c0.8,0.1,1.2-0.3,1-0.9
			c0,0,0-0.1,0-0.1c-0.3,0-1,0.1-1.7-0.1c0,0,0.1,0,0.2,0C72.1,22.2,72.2,22.2,72.4,22.1z M70.5,19.4c-0.4-0.4-1-0.7-1.5-0.7
			c-0.6,0-0.9,0.2-1.2,0.5c-0.3,0.2-0.5,0.5-1,0.5c0.2,0.2,0.5,0.4,0.8,0.5c0.3,0.1,0.6,0.2,0.8,0.3c0.5,0.2,1.1,0.3,1.4,0.3
			c0.7,0.1,1.1-0.4,0.9-1c0,0,0-0.1,0-0.1c-0.3,0.1-1,0.2-1.7,0c0,0,0.3-0.1,0.6-0.1C69.9,19.6,70.3,19.5,70.5,19.4z M67.6,17.1
			c-0.4-0.3-1-0.6-1.5-0.6c-1.2,0-1.1,1-2,1.1c1,0.7,2.3,0.9,3,0.9c0.7,0,1.1-0.4,0.8-1c0,0,0-0.1,0-0.1c-0.2,0.1-0.9,0.3-1.6,0.2
			c0,0,0.2-0.1,0.5-0.2C67.1,17.3,67.4,17.2,67.6,17.1z M64.3,16.5c0.7,0,1-0.5,0.7-1c0,0,0-0.1-0.1-0.1c-0.2,0.1-0.9,0.3-1.5,0.3
			c0,0,0.2-0.1,0.5-0.2c0.3-0.1,0.6-0.3,0.7-0.4c-0.4-0.3-1-0.5-1.5-0.4c-0.6,0.1-0.8,0.3-1,0.6c-0.2,0.3-0.4,0.5-0.8,0.6
			C62.3,16.5,63.6,16.6,64.3,16.5z M59.6,89.4c-0.3-0.5-0.7-1-1.7-1.3c-0.4-0.1-0.9-0.2-1.4-0.2c-0.2,0-0.4,0-0.7,0.1
			c-0.1,0-0.2,0.1-0.3,0.1c-0.1,0-0.2,0.1-0.3,0.1c0.1,0.1,0.3,0.3,0.5,0.4c0.2,0.2,0.4,0.3,0.6,0.5c0.1,0.1,0.2,0.1,0.3,0.2
			c0.1,0.1,0.2,0.1,0.2,0.2c0.2,0.1,0.3,0.2,0.3,0.2c-0.3,0-0.5-0.1-0.8-0.2c-0.2-0.1-0.5-0.2-0.7-0.3c-0.4-0.2-0.8-0.4-1-0.5
			c0,0-0.1,0.1-0.1,0.1c-0.1,0.2-0.2,0.4-0.2,0.6c0,0.2,0.1,0.4,0.2,0.5c0.2,0.3,0.6,0.6,1.1,0.8c0.3,0.1,0.6,0.2,0.9,0.3
			c0.2,0,0.3,0.1,0.5,0.1l0.1,0l0.1,0l0.1,0c0.1,0,0.2,0,0.4,0c1,0.1,2.1,0,3.2-0.4C60.1,90.4,59.9,89.9,59.6,89.4z M65.4,87.2
			c-0.3-0.5-0.7-0.9-1.7-1.2c-0.4-0.1-0.9-0.1-1.4-0.1c-0.5,0-0.9,0.2-1.3,0.3c0.2,0.3,0.7,0.6,1.2,0.9c0.5,0.3,0.9,0.5,0.9,0.5
			c-1.2-0.1-2.3-0.7-2.7-1c0,0-0.1,0.1-0.1,0.1c-0.7,0.7-0.3,1.5,0.9,1.9c0.6,0.2,1.5,0.3,2.5,0.3c1,0,2.2-0.2,3.2-0.6
			C66,88.1,65.7,87.6,65.4,87.2z M71,84.5c-0.4-0.4-0.8-0.8-1.8-0.9c-0.4-0.1-0.9,0-1.4,0.1c-0.5,0.1-0.9,0.2-1.2,0.4
			c0.2,0.2,0.8,0.5,1.2,0.7c0.2,0.1,0.5,0.2,0.6,0.3c0.2,0.1,0.3,0.1,0.3,0.1c-1.2,0-2.3-0.5-2.7-0.7c0,0-0.1,0.1-0.1,0.1
			c-0.6,0.7-0.2,1.5,1,1.8c0.3,0.1,0.7,0.1,1.1,0.1c0.4,0,0.9,0,1.4-0.1c0.5-0.1,1-0.2,1.6-0.3c0.5-0.2,1.1-0.4,1.6-0.7
			C71.8,85.3,71.4,84.9,71,84.5z M75.5,80.6c-0.3-0.1-0.7-0.2-1.2-0.2c-0.4,0-0.9,0.1-1.3,0.3c-0.4,0.1-0.8,0.3-1.2,0.6
			c0.3,0.2,0.8,0.4,1.3,0.5c0.5,0.2,0.9,0.3,0.9,0.3c-0.6,0.1-1.2,0-1.7,0c-0.5-0.1-0.9-0.2-1.1-0.3c0,0-0.1,0.1-0.1,0.1
			c-0.5,0.8,0,1.5,1.2,1.6c0.6,0,1.5,0,2.5-0.3c0.5-0.1,1-0.3,1.5-0.6c0.5-0.3,1-0.5,1.4-0.9c-0.9,0.1-1.3-0.3-1.7-0.6
			C76.1,80.9,75.8,80.7,75.5,80.6z M80.8,76.8c-0.5-0.3-1-0.5-1.9-0.3c-0.2,0-0.4,0.1-0.6,0.2c-0.1,0-0.2,0.1-0.3,0.1
			c-0.1,0-0.2,0.1-0.3,0.1c-0.4,0.2-0.7,0.5-1,0.8c0.3,0.1,0.8,0.2,1.3,0.3c0.5,0.1,0.9,0.1,0.9,0.1c-0.6,0.2-1.1,0.3-1.6,0.3
			c-0.5,0-0.9-0.1-1.1-0.1c0,0,0,0.1-0.1,0.1c-0.4,0.9,0.2,1.5,1.4,1.4c0.3,0,0.7-0.1,1.1-0.2c0.4-0.1,0.9-0.3,1.3-0.5
			c0.5-0.2,0.9-0.5,1.4-0.8c0.5-0.3,0.9-0.7,1.2-1.2C81.7,77.3,81.3,77,80.8,76.8z M84.4,71.8c-0.5-0.2-1.1-0.3-1.9,0.1
			c-0.4,0.2-0.8,0.4-1.1,0.7c-0.3,0.3-0.6,0.6-0.8,0.9c0.3,0.1,0.9,0.1,1.3,0c0.5,0,0.9-0.1,0.9-0.1c-1,0.6-2.1,0.7-2.5,0.7
			c0,0,0,0.1,0,0.1c-0.1,0.5,0,0.8,0.3,1c0.3,0.2,0.7,0.2,1.3,0c0.3-0.1,0.6-0.2,1-0.4c0.4-0.2,0.8-0.4,1.2-0.7
			c0.2-0.2,0.4-0.3,0.6-0.5c0.2-0.2,0.4-0.4,0.6-0.6c0.2-0.2,0.4-0.4,0.5-0.6c0.2-0.2,0.3-0.5,0.4-0.7C85.8,72,85.5,72,85.2,72
			C84.9,72,84.7,71.9,84.4,71.8z M86.9,66.5c-0.3,0-0.5-0.1-0.8,0c-0.3,0-0.6,0.2-1,0.4c-0.3,0.2-0.6,0.5-0.9,0.9
			c-0.3,0.3-0.5,0.7-0.6,1.1c0.3,0,0.8-0.1,1.3-0.2c0.5-0.1,0.9-0.3,0.9-0.3c-0.9,0.7-1.9,1-2.3,1.1c0,0,0,0.1,0,0.1
			c0,0.9,0.7,1.3,1.7,0.7c0.3-0.1,0.6-0.3,0.9-0.6c0.3-0.3,0.7-0.6,1-0.9c0.6-0.7,1.3-1.6,1.6-2.6C87.9,66.6,87.4,66.5,86.9,66.5z
			 M86.7,61.7c-0.3,0.3-0.5,0.6-0.7,1c-0.2,0.4-0.4,0.7-0.4,1.1c0.3,0,0.8-0.2,1.2-0.4c0.4-0.2,0.8-0.4,0.8-0.4
			c-0.7,0.8-1.7,1.3-2,1.4c0,0,0,0.1,0,0.1c0.1,0.9,0.9,1.1,1.8,0.4c0.4-0.4,1-0.9,1.5-1.7c0.2-0.4,0.5-0.8,0.7-1.3
			c0.1-0.2,0.2-0.5,0.3-0.7c0.1-0.2,0.1-0.5,0.2-0.7c-0.5,0.5-1,0.5-1.5,0.5C87.9,61,87.4,61.1,86.7,61.7z M87.6,56.4
			c-0.5,0.6-0.8,1.4-0.9,2.1c0.3-0.1,0.7-0.3,1.1-0.5c0.4-0.2,0.7-0.5,0.7-0.5c-0.3,0.4-0.6,0.8-1,1.1c-0.3,0.3-0.6,0.4-0.8,0.5
			c0,0,0,0.1,0,0.1c0.2,0.8,1,0.9,1.8,0.1c0.4-0.4,0.8-1,1.3-1.8c0.1-0.2,0.2-0.4,0.3-0.6c0.1-0.2,0.2-0.4,0.2-0.7
			c0.1-0.5,0.2-0.9,0.3-1.4c-0.5,0.6-0.9,0.6-1.4,0.7C88.7,55.7,88.2,55.8,87.6,56.4z M89.4,50.4c-0.5,0.1-0.9,0.2-1.4,0.9
			c-0.2,0.3-0.4,0.7-0.5,1c-0.1,0.4-0.2,0.8-0.2,1.1c0.3-0.1,0.7-0.4,1-0.6c0.4-0.3,0.6-0.5,0.6-0.5c-0.5,0.9-1.3,1.5-1.6,1.7
			c0,0,0,0.1,0,0.1c0.2,0.4,0.4,0.6,0.7,0.6c0.3,0,0.7-0.2,1-0.6c0.3-0.4,0.7-1.1,1-1.9c0.3-0.8,0.5-1.7,0.5-2.6
			C90.3,50.2,89.8,50.3,89.4,50.4z M87.8,46.3c-0.2,0.3-0.3,0.7-0.4,1.1c-0.1,0.4-0.1,0.8-0.1,1.1c0.2-0.1,0.6-0.4,0.9-0.7
			c0.2-0.1,0.3-0.3,0.4-0.4c0.1-0.1,0.2-0.2,0.2-0.2c-0.4,0.9-1.1,1.6-1.4,1.8c0,0,0,0.1,0.1,0.1c0.4,0.7,1.1,0.7,1.7-0.2
			c0.1-0.2,0.3-0.5,0.4-0.8c0.1-0.2,0.1-0.3,0.2-0.5c0.1-0.2,0.1-0.4,0.2-0.6c0.1-0.4,0.2-0.9,0.2-1.3c0-0.5,0.1-0.9,0-1.4
			c-0.3,0.6-0.8,0.7-1.2,0.9C88.6,45.4,88.2,45.6,87.8,46.3z M87,41.5c-0.3,0.7-0.3,1.5-0.1,2.1c0.2-0.1,0.6-0.5,0.8-0.8
			c0.3-0.3,0.5-0.6,0.5-0.6c-0.1,0.5-0.3,0.9-0.5,1.2c-0.2,0.3-0.4,0.6-0.5,0.7c0,0,0,0.1,0.1,0.1c0.5,0.7,1.2,0.5,1.6-0.4
			c0.1-0.2,0.2-0.5,0.3-0.8c0.1-0.2,0.1-0.3,0.1-0.5c0-0.2,0.1-0.4,0.1-0.6c0.1-0.8,0.1-1.8-0.1-2.6c-0.2,0.6-0.6,0.8-1,1
			C87.7,40.5,87.3,40.7,87,41.5z M85.7,36.9c-0.2,0.7-0.1,1.5,0.1,2.1c0.2-0.2,0.5-0.5,0.7-0.9c0.2-0.3,0.4-0.6,0.4-0.6
			c-0.1,0.5-0.2,0.9-0.4,1.2c-0.2,0.3-0.3,0.6-0.4,0.7c0,0,0,0.1,0.1,0.1c0.5,0.6,1.2,0.4,1.5-0.5c0.1-0.2,0.1-0.5,0.2-0.9
			c0-0.3,0.1-0.7,0.1-1.1c0-0.4,0-0.8-0.1-1.3c-0.1-0.4-0.2-0.9-0.4-1.3c-0.2,0.7-0.5,0.9-0.9,1.1c-0.2,0.1-0.4,0.2-0.5,0.4
			C85.9,36.2,85.8,36.5,85.7,36.9z M83.9,33.7c0.1,0.3,0.2,0.7,0.3,1c0.2-0.2,0.4-0.6,0.6-0.9c0.2-0.3,0.3-0.7,0.3-0.7
			c0,0.9-0.4,1.7-0.5,2c0,0,0.1,0.1,0.1,0.1c0.6,0.5,1.2,0.2,1.4-0.7c0.1-0.5,0.1-1.1,0-1.9c0-0.2,0-0.4-0.1-0.6
			c0-0.2-0.1-0.4-0.2-0.6c-0.1-0.4-0.3-0.8-0.5-1.2c-0.1,0.6-0.4,0.9-0.7,1.2c-0.3,0.3-0.7,0.6-0.7,1.3C83.8,33,83.8,33.3,83.9,33.7
			z M82.2,30.6c0.2-0.2,0.3-0.6,0.5-0.9c0.1-0.4,0.2-0.7,0.2-0.7c0.1,0.9-0.2,1.7-0.3,2c0,0,0.1,0,0.1,0.1c0.3,0.2,0.6,0.2,0.8,0.1
			c0.2-0.1,0.4-0.5,0.4-0.9c0-0.4,0-1.1-0.1-1.8c-0.1-0.4-0.2-0.7-0.4-1.1c-0.2-0.4-0.3-0.7-0.6-1.1c0,0.6-0.3,0.9-0.6,1.2
			c-0.3,0.3-0.6,0.6-0.6,1.4c0,0.3,0.1,0.7,0.2,1C81.8,30.1,82,30.4,82.2,30.6z M79.5,26.6c0.1,0.1,0.2,0.3,0.3,0.4
			c0.1-0.2,0.3-0.6,0.3-0.9c0.1-0.3,0.1-0.7,0.1-0.7c0,0.2,0.1,0.4,0.1,0.6c0,0.2,0,0.4,0,0.6c0,0.3-0.1,0.6-0.2,0.8
			c0,0,0.1,0,0.1,0.1c0.6,0.3,1.1,0,1.1-0.9c0-0.4-0.1-1.1-0.3-1.8c-0.1-0.3-0.3-0.7-0.4-1c-0.2-0.3-0.4-0.7-0.7-1
			c0,0.6-0.2,0.9-0.5,1.2c-0.3,0.3-0.5,0.6-0.4,1.4c0,0.3,0.1,0.6,0.2,0.9C79.4,26.3,79.4,26.5,79.5,26.6z M77.2,23.7
			c0.1-0.2,0.2-0.6,0.3-0.9c0.1-0.3,0.1-0.6,0.1-0.6c0.2,0.8,0.1,1.6,0.1,1.9c0,0,0.1,0,0.1,0c0.6,0.3,1.1-0.1,1-1
			c-0.1-0.8-0.6-2.4-1.7-3.5c0.1,0.6-0.1,0.9-0.4,1.2c-0.2,0.3-0.4,0.7-0.3,1.3C76.4,22.7,76.7,23.3,77.2,23.7z M74.4,20.8
			c0.1-0.2,0.1-0.6,0.2-0.9c0-0.2,0-0.3,0-0.4c0-0.1,0-0.2,0-0.2c0.3,0.7,0.2,1.5,0.2,1.8c0,0,0.1,0,0.1,0c0.6,0.2,1.1-0.2,0.9-1
			c-0.2-0.8-0.7-2.3-1.9-3.2c0.1,0.5-0.1,0.8-0.3,1.2c-0.2,0.3-0.4,0.7-0.2,1.3C73.5,19.9,73.9,20.4,74.4,20.8z M71.4,18.2
			c0.1-0.2,0.1-0.6,0.1-0.9c0-0.3,0-0.6,0-0.6c0.3,0.7,0.3,1.4,0.3,1.7c0,0,0.1,0,0.1,0c0.6,0.2,1-0.3,0.8-1
			c-0.1-0.4-0.3-0.9-0.7-1.4c-0.2-0.3-0.4-0.5-0.6-0.8c-0.2-0.3-0.5-0.5-0.8-0.7c0.2,0.5,0,0.8-0.2,1.1c-0.2,0.3-0.3,0.7-0.1,1.3
			C70.6,17.4,71,17.9,71.4,18.2z M67.4,14.7c0.2,0.5,0.6,1,1.1,1.2c0.1-0.2,0.1-0.6,0-0.9c0-0.3-0.1-0.6-0.1-0.6
			c0.4,0.6,0.4,1.4,0.4,1.6c0,0,0.1,0,0.1,0c0.6,0.1,1-0.4,0.7-1.1c-0.2-0.7-1-2-2.2-2.7C67.9,13.3,66.9,13.5,67.4,14.7z M64.3,12.8
			c0.2,0.5,0.7,0.9,1.1,1.1c0-0.2,0-0.5,0-0.8c0-0.3-0.1-0.6-0.1-0.6c0.4,0.6,0.5,1.3,0.5,1.5c0,0,0.1,0,0.1,0
			c0.6,0.1,0.9-0.4,0.6-1.1c-0.3-0.7-1.1-1.8-2.3-2.5c0.2,0.5,0.1,0.8,0,1.1C64.1,11.9,64,12.3,64.3,12.8z M50,15
			c-0.4-0.3-0.6-0.7-0.6-1.1c0-0.9,0.8-1.3,1-1.9c0.1-0.3,0.2-0.7-0.1-1c0.6,0.2,1,1,0.9,1.7c-0.1,0.2-0.2,0.4-0.3,0.5h0
			c0.2-0.2,0.5-0.5,0.4-0.9c0.2,0.1,0.3,0.4,0.3,0.6c0,0.3-0.2,0.5-0.3,0.7c-0.1,0.2,0,0.4,0.2,0.4c0.3-0.1,0.3-0.5,0.1-0.7
			c0.5,0.3,0.5,1,0.1,1.4c-0.1,0.1-0.3,0.3-0.5,0.4c0.6-0.2,1.4-0.6,1.6-1.5c0.2-0.9-0.6-1.5-1-2c-0.3-0.5,0.1-0.9,0-1.3
			c-0.1-0.3-0.2-0.5-0.5-0.6c0.2,0.3,0.1,0.7-0.2,0.9c0.2-0.2,0.1-0.5,0-0.7c-0.2-0.4-0.8-0.6-0.9-1c-0.1-0.3,0-0.6,0.4-0.8
			c-0.5,0.2-0.8,0.6-0.8,1c0,0.5,0.5,1,0.3,1.6c-0.1,0.3-0.9,1.1-1.2,1.7c-0.3,0.5-0.4,1-0.2,1.5C48.8,14.4,49.3,14.8,50,15z
			 M31.3,49.8c-1.3,2.3-2,4.3-2,5.9c0,0.4,0.1,0.9,0.2,1.5c0.7,2.1,2,3.2,3.9,3.2c1.4,0,2.5-0.4,3.5-1.1c1-0.8,1.6-1.2,1.8-1.4
			c0.2-0.2,0.4-0.5,0.8-0.8l1.1-1.4c0.2-0.2,0.3-0.4,0.3-0.7l-0.1-0.1c0,0-0.1,0-0.1,0.1l-0.7,0.7l-1.7,1.2c-0.3,0.2-0.6,0.3-1,0.4
			c-0.3,0.1-0.6,0.2-0.9,0.2c-0.3,0.1-0.6,0.1-0.9,0.1c-2.2,0-3.3-1.2-3.3-3.5c0-0.9,0.3-2.1,1-3.7c0.7-1.6,1.8-3.3,3.4-5.1
			c1.6-1.8,3.3-3.3,5.3-4.3c1.9-1,3.8-1.5,5.6-1.5c1.6,0,2.5,0.8,2.5,2.5c0,0.5-0.1,1-0.3,1.6c-0.2,0.6-0.4,1.2-0.7,1.8
			c-0.3,0.6-0.8,1.5-1.6,2.8L46,50.8l-6.9,10.5c-0.5,0.9-0.8,1.8-1.1,2.5c-0.3,0.7-0.5,1.3-0.6,1.9c-0.1,0.6-0.2,0.9-0.2,1.1
			c0,0.9,0.3,1.7,0.8,2.4c0.6,0.7,1.1,1.1,1.6,1.2c0.5,0.1,0.9,0.1,1.1,0.2c0.2,0,0.5,0.1,0.7,0.1c0.7,0,1.5-0.1,2.2-0.4
			c0.8-0.2,1.6-0.6,2.6-1c1-0.4,2.3-1.3,4.1-2.7c1.7-1.4,3.3-2.8,4.6-4.2c1.3-1.4,3-3.5,5-6.2c2-2.7,3.5-5.2,4.5-7.4
			c1-2.2,1.6-3.8,1.8-4.6c0.2-0.8,0.3-1.6,0.3-2.4c0-0.9-0.3-1.6-0.8-2.2c-0.5-0.6-1.2-0.8-2-0.8c-0.4,0-0.7,0.1-1,0.2
			c-0.3,0.1-0.6,0.2-0.8,0.4c-0.2,0.1-0.4,0.4-0.7,0.7c-0.2,0.3-0.4,0.7-0.5,1.1c-0.1,0.5-0.1,0.7-0.1,0.8c0.1,0.1,0.2,0.1,0.3,0.1
			l0.2-0.1c0.1,0,0.3-0.1,0.6-0.1c1.4,0,2,0.9,2,2.6c0,1.3-0.5,3.1-1.4,5.3c-0.9,2.2-2.4,4.8-4.4,7.7c-2,2.9-4.1,5.3-6.3,7.1
			c-2.2,1.8-3.8,2.8-4.7,3c-0.9,0.2-1.5,0.3-1.8,0.3c-0.7,0-1.3-0.2-1.7-0.6c-0.4-0.4-0.6-0.9-0.6-1.6c0-0.7,0.1-1.4,0.4-2
			c0.2-0.6,0.8-1.6,1.5-2.9l1.3-2l3.2-4.4l0.7-1c1.4-2.1,2.4-3.8,3-5c0.6-1.2,0.9-2.3,1.1-3.2c0.2-0.9,0.2-1.5,0.2-1.7
			c0-1.4-0.5-2.6-1.4-3.5c-1-0.9-2.2-1.4-3.9-1.4h-0.8c-0.8,0-1.6,0.1-2.3,0.3c-0.8,0.2-2.1,0.7-4.1,1.5c-2,0.8-3.9,2.1-5.7,3.6
			C34.2,45.5,32.6,47.4,31.3,49.8z M62.6,38.7c-1-0.7-1.7-1.9-1.7-3.1c0.1-2.4,2.1-3.4,2.8-5.2c0.3-0.8,0.5-1.9-0.2-2.6
			c1.5,0.6,2.8,2.8,2.3,4.5c-0.1,0.5-0.5,1.1-0.9,1.4h0.1c0.7-0.4,1.4-1.2,1.2-2.4c0.5,0.3,0.9,1,0.8,1.6c0,0.7-0.6,1.3-0.9,1.9
			c-0.3,0.5,0.1,1.2,0.7,1c0.7-0.2,0.8-1.3,0.2-1.8c1.4,0.8,1.4,2.7,0.3,3.8c-0.4,0.4-0.9,0.8-1.5,1.1c1.6-0.5,3.9-1.6,4.3-4
			c0.5-2.5-1.6-4-2.7-5.5c-0.9-1.3,0.1-2.4-0.1-3.5c-0.1-0.7-0.6-1.4-1.3-1.6c0.5,0.7,0.4,1.8-0.4,2.3c0.5-0.6,0.4-1.2,0-1.8
			c-0.6-1-2.1-1.7-2.5-2.7c-0.3-0.8,0-1.6,1.1-2.2c-1.3,0.5-2.3,1.7-2.3,2.8c0,1.5,1.4,2.8,0.9,4.4c-0.3,0.9-2.4,3.1-3.3,4.5
			c-0.9,1.4-1.1,2.8-0.5,4.1C59.5,37.2,60.9,38.1,62.6,38.7z M50.1,88.9c-0.2-0.2-0.5-0.4-0.8-0.6c-0.9-0.7-2-1.2-3.1-1.6
			c-0.3-0.1-0.6-0.2-0.9-0.3c-0.3-0.1-0.6-0.2-0.9-0.3c-0.6-0.2-1.2-0.4-1.9-0.6c-2.5-0.8-5.2-1.8-8-3.1c-2.7-1.3-5.5-2.8-8.1-4.9
			c-2.6-2-4.9-4.6-6.7-7.5c-0.9-1.5-1.6-3.1-2.3-4.7c-0.6-1.6-1.1-3.3-1.5-5.1c-1.4-6.9-1.5-14.2,0.3-20.5c0.1-0.2,0.1-0.4,0.2-0.6
			c0.1-0.2,0.1-0.4,0.2-0.6c0.1-0.4,0.3-0.8,0.4-1.2c0.1-0.2,0.1-0.4,0.2-0.6c0.1-0.2,0.1-0.4,0.2-0.6c0.1-0.4,0.3-0.8,0.4-1.1
			c0.2-0.4,0.3-0.7,0.5-1.1c0.1-0.2,0.2-0.4,0.2-0.5c0.1-0.2,0.2-0.3,0.3-0.5c0.2-0.3,0.4-0.7,0.5-1c0.2-0.3,0.4-0.7,0.6-1
			c0.7-1.3,1.6-2.5,2.4-3.7c0.2-0.3,0.4-0.6,0.6-0.8c0.2-0.3,0.4-0.6,0.6-0.8c0.4-0.5,0.9-1.1,1.3-1.6c1.8-2,3.5-3.7,5.2-5.1
			c1.6-1.4,3.2-2.5,4.5-3.4c1.3-0.9,2.3-1.5,3.1-1.9c0.7-0.4,1.1-0.6,1.1-0.6s-0.4,0.2-1.1,0.6c-0.7,0.4-1.8,1-3.1,1.9
			c-1.3,0.9-2.8,2-4.5,3.3c-1.7,1.4-3.4,3.1-5.2,5c-0.5,0.5-0.9,1-1.3,1.5c-0.2,0.3-0.4,0.5-0.7,0.8c-0.2,0.3-0.4,0.6-0.7,0.8
			c-0.8,1.2-1.7,2.4-2.4,3.7c-0.2,0.3-0.4,0.7-0.6,1c-0.2,0.3-0.4,0.7-0.5,1c-0.1,0.2-0.2,0.3-0.3,0.5c-0.1,0.2-0.2,0.4-0.2,0.5
			c-0.2,0.4-0.3,0.7-0.5,1.1c-0.2,0.4-0.3,0.7-0.5,1.1c-0.1,0.2-0.2,0.4-0.2,0.6c-0.1,0.2-0.2,0.4-0.2,0.6c-0.1,0.4-0.3,0.8-0.4,1.2
			c-0.1,0.2-0.1,0.4-0.2,0.6c-0.1,0.2-0.1,0.4-0.2,0.6c-0.9,3.2-1.4,6.7-1.4,10.2c0,3.5,0.3,7.1,1,10.6c0.4,1.7,0.9,3.5,1.5,5.1
			c0.6,1.7,1.4,3.3,2.3,4.8c1.8,3,4.1,5.7,6.8,7.8c2.6,2.1,5.4,3.7,8.2,5c2.8,1.3,5.5,2.3,8,3.2c0.6,0.2,1.3,0.4,1.9,0.6
			c0.3,0.1,0.6,0.2,0.9,0.3c0.3,0.1,0.6,0.2,0.9,0.3c1.1,0.4,2.1,0.9,2.9,1.6c0.2,0.2,0.4,0.3,0.6,0.5
			C49.7,89.3,49.9,89.1,50.1,88.9z M104.5,73C104.5,73,104.5,73,104.5,73c-0.4-0.1-1.1-0.2-2.1-0.2c-1,0-1.8,0-2.2,0.1
			c-0.4,0.1-0.7,0.2-0.7,0.4c0,0.1,0.1,0.1,0.3,0.1c0.1,0,0.2,0,0.3,0c0.1,0,0.5-0.1,1.3-0.1c0.8-0.1,1.2-0.1,1.3-0.1l-0.3,0.4
			c-0.4,0.5-0.9,0.9-1.7,1.3c-0.9,0.5-1.7,0.8-2.4,0.8c-0.5,0-0.9-0.1-1.2-0.4c-0.3-0.2-0.5-0.6-0.5-1c0-0.7,0.4-1.4,1.2-2.2
			c0.6-0.6,1.3-1.1,2-1.3c0.7-0.3,1.4-0.4,2-0.4c0.4,0,0.7,0.1,0.9,0.2c0.3,0.2,0.4,0.4,0.4,0.6c0,0.2-0.2,0.5-0.5,0.7
			c-0.3,0.2-0.7,0.3-1,0.3c-0.4,0-0.6-0.2-0.6-0.6l0-0.3c0-0.2,0-0.2-0.1-0.2c-0.1,0-0.1,0.1-0.1,0.4c0,0.6,0.3,0.9,0.8,0.9
			c0.4,0,0.8-0.2,1.2-0.5c0.4-0.3,0.6-0.6,0.6-0.9c0-0.2-0.1-0.4-0.4-0.6c-0.3-0.2-0.7-0.3-1.3-0.3c-0.6,0-1.2,0.2-2,0.5
			c-0.8,0.3-1.4,0.7-1.9,1.2c-1.1,0.9-1.6,1.8-1.6,2.7c0,0.5,0.2,0.9,0.5,1.1c0.3,0.3,0.9,0.4,1.5,0.4c0.7,0,1.4-0.2,2.1-0.5
			c0.6-0.3,1-0.6,1.4-0.9l-0.6,1.1c-0.3,0.6-0.5,1-0.5,1.2c0,0.1,0,0.1,0.1,0.1c0,0,0.1,0,0.2-0.1c0.9-1.6,1.7-2.8,2.3-3.6
			c0,0,0.3,0,0.8-0.1C104.3,73.1,104.5,73.1,104.5,73z M108.7,72.3c0,0.1,0,0.2,0.1,0.2c0.1,0.1,0.2,0.1,0.2,0.1
			c0.1,0,0.2,0,0.2-0.1c0.1-0.1,0.1-0.1,0.1-0.2c0-0.1,0-0.1-0.1-0.2c-0.1-0.1-0.2-0.1-0.2-0.1C108.8,72.1,108.7,72.2,108.7,72.3z
			 M122.5,73.4c0-0.1,0-0.2,0-0.3c0-0.3-0.1-0.5-0.4-0.5c-0.3,0-0.7,0.3-1.2,0.9c-0.2,0.3-0.4,0.5-0.5,0.7c-0.7,0.8-1.2,1.2-1.7,1.2
			c-0.2,0-0.3-0.1-0.3-0.4c0-0.1,0-0.2,0-0.2c0.1-0.4,0.4-1,1.1-1.9c0.2-0.3,0.6-0.7,1-1.3c0,0,0-0.1,0-0.1c0-0.1,0-0.1-0.1-0.1
			c-0.1,0-0.1,0-0.2,0c-0.3,0-0.7,0.5-1.4,1.6c0-0.1-0.1-0.2-0.1-0.2c-0.1-0.1-0.2-0.1-0.3-0.1c-0.5,0-1,0.3-1.6,0.9
			c-0.2,0.2-0.4,0.4-0.5,0.6c0,0-0.1,0.1-0.1,0.1c0,0,0,0.1-0.1,0.1c-0.6,0.7-1.1,1-1.3,1c-0.1,0-0.1-0.1-0.1-0.3
			c0-0.2,0.1-0.4,0.3-0.7c0.2-0.3,0.4-0.6,0.6-0.9c0.2-0.3,0.3-0.4,0.3-0.5c0,0,0-0.1,0-0.1c0-0.1-0.1-0.2-0.2-0.2c0,0,0,0-0.1,0
			c-0.3,0-1.1,0.7-2.5,2c0.1-0.4,0.4-0.9,0.9-1.6c0,0,0-0.1,0-0.1c0-0.1-0.1-0.2-0.2-0.2c-0.1,0-0.1,0-0.2,0.1
			c-0.4,0.5-0.7,0.9-0.9,1.1c0,0-0.1,0.1-0.1,0.1c-0.1,0.2-0.3,0.4-0.5,0.6c0,0,0,0,0,0c-0.4,0.4-0.7,0.6-0.9,0.6
			c-0.1,0-0.2-0.1-0.2-0.2c0,0,0,0,0-0.1c0-0.2,0.2-0.6,0.5-1.1c0.4-0.5,0.5-0.8,0.5-0.8c0,0,0-0.1-0.1-0.1
			c-0.1-0.1-0.1-0.1-0.2-0.1l-0.1,0c0,0,0,0,0,0c0,0,0-0.1,0-0.1c-0.1-0.1-0.2-0.2-0.4-0.2c-0.5,0-1,0.3-1.6,0.9
			c-0.2,0.2-0.4,0.4-0.5,0.6c0,0-0.1,0.1-0.2,0.2c-0.3,0.4-0.7,0.7-1.2,1c-0.2,0.1-0.4,0.2-0.5,0.2c-0.1,0-0.2-0.1-0.2-0.3
			c0-0.2,0.2-0.6,0.6-1.2c0.1-0.1,0.2-0.2,0.2-0.3c0.1-0.1,0.1-0.2,0.2-0.2c0-0.1,0.1-0.1,0.1-0.2c0,0,0.1-0.1,0.1-0.1
			c0,0,0-0.1-0.1-0.1c-0.1,0-0.1-0.1-0.2-0.1c-0.2,0-0.5,0.3-0.8,0.8c-0.1,0.2-0.2,0.3-0.3,0.5c-0.5,0.6-0.9,0.9-1.3,1.1
			c-0.1,0-0.1,0-0.1,0c-0.1,0-0.1-0.1-0.1-0.2c0-0.2,0.1-0.4,0.3-0.6c0.2-0.3,0.4-0.6,0.8-1c0.2-0.3,0.4-0.4,0.4-0.5
			c0-0.2-0.1-0.2-0.3-0.2c-0.1,0-0.4,0.3-0.9,0.8c-0.4,0.6-0.7,0.9-0.9,1.1c-0.5,0.5-0.8,0.7-1.1,0.7c-0.1,0-0.1-0.1-0.1-0.2
			c0-0.2,0.2-0.6,0.5-1.1c0.3-0.5,0.6-0.9,0.9-1.1c0,0,0.1-0.1,0.1-0.1c0-0.1-0.1-0.2-0.2-0.2c-0.2,0-0.3,0.1-0.5,0.3l-1.2,1.4
			c-0.1,0.1-0.1,0.1-0.1,0.1c0,0,0,0,0,0c0,0,0.1,0,0.1,0c0.2-0.2,0.3-0.4,0.5-0.5c-0.3,0.4-0.5,0.8-0.5,1v0.1
			c0,0.3,0.2,0.4,0.4,0.4c0.4,0,0.9-0.4,1.6-1.2c0,0.1,0,0.2-0.1,0.3c0,0.1-0.1,0.3-0.1,0.4c0,0.1,0,0.2,0.1,0.3
			c0.1,0.1,0.2,0.1,0.3,0.1c0.1,0,0.2,0,0.2,0c0.1,0,0.4-0.2,0.7-0.5c0.2-0.2,0.3-0.3,0.5-0.5c-0.1,0.2-0.1,0.3-0.1,0.4
			c0,0.4,0.1,0.6,0.4,0.6c0.2,0,0.3,0,0.4-0.1c0.1,0,0.1-0.1,0.2-0.1c0.1,0,0.1-0.1,0.2-0.1c0.1-0.1,0.1-0.1,0.2-0.1
			c0,0,0.1-0.1,0.2-0.2c0.1-0.1,0.1-0.1,0.2-0.1c0,0,0.1-0.1,0.2-0.2c0,0,0.1-0.1,0.2-0.2c0,0.1-0.1,0.3-0.1,0.4
			c0,0.2,0.1,0.3,0.2,0.5c0.1,0.1,0.3,0.1,0.4,0.1c0.2,0,0.4-0.2,0.7-0.5l0.5-0.5c0,0.1,0,0.2,0,0.3c0,0.3,0.1,0.5,0.4,0.6
			c0,0,0.1,0,0.1,0c0.3,0,0.8-0.4,1.4-1.1l0.3-0.3c-0.1,0.3-0.2,0.5-0.3,0.7c-0.1,0.2-0.1,0.3-0.1,0.4c0,0.1,0,0.2,0.1,0.3
			c0,0.1,0.1,0.1,0.2,0.1c0,0,0.2-0.2,0.4-0.5c0.3-0.3,0.5-0.7,0.8-1c0.3-0.3,0.7-0.7,1-0.9l-0.6,0.9c-0.2,0.4-0.3,0.8-0.3,1.1
			c0,0.3,0.1,0.5,0.4,0.5c0.3,0,0.7-0.3,1.3-1c-0.1,0.1-0.1,0.3-0.1,0.4c0,0.2,0.1,0.3,0.2,0.5c0.1,0.1,0.3,0.1,0.5,0.1
			c0.2,0,0.4-0.1,0.7-0.4l0.7-0.7c-0.1,0.2-0.1,0.4-0.1,0.5c0,0.1,0,0.3,0.1,0.4c0.1,0.1,0.2,0.2,0.4,0.2c0.1,0,0.1,0,0.1,0
			c0.4-0.1,0.9-0.4,1.4-0.9c0,0.1-0.1,0.2-0.1,0.3c0,0.1,0,0.3,0.1,0.4c0.1,0.2,0.2,0.2,0.4,0.2h0.1c0.3,0,0.7-0.3,1.2-0.8
			c0.4-0.5,0.6-0.8,0.6-1c0,0,0-0.1,0-0.1c0.5-0.2,0.7-0.3,0.7-0.4c-0.2,0.1-0.4,0.2-0.5,0.2S122.5,73.4,122.5,73.4z M111,74.4
			c-0.6,0.7-1,1.1-1.4,1.1c-0.1,0-0.2-0.1-0.2-0.3c0-0.4,0.3-0.8,0.9-1.4c0.6-0.5,1.1-0.8,1.4-0.8c0.1,0,0.2,0,0.2,0.1L111,74.4z
			 M117.9,74.5c-0.6,0.7-1,1-1.2,1c-0.1,0-0.2-0.1-0.2-0.3c0-0.4,0.3-0.8,0.9-1.4c0.6-0.5,1.1-0.8,1.4-0.8c0.1,0,0.2,0,0.2,0.1
			C118.4,73.9,118,74.3,117.9,74.5z M121.7,74.7c-0.4,0.5-0.7,0.7-0.9,0.7c-0.1,0-0.2-0.1-0.2-0.3c0-0.2,0.2-0.6,0.5-1
			c0.4-0.5,0.6-0.7,0.8-0.7c0.1,0.2,0.3,0.3,0.3,0.4C122.3,73.9,122.1,74.3,121.7,74.7z M127.2,72.4c-0.1-0.1-0.3-0.2-0.4-0.2
			c-0.1,0-0.1,0-0.1,0.1c0,0,0,0.1,0.1,0.1c0.3,0.1,0.4,0.3,0.4,0.6c0,0.4-0.3,0.9-1,1.4c-0.6,0.5-1.1,0.8-1.3,0.9
			c0-0.1,0.1-0.5,0.4-1.2c0.3-0.7,0.4-1,0.4-1c0-0.1,0-0.1-0.1-0.2c-0.1-0.1-0.1-0.1-0.2-0.1c-0.1,0-0.1,0-0.1,0
			c-0.1,0.1-0.3,0.5-0.6,1.2c-0.3,0.7-0.4,1.2-0.4,1.3c0,0.1,0.1,0.1,0.2,0.2c0.1,0.1,0.2,0.1,0.3,0.1c0.4-0.1,0.9-0.5,1.5-1.1
			c0.8-0.7,1.1-1.3,1.1-1.7C127.3,72.7,127.3,72.5,127.2,72.4z M129.9,73.3c-0.2,0.1-0.4,0.2-0.5,0.2s-0.2,0-0.2,0
			c0-0.1,0-0.2,0-0.3c0-0.3-0.1-0.5-0.4-0.5c-0.3,0-0.7,0.3-1.2,0.9c-0.5,0.6-0.8,1.1-0.8,1.5c0,0.1,0,0.3,0.1,0.4
			c0.1,0.2,0.2,0.2,0.4,0.2h0.1c0.3,0,0.7-0.3,1.2-0.8c0.4-0.5,0.6-0.8,0.6-1c0,0,0-0.1,0-0.1C129.7,73.5,129.9,73.4,129.9,73.3z
			 M128.4,74.7c-0.4,0.5-0.7,0.7-0.9,0.7c-0.1,0-0.2-0.1-0.2-0.3c0-0.2,0.2-0.6,0.5-1c0.4-0.5,0.6-0.7,0.8-0.7
			c0.1,0.2,0.3,0.3,0.3,0.4C129,73.9,128.8,74.3,128.4,74.7z M134.4,74.1c-0.3,0.3-0.6,0.6-0.9,0.9c-0.5,0.4-0.8,0.6-1.1,0.6
			c-0.3,0-0.4-0.2-0.4-0.5c0-0.2,0-0.3,0.1-0.5c0,0,0.1,0,0.1,0c0.3,0,0.7-0.1,1.2-0.4c0.5-0.3,0.7-0.6,0.7-0.9c0-0.1,0-0.2-0.1-0.3
			c-0.1-0.1-0.2-0.1-0.3-0.1c-0.4,0-0.9,0.3-1.4,0.8c-0.3,0.3-0.5,0.7-0.7,1c-0.1,0.1-0.3,0.3-0.5,0.4c-0.4,0.3-0.8,0.5-1.1,0.5
			c-0.1,0-0.2,0-0.3-0.1c-0.1-0.1-0.1-0.2-0.1-0.2c0-0.1,0-0.2,0-0.3c0-0.1,0.1-0.2,0.1-0.3l0.3-0.5c0.1-0.1,0.3-0.3,0.6-0.5
			c0.3-0.2,0.5-0.3,0.7-0.3c0,0,0,0,0,0c0,0,0,0.1-0.1,0.2c-0.1,0.1-0.1,0.2-0.1,0.3c0,0.1,0.1,0.1,0.2,0.1c0.2,0,0.3-0.1,0.3-0.2
			c0.1-0.1,0.1-0.3,0.1-0.4c0-0.1,0-0.2-0.1-0.3c-0.1-0.1-0.2-0.1-0.3-0.1c-0.4,0-0.9,0.3-1.4,0.8c-0.5,0.5-0.8,1-0.8,1.4
			c0,0.3,0.2,0.5,0.6,0.6c0.1,0,0.1,0,0.2,0c0.3,0,0.7-0.2,1.1-0.5c0.2-0.1,0.3-0.2,0.4-0.4c0,0.1,0,0.1,0,0.2
			c0,0.3,0.2,0.5,0.6,0.6c0.1,0,0.1,0,0.2,0c0.3,0,0.7-0.2,1.1-0.5c0.4-0.3,0.8-0.7,1.1-1.1c0-0.1,0.1-0.1,0.1-0.1
			c0,0,0-0.1-0.1-0.1C134.5,74,134.5,74,134.4,74.1z M133.1,73.5c0.3-0.2,0.5-0.3,0.6-0.3c0.1,0,0.2,0,0.2,0.1c0,0,0,0,0,0.1
			c-0.1,0.3-0.3,0.5-0.7,0.8c-0.4,0.2-0.7,0.4-0.9,0.4c0,0-0.1,0-0.1,0C132.4,74.1,132.7,73.8,133.1,73.5z M134,72L134,72
			c-0.1,0-0.2,0.1-0.4,0.2c-0.2,0.2-0.3,0.3-0.3,0.3c0,0,0,0.1,0,0.1c0,0,0.2-0.1,0.5-0.4c0.1,0.1,0.2,0.1,0.3,0.3
			c0.2,0.1,0.3,0.2,0.4,0.2l0,0l0,0C134.4,72.3,134.2,72.1,134,72z M139.8,73.9c-0.8,1-1.3,1.5-1.6,1.5c-0.1,0-0.2-0.1-0.2-0.2
			c0,0,0,0,0-0.1c0-0.2,0.2-0.6,0.5-1.1c0.4-0.5,0.5-0.8,0.5-0.8c0,0,0-0.1-0.1-0.1c-0.1-0.1-0.1-0.1-0.2-0.1l-0.1,0c0,0,0,0,0,0
			c0,0,0-0.1,0-0.1c-0.1-0.1-0.2-0.2-0.4-0.2c-0.5,0-1,0.3-1.6,0.9c-0.6,0.6-0.9,1.1-0.9,1.5c0,0.2,0.1,0.3,0.2,0.5
			c0.1,0.1,0.3,0.1,0.4,0.1c0.2,0,0.4-0.2,0.7-0.5l0.5-0.5c0,0.1,0,0.2,0,0.3c0,0.3,0.1,0.5,0.4,0.6c0,0,0.1,0,0.1,0
			c0.4,0,0.9-0.5,1.7-1.5C139.9,74,139.9,74,139.8,73.9C139.9,73.9,139.9,73.9,139.8,73.9C139.9,73.9,139.9,73.9,139.8,73.9z
			 M137.7,74.4c-0.6,0.7-1,1.1-1.4,1.1c-0.1,0-0.2-0.1-0.2-0.3c0-0.4,0.3-0.8,0.9-1.4c0.6-0.5,1.1-0.8,1.4-0.8c0.1,0,0.2,0,0.2,0.1
			C138.5,73.2,138.2,73.6,137.7,74.4z M138.7,72.2C138.7,72.2,138.7,72.2,138.7,72.2c0-0.1,0-0.1,0-0.1c0,0-0.2-0.1-0.4-0.3
			c-0.3-0.2-0.4-0.3-0.4-0.3c0,0-0.1,0-0.1,0.1c0,0.1,0,0.1,0.1,0.1c0.1,0.1,0.2,0.2,0.5,0.3C138.5,72.2,138.7,72.2,138.7,72.2z
			 M143.9,72.4c-0.1-0.1-0.3-0.2-0.4-0.2c-0.1,0-0.1,0-0.1,0.1c0,0,0,0.1,0.1,0.1c0.3,0.1,0.4,0.3,0.4,0.6c0,0.4-0.3,0.9-1,1.4
			c-0.6,0.5-1.1,0.8-1.3,0.9c0-0.1,0.1-0.5,0.4-1.2c0.3-0.7,0.4-1,0.4-1c0-0.1,0-0.1-0.1-0.2c-0.1-0.1-0.1-0.1-0.2-0.1
			c-0.1,0-0.1,0-0.1,0c-0.1,0.1-0.3,0.5-0.6,1.2c-0.3,0.7-0.4,1.2-0.4,1.3c0,0.1,0.1,0.1,0.2,0.2c0.1,0.1,0.2,0.1,0.3,0.1
			c0.4-0.1,0.9-0.5,1.5-1.1c0.8-0.7,1.1-1.3,1.1-1.7C144.1,72.7,144,72.5,143.9,72.4z M145.2,72.3c0,0.1,0,0.2,0.1,0.2
			c0.1,0.1,0.2,0.1,0.2,0.1c0.1,0,0.2,0,0.2-0.1c0.1-0.1,0.1-0.1,0.1-0.2c0-0.1,0-0.1-0.1-0.2c-0.1-0.1-0.2-0.1-0.2-0.1
			C145.3,72.1,145.2,72.2,145.2,72.3z M151.1,73.3c-0.2,0.1-0.4,0.2-0.5,0.2c-0.1,0-0.2,0-0.2,0c0-0.1,0-0.2,0-0.3
			c0-0.3-0.1-0.5-0.4-0.5c-0.3,0-0.7,0.3-1.2,0.9c-0.2,0.2-0.3,0.4-0.5,0.6c0,0,0,0,0,0c-0.4,0.4-0.7,0.7-1,0.9
			c-0.1,0.1-0.3,0.2-0.5,0.2c-0.2,0.1-0.4,0.1-0.5,0.1c-0.3,0-0.4-0.1-0.4-0.3c0-0.2,0.1-0.6,0.4-1.1c0.3-0.5,0.5-0.8,0.6-0.9
			c0.1,0,0.4-0.1,1.2-0.2c0.7-0.1,1.1-0.2,1.1-0.2c0,0,0,0,0,0l-1.2,0c-0.2,0-0.4,0-0.6,0c0.3-0.3,0.4-0.5,0.4-0.6
			c0-0.1,0-0.1-0.1-0.2c-0.1,0-0.2-0.1-0.2-0.1c-0.1,0-0.2,0.1-0.3,0.3c-0.1,0.2-0.3,0.3-0.4,0.5h-0.5c0,0-0.1,0-0.1,0
			c-0.1,0-0.2,0.1-0.2,0.2c0,0.1,0.1,0.2,0.3,0.2c0.1,0,0.1,0,0.2,0c-0.1,0.2-0.3,0.5-0.5,0.9c0,0.1,0,0.1-0.1,0.2
			c0,0,0,0.1-0.1,0.1c-0.3,0.4-0.7,0.7-1.2,1c-0.2,0.1-0.4,0.2-0.5,0.2c-0.1,0-0.2-0.1-0.2-0.3c0-0.2,0.2-0.6,0.6-1.2
			c0.1-0.1,0.2-0.2,0.2-0.3c0.1-0.1,0.1-0.2,0.2-0.2c0-0.1,0.1-0.1,0.1-0.2c0,0,0.1-0.1,0.1-0.1c0,0,0-0.1-0.1-0.1
			c-0.1,0-0.1-0.1-0.2-0.1c-0.2,0-0.5,0.3-0.8,0.8c-0.3,0.6-0.5,1-0.5,1.3c0,0.4,0.1,0.6,0.4,0.6c0.2,0,0.3,0,0.4-0.1
			c0.1,0,0.1-0.1,0.2-0.1c0.1,0,0.1-0.1,0.2-0.1c0.1-0.1,0.1-0.1,0.2-0.1c0,0,0.1-0.1,0.2-0.2c0.1-0.1,0.1-0.1,0.2-0.1
			c0,0,0.1-0.1,0.2-0.2c0,0,0.1-0.1,0.2-0.2c-0.1,0.2-0.1,0.3-0.1,0.4c0,0.2,0.1,0.4,0.2,0.5c0.1,0.1,0.3,0.1,0.4,0.1
			c0.4,0,0.8-0.1,1.3-0.4c0.3-0.2,0.5-0.4,0.7-0.6c-0.1,0.1-0.1,0.3-0.1,0.4c0,0.1,0,0.3,0.1,0.4c0.1,0.2,0.2,0.2,0.4,0.2h0.1
			c0.3,0,0.7-0.3,1.2-0.8c0.4-0.5,0.6-0.8,0.6-1c0,0,0-0.1,0-0.1C150.9,73.5,151.1,73.4,151.1,73.3z M149.7,74.7
			c-0.4,0.5-0.7,0.7-0.9,0.7c-0.1,0-0.2-0.1-0.2-0.3c0-0.2,0.2-0.6,0.5-1c0.4-0.5,0.6-0.7,0.8-0.7c0.1,0.2,0.3,0.3,0.3,0.4
			C150.3,73.9,150.1,74.3,149.7,74.7z M151,72c0.3-0.2,0.5-0.3,0.5-0.3c0.1,0,0.1-0.1,0.1-0.2c0-0.1,0-0.1-0.1-0.1
			c0,0-0.1,0-0.1,0.1c-0.3,0.3-0.6,0.5-0.9,0.7c0,0,0,0,0,0.1c0,0,0,0.1,0.1,0.1S150.7,72.2,151,72z M156,72.6c0.1,0,0.2,0,0.2-0.1
			c0.1-0.1,0.1-0.1,0.1-0.2c0-0.1,0-0.1-0.1-0.2c-0.1-0.1-0.2-0.1-0.2-0.1c-0.2,0-0.3,0.1-0.3,0.2c0,0.1,0,0.2,0.1,0.2
			C155.8,72.6,155.9,72.6,156,72.6z M160.1,73.9c-0.8,1-1.3,1.5-1.6,1.5c-0.1,0-0.2-0.1-0.2-0.2c0,0,0,0,0-0.1
			c0-0.2,0.2-0.6,0.5-1.1c0.4-0.5,0.5-0.8,0.5-0.8c0,0,0-0.1-0.1-0.1c-0.1-0.1-0.1-0.1-0.2-0.1l-0.1,0c0,0,0,0,0,0c0,0,0-0.1,0-0.1
			c-0.1-0.1-0.2-0.2-0.4-0.2c-0.5,0-1,0.3-1.6,0.9c-0.2,0.2-0.4,0.4-0.5,0.6c0,0-0.1,0.1-0.2,0.2c-0.3,0.4-0.7,0.7-1.2,1
			c-0.2,0.1-0.4,0.2-0.5,0.2c-0.1,0-0.2-0.1-0.2-0.3c0-0.2,0.2-0.6,0.6-1.2c0.1-0.1,0.2-0.2,0.2-0.3c0.1-0.1,0.1-0.2,0.2-0.2
			c0-0.1,0.1-0.1,0.1-0.2c0,0,0.1-0.1,0.1-0.1c0,0,0-0.1-0.1-0.1c-0.1,0-0.1-0.1-0.2-0.1c-0.2,0-0.5,0.3-0.8,0.8
			c-0.1,0.2-0.2,0.3-0.3,0.5c0,0-0.1,0.1-0.1,0.1c-0.2,0.2-0.4,0.4-0.6,0.6c-0.4,0.3-0.7,0.4-1,0.4c-0.3,0-0.4-0.1-0.4-0.4
			c0-0.3,0.2-0.6,0.6-1.1l0.6-0.8c0,0,0-0.1-0.1-0.2c-0.1-0.1-0.1-0.1-0.1-0.1c0,0-0.1,0-0.1,0l-0.2,0.1c-0.1,0.1-0.2,0.1-0.3,0.1
			c-0.2,0-0.3-0.1-0.3-0.2l0.2-0.3c0.1-0.2,0.2-0.3,0.2-0.4c0-0.1-0.1-0.2-0.2-0.2c-0.2,0-0.4,0.3-0.5,0.8c-0.2,0.4-0.6,0.9-1.1,1.5
			c-0.1,0.1-0.1,0.2-0.1,0.3c0,0,0,0,0,0c0.1,0,0.3-0.2,0.6-0.7l0.6-0.8c0.1,0.2,0.2,0.3,0.3,0.3c0,0,0.1,0,0.1,0
			c-0.2,0.2-0.3,0.4-0.4,0.7c-0.1,0.3-0.2,0.6-0.2,0.8c0,0.5,0.2,0.7,0.6,0.7c0.3,0,0.7-0.2,1.1-0.5c0.2-0.1,0.3-0.3,0.5-0.4
			c-0.1,0.2-0.1,0.3-0.1,0.4c0,0.4,0.1,0.6,0.4,0.6c0.2,0,0.3,0,0.4-0.1c0.1,0,0.1-0.1,0.2-0.1c0.1,0,0.1-0.1,0.2-0.1
			s0.1-0.1,0.2-0.1c0,0,0.1-0.1,0.2-0.2c0.1-0.1,0.1-0.1,0.2-0.1c0,0,0.1-0.1,0.2-0.2c0,0,0.1-0.1,0.2-0.2c0,0.1-0.1,0.3-0.1,0.4
			c0,0.2,0.1,0.3,0.2,0.5c0.1,0.1,0.3,0.1,0.4,0.1s0.4-0.2,0.7-0.5l0.5-0.5c0,0.1,0,0.2,0,0.3c0,0.3,0.1,0.5,0.4,0.6
			c0,0,0.1,0,0.1,0c0.4,0,0.9-0.5,1.7-1.5C160.1,74,160.2,74,160.1,73.9C160.2,73.9,160.1,73.9,160.1,73.9
			C160.1,73.9,160.1,73.9,160.1,73.9z M157.9,74.4c-0.6,0.7-1,1.1-1.4,1.1c-0.1,0-0.2-0.1-0.2-0.3c0-0.4,0.3-0.8,0.9-1.4
			c0.6-0.5,1.1-0.8,1.4-0.8c0.1,0,0.2,0,0.2,0.1L157.9,74.4z M167.9,74.1c-0.2,0.3-0.5,0.6-0.9,0.9c-0.5,0.4-0.8,0.6-1.1,0.6
			c-0.3,0-0.4-0.2-0.4-0.5c0-0.2,0-0.3,0.1-0.5c0,0,0.1,0,0.1,0c0.3,0,0.7-0.1,1.2-0.4c0.5-0.3,0.7-0.6,0.7-0.9c0-0.1,0-0.2-0.1-0.3
			c-0.1-0.1-0.2-0.1-0.3-0.1c-0.4,0-0.9,0.3-1.4,0.8c-0.4,0.4-0.6,0.7-0.7,1c-0.5,0.5-0.9,0.8-1.3,0.8c-0.2,0-0.3-0.1-0.3-0.4
			c0-0.1,0-0.2,0-0.2c0.1-0.4,0.4-1,1.1-1.9c0.2-0.3,0.6-0.7,1-1.3c0,0,0-0.1,0-0.1c0-0.1,0-0.1-0.1-0.1c-0.1,0-0.1,0-0.2,0
			c-0.3,0-0.7,0.5-1.4,1.6c0-0.1-0.1-0.2-0.1-0.2c-0.1-0.1-0.2-0.1-0.3-0.1c-0.5,0-1,0.3-1.6,0.9c-0.6,0.6-0.9,1.1-0.9,1.5
			c0,0.2,0.1,0.3,0.2,0.5c0.1,0.1,0.3,0.1,0.5,0.1s0.4-0.1,0.7-0.4l0.7-0.7c-0.1,0.2-0.1,0.4-0.1,0.5c0,0.1,0,0.3,0.1,0.4
			c0.1,0.1,0.2,0.2,0.4,0.2c0.1,0,0.1,0,0.1,0c0.4-0.1,0.7-0.3,1.2-0.7c0,0,0,0.1,0,0.1c0,0.3,0.2,0.5,0.6,0.6c0.1,0,0.1,0,0.2,0
			c0.3,0,0.7-0.2,1.1-0.5c0.4-0.3,0.8-0.7,1.1-1.1c0-0.1,0.1-0.1,0.1-0.1c0,0,0-0.1-0.1-0.1S168,74,167.9,74.1z M166.6,73.5
			c0.3-0.2,0.5-0.3,0.6-0.3s0.2,0,0.2,0.1c0,0,0,0,0,0.1c-0.1,0.3-0.3,0.5-0.7,0.8c-0.4,0.2-0.7,0.4-0.9,0.4c0,0-0.1,0-0.1,0
			C165.9,74.1,166.2,73.8,166.6,73.5z M163,74.5c-0.6,0.7-1,1-1.2,1c-0.1,0-0.2-0.1-0.2-0.3c0-0.4,0.3-0.8,0.9-1.4
			c0.6-0.5,1.1-0.8,1.4-0.8c0.1,0,0.2,0,0.2,0.1C163.5,73.9,163.2,74.3,163,74.5z M173.4,71.6c0.1,0,0.1-0.1,0.1-0.1c0,0,0,0-0.1,0
			C173.5,71.4,173.4,71.4,173.4,71.6c-0.5,0.2-0.7,0.5-0.7,0.8c0,0.2,0.1,0.4,0.4,0.6c0.2,0.2,0.5,0.2,0.9,0.2c0.7,0,1.4-0.3,1.9-1
			c0.2-0.3,0.3-0.6,0.3-0.9c0-0.6-0.3-1-0.9-1.2c-0.2-0.1-0.5-0.1-0.8-0.1c-0.6,0-1.2,0.1-1.9,0.4c-0.7,0.3-1.2,0.7-1.7,1.2
			c-0.7,0.7-1.1,1.4-1.2,2.2c0,0.2-0.1,0.4-0.1,0.6c0,0.4,0.1,0.8,0.4,1.1c0.4,0.5,0.9,0.7,1.6,0.7c0.7,0,1.4-0.2,2.1-0.6
			c0.6-0.3,1-0.6,1.3-0.9c0.1-0.1,0.1-0.1,0.1-0.2c0-0.1,0-0.1-0.1-0.1c-0.1,0-0.1,0.1-0.2,0.2c-0.3,0.4-0.7,0.7-1.2,0.9
			c-0.6,0.3-1.2,0.4-1.8,0.4c-0.5,0-1-0.1-1.3-0.4c-0.4-0.3-0.5-0.7-0.5-1.2c0-0.7,0.3-1.4,0.9-2.1c0.6-0.7,1.2-1.3,1.9-1.6
			c0.6-0.3,1.1-0.4,1.7-0.4c0.4,0,0.7,0.1,0.9,0.2c0.3,0.2,0.4,0.5,0.4,0.8c0,0.4-0.1,0.7-0.4,1c-0.5,0.5-1,0.8-1.6,0.8
			c-0.3,0-0.5-0.1-0.6-0.2c-0.2-0.1-0.3-0.3-0.3-0.5C172.9,72.1,173.1,71.8,173.4,71.6z M181.1,72.6c0.1-0.1,0.1-0.1,0.1-0.2
			c0-0.1,0-0.1-0.1-0.2c-0.1-0.1-0.2-0.1-0.2-0.1c-0.2,0-0.3,0.1-0.3,0.2c0,0.1,0,0.2,0.1,0.2c0.1,0.1,0.2,0.1,0.2,0.1
			C181,72.6,181,72.6,181.1,72.6z M188.9,73.4c0-0.1,0-0.2,0-0.3c0-0.3-0.1-0.5-0.4-0.5c-0.3,0-0.7,0.3-1.2,0.9
			c-0.2,0.2-0.3,0.4-0.5,0.6c0,0,0,0,0,0c-0.4,0.4-0.7,0.7-1,0.9c-0.1,0.1-0.3,0.2-0.5,0.2c-0.2,0.1-0.4,0.1-0.5,0.1
			c-0.3,0-0.4-0.1-0.4-0.3c0-0.2,0.1-0.6,0.4-1.1c0.3-0.5,0.5-0.8,0.6-0.9c0.1,0,0.4-0.1,1.2-0.2c0.7-0.1,1.1-0.2,1.1-0.2
			c0,0,0,0,0,0l-1.2,0c-0.2,0-0.4,0-0.6,0c0.3-0.3,0.4-0.5,0.4-0.6c0-0.1,0-0.1-0.1-0.2c-0.1,0-0.2-0.1-0.2-0.1
			c-0.1,0-0.2,0.1-0.3,0.3c-0.1,0.2-0.3,0.3-0.4,0.5h-0.5c0,0-0.1,0-0.1,0c-0.1,0-0.2,0.1-0.2,0.2c0,0.1,0.1,0.2,0.3,0.2
			c0.1,0,0.1,0,0.2,0c-0.1,0.2-0.3,0.5-0.5,0.9c0,0,0,0.1-0.1,0.1c-0.5,0.6-0.9,0.8-1.4,0.9c0.1-0.2,0.1-0.6,0.2-1.2
			c0.1-0.6,0.2-0.9,0.3-1.1c0,0,0.1-0.1,0.1-0.1c0,0,0.1-0.1,0.1-0.2c0.1-0.1,0.1-0.1,0.1-0.2c0-0.1-0.1-0.2-0.3-0.2
			c-0.1,0-0.2,0.1-0.6,0.4l-1.1,1c-0.4,0.4-0.7,0.7-0.9,0.9c-0.3,0.3-0.6,0.6-1,0.8c-0.2,0.1-0.4,0.2-0.5,0.2
			c-0.1,0-0.2-0.1-0.2-0.3c0-0.2,0.2-0.6,0.6-1.2c0.1-0.1,0.2-0.2,0.2-0.3c0.1-0.1,0.1-0.2,0.2-0.2c0-0.1,0.1-0.1,0.1-0.2
			c0,0,0.1-0.1,0.1-0.1c0,0,0-0.1-0.1-0.1c-0.1,0-0.1-0.1-0.2-0.1c-0.2,0-0.5,0.3-0.8,0.8c-0.1,0.2-0.2,0.3-0.3,0.5
			c0,0-0.1,0.1-0.1,0.1c-0.2,0.2-0.4,0.4-0.6,0.6c-0.4,0.3-0.7,0.4-1,0.4c-0.3,0-0.4-0.1-0.4-0.4c0-0.3,0.2-0.6,0.6-1.1l0.6-0.8
			c0,0,0-0.1-0.1-0.2c-0.1-0.1-0.1-0.1-0.1-0.1c0,0-0.1,0-0.1,0l-0.2,0.1c-0.1,0.1-0.2,0.1-0.3,0.1c-0.2,0-0.3-0.1-0.3-0.2l0.2-0.3
			c0.1-0.2,0.2-0.3,0.2-0.4c0-0.1-0.1-0.2-0.2-0.2c-0.2,0-0.4,0.3-0.5,0.8c-0.2,0.4-0.6,0.9-1.1,1.5c-0.1,0.1-0.1,0.2-0.1,0.3
			c0,0,0,0,0,0c0.1,0,0.3-0.2,0.6-0.7l0.6-0.8c0.1,0.2,0.2,0.3,0.3,0.3c0,0,0.1,0,0.1,0c-0.2,0.2-0.3,0.4-0.4,0.7
			c-0.1,0.3-0.2,0.6-0.2,0.8c0,0.5,0.2,0.7,0.6,0.7c0.3,0,0.7-0.2,1.1-0.5c0.2-0.1,0.3-0.3,0.5-0.4c-0.1,0.2-0.1,0.3-0.1,0.4
			c0,0.4,0.1,0.6,0.4,0.6c0.2,0,0.3,0,0.4-0.1c0.1,0,0.1-0.1,0.2-0.1c0.1,0,0.1-0.1,0.2-0.1c0.1-0.1,0.1-0.1,0.2-0.1
			c0,0,0.1-0.1,0.2-0.2c0.1-0.1,0.1-0.1,0.2-0.1c0,0,0.1-0.1,0.2-0.2c0,0,0.1-0.1,0.1-0.1c0,0,0.1-0.1,0.1-0.1
			c0.1,0.4,0.2,0.6,0.3,0.8c0.1,0.2,0.3,0.2,0.6,0.2c0.2,0,0.5,0,0.6-0.1l0.3-0.2c0.3-0.1,0.5-0.1,0.7-0.2c0.2-0.1,0.4-0.3,0.6-0.5
			c-0.1,0.2-0.1,0.3-0.1,0.5c0,0.2,0.1,0.4,0.2,0.5c0.1,0.1,0.3,0.1,0.4,0.1c0.4,0,0.8-0.1,1.3-0.4c0.3-0.2,0.5-0.4,0.7-0.6
			c-0.1,0.1-0.1,0.3-0.1,0.4c0,0.1,0,0.3,0.1,0.4c0.1,0.2,0.2,0.2,0.4,0.2h0.1c0.3,0,0.7-0.3,1.2-0.8c0.4-0.5,0.6-0.8,0.6-1
			c0,0,0-0.1,0-0.1c0.5-0.2,0.7-0.3,0.7-0.4c-0.2,0.1-0.4,0.2-0.5,0.2C189,73.5,188.9,73.4,188.9,73.4z M182.7,74.3
			c-0.1,0.5-0.2,0.7-0.3,0.8c-0.1,0.1-0.2,0.1-0.4,0.1c-0.2,0-0.3-0.1-0.4-0.2c-0.1-0.1-0.2-0.3-0.2-0.5c0,0,0-0.1,0-0.1
			c0-0.1,0.2-0.4,0.6-0.7c0.4-0.4,0.7-0.7,1-0.9l0,0.3C182.9,73.4,182.8,73.8,182.7,74.3z M188.1,74.7c-0.4,0.5-0.7,0.7-0.9,0.7
			c-0.1,0-0.2-0.1-0.2-0.3c0-0.2,0.2-0.6,0.5-1c0.4-0.5,0.6-0.7,0.8-0.7c0.1,0.2,0.3,0.3,0.3,0.4C188.7,73.9,188.5,74.3,188.1,74.7z
			 M190.4,75.2c-0.1-0.1-0.2-0.1-0.2-0.1c-0.2,0-0.3,0.1-0.3,0.3c0,0.1,0,0.2,0.1,0.2c0.1,0.1,0.2,0.1,0.2,0.1c0.1,0,0.2,0,0.2-0.1
			c0.1-0.1,0.1-0.1,0.1-0.2C190.5,75.3,190.5,75.2,190.4,75.2z M121.5,37.6c0.8,0,1.5-0.2,2.1-0.7c0.6-0.5,1-0.7,1.1-0.9
			c0.1-0.1,0.3-0.3,0.5-0.5l0.7-0.8c0.1-0.1,0.2-0.2,0.2-0.4l-0.1,0c0,0,0,0-0.1,0l-0.4,0.4l-1,0.7c-0.2,0.1-0.4,0.2-0.6,0.2
			c-0.2,0.1-0.4,0.1-0.5,0.1c-0.2,0-0.3,0.1-0.5,0.1c-1.3,0-2-0.7-2-2.1c0-0.5,0.2-1.3,0.6-2.2c0.4-0.9,1.1-2,2.1-3.1
			c1-1.1,2-2,3.2-2.6c1.2-0.6,2.3-0.9,3.4-0.9c1,0,1.5,0.5,1.5,1.5c0,0.3-0.1,0.6-0.2,1c-0.1,0.4-0.3,0.7-0.4,1.1
			c-0.2,0.4-0.5,0.9-0.9,1.7l-1,1.6l-4.2,6.3c-0.3,0.6-0.5,1.1-0.6,1.5c-0.2,0.4-0.3,0.8-0.3,1.1c-0.1,0.3-0.1,0.6-0.1,0.7
			c0,0.5,0.2,1,0.5,1.5c0.3,0.4,0.6,0.7,0.9,0.7c0.3,0,0.5,0.1,0.7,0.1c0.1,0,0.3,0,0.4,0c0.4,0,0.9-0.1,1.4-0.2
			c0.5-0.1,1-0.3,1.6-0.6c0.6-0.2,1.4-0.8,2.4-1.7c1.1-0.9,2-1.7,2.8-2.5c0.8-0.8,1.8-2.1,3-3.7c1.2-1.6,2.1-3.1,2.7-4.5
			c0.1-0.3,0.2-0.5,0.3-0.8c0,0.2,0,0.5,0.1,0.7c0.3,0.6,0.9,1.1,1.7,1.3c-0.5-0.3-0.8-0.9-0.8-1.4c0.1-1.1,1-1.6,1.3-2.4
			c0.1-0.4,0.3-0.9-0.1-1.2c0.7,0.3,1.3,1.3,1.1,2.1c-0.1,0.2-0.2,0.5-0.4,0.6h0c0.3-0.2,0.7-0.6,0.6-1.1c0.2,0.2,0.4,0.5,0.4,0.8
			c0,0.3-0.3,0.6-0.4,0.9c-0.1,0.2,0,0.5,0.3,0.5c0.3-0.1,0.4-0.6,0.1-0.8c0.7,0.4,0.6,1.3,0.2,1.8c-0.2,0.2-0.4,0.4-0.7,0.5
			c0.7-0.2,1.8-0.7,2-1.8c0.2-1.1-0.7-1.8-1.3-2.6c-0.4-0.6,0.1-1.1,0-1.6c-0.1-0.3-0.3-0.6-0.6-0.8c0.2,0.3,0.2,0.8-0.2,1.1
			c0.2-0.3,0.2-0.6,0-0.8c-0.3-0.5-1-0.8-1.2-1.3c-0.1-0.4,0-0.7,0.5-1c-0.6,0.2-1.1,0.8-1,1.3c0,0.7,0.6,1.3,0.4,2
			c-0.1,0.3-0.9,1.2-1.4,1.8c0.1-0.2,0.1-0.4,0.2-0.6c0.1-0.5,0.2-1,0.2-1.4c0-0.5-0.2-1-0.5-1.3c-0.3-0.3-0.7-0.5-1.2-0.5
			c-0.2,0-0.4,0-0.6,0.1c-0.2,0.1-0.4,0.1-0.5,0.2c-0.1,0.1-0.3,0.2-0.4,0.4s-0.2,0.4-0.3,0.6c-0.1,0.3-0.1,0.4,0,0.5
			c0,0.1,0.1,0.1,0.2,0.1l0.1,0c0.1,0,0.2,0,0.3,0c0.8,0,1.2,0.5,1.2,1.6c0,0.8-0.3,1.9-0.8,3.2c-0.5,1.3-1.4,2.9-2.7,4.6
			c-1.2,1.8-2.5,3.2-3.8,4.3c-1.3,1.1-2.3,1.7-2.8,1.8c-0.6,0.1-0.9,0.2-1.1,0.2c-0.4,0-0.8-0.1-1-0.4c-0.2-0.2-0.4-0.6-0.4-1
			c0-0.4,0.1-0.8,0.2-1.2c0.1-0.4,0.5-1,0.9-1.8l0.8-1.2l1.9-2.7l0.4-0.6c0.8-1.3,1.4-2.3,1.8-3c0.3-0.7,0.6-1.4,0.7-1.9
			c0.1-0.5,0.1-0.9,0.1-1c0-0.8-0.3-1.5-0.9-2.1c-0.6-0.6-1.4-0.8-2.3-0.8h-0.5c-0.5,0-0.9,0.1-1.4,0.2c-0.5,0.1-1.3,0.4-2.5,0.9
			c-1.2,0.5-2.3,1.2-3.4,2.2c-1.1,0.9-2.1,2.1-2.9,3.5c-0.8,1.4-1.2,2.6-1.2,3.5c0,0.2,0,0.5,0.1,0.9
			C119.5,36.9,120.3,37.6,121.5,37.6z M145.9,35.4l-1.7,2.5c0,0,0,0,0,0c-0.1,0.2-0.4,0.5-0.7,0.9l-0.6,0.7
			c-0.7,0.7-1.3,1.3-1.9,1.8c-0.6,0.5-1,0.8-1.2,1c-0.2,0.2-0.4,0.3-0.5,0.3c-0.1,0-0.2,0.1-0.4,0.1c-0.4,0-0.5-0.2-0.5-0.6
			c0-0.3,0.1-0.8,0.4-1.3l0.3-0.4l3.3-5c0.3-0.4,0.5-0.7,0.5-0.9c0-0.2,0-0.4,0-0.6h-3.1c0.1,0.1,0.1,0.3,0.1,0.4
			c0,0.2-0.2,0.5-0.5,1l-2.9,4.3l-0.2,0.3l-0.4,0.7c-0.1,0.1-0.1,0.2-0.2,0.3c0,0.1-0.1,0.2-0.1,0.4c0,0.1-0.1,0.3-0.1,0.5
			c0,0.5,0.2,0.9,0.5,1.3c0.3,0.3,0.8,0.5,1.3,0.5c0.7,0,1.5-0.3,2.4-0.8c0.8-0.5,1.9-1.5,3.2-2.9c-0.1,0.3-0.3,0.6-0.3,0.8
			c-0.1,0.4-0.2,0.8-0.2,1c0,0.6,0.2,1,0.6,1.4c0.4,0.4,0.9,0.5,1.5,0.5c0.6,0,1.3-0.2,2.2-0.7s1.6-1,2.3-1.6
			c0.6-0.6,1.3-1.5,2.1-2.5c0.8-1.1,1.3-2,1.7-2.8l0.1-0.3l0.2-0.4l0.1-0.3l0.1-0.4v-0.5c0-0.2-0.1-0.4-0.3-0.5
			c-0.2-0.1-0.3-0.1-0.6,0l-0.5,0.3l-0.1,0.2v0.2l0.1,0.1v0.3l0.1,0.1v0.5c0,0.3-0.2,0.8-0.4,1.2c-0.2,0.5-0.4,1-0.7,1.5
			c-0.3,0.5-0.7,1.2-1.2,1.9c-0.5,0.8-1.2,1.4-1.8,1.9c-0.7,0.5-1.2,0.8-1.7,0.8c-0.3,0.1-0.6,0-0.8-0.2c-0.2-0.2-0.4-0.5-0.4-0.8
			c0-0.2,0.1-0.4,0.2-0.8c0.2-0.3,0.4-0.9,0.8-1.6l0.5-0.7l2.1-3c0.4-0.6,0.6-1,0.6-1.2c0-0.1,0-0.3-0.1-0.4h-3l0,0.1
			c0,0.2,0.1,0.3,0,0.4C146.4,34.7,146.2,35,145.9,35.4z M152.2,41c0,0.8,0.2,1.5,0.6,1.9c0.4,0.4,0.9,0.7,1.5,0.7h0.2
			c0.1,0,0.5-0.1,1.1-0.2c0.6-0.1,1.5-0.8,2.7-2l0.5-0.5c-0.1,0.3-0.1,0.6-0.1,0.9c0,1.2,0.7,1.8,2.2,1.8c0.6,0,1.2-0.3,2-0.9
			c0.8-0.5,1.7-1.4,2.8-2.7l0.4-0.5c0.3-0.4,0.6-0.8,0.9-1.2c0.3-0.3,0.4-0.5,0.4-0.6l-0.1-0.1l-0.1,0l-0.1,0.1l-0.2,0.3l-0.4,0.6
			c-0.7,0.8-1.4,1.6-2.1,2.3c-0.7,0.7-1.2,1.2-1.6,1.4c-0.3,0.2-0.6,0.4-0.9,0.4c-0.4,0-0.6-0.2-0.6-0.7c0-0.2,0.2-0.6,0.6-1.3
			l0.2-0.3l4.3-6.4h-2.9l-0.9,1.3c0.1-0.4,0-0.8-0.4-1.1c-0.4-0.3-0.9-0.4-1.5-0.4c-0.6,0-1.2,0.1-1.8,0.4c-0.6,0.2-1.5,0.7-2.5,1.5
			c-1.1,0.7-2,1.6-2.7,2.7C152.5,39.3,152.2,40.2,152.2,41z M155.2,40.3c0.3-0.6,0.6-1.2,1.1-1.8c0.4-0.6,0.9-1.2,1.4-1.7
			c0.5-0.6,1-1,1.4-1.4c0.4-0.3,0.8-0.6,1-0.7c0.3-0.1,0.5-0.2,0.8-0.3c0.2,0,0.4,0,0.6,0.1c0.2,0.1,0.3,0.3,0.3,0.6
			c0,0.4-0.1,0.9-0.4,1.5c-0.3,0.5-0.8,1.3-1.5,2.2l-0.8,1l-0.4,0.4c-0.5,0.6-1,1.1-1.3,1.4c-0.3,0.3-0.6,0.5-0.9,0.6
			c-0.3,0.1-0.6,0.2-0.7,0.2c-0.5,0-0.8-0.3-0.9-0.9C154.8,41.4,154.9,40.9,155.2,40.3z M99.2,55.4c0.6-0.5,1-0.7,1.1-0.9
			s0.3-0.3,0.5-0.5l0.7-0.8c0.1-0.1,0.2-0.2,0.2-0.4l-0.1,0c0,0,0,0-0.1,0l-0.4,0.4l-1,0.7c-0.2,0.1-0.4,0.2-0.6,0.2
			c-0.2,0.1-0.4,0.1-0.5,0.1c-0.2,0-0.3,0.1-0.5,0.1c-1.3,0-2-0.7-2-2.1c0-0.5,0.2-1.3,0.6-2.2c0.4-0.9,1.1-2,2.1-3.1
			c1-1.1,2-2,3.2-2.6c1.2-0.6,2.3-0.9,3.4-0.9c1,0,1.5,0.5,1.5,1.5c0,0.3-0.1,0.6-0.2,1c-0.1,0.4-0.3,0.7-0.4,1.1
			c-0.2,0.4-0.5,0.9-0.9,1.7l-1,1.6l-4.2,6.3c-0.3,0.6-0.5,1.1-0.6,1.5c-0.2,0.4-0.3,0.8-0.3,1.1c-0.1,0.3-0.1,0.6-0.1,0.7
			c0,0.5,0.2,1,0.5,1.5c0.3,0.4,0.6,0.7,0.9,0.7c0.3,0,0.5,0.1,0.7,0.1c0.1,0,0.3,0,0.4,0c0.4,0,0.9-0.1,1.4-0.2
			c0.5-0.1,1-0.3,1.6-0.6c0.6-0.2,1.4-0.8,2.4-1.7c1.1-0.9,2-1.7,2.8-2.5c0.8-0.8,1.8-2.1,3-3.7c1.2-1.6,2.1-3.1,2.7-4.5
			c0.6-1.3,0.9-2.3,1.1-2.8c0.1-0.5,0.2-1,0.2-1.4c0-0.5-0.2-1-0.5-1.3c-0.3-0.3-0.7-0.5-1.2-0.5c-0.2,0-0.4,0-0.6,0.1
			c-0.2,0.1-0.4,0.1-0.5,0.2c-0.1,0.1-0.3,0.2-0.4,0.4c-0.1,0.2-0.2,0.4-0.3,0.6c-0.1,0.3-0.1,0.4,0,0.5c0,0.1,0.1,0.1,0.2,0.1
			l0.1,0c0.1,0,0.2,0,0.3,0c0.8,0,1.2,0.5,1.2,1.6c0,0.8-0.3,1.9-0.8,3.2c-0.5,1.3-1.4,2.9-2.7,4.6c-1.2,1.8-2.5,3.2-3.8,4.3
			c-1.3,1.1-2.3,1.7-2.8,1.8c-0.6,0.1-0.9,0.2-1.1,0.2c-0.4,0-0.8-0.1-1-0.4c-0.2-0.2-0.4-0.6-0.4-1c0-0.4,0.1-0.8,0.2-1.2
			c0.1-0.4,0.5-1,0.9-1.8l0.8-1.2l1.9-2.7l0.4-0.6c0.8-1.3,1.4-2.3,1.8-3c0.3-0.7,0.6-1.4,0.7-1.9c0.1-0.5,0.1-0.9,0.1-1
			c0-0.8-0.3-1.5-0.9-2.1c-0.6-0.6-1.4-0.8-2.3-0.8h-0.5c-0.5,0-0.9,0.1-1.4,0.2c-0.5,0.1-1.3,0.4-2.5,0.9c-1.2,0.5-2.3,1.2-3.4,2.2
			c-1.1,0.9-2.1,2.1-2.9,3.5c-0.8,1.4-1.2,2.6-1.2,3.5c0,0.2,0,0.5,0.1,0.9c0.4,1.3,1.2,1.9,2.4,1.9C97.9,56.1,98.6,55.8,99.2,55.4z
			 M112.3,57.6c-0.3,1-0.5,1.7-0.5,2c0,0.6,0.2,1.2,0.6,1.7c0.4,0.5,0.9,0.8,1.6,0.9h0.8c0.2,0,0.6,0,1.2-0.1
			c0.6-0.1,1.3-0.4,2.1-0.8c0.8-0.5,1.8-1.4,2.9-2.7l0.7-0.9l0.1-0.1l0.5-0.7l0.2-0.1l0.1-0.3l-0.1-0.1c-0.1,0.1-0.3,0.3-0.5,0.5
			c-0.2,0.2-0.4,0.5-0.5,0.7l-0.5,0.7c-1.1,1.2-2,2-2.8,2.5c-0.8,0.5-1.6,0.7-2.4,0.7c-0.9,0-1.4-0.4-1.4-1.1c0-0.2,0-0.4,0.1-0.6
			c0-0.2,0.1-0.4,0.3-0.7c0.1-0.3,0.2-0.5,0.3-0.6l0.2-0.4l0.2-0.3c1.2-0.2,2.4-0.5,3.4-1c1-0.4,1.8-0.8,2.2-1.2
			c0.5-0.3,0.8-0.7,1.1-1c0.2-0.3,0.3-0.7,0.3-1c0-0.3-0.1-0.6-0.3-0.8c-0.2-0.2-0.4-0.3-0.8-0.4c-0.3-0.1-0.7-0.1-1-0.1
			c-0.6,0-1.2,0.1-1.8,0.3c-0.6,0.2-1.2,0.4-1.6,0.6c-0.4,0.2-1.3,0.7-2.5,1.6C113.3,55.6,112.6,56.6,112.3,57.6z M116.2,56.3
			c0.4-0.6,0.9-1.1,1.3-1.5c0.9-0.9,1.5-1.5,1.9-1.7c0.4-0.3,0.7-0.4,1-0.4c0.4,0,0.6,0.1,0.6,0.6c0,0.2-0.1,0.5-0.2,0.7
			c-0.1,0.2-0.3,0.5-0.4,0.7c-0.1,0.2-0.4,0.5-0.9,0.9c-0.4,0.4-1,0.8-1.8,1.1c-0.8,0.3-1.5,0.5-2.1,0.6L116.2,56.3z M142.8,58.8
			c-0.1,0.4-0.1,0.6-0.1,0.8c0,0.6,0.2,1.2,0.6,1.7c0.4,0.5,0.9,0.8,1.6,0.9h0.9c0.2,0,0.6,0,1.2-0.1c0.6-0.1,1.3-0.4,2.1-0.8
			c0.8-0.5,1.8-1.4,2.9-2.7l0.7-0.9l0.1-0.1l0.5-0.7l0.2-0.1l0.1-0.3l-0.1-0.1c-0.1,0.1-0.3,0.3-0.5,0.5c-0.2,0.2-0.4,0.5-0.5,0.7
			l-0.5,0.7c-1.1,1.2-2,2-2.8,2.5c-0.8,0.5-1.6,0.7-2.4,0.7c-0.9,0-1.4-0.4-1.4-1.1c0-0.2,0-0.4,0.1-0.6c0-0.2,0.1-0.4,0.3-0.7
			c0.1-0.3,0.2-0.5,0.3-0.6l0.2-0.4l0.2-0.3c1.2-0.2,2.4-0.5,3.4-1c1-0.4,1.8-0.8,2.2-1.2c0.5-0.3,0.8-0.7,1.1-1
			c0.2-0.3,0.3-0.7,0.3-1c0-0.3-0.1-0.6-0.3-0.8c-0.2-0.2-0.4-0.3-0.8-0.4c-0.3-0.1-0.7-0.1-1-0.1c-0.6,0-1.2,0.1-1.8,0.3
			c-0.6,0.2-1.2,0.4-1.6,0.6c-0.4,0.2-1.3,0.7-2.5,1.6c-1.2,0.9-2,1.8-2.3,2.8c-0.1,0.2-0.1,0.4-0.2,0.6c0,0.1-0.1,0.1-0.1,0.1
			l-0.6,0.6l-0.3,0.3c-0.8,0.7-1.4,1.3-2,1.6c-0.6,0.3-1.1,0.5-1.5,0.5c-1.1,0-1.7-0.5-1.7-1.5c0-0.1,0.1-0.5,0.4-1.2l0.6-1.3
			c0.1-0.2,0.3-0.5,0.6-0.9c0.3-0.4,0.6-0.8,0.9-1.3c0.4-0.4,0.8-0.9,1.2-1.3c0.4-0.4,0.8-0.7,1.1-0.9c0.3-0.1,0.5-0.2,0.6-0.2
			c0.3,0,0.5,0.1,0.7,0.2c0.2,0.2,0.3,0.4,0.3,0.7v0.3l-0.1,0.4l0,0.2c0.1,0,0.2,0,0.3,0l0.5-0.3c0.3-0.3,0.5-0.6,0.5-0.9
			c0-0.2-0.2-0.4-0.5-0.7c-0.3-0.3-0.9-0.4-1.7-0.4c-1.1,0-2.3,0.3-3.5,1c-1.2,0.7-2.4,1.6-3.4,3l-0.1,0.1c0,0-0.1,0.1-0.1,0.1
			c-0.1,0.1-0.4,0.5-0.7,1c-0.3,0.5-0.8,1.1-1.4,1.6c-0.6,0.5-1,0.9-1.3,1.1c-0.3,0.2-0.5,0.4-0.7,0.5c-0.2,0.1-0.4,0.2-0.6,0.3
			c-0.1,0.1-0.3,0.1-0.4,0.1c-0.3,0-0.5-0.1-0.6-0.4c0-0.3,0.4-0.9,1.1-1.9c0.8-1,1.3-1.8,1.8-2.5c0.4-0.7,0.7-1.2,0.9-1.6
			c0.2-0.4,0.2-0.7,0.2-0.8c0-0.8-0.3-1.2-0.8-1.4c-0.6-0.1-0.9-0.2-1.1-0.2c-0.8,0-1.4,0.2-2,0.5c-0.6,0.3-1,0.6-1.2,0.8
			c-0.2,0.2-0.5,0.4-0.9,0.7l-0.7,0.6l-0.3,0.2l1.1-1.4c0.2-0.3,0.3-0.7,0.3-1.1h-3c0.1,0.3,0,0.7-0.3,1l-5.6,8.3l3.1,0l4-5.9
			l0.6-0.6l0.6-0.5l0.4-0.3l0.5-0.4c0.2-0.1,0.3-0.2,0.5-0.3c0.1-0.1,0.3-0.2,0.6-0.3c0.3-0.1,0.5-0.2,0.6-0.2c0.1,0,0.3,0,0.4,0
			c0.4,0,0.6,0.2,0.6,0.6c0,0.1,0,0.3-0.1,0.4l-0.3,0.5c-1.6,2.1-2.5,3.3-2.8,3.8c-0.3,0.5-0.6,0.9-0.7,1.4
			c-0.1,0.4-0.2,0.7-0.2,0.8c0,0.4,0.2,0.8,0.5,1.1c0.3,0.3,0.7,0.4,1.2,0.4c0.3,0,0.7-0.1,1.1-0.2c0.4-0.1,0.8-0.3,1.2-0.6
			c0.5-0.3,0.8-0.5,1-0.6c0.2-0.1,0.5-0.4,0.9-0.7l0.5-0.4l0.2-0.2l1.1-1.3c-0.2,0.5-0.3,0.9-0.4,1.3v0.4c0,1.6,0.9,2.5,2.7,2.5
			c0.4,0,0.9-0.1,1.6-0.2c0.7-0.1,1.4-0.5,2.1-1C141.1,60.6,141.9,59.8,142.8,58.8z M147.2,56.3c0.4-0.6,0.9-1.1,1.3-1.5
			c0.9-0.9,1.5-1.5,1.9-1.7c0.4-0.3,0.7-0.4,1-0.4c0.4,0,0.6,0.1,0.6,0.6c0,0.2-0.1,0.5-0.2,0.7c-0.1,0.2-0.3,0.5-0.4,0.7
			c-0.1,0.2-0.4,0.5-0.9,0.9c-0.4,0.4-1,0.8-1.8,1.1c-0.8,0.3-1.5,0.5-2.1,0.6L147.2,56.3z M187,52.2h-0.3c-1.1,0-2,0.2-2.8,0.5
			c-0.8,0.3-1.5,0.8-2.1,1.3c-0.6,0.5-1.1,0.9-1.3,1.2c-0.3,0.3-0.7,0.8-1.2,1.6c-0.2,0.2-0.3,0.5-0.4,0.7c-0.2,0.3-0.5,0.6-0.8,1
			c-0.4,0.5-0.9,1-1.5,1.5c-0.6,0.5-1,0.8-1.3,1c-0.3,0.2-0.6,0.3-0.8,0.3c-0.2,0-0.3-0.1-0.4-0.3c-0.1-0.2-0.1-0.4-0.1-0.6
			c0.1-0.4,0.2-0.8,0.3-1.1c0.1-0.3,0.4-0.7,0.8-1.3l7.6-11.3c0.4-0.5,0.6-0.9,0.6-1.2c0-0.1,0-0.2-0.1-0.4h-3
			c0.1,0.1,0.1,0.3,0.1,0.4c0,0.2-0.2,0.6-0.5,1.1l-4.7,7c0-0.3-0.1-0.5-0.2-0.8c-0.1-0.2-0.4-0.4-0.6-0.6c-0.3-0.1-0.6-0.2-1-0.2
			c-0.5,0-1.2,0.1-1.9,0.4c-0.7,0.3-1.6,0.8-2.7,1.6c-1,0.7-1.7,1.4-2.3,2.2c0,0,0,0,0,0c-0.1,0.1-0.4,0.5-0.7,1
			c-0.3,0.5-0.8,1.1-1.4,1.6c-0.6,0.5-1,0.9-1.3,1.1c-0.3,0.2-0.5,0.4-0.7,0.5c-0.2,0.1-0.4,0.2-0.6,0.3c-0.1,0.1-0.3,0.1-0.4,0.1
			c-0.3,0-0.5-0.1-0.6-0.4c0-0.3,0.4-0.9,1.1-1.9c0.8-1,1.3-1.8,1.8-2.5c0.4-0.7,0.7-1.2,0.9-1.6c0.2-0.4,0.2-0.7,0.2-0.8
			c0-0.8-0.3-1.2-0.8-1.4c-0.6-0.1-0.9-0.2-1.1-0.2c-0.8,0-1.4,0.2-2,0.5c-0.6,0.3-1,0.6-1.2,0.8c-0.2,0.2-0.5,0.4-0.9,0.7l-0.7,0.6
			l-0.3,0.2l1.1-1.4c0.2-0.3,0.3-0.7,0.3-1.1h-3c0.1,0.3,0,0.7-0.3,1l-5.6,8.3l3.1,0l4-5.9l0.6-0.6l0.6-0.5l0.4-0.3l0.5-0.4
			c0.2-0.1,0.3-0.2,0.5-0.3c0.1-0.1,0.3-0.2,0.6-0.3c0.3-0.1,0.5-0.2,0.6-0.2c0.1,0,0.3,0,0.4,0c0.4,0,0.6,0.2,0.6,0.6
			c0,0.1,0,0.3-0.1,0.4l-0.3,0.5c-1.6,2.1-2.5,3.3-2.8,3.8c-0.3,0.5-0.6,0.9-0.7,1.4c-0.1,0.4-0.2,0.7-0.2,0.8
			c0,0.4,0.2,0.8,0.5,1.1c0.3,0.3,0.7,0.4,1.2,0.4c0.3,0,0.7-0.1,1.1-0.2c0.4-0.1,0.8-0.3,1.2-0.6c0.5-0.3,0.8-0.5,1-0.6
			c0.2-0.1,0.5-0.4,0.9-0.7l0.5-0.4l0.2-0.2l0.9-1.1c-0.1,0.2-0.2,0.4-0.2,0.6c-0.1,0.6-0.1,1-0.1,1.2c0,0.6,0.2,1.1,0.6,1.5
			c0.4,0.4,0.9,0.6,1.6,0.6c0.2,0,0.5,0,0.9-0.1c0.3-0.1,0.8-0.3,1.4-0.7c0.6-0.4,1.3-1,2.1-1.9l0.4-0.4v0.1l-0.2,0.6l-0.1,0.7
			c0,0.5,0.1,0.9,0.4,1.2c0.3,0.3,0.7,0.5,1.2,0.5c0.2,0,0.5-0.1,1.1-0.2c0.5-0.1,1-0.4,1.5-0.7c0.5-0.3,1.2-0.9,1.9-1.7l0.7-0.8
			l0.1-0.2l0.2-0.2c-0.1,0.2-0.1,0.5-0.1,0.7c0,0.9,0.3,1.7,0.9,2.3c0.6,0.6,1.4,0.9,2.6,0.9c0.5,0,1.1,0,1.8-0.3
			c0.7-0.2,1.4-0.6,2.1-1.1c0.7-0.5,1.5-1.2,2.3-2.1c0.8-0.9,1.2-1.7,1.4-2.2c0.1-0.5,0.2-0.9,0.3-1.1v-0.7c0-0.8-0.3-1.4-0.8-1.9
			C188.5,52.4,187.8,52.2,187,52.2z M172.1,58l-1.1,1.3l-0.5,0.5c-0.2,0.2-0.4,0.4-0.6,0.6c-0.2,0.2-0.5,0.4-0.7,0.5
			c-0.2,0.1-0.5,0.2-0.7,0.2c-0.4,0-0.7-0.2-0.8-0.7c0-0.1-0.1-0.3-0.1-0.3c0-0.2,0.1-0.5,0.2-0.9c0.1-0.3,0.4-0.8,0.7-1.3
			c0.3-0.5,0.6-1,0.9-1.4c0.3-0.4,0.7-0.9,1.3-1.5c0.6-0.6,1-1,1.5-1.3c0.4-0.3,0.9-0.5,1.3-0.6c0.3-0.1,0.5-0.1,0.7,0
			c0.2,0.1,0.3,0.3,0.3,0.6c0,0.4-0.1,1-0.5,1.7C173.6,56,173,56.9,172.1,58z M188.2,53.7l-0.5,1.5c-0.4,1-0.9,2-1.7,3
			c-0.8,1-1.4,1.8-1.9,2.3c-0.5,0.5-0.9,0.8-1.3,0.9c-0.3,0.1-0.6,0.2-0.9,0.2c-0.7,0-1.1-0.3-1.1-0.9v-0.7c0.1-0.5,0.4-1.2,0.9-2.2
			c0.3-0.6,0.9-1.5,1.8-2.6l1.1-1.2c0.5-0.4,0.9-0.8,1.3-1c0.4-0.2,0.7-0.4,0.9-0.4C187.9,52.5,188.4,52.8,188.2,53.7z"/>
	</g>
</g>
</svg>
