<?xml version="1.0" encoding="utf-8"?>
<!-- Generator: Adobe Illustrator 19.0.0, SVG Export Plug-In . SVG Version: 6.00 Build 0)  -->
<svg version="1.1" id="Camada_1" xmlns="http://www.w3.org/2000/svg" xmlns:xlink="http://www.w3.org/1999/xlink" x="0px" y="0px"
	 viewBox="0 0 250 150" style="enable-background:new 0 0 250 150;" xml:space="preserve">
<g id="XMLID_3_">
	<g id="XMLID_314_">
		<g id="XMLID_360_">
			<path id="XMLID_402_" d="M57.7,111.4c1.1,0.4,2.1,1,2.9,1.7c0.1,0.1,0.2,0.2,0.3,0.3l0.1,0.1l0.1,0.1l0.2,0.1
				c0.2,0.2,0.5,0.4,0.7,0.6c0.4,0.4,0.7,0.8,1,1.1c0.5,0.7,0.6,1.2,0.5,1.6c-0.1,0.2-0.2,0.4-0.4,0.5c-0.2,0.1-0.4,0.2-0.7,0.2
				c-0.1,0-0.1,0-0.2,0c-0.1-0.3-0.2-0.7-0.5-1.2c-0.2-0.3-0.3-0.5-0.6-0.8c-0.2-0.3-0.5-0.6-0.7-0.8c0,0,0,0.1,0.1,0.3
				c0,0.1,0.1,0.2,0.2,0.3c0.1,0.1,0.1,0.3,0.2,0.4c0.1,0.3,0.3,0.6,0.3,0.9c0.1,0.3,0.1,0.6,0.2,0.8c-0.1,0-0.2-0.1-0.4-0.1
				c-0.1,0-0.2-0.1-0.4-0.1c-0.2-0.1-0.5-0.2-0.7-0.4c-0.4-0.3-0.8-0.6-1.1-1c-0.7-0.9-0.7-1.6-0.6-2.2
				C58.1,112.8,58.1,112.2,57.7,111.4z"/>
			<path id="XMLID_401_" d="M51.8,109.3c1,0.4,1.9,1.1,2.6,1.8c0.8,0.7,1.4,1.4,1.8,2c0.8,1.1,0.6,2.1-0.5,2.2c-0.1,0-0.1,0-0.2,0
				c-0.2-0.5-0.6-1.7-1.5-2.7c0,0,0.2,0.5,0.4,1c0.2,0.5,0.4,1.2,0.4,1.6c-0.4-0.1-0.9-0.3-1.3-0.6c-0.4-0.3-0.8-0.7-1-1.1
				c-0.6-0.9-0.5-1.6-0.4-2.2C52,110.7,52.2,110.1,51.8,109.3z"/>
			<path id="XMLID_400_" d="M46.4,106.9c0.4,0.2,0.9,0.5,1.2,0.9c0.4,0.3,0.7,0.7,1.1,1.1c0.3,0.4,0.6,0.7,0.9,1.1
				c0.2,0.4,0.5,0.7,0.6,1c0.6,1.1,0.4,2.1-0.7,2.1c-0.1,0-0.1,0-0.2,0c-0.1-0.5-0.5-1.7-1.2-2.7c0,0,0,0.1,0.1,0.3
				c0,0.2,0.1,0.4,0.2,0.7c0.1,0.5,0.3,1.2,0.2,1.6c-0.4-0.1-0.8-0.4-1.2-0.7c-0.4-0.3-0.7-0.7-0.9-1.1c-0.5-1-0.3-1.6-0.2-2.2
				C46.5,108.2,46.7,107.7,46.4,106.9z"/>
			<path id="XMLID_399_" d="M41.8,103.9c0.4,0.3,0.7,0.6,1,1c0.3,0.4,0.6,0.7,0.8,1.1c0.5,0.8,0.9,1.6,1.1,2.1
				c0.5,1.1,0.1,2.1-0.9,2c-0.1,0-0.1,0-0.2,0c0-0.2-0.1-0.7-0.2-1.2c-0.1-0.5-0.3-1.1-0.6-1.6c0,0,0.1,0.4,0.1,1
				c0,0.5,0.1,1.2,0,1.5c-0.4-0.2-0.8-0.5-1.1-0.8c-0.3-0.4-0.6-0.8-0.7-1.2c-0.2-0.5-0.2-0.9-0.1-1.2c0.1-0.3,0.2-0.6,0.3-0.9
				C41.7,105.2,41.9,104.7,41.8,103.9z"/>
			<path id="XMLID_398_" d="M38,100.4c0.3,0.3,0.5,0.7,0.8,1.1c0.2,0.4,0.4,0.8,0.6,1.2c0.2,0.4,0.3,0.8,0.4,1.2
				c0.1,0.4,0.2,0.7,0.3,1c0.2,1.2-0.2,2-1.2,1.8c0,0-0.1,0-0.1,0c0-0.2,0-0.6,0-1.1c0-0.5-0.1-1.1-0.3-1.6c0,0,0,0.4-0.1,1
				c-0.1,0.5-0.1,1.1-0.2,1.5c-0.3-0.2-0.6-0.6-0.9-1c-0.1-0.1-0.1-0.2-0.2-0.3c0-0.1-0.1-0.2-0.1-0.3c-0.1-0.2-0.1-0.4-0.2-0.7
				c-0.1-1,0.2-1.5,0.6-2C37.6,101.6,37.9,101.2,38,100.4z"/>
			<path id="XMLID_397_" d="M35,96.3c0.1,0.2,0.2,0.4,0.3,0.6c0.1,0.2,0.2,0.4,0.2,0.6c0.1,0.2,0.1,0.4,0.2,0.6
				c0.1,0.2,0.1,0.4,0.1,0.6c0.1,0.4,0.1,0.8,0.2,1.2c0,0.4,0.1,0.7,0.1,1c0,0.6-0.1,1-0.4,1.3c-0.3,0.3-0.7,0.4-1.1,0.2
				c0,0-0.1,0-0.1-0.1c0.1-0.4,0.3-1.6,0.2-2.7c0,0-0.1,0.4-0.3,0.9c-0.2,0.5-0.3,1.1-0.5,1.4c-0.3-0.3-0.5-0.7-0.7-1.1
				c-0.2-0.4-0.2-0.9-0.2-1.3c0.1-1,0.5-1.4,0.9-1.8c0.2-0.2,0.4-0.4,0.6-0.6C34.7,97,34.9,96.7,35,96.3z"/>
			<path id="XMLID_396_" d="M32.8,91.8c0.3,0.8,0.4,1.7,0.4,2.6c0,0.4,0,0.8,0,1.2c0,0.4-0.1,0.7-0.1,1c-0.2,1.1-0.9,1.7-1.7,1.1
				c0,0-0.1-0.1-0.1-0.1c0.2-0.4,0.7-1.5,0.7-2.5c0,0-0.2,0.4-0.4,0.8c-0.2,0.4-0.5,1-0.7,1.2c-0.2-0.3-0.4-0.8-0.4-1.2
				c-0.1-0.4,0-0.9,0-1.3c0.1-0.5,0.3-0.8,0.5-1c0.2-0.2,0.5-0.4,0.7-0.6C32.1,92.7,32.5,92.5,32.8,91.8z"/>
			<path id="XMLID_395_" d="M31.4,86.9c0,0.2,0.1,0.4,0.1,0.7c0,0.2,0,0.4,0,0.7c0,0.4,0,0.9-0.1,1.3c-0.1,0.8-0.3,1.6-0.5,2.1
				c-0.3,1-1.2,1.4-1.8,0.8c0,0-0.1-0.1-0.1-0.1c0.2-0.4,0.9-1.3,1.1-2.4c0,0-0.2,0.3-0.5,0.7c-0.3,0.4-0.6,0.8-0.9,1
				c-0.1-0.4-0.2-0.8-0.2-1.2c0-0.4,0.1-0.9,0.2-1.3c0.4-0.9,0.9-1.1,1.4-1.3C30.5,87.8,31,87.6,31.4,86.9z"/>
			<path id="XMLID_394_" d="M30.6,81.9c0.1,0.4,0,0.9,0,1.3c0,0.2-0.1,0.4-0.1,0.7c0,0.2-0.1,0.4-0.1,0.6c-0.2,0.8-0.5,1.6-0.8,2
				c-0.5,1-1.3,1.2-1.9,0.5c0,0-0.1-0.1-0.1-0.1c0.1-0.2,0.4-0.4,0.6-0.8c0.3-0.4,0.5-0.8,0.7-1.3c0,0-0.3,0.3-0.6,0.6
				c-0.3,0.3-0.7,0.7-1,0.9c-0.2-0.8-0.1-1.7,0.3-2.4c0.5-0.8,1-1,1.5-1.2C29.7,82.6,30.2,82.5,30.6,81.9z"/>
			<path id="XMLID_393_" d="M30.3,76.8c0,0.9-0.2,1.8-0.5,2.6c-0.3,0.8-0.6,1.5-0.9,1.9c-0.3,0.5-0.6,0.7-1,0.8
				c-0.3,0.1-0.7-0.1-0.9-0.5c0,0,0-0.1-0.1-0.1c0.3-0.3,1.1-1,1.5-2c0,0-0.3,0.3-0.6,0.6c-0.4,0.3-0.8,0.6-1.1,0.8
				c-0.1-0.4,0-0.8,0-1.2c0.1-0.4,0.3-0.8,0.5-1.1c0.5-0.7,1-0.9,1.6-1C29.3,77.5,29.8,77.4,30.3,76.8z"/>
			<path id="XMLID_392_" d="M30.5,72.1c-0.1,0.4-0.1,0.8-0.3,1.2c-0.1,0.4-0.3,0.8-0.5,1.1c-0.1,0.2-0.2,0.3-0.3,0.5
				c-0.1,0.2-0.2,0.3-0.3,0.5c-0.2,0.3-0.4,0.6-0.5,0.8c-0.6,0.8-1.5,0.9-1.9,0.1c0,0,0-0.1-0.1-0.1c0.3-0.2,1.1-0.9,1.6-1.7
				c0,0-0.3,0.2-0.7,0.5c-0.4,0.3-0.8,0.5-1.1,0.6c0-0.4,0-0.8,0.1-1.2c0.1-0.4,0.3-0.7,0.6-1c0.6-0.7,1.1-0.7,1.6-0.8
				C29.5,72.6,30,72.5,30.5,72.1z"/>
			<path id="XMLID_391_" d="M31.3,67.5c-0.2,0.8-0.6,1.5-1,2.2c-0.1,0.2-0.2,0.3-0.3,0.5c-0.1,0.1-0.2,0.3-0.3,0.4
				c-0.2,0.3-0.4,0.5-0.6,0.7c-0.7,0.7-1.5,0.7-1.8-0.1c0,0,0-0.1,0-0.1c0.2-0.1,0.5-0.3,0.8-0.5c0.3-0.2,0.7-0.6,1-0.9
				c0,0-0.3,0.2-0.7,0.4c-0.4,0.2-0.8,0.4-1.1,0.5c0-0.7,0.4-1.5,1-2c0.6-0.6,1.1-0.6,1.6-0.5C30.2,67.9,30.7,67.9,31.3,67.5z"/>
			<path id="XMLID_390_" d="M32.6,63.2c-0.1,0.4-0.3,0.7-0.6,1.1c-0.2,0.3-0.4,0.6-0.7,0.9c-0.2,0.3-0.5,0.5-0.8,0.8
				c-0.2,0.2-0.5,0.4-0.6,0.6c-0.8,0.6-1.5,0.5-1.7-0.3c0,0,0-0.1,0-0.1c0.2-0.1,0.5-0.2,0.8-0.4c0.3-0.2,0.8-0.5,1.1-0.8
				c0,0-0.3,0.1-0.7,0.3c-0.4,0.1-0.9,0.3-1.2,0.3c0.1-0.7,0.6-1.4,1.2-1.8c0.3-0.2,0.6-0.3,0.9-0.4c0.3,0,0.5,0,0.8,0
				C31.5,63.4,32,63.5,32.6,63.2z"/>
			<path id="XMLID_389_" d="M34.3,59.2c-0.2,0.4-0.4,0.7-0.6,1c-0.1,0.1-0.3,0.3-0.4,0.4c-0.1,0.1-0.3,0.3-0.4,0.4
				c-0.5,0.5-1.1,0.9-1.5,1.1c-0.8,0.5-1.5,0.3-1.6-0.5c0,0,0-0.1,0-0.1c0.3-0.1,1.3-0.4,2-0.9c0,0-0.3,0.1-0.7,0.2
				c-0.4,0.1-0.9,0.2-1.2,0.2c0.1-0.3,0.3-0.6,0.5-0.9c0.2-0.3,0.5-0.5,0.8-0.7c0.7-0.4,1.2-0.2,1.6-0.1
				C33.3,59.3,33.7,59.4,34.3,59.2z"/>
			<path id="XMLID_388_" d="M36.5,55.4c-0.2,0.3-0.5,0.6-0.7,0.9c-0.3,0.3-0.6,0.5-0.9,0.7c-0.6,0.4-1.1,0.8-1.6,0.9
				c-0.4,0.2-0.8,0.2-1.1,0.1c-0.3-0.1-0.4-0.4-0.4-0.8c0,0,0-0.1,0-0.1c0.3,0,1.3-0.2,2-0.7c0,0-0.3,0.1-0.7,0.1
				c-0.4,0-0.9,0.1-1.1,0c0.1-0.3,0.3-0.6,0.6-0.9c0.3-0.3,0.6-0.5,0.9-0.6c0.7-0.3,1.2-0.1,1.6,0.1C35.5,55.4,35.9,55.6,36.5,55.4z
				"/>
			<path id="XMLID_387_" d="M38.9,52c-0.2,0.3-0.5,0.6-0.8,0.8c-0.3,0.2-0.6,0.4-0.9,0.6c-0.6,0.4-1.2,0.6-1.6,0.8
				c-0.8,0.3-1.5-0.1-1.4-0.8c0,0,0-0.1,0-0.1c0.2,0,0.5,0,0.8-0.1c0.2,0,0.4-0.1,0.6-0.1c0.2-0.1,0.4-0.1,0.6-0.2c0,0-0.3,0-0.7,0
				c-0.4,0-0.8,0-1.1-0.1c0.1-0.1,0.2-0.3,0.3-0.4c0.1-0.1,0.2-0.2,0.4-0.4c0.3-0.2,0.6-0.4,0.9-0.5c0.7-0.2,1.1,0,1.5,0.2
				C38,51.9,38.4,52.1,38.9,52z"/>
			<path id="XMLID_386_" d="M41.6,48.9c-1,1.1-2.5,1.6-3.4,1.8c-0.8,0.2-1.4-0.2-1.2-0.9c0,0,0-0.1,0-0.1c0.3,0,1.2,0,2-0.3
				c0,0-0.3,0-0.7,0c-0.4,0-0.8-0.1-1-0.2c0.4-0.5,1-1,1.6-1.1c0.7-0.1,1.1,0.1,1.5,0.3C40.7,48.7,41.1,49,41.6,48.9z"/>
			<path id="XMLID_385_" d="M44.5,46.1c-1.1,1-2.6,1.4-3.4,1.5c-0.8,0.1-1.3-0.3-1.1-1c0,0,0-0.1,0-0.1c0.3,0,1.1,0.1,1.9-0.1
				c0,0-0.1,0-0.2,0c-0.1,0-0.3,0-0.5-0.1c-0.4-0.1-0.8-0.1-1-0.3c0.4-0.5,1-0.8,1.7-0.9c0.7-0.1,1.1,0.2,1.4,0.4
				C43.6,45.8,43.9,46.1,44.5,46.1z"/>
			<path id="XMLID_384_" d="M47.5,43.5c-0.3,0.2-0.6,0.4-0.9,0.6c-0.3,0.2-0.6,0.3-0.9,0.4c-0.6,0.2-1.2,0.3-1.6,0.3
				c-0.8,0.1-1.3-0.4-1-1.1c0,0,0-0.1,0-0.1c0.3,0.1,1.1,0.2,1.9,0.1c0,0-0.3-0.1-0.6-0.1c-0.3-0.1-0.7-0.2-0.9-0.3
				c0.4-0.4,1.1-0.7,1.7-0.8c0.7,0,1,0.2,1.3,0.5C46.7,43.2,46.9,43.5,47.5,43.5z"/>
			<path id="XMLID_383_" d="M50.5,41.3c-1.1,0.8-2.6,1-3.4,1c-0.8,0-1.2-0.5-0.9-1.1c0,0,0-0.1,0.1-0.1c0.3,0.1,1,0.3,1.8,0.2
				c0,0-0.3-0.1-0.6-0.2c-0.3-0.1-0.7-0.2-0.9-0.4c0.4-0.4,1.1-0.6,1.7-0.6C49.6,40.1,49.4,41.2,50.5,41.3z"/>
			<path id="XMLID_382_" d="M53.5,39.4c-1.1,0.6-2.5,0.7-3.2,0.7c-0.7-0.1-1.1-0.5-0.8-1.1c0,0,0-0.1,0.1-0.1c0.3,0.1,1,0.3,1.7,0.3
				c0,0-0.3-0.1-0.6-0.2c-0.3-0.1-0.6-0.3-0.8-0.4c0.4-0.3,1.1-0.5,1.6-0.5c0.6,0.1,0.9,0.4,1.1,0.7C52.8,39,53,39.3,53.5,39.4z"/>
			<path id="XMLID_381_" d="M54,122.3c1.2,0.4,2.4,0.5,3.6,0.4c0.1,0,0.3,0,0.4,0l0.1,0l0.1,0l0.1,0c0.2,0,0.4-0.1,0.6-0.2
				c0.4-0.1,0.7-0.2,1-0.3c0.5-0.2,1-0.5,1.2-0.8c0.1-0.2,0.2-0.4,0.2-0.6c0-0.2-0.1-0.4-0.2-0.6c0,0-0.1-0.1-0.1-0.1
				c-0.2,0.1-0.6,0.3-1.1,0.6c-0.2,0.1-0.5,0.2-0.8,0.3c-0.3,0.1-0.5,0.2-0.9,0.3c0,0,0.1-0.1,0.3-0.2c0.1-0.1,0.2-0.1,0.3-0.2
				c0.1-0.1,0.2-0.2,0.3-0.2c0.2-0.2,0.5-0.4,0.7-0.5c0.2-0.2,0.4-0.3,0.5-0.5c-0.1,0-0.2-0.1-0.3-0.1c-0.1,0-0.2-0.1-0.3-0.1
				c-0.2-0.1-0.5-0.1-0.7-0.1c-0.5,0-1.1,0-1.5,0.2c-1.1,0.3-1.5,0.9-1.8,1.4C55.2,121.4,54.9,122,54,122.3z"/>
			<path id="XMLID_380_" d="M47.4,119.7c1.1,0.5,2.4,0.7,3.5,0.7c1.1,0,2.1-0.2,2.8-0.3c1.3-0.4,1.8-1.3,1-2.1c0,0-0.1-0.1-0.1-0.1
				c-0.4,0.3-1.6,0.9-3,1.1c0,0,0.5-0.2,1-0.5c0.5-0.3,1.1-0.7,1.3-0.9c-0.4-0.2-0.9-0.3-1.4-0.4c-0.5-0.1-1,0-1.5,0.1
				c-1.1,0.3-1.5,0.8-1.9,1.3C48.7,118.9,48.4,119.5,47.4,119.7z"/>
			<path id="XMLID_379_" d="M41,116.4c0.5,0.3,1.1,0.5,1.7,0.7c0.6,0.2,1.2,0.3,1.7,0.4c0.6,0.1,1.1,0.1,1.6,0.1
				c0.5,0,0.9-0.1,1.2-0.1c1.4-0.2,1.8-1.1,1.1-2c0,0-0.1-0.1-0.1-0.1c-0.4,0.2-1.6,0.8-3,0.8c0,0,0.1,0,0.3-0.1
				c0.2-0.1,0.4-0.2,0.7-0.3c0.5-0.2,1.1-0.6,1.4-0.8c-0.4-0.2-0.9-0.4-1.4-0.5c-0.5-0.1-1-0.1-1.5-0.1c-1.1,0.1-1.6,0.6-2,1.1
				C42.4,115.9,42,116.4,41,116.4z"/>
			<path id="XMLID_378_" d="M35.1,112.3c0.5,0.4,1,0.7,1.6,1c0.6,0.3,1.1,0.5,1.7,0.6c1.1,0.3,2.1,0.4,2.8,0.3
				c1.4-0.1,1.9-0.9,1.3-1.8c0,0-0.1-0.1-0.1-0.1c-0.2,0.1-0.7,0.2-1.2,0.3c-0.5,0.1-1.2,0.1-1.8,0c0,0,0.5-0.1,1-0.3
				c0.5-0.2,1.2-0.4,1.4-0.6c-0.4-0.3-0.8-0.5-1.3-0.7c-0.5-0.2-1-0.3-1.5-0.3c-0.6,0-1,0.1-1.3,0.2c-0.3,0.1-0.6,0.3-0.8,0.5
				C36.5,112,36.1,112.4,35.1,112.3z"/>
			<path id="XMLID_377_" d="M30,107.2c0.4,0.5,0.9,0.9,1.4,1.3c0.5,0.4,1,0.7,1.5,0.9c0.5,0.2,1,0.4,1.5,0.6
				c0.4,0.1,0.9,0.2,1.2,0.3c1.3,0.2,2-0.5,1.6-1.5c0,0,0-0.1-0.1-0.1c-0.2,0-0.7,0.1-1.2,0.1c-0.5,0-1.2-0.1-1.8-0.3
				c0,0,0.5,0,1-0.1c0.6-0.1,1.2-0.2,1.5-0.3c-0.3-0.3-0.7-0.6-1.1-0.9c-0.1-0.1-0.2-0.1-0.3-0.2c-0.1-0.1-0.2-0.1-0.3-0.2
				c-0.2-0.1-0.5-0.2-0.7-0.2c-1.1-0.2-1.6,0-2.2,0.3C31.4,107.2,30.9,107.5,30,107.2z"/>
			<path id="XMLID_376_" d="M26,101.4c0.1,0.3,0.3,0.5,0.5,0.8c0.2,0.2,0.4,0.5,0.6,0.7c0.2,0.2,0.4,0.4,0.6,0.6
				c0.2,0.2,0.4,0.4,0.7,0.5c0.5,0.3,0.9,0.6,1.3,0.8c0.4,0.2,0.8,0.4,1.1,0.5c0.6,0.2,1.1,0.2,1.4,0c0.3-0.2,0.4-0.6,0.3-1.1
				c0-0.1,0-0.1,0-0.2c-0.4,0-1.7-0.1-2.8-0.7c0,0,0.5,0.1,1,0.1c0.5,0.1,1.2,0,1.5,0c-0.3-0.4-0.6-0.7-0.9-1
				c-0.4-0.3-0.8-0.6-1.2-0.8c-1-0.4-1.6-0.3-2.1-0.1c-0.3,0.1-0.6,0.2-0.9,0.2C26.8,101.6,26.4,101.6,26,101.4z"/>
			<path id="XMLID_375_" d="M23.3,95.1c0.4,1.1,1.1,2.1,1.8,2.9c0.4,0.4,0.8,0.7,1.1,1c0.4,0.3,0.7,0.5,1,0.7c1.1,0.6,2,0.2,1.9-0.8
				c0-0.1,0-0.1,0-0.2c-0.5-0.1-1.6-0.4-2.6-1.2c0,0,0.4,0.2,0.9,0.3c0.5,0.1,1.1,0.3,1.4,0.2c-0.2-0.4-0.4-0.8-0.7-1.2
				c-0.3-0.4-0.6-0.7-1-1c-0.4-0.3-0.8-0.4-1.1-0.5c-0.3-0.1-0.6,0-0.9,0C24.6,95.5,24.1,95.6,23.3,95.1z"/>
			<path id="XMLID_374_" d="M21.8,88.8c0,0.3,0.1,0.5,0.2,0.8c0.1,0.3,0.2,0.5,0.3,0.8c0.2,0.5,0.5,1,0.8,1.4
				c0.6,0.9,1.2,1.5,1.7,1.9c1,0.8,1.9,0.5,2-0.4c0,0,0-0.1,0-0.1c-0.4-0.2-1.5-0.6-2.3-1.6c0,0,0.4,0.2,0.9,0.4
				c0.5,0.2,1,0.4,1.3,0.4c-0.1-0.4-0.3-0.8-0.5-1.2c-0.2-0.4-0.5-0.8-0.8-1.1c-0.7-0.7-1.3-0.7-1.9-0.7
				C22.9,89.4,22.4,89.4,21.8,88.8z"/>
			<path id="XMLID_373_" d="M21,82.7c0,0.5,0.2,1.1,0.3,1.6c0.1,0.3,0.2,0.5,0.3,0.7c0.1,0.2,0.2,0.5,0.3,0.7c0.5,0.9,1,1.6,1.4,2
				c0.8,0.9,1.7,0.8,2-0.2c0,0,0-0.1,0-0.1c-0.2-0.1-0.5-0.3-0.9-0.6c-0.4-0.3-0.8-0.7-1.1-1.2c0,0,0.3,0.2,0.8,0.5
				c0.4,0.3,0.9,0.5,1.2,0.6c0-0.8-0.4-1.7-1-2.4c-0.6-0.7-1.2-0.8-1.7-0.9C22.1,83.3,21.6,83.3,21,82.7z"/>
			<path id="XMLID_372_" d="M20.9,76.8c0,1,0.2,2.1,0.6,2.9c0.4,0.9,0.8,1.6,1.2,2.1c0.3,0.5,0.7,0.7,1.1,0.7c0.3,0,0.6-0.2,0.8-0.6
				c0,0,0-0.1,0-0.1c-0.3-0.2-1.2-0.9-1.7-1.9c0,0,0.3,0.3,0.7,0.6c0.4,0.3,0.9,0.6,1.1,0.7c0-0.4-0.1-0.8-0.2-1.2
				c-0.1-0.4-0.3-0.8-0.5-1.1c-0.5-0.8-1.1-0.9-1.6-1C21.9,77.5,21.4,77.5,20.9,76.8z"/>
			<path id="XMLID_371_" d="M21.5,70.9c-0.1,0.5-0.1,1,0,1.5c0,0.5,0.1,1,0.2,1.5c0.1,0.2,0.1,0.4,0.2,0.7c0.1,0.2,0.2,0.4,0.2,0.6
				c0.2,0.4,0.3,0.7,0.5,0.9c0.6,1,1.4,1,1.8,0.2c0,0,0-0.1,0.1-0.1c-0.3-0.3-1.1-1-1.5-2c0,0,0.1,0.1,0.2,0.2
				c0.1,0.1,0.3,0.3,0.5,0.4c0.4,0.3,0.8,0.7,1.1,0.8c0-0.4,0-0.8-0.1-1.2c-0.1-0.4-0.2-0.8-0.4-1.2c-0.4-0.8-0.9-1-1.4-1.2
				C22.3,71.7,21.8,71.6,21.5,70.9z"/>
			<path id="XMLID_370_" d="M22.7,65.3c-0.3,1-0.3,2-0.2,2.9c0,0.2,0.1,0.4,0.1,0.7c0,0.2,0.1,0.4,0.2,0.6c0.1,0.4,0.2,0.7,0.4,0.9
				c0.5,1,1.3,1.1,1.8,0.4c0,0,0-0.1,0.1-0.1c-0.1-0.1-0.4-0.4-0.6-0.8c-0.2-0.4-0.5-0.8-0.6-1.4c0,0,0.2,0.3,0.5,0.7
				c0.3,0.4,0.7,0.7,0.9,0.9c0.2-0.7,0.2-1.6-0.1-2.4c-0.3-0.8-0.8-1.1-1.2-1.3C23.4,66.2,22.9,66,22.7,65.3z"/>
			<path id="XMLID_369_" d="M24.5,60c-0.2,0.5-0.3,0.9-0.4,1.4c-0.1,0.5-0.1,0.9-0.1,1.4c0,0.4,0,0.9,0.1,1.2
				c0.1,0.4,0.2,0.7,0.2,0.9c0.3,1,1.1,1.3,1.6,0.6c0,0,0.1-0.1,0.1-0.1c-0.1-0.2-0.3-0.4-0.5-0.8c-0.2-0.4-0.3-0.9-0.4-1.4
				c0,0,0.2,0.3,0.4,0.7c0.2,0.4,0.5,0.8,0.8,1c0.3-0.7,0.4-1.6,0.2-2.3c-0.1-0.4-0.3-0.7-0.4-0.9c-0.2-0.2-0.4-0.4-0.6-0.5
				C25.1,61,24.7,60.7,24.5,60z"/>
			<path id="XMLID_368_" d="M26.9,55.2c-0.2,0.4-0.4,0.9-0.5,1.3c-0.1,0.2-0.1,0.4-0.2,0.7c0,0.2-0.1,0.4-0.1,0.7
				c-0.1,0.9-0.1,1.6,0.1,2.1c0.2,1,0.9,1.3,1.5,0.8c0,0,0.1-0.1,0.1-0.1c-0.2-0.3-0.6-1.2-0.6-2.2c0,0,0.1,0.3,0.3,0.7
				c0.2,0.4,0.4,0.8,0.6,1c0.2-0.3,0.3-0.7,0.4-1.1c0.1-0.4,0.1-0.8,0-1.1c-0.1-0.8-0.5-1.2-0.8-1.5C27.4,56.2,27,55.9,26.9,55.2z"
				/>
			<path id="XMLID_367_" d="M29.8,50.8c-0.3,0.4-0.5,0.8-0.7,1.2c-0.2,0.4-0.3,0.8-0.4,1.2c-0.2,0.8-0.2,1.6-0.2,2
				c0,0.5,0.2,0.8,0.5,1c0.3,0.2,0.6,0.1,0.9-0.1c0,0,0.1,0,0.1-0.1c-0.1-0.3-0.4-1.2-0.3-2.2c0,0,0.1,0.3,0.2,0.7
				c0.1,0.4,0.3,0.8,0.5,1c0.2-0.3,0.4-0.6,0.5-1c0.1-0.4,0.2-0.7,0.2-1.1c0-0.8-0.3-1.2-0.7-1.5C30.1,51.8,29.8,51.5,29.8,50.8z"/>
			<path id="XMLID_366_" d="M32.9,46.9c-0.3,0.3-0.5,0.7-0.7,1.1c-0.2,0.4-0.4,0.8-0.5,1.2c-0.3,0.7-0.3,1.5-0.4,1.9
				c0,1,0.5,1.4,1.2,1c0,0,0.1,0,0.1-0.1c0-0.2-0.1-0.5-0.2-0.9c0-0.2,0-0.4,0-0.6c0-0.2,0-0.4,0.1-0.7c0,0,0.1,0.3,0.2,0.7
				c0.1,0.4,0.2,0.8,0.4,1c0.1-0.1,0.2-0.3,0.3-0.4c0.1-0.1,0.2-0.3,0.3-0.5c0.1-0.3,0.2-0.7,0.3-1c0-0.8-0.2-1.2-0.5-1.5
				C33.1,47.9,32.8,47.6,32.9,46.9z"/>
			<path id="XMLID_365_" d="M36.2,43.5c-1.2,1.2-1.8,2.9-1.9,3.9c-0.1,0.9,0.4,1.4,1.1,1.1c0,0,0.1,0,0.1-0.1
				c-0.1-0.3-0.2-1.2,0.1-2.1c0,0,0,0.3,0.1,0.7c0.1,0.4,0.2,0.8,0.3,1c0.5-0.4,0.9-1.1,1-1.8c0.1-0.7-0.1-1.1-0.4-1.5
				C36.3,44.4,36.1,44.1,36.2,43.5z"/>
			<path id="XMLID_364_" d="M39.6,40.4c-1.3,1-1.9,2.7-2.1,3.6c-0.2,0.9,0.3,1.4,1,1.1c0,0,0.1,0,0.1,0c0-0.3-0.1-1.2,0.2-2
				c0,0,0,0.1,0,0.2c0,0.1,0,0.3,0,0.5c0,0.4,0.1,0.8,0.2,1c0.5-0.4,0.9-1,1.1-1.6c0.2-0.7,0-1.1-0.2-1.5
				C39.7,41.3,39.5,41,39.6,40.4z"/>
			<path id="XMLID_363_" d="M43.2,37.7c-0.3,0.2-0.6,0.5-0.9,0.8c-0.3,0.3-0.5,0.6-0.7,0.9C41.2,40,41,40.6,40.9,41
				c-0.2,0.8,0.2,1.3,0.9,1.2c0,0,0.1,0,0.1,0c0-0.3,0-1.1,0.4-1.9c0,0,0,0.3,0,0.7c0,0.4,0,0.8,0.1,1c0.5-0.3,1-0.9,1.1-1.5
				c0.2-0.7,0-1.1-0.1-1.4C43.2,38.6,43,38.3,43.2,37.7z"/>
			<path id="XMLID_362_" d="M46.7,35.4c-1.3,0.8-2.1,2.2-2.4,3c-0.3,0.8,0.1,1.3,0.8,1.2c0,0,0.1,0,0.1,0c0-0.3,0.1-1.1,0.5-1.8
				c0,0,0,0.3-0.1,0.6c0,0.3,0,0.7,0,1c0.5-0.3,1-0.8,1.2-1.4C47.4,36.7,46.3,36.5,46.7,35.4z"/>
			<path id="XMLID_361_" d="M50.4,33.4c-1.4,0.7-2.3,2-2.6,2.7c-0.3,0.7,0,1.3,0.7,1.2c0,0,0.1,0,0.1,0c0-0.3,0.1-1,0.6-1.7
				c0,0-0.1,0.3-0.1,0.6c0,0.3-0.1,0.7,0,0.9c0.5-0.2,1-0.7,1.3-1.2c0.3-0.6,0.2-1,0.1-1.3C50.3,34.2,50.1,33.9,50.4,33.4z"/>
		</g>
		<g id="XMLID_315_">
			<g id="XMLID_358_">
				<path id="XMLID_6_" d="M64.5,122.2c0.6-0.9,1.5-1.8,2.5-2.5c1-0.7,2.2-1.4,3.5-1.8c0.3-0.1,0.7-0.2,1-0.3c0.3-0.1,0.7-0.2,1-0.3
					c0.7-0.2,1.4-0.4,2.1-0.7c2.8-0.9,5.8-2,8.8-3.4c3.1-1.4,6.2-3.1,9-5.4c2.9-2.3,5.4-5.1,7.4-8.4c1-1.6,1.8-3.4,2.5-5.2
					c0.7-1.8,1.2-3.7,1.7-5.6c1.5-7.6,1.7-15.7-0.3-22.8c-0.1-0.2-0.1-0.4-0.2-0.7c-0.1-0.2-0.1-0.4-0.2-0.7
					c-0.1-0.4-0.3-0.9-0.4-1.3c-0.1-0.2-0.1-0.4-0.2-0.6c-0.1-0.2-0.2-0.4-0.2-0.6c-0.2-0.4-0.3-0.8-0.5-1.2
					c-0.2-0.4-0.4-0.8-0.5-1.2c-0.1-0.2-0.2-0.4-0.3-0.6c-0.1-0.2-0.2-0.4-0.3-0.6c-0.2-0.4-0.4-0.8-0.6-1.1
					c-0.2-0.4-0.4-0.7-0.6-1.1c-0.8-1.5-1.8-2.8-2.7-4.1c-0.2-0.3-0.5-0.6-0.7-0.9c-0.2-0.3-0.5-0.6-0.7-0.9c-0.5-0.6-1-1.2-1.5-1.7
					c-2-2.2-3.9-4.1-5.7-5.6c-1.8-1.5-3.5-2.8-4.9-3.7c-1.4-1-2.6-1.7-3.4-2.1c-0.8-0.5-1.2-0.7-1.2-0.7s0.4,0.2,1.3,0.7
					c0.8,0.4,2,1.1,3.4,2.1c1.4,1,3.1,2.2,5,3.7c1.8,1.5,3.8,3.4,5.8,5.6c0.5,0.5,1,1.1,1.5,1.7c0.3,0.3,0.5,0.6,0.7,0.9
					c0.2,0.3,0.5,0.6,0.7,0.9c0.9,1.3,1.9,2.6,2.7,4.1c0.2,0.4,0.4,0.7,0.6,1.1c0.2,0.4,0.4,0.8,0.6,1.1c0.1,0.2,0.2,0.4,0.3,0.6
					c0.1,0.2,0.2,0.4,0.3,0.6c0.2,0.4,0.4,0.8,0.6,1.2c0.2,0.4,0.3,0.8,0.5,1.2c0.1,0.2,0.2,0.4,0.3,0.6c0.1,0.2,0.2,0.4,0.2,0.6
					c0.1,0.4,0.3,0.9,0.4,1.3c0.1,0.2,0.2,0.4,0.2,0.7c0.1,0.2,0.1,0.4,0.2,0.7c1,3.6,1.6,7.4,1.6,11.3c0,3.9-0.3,7.8-1.1,11.7
					c-0.4,1.9-0.9,3.8-1.6,5.7c-0.7,1.8-1.5,3.6-2.5,5.3c-2,3.4-4.6,6.3-7.5,8.6c-2.9,2.3-6.1,4.1-9.1,5.6c-3.1,1.4-6.1,2.6-8.9,3.5
					c-0.7,0.2-1.4,0.5-2.1,0.7c-0.3,0.1-0.7,0.2-1,0.3c-0.3,0.1-0.6,0.2-0.9,0.3c-1.2,0.5-2.3,1-3.3,1.7c-0.9,0.7-1.7,1.5-2.2,2.3"
					/>
			</g>
			<path id="XMLID_357_" d="M73.3,111.4c-1.1,0.4-2.1,1-2.9,1.7c-0.1,0.1-0.2,0.2-0.3,0.3l-0.1,0.1l-0.1,0.1l-0.2,0.1
				c-0.2,0.2-0.5,0.4-0.7,0.6c-0.4,0.4-0.7,0.8-1,1.1c-0.5,0.7-0.6,1.2-0.5,1.6c0.1,0.2,0.2,0.4,0.4,0.5c0.2,0.1,0.4,0.2,0.7,0.2
				c0.1,0,0.1,0,0.2,0c0.1-0.3,0.2-0.7,0.5-1.2c0.2-0.3,0.3-0.5,0.6-0.8c0.2-0.3,0.5-0.6,0.7-0.8c0,0,0,0.1-0.1,0.3
				c0,0.1-0.1,0.2-0.2,0.3c-0.1,0.1-0.1,0.3-0.2,0.4c-0.1,0.3-0.3,0.6-0.3,0.9c-0.1,0.3-0.1,0.6-0.2,0.8c0.1,0,0.2-0.1,0.4-0.1
				c0.1,0,0.2-0.1,0.4-0.1c0.2-0.1,0.5-0.2,0.7-0.4c0.4-0.3,0.8-0.6,1.1-1c0.7-0.9,0.7-1.6,0.6-2.2
				C72.9,112.8,72.8,112.2,73.3,111.4z"/>
			<path id="XMLID_356_" d="M79.2,109.3c-1,0.4-1.9,1.1-2.6,1.8c-0.8,0.7-1.4,1.4-1.8,2c-0.8,1.1-0.6,2.1,0.5,2.2c0.1,0,0.1,0,0.2,0
				c0.2-0.5,0.6-1.7,1.5-2.7c0,0-0.2,0.5-0.4,1c-0.2,0.5-0.4,1.2-0.4,1.6c0.4-0.1,0.9-0.3,1.3-0.6c0.4-0.3,0.8-0.7,1-1.1
				c0.6-0.9,0.5-1.6,0.4-2.2C78.9,110.7,78.8,110.1,79.2,109.3z"/>
			<path id="XMLID_355_" d="M84.6,106.9c-0.4,0.2-0.9,0.5-1.2,0.9c-0.4,0.3-0.7,0.7-1.1,1.1c-0.3,0.4-0.6,0.7-0.9,1.1
				c-0.2,0.4-0.5,0.7-0.6,1c-0.6,1.1-0.4,2.1,0.7,2.1c0.1,0,0.1,0,0.2,0c0.1-0.5,0.5-1.7,1.2-2.7c0,0,0,0.1-0.1,0.3
				c0,0.2-0.1,0.4-0.2,0.7c-0.1,0.5-0.3,1.2-0.2,1.6c0.4-0.1,0.8-0.4,1.2-0.7c0.4-0.3,0.7-0.7,0.9-1.1c0.5-1,0.3-1.6,0.2-2.2
				C84.5,108.2,84.3,107.7,84.6,106.9z"/>
			<path id="XMLID_354_" d="M89.2,103.9c-0.4,0.3-0.7,0.6-1,1c-0.3,0.4-0.6,0.7-0.8,1.1c-0.5,0.8-0.9,1.6-1.1,2.1
				c-0.5,1.1-0.1,2.1,0.9,2c0.1,0,0.1,0,0.2,0c0-0.2,0.1-0.7,0.2-1.2c0.1-0.5,0.3-1.1,0.6-1.6c0,0-0.1,0.4-0.1,1
				c0,0.5-0.1,1.2,0,1.5c0.4-0.2,0.8-0.5,1.1-0.8c0.3-0.4,0.6-0.8,0.7-1.2c0.2-0.5,0.2-0.9,0.1-1.2c-0.1-0.3-0.2-0.6-0.3-0.9
				C89.3,105.2,89.1,104.7,89.2,103.9z"/>
			<path id="XMLID_353_" d="M93,100.4c-0.3,0.3-0.5,0.7-0.8,1.1c-0.2,0.4-0.4,0.8-0.6,1.2c-0.2,0.4-0.3,0.8-0.4,1.2
				c-0.1,0.4-0.2,0.7-0.3,1c-0.2,1.2,0.2,2,1.2,1.8c0,0,0.1,0,0.1,0c0-0.2,0-0.6,0-1.1c0-0.5,0.1-1.1,0.3-1.6c0,0,0,0.4,0.1,1
				c0.1,0.5,0.1,1.1,0.2,1.5c0.3-0.2,0.6-0.6,0.9-1c0.1-0.1,0.1-0.2,0.2-0.3c0-0.1,0.1-0.2,0.1-0.3c0.1-0.2,0.1-0.4,0.2-0.7
				c0.1-1-0.2-1.5-0.6-2C93.4,101.6,93,101.2,93,100.4z"/>
			<path id="XMLID_352_" d="M96,96.3c-0.1,0.2-0.2,0.4-0.3,0.6c-0.1,0.2-0.2,0.4-0.2,0.6c-0.1,0.2-0.1,0.4-0.2,0.6
				c-0.1,0.2-0.1,0.4-0.1,0.6c-0.1,0.4-0.1,0.8-0.2,1.2c0,0.4-0.1,0.7-0.1,1c0,0.6,0.1,1,0.4,1.3c0.3,0.3,0.7,0.4,1.1,0.2
				c0,0,0.1,0,0.1-0.1c-0.1-0.4-0.3-1.6-0.2-2.7c0,0,0.1,0.4,0.3,0.9c0.2,0.5,0.3,1.1,0.5,1.4c0.3-0.3,0.5-0.7,0.7-1.1
				c0.2-0.4,0.2-0.9,0.2-1.3c-0.1-1-0.5-1.4-0.9-1.8c-0.2-0.2-0.4-0.4-0.6-0.6C96.2,97,96.1,96.7,96,96.3z"/>
			<path id="XMLID_351_" d="M98.2,91.8c-0.3,0.8-0.4,1.7-0.4,2.6c0,0.4,0,0.8,0,1.2c0,0.4,0.1,0.7,0.1,1c0.2,1.1,0.9,1.7,1.7,1.1
				c0,0,0.1-0.1,0.1-0.1c-0.2-0.4-0.7-1.5-0.7-2.5c0,0,0.2,0.4,0.4,0.8c0.2,0.4,0.5,1,0.7,1.2c0.2-0.3,0.4-0.8,0.4-1.2
				c0.1-0.4,0-0.9,0-1.3c-0.1-0.5-0.3-0.8-0.5-1c-0.2-0.2-0.5-0.4-0.7-0.6C98.9,92.7,98.4,92.5,98.2,91.8z"/>
			<path id="XMLID_350_" d="M99.6,86.9c0,0.2-0.1,0.4-0.1,0.7c0,0.2,0,0.4,0,0.7c0,0.4,0,0.9,0.1,1.3c0.1,0.8,0.3,1.6,0.5,2.1
				c0.3,1,1.2,1.4,1.8,0.8c0,0,0.1-0.1,0.1-0.1c-0.2-0.4-0.9-1.3-1.1-2.4c0,0,0.2,0.3,0.5,0.7c0.3,0.4,0.6,0.8,0.9,1
				c0.1-0.4,0.2-0.8,0.2-1.2c0-0.4-0.1-0.9-0.2-1.3c-0.4-0.9-0.9-1.1-1.4-1.3C100.5,87.8,100,87.6,99.6,86.9z"/>
			<path id="XMLID_349_" d="M100.4,81.9c-0.1,0.4,0,0.9,0,1.3c0,0.2,0.1,0.4,0.1,0.7c0,0.2,0.1,0.4,0.1,0.6c0.2,0.8,0.5,1.6,0.8,2
				c0.5,1,1.3,1.2,1.9,0.5c0,0,0.1-0.1,0.1-0.1c-0.1-0.2-0.4-0.4-0.6-0.8c-0.3-0.4-0.5-0.8-0.7-1.3c0,0,0.3,0.3,0.6,0.6
				c0.3,0.3,0.7,0.7,1,0.9c0.2-0.8,0.1-1.7-0.3-2.4c-0.5-0.8-1-1-1.5-1.2C101.3,82.6,100.8,82.5,100.4,81.9z"/>
			<path id="XMLID_348_" d="M100.7,76.8c0,0.9,0.2,1.8,0.5,2.6c0.3,0.8,0.6,1.5,0.9,1.9c0.3,0.5,0.6,0.7,1,0.8
				c0.3,0.1,0.7-0.1,0.9-0.5c0,0,0-0.1,0.1-0.1c-0.3-0.3-1.1-1-1.5-2c0,0,0.3,0.3,0.6,0.6c0.4,0.3,0.8,0.6,1.1,0.8
				c0.1-0.4,0-0.8,0-1.2c-0.1-0.4-0.3-0.8-0.5-1.1c-0.5-0.7-1-0.9-1.6-1C101.7,77.5,101.2,77.4,100.7,76.8z"/>
			<path id="XMLID_347_" d="M100.5,72.1c0.1,0.4,0.1,0.8,0.3,1.2c0.1,0.4,0.3,0.8,0.5,1.1c0.1,0.2,0.2,0.3,0.3,0.5
				c0.1,0.2,0.2,0.3,0.3,0.5c0.2,0.3,0.4,0.6,0.5,0.8c0.6,0.8,1.5,0.9,1.9,0.1c0,0,0-0.1,0.1-0.1c-0.3-0.2-1.1-0.9-1.6-1.7
				c0,0,0.3,0.2,0.7,0.5c0.4,0.3,0.8,0.5,1.1,0.6c0-0.4,0-0.8-0.1-1.2c-0.1-0.4-0.3-0.7-0.6-1c-0.6-0.7-1.1-0.7-1.6-0.8
				C101.5,72.6,101,72.5,100.5,72.1z"/>
			<path id="XMLID_346_" d="M99.7,67.5c0.2,0.8,0.6,1.5,1,2.2c0.1,0.2,0.2,0.3,0.3,0.5c0.1,0.1,0.2,0.3,0.3,0.4
				c0.2,0.3,0.4,0.5,0.6,0.7c0.7,0.7,1.5,0.7,1.8-0.1c0,0,0-0.1,0-0.1c-0.2-0.1-0.5-0.3-0.8-0.5c-0.3-0.2-0.7-0.6-1-0.9
				c0,0,0.3,0.2,0.7,0.4c0.4,0.2,0.8,0.4,1.1,0.5c0-0.7-0.4-1.5-1-2c-0.6-0.6-1.1-0.6-1.6-0.5C100.8,67.9,100.3,67.9,99.7,67.5z"/>
			<path id="XMLID_345_" d="M98.4,63.2c0.1,0.4,0.3,0.7,0.6,1.1c0.2,0.3,0.4,0.6,0.7,0.9c0.2,0.3,0.5,0.5,0.8,0.8
				c0.2,0.2,0.5,0.4,0.6,0.6c0.8,0.6,1.5,0.5,1.7-0.3c0,0,0-0.1,0-0.1c-0.2-0.1-0.5-0.2-0.8-0.4c-0.3-0.2-0.8-0.5-1.1-0.8
				c0,0,0.3,0.1,0.7,0.3c0.4,0.1,0.9,0.3,1.2,0.3c-0.1-0.7-0.6-1.4-1.2-1.8c-0.3-0.2-0.6-0.3-0.9-0.4c-0.3,0-0.5,0-0.8,0
				C99.5,63.4,99,63.5,98.4,63.2z"/>
			<path id="XMLID_344_" d="M96.7,59.2c0.2,0.4,0.4,0.7,0.6,1c0.1,0.1,0.3,0.3,0.4,0.4c0.1,0.1,0.3,0.3,0.4,0.4
				c0.5,0.5,1.1,0.9,1.5,1.1c0.8,0.5,1.5,0.3,1.6-0.5c0,0,0-0.1,0-0.1c-0.3-0.1-1.3-0.4-2-0.9c0,0,0.3,0.1,0.7,0.2
				c0.4,0.1,0.9,0.2,1.2,0.2c-0.1-0.3-0.3-0.6-0.5-0.9c-0.2-0.3-0.5-0.5-0.8-0.7c-0.7-0.4-1.2-0.2-1.6-0.1
				C97.7,59.3,97.2,59.4,96.7,59.2z"/>
			<path id="XMLID_343_" d="M94.5,55.4c0.2,0.3,0.5,0.6,0.7,0.9c0.3,0.3,0.6,0.5,0.9,0.7c0.6,0.4,1.1,0.8,1.6,0.9
				c0.4,0.2,0.8,0.2,1.1,0.1c0.3-0.1,0.4-0.4,0.4-0.8c0,0,0-0.1,0-0.1c-0.3,0-1.3-0.2-2-0.7c0,0,0.3,0.1,0.7,0.1
				c0.4,0,0.9,0.1,1.1,0c-0.1-0.3-0.3-0.6-0.6-0.9c-0.3-0.3-0.6-0.5-0.9-0.6c-0.7-0.3-1.2-0.1-1.6,0.1
				C95.5,55.4,95.1,55.6,94.5,55.4z"/>
			<path id="XMLID_342_" d="M92,52c0.2,0.3,0.5,0.6,0.8,0.8c0.3,0.2,0.6,0.4,0.9,0.6c0.6,0.4,1.2,0.6,1.6,0.8
				c0.8,0.3,1.5-0.1,1.4-0.8c0,0,0-0.1,0-0.1c-0.2,0-0.5,0-0.8-0.1c-0.2,0-0.4-0.1-0.6-0.1c-0.2-0.1-0.4-0.1-0.6-0.2
				c0,0,0.3,0,0.7,0c0.4,0,0.8,0,1.1-0.1c-0.1-0.1-0.2-0.3-0.3-0.4c-0.1-0.1-0.2-0.2-0.4-0.4c-0.3-0.2-0.6-0.4-0.9-0.5
				c-0.7-0.2-1.1,0-1.5,0.2C93,51.9,92.6,52.1,92,52z"/>
			<path id="XMLID_341_" d="M89.4,48.9c1,1.1,2.5,1.6,3.4,1.8c0.8,0.2,1.4-0.2,1.2-0.9c0,0,0-0.1,0-0.1c-0.3,0-1.2,0-2-0.3
				c0,0,0.3,0,0.7,0c0.4,0,0.8-0.1,1-0.2c-0.4-0.5-1-1-1.6-1.1c-0.7-0.1-1.1,0.1-1.5,0.3C90.3,48.7,89.9,49,89.4,48.9z"/>
			<path id="XMLID_340_" d="M86.5,46.1c1.1,1,2.6,1.4,3.4,1.5c0.8,0.1,1.3-0.3,1.1-1c0,0,0-0.1,0-0.1c-0.3,0-1.1,0.1-1.9-0.1
				c0,0,0.1,0,0.2,0c0.1,0,0.3,0,0.5-0.1c0.4-0.1,0.8-0.1,1-0.3c-0.4-0.5-1-0.8-1.7-0.9c-0.7-0.1-1.1,0.2-1.4,0.4
				C87.4,45.8,87.1,46.1,86.5,46.1z"/>
			<path id="XMLID_339_" d="M83.5,43.5c0.3,0.2,0.6,0.4,0.9,0.6c0.3,0.2,0.6,0.3,0.9,0.4c0.6,0.2,1.2,0.3,1.6,0.3
				c0.8,0.1,1.3-0.4,1-1.1c0,0,0-0.1,0-0.1c-0.3,0.1-1.1,0.2-1.9,0.1c0,0,0.3-0.1,0.6-0.1c0.3-0.1,0.7-0.2,0.9-0.3
				c-0.4-0.4-1.1-0.7-1.7-0.8c-0.7,0-1,0.2-1.3,0.5C84.3,43.2,84.1,43.5,83.5,43.5z"/>
			<path id="XMLID_338_" d="M80.5,41.3c1.1,0.8,2.6,1,3.4,1c0.8,0,1.2-0.5,0.9-1.1c0,0,0-0.1-0.1-0.1c-0.3,0.1-1,0.3-1.8,0.2
				c0,0,0.3-0.1,0.6-0.2c0.3-0.1,0.7-0.2,0.9-0.4c-0.4-0.4-1.1-0.6-1.7-0.6C81.4,40.1,81.5,41.2,80.5,41.3z"/>
			<path id="XMLID_337_" d="M77.5,39.4c1.1,0.6,2.5,0.7,3.2,0.7c0.7-0.1,1.1-0.5,0.8-1.1c0,0,0-0.1-0.1-0.1c-0.3,0.1-1,0.3-1.7,0.3
				c0,0,0.3-0.1,0.6-0.2c0.3-0.1,0.6-0.3,0.8-0.4C80.7,38.2,80,38,79.5,38c-0.6,0.1-0.9,0.4-1.1,0.7C78.2,39,78,39.3,77.5,39.4z"/>
			<path id="XMLID_336_" d="M77,122.3c-1.2,0.4-2.4,0.5-3.6,0.4c-0.1,0-0.3,0-0.4,0l-0.1,0l-0.1,0l-0.1,0c-0.2,0-0.4-0.1-0.6-0.2
				c-0.4-0.1-0.7-0.2-1-0.3c-0.5-0.2-1-0.5-1.2-0.8c-0.1-0.2-0.2-0.4-0.2-0.6c0-0.2,0.1-0.4,0.2-0.6c0,0,0.1-0.1,0.1-0.1
				c0.2,0.1,0.6,0.3,1.1,0.6c0.2,0.1,0.5,0.2,0.8,0.3c0.3,0.1,0.5,0.2,0.9,0.3c0,0-0.1-0.1-0.3-0.2c-0.1-0.1-0.2-0.1-0.3-0.2
				c-0.1-0.1-0.2-0.2-0.3-0.2c-0.2-0.2-0.5-0.4-0.7-0.5c-0.2-0.2-0.4-0.3-0.5-0.5c0.1,0,0.2-0.1,0.3-0.1c0.1,0,0.2-0.1,0.3-0.1
				c0.2-0.1,0.5-0.1,0.7-0.1c0.5,0,1.1,0,1.5,0.2c1.1,0.3,1.5,0.9,1.8,1.4C75.8,121.4,76.1,122,77,122.3z"/>
			<path id="XMLID_335_" d="M83.6,119.7c-1.1,0.5-2.4,0.7-3.5,0.7c-1.1,0-2.1-0.2-2.8-0.3c-1.3-0.4-1.8-1.3-1-2.1
				c0,0,0.1-0.1,0.1-0.1c0.4,0.3,1.6,0.9,3,1.1c0,0-0.5-0.2-1-0.5c-0.5-0.3-1.1-0.7-1.3-0.9c0.4-0.2,0.9-0.3,1.4-0.4
				c0.5-0.1,1,0,1.5,0.1c1.1,0.3,1.5,0.8,1.9,1.3C82.3,118.9,82.6,119.5,83.6,119.7z"/>
			<path id="XMLID_334_" d="M90,116.4c-0.5,0.3-1.1,0.5-1.7,0.7c-0.6,0.2-1.2,0.3-1.7,0.4c-0.6,0.1-1.1,0.1-1.6,0.1
				c-0.5,0-0.9-0.1-1.2-0.1c-1.4-0.2-1.8-1.1-1.1-2c0,0,0.1-0.1,0.1-0.1c0.4,0.2,1.6,0.8,3,0.8c0,0-0.1,0-0.3-0.1
				c-0.2-0.1-0.4-0.2-0.7-0.3c-0.5-0.2-1.1-0.6-1.4-0.8c0.4-0.2,0.9-0.4,1.4-0.5c0.5-0.1,1-0.1,1.5-0.1c1.1,0.1,1.6,0.6,2,1.1
				C88.6,115.9,89,116.4,90,116.4z"/>
			<path id="XMLID_333_" d="M95.9,112.3c-0.5,0.4-1,0.7-1.6,1c-0.6,0.3-1.1,0.5-1.7,0.6c-1.1,0.3-2.1,0.4-2.8,0.3
				c-1.4-0.1-1.9-0.9-1.3-1.8c0,0,0.1-0.1,0.1-0.1c0.2,0.1,0.7,0.2,1.2,0.3c0.5,0.1,1.2,0.1,1.8,0c0,0-0.5-0.1-1-0.3
				c-0.5-0.2-1.2-0.4-1.4-0.6c0.4-0.3,0.8-0.5,1.3-0.7c0.5-0.2,1-0.3,1.5-0.3c0.6,0,1,0.1,1.3,0.2c0.3,0.1,0.6,0.3,0.8,0.5
				C94.5,112,94.9,112.4,95.9,112.3z"/>
			<path id="XMLID_332_" d="M101,107.2c-0.4,0.5-0.9,0.9-1.4,1.3c-0.5,0.4-1,0.7-1.5,0.9c-0.5,0.2-1,0.4-1.5,0.6
				c-0.4,0.1-0.9,0.2-1.2,0.3c-1.3,0.2-2-0.5-1.6-1.5c0,0,0-0.1,0.1-0.1c0.2,0,0.7,0.1,1.2,0.1c0.5,0,1.2-0.1,1.8-0.3
				c0,0-0.5,0-1-0.1c-0.6-0.1-1.2-0.2-1.5-0.3c0.3-0.3,0.7-0.6,1.1-0.9c0.1-0.1,0.2-0.1,0.3-0.2c0.1-0.1,0.2-0.1,0.3-0.2
				c0.2-0.1,0.5-0.2,0.7-0.2c1.1-0.2,1.6,0,2.2,0.3C99.6,107.2,100.1,107.5,101,107.2z"/>
			<path id="XMLID_331_" d="M105,101.4c-0.1,0.3-0.3,0.5-0.5,0.8c-0.2,0.2-0.4,0.5-0.6,0.7c-0.2,0.2-0.4,0.4-0.6,0.6
				c-0.2,0.2-0.4,0.4-0.7,0.5c-0.5,0.3-0.9,0.6-1.3,0.8c-0.4,0.2-0.8,0.4-1.1,0.5c-0.6,0.2-1.1,0.2-1.4,0c-0.3-0.2-0.4-0.6-0.3-1.1
				c0-0.1,0-0.1,0-0.2c0.4,0,1.7-0.1,2.8-0.7c0,0-0.5,0.1-1,0.1c-0.5,0.1-1.2,0-1.5,0c0.3-0.4,0.6-0.7,0.9-1
				c0.4-0.3,0.8-0.6,1.2-0.8c1-0.4,1.6-0.3,2.1-0.1c0.3,0.1,0.6,0.2,0.9,0.2C104.2,101.6,104.6,101.6,105,101.4z"/>
			<path id="XMLID_330_" d="M107.6,95.1c-0.4,1.1-1.1,2.1-1.8,2.9c-0.4,0.4-0.8,0.7-1.1,1c-0.4,0.3-0.7,0.5-1,0.7
				c-1.1,0.6-2,0.2-1.9-0.8c0-0.1,0-0.1,0-0.2c0.5-0.1,1.6-0.4,2.6-1.2c0,0-0.4,0.2-0.9,0.3c-0.5,0.1-1.1,0.3-1.4,0.2
				c0.2-0.4,0.4-0.8,0.7-1.2c0.3-0.4,0.6-0.7,1-1c0.4-0.3,0.8-0.4,1.1-0.5c0.3-0.1,0.6,0,0.9,0C106.4,95.5,106.9,95.6,107.6,95.1z"
				/>
			<path id="XMLID_329_" d="M109.2,88.8c0,0.3-0.1,0.5-0.2,0.8c-0.1,0.3-0.2,0.5-0.3,0.8c-0.2,0.5-0.5,1-0.8,1.4
				c-0.6,0.9-1.2,1.5-1.7,1.9c-1,0.8-1.9,0.5-2-0.4c0,0,0-0.1,0-0.1c0.4-0.2,1.5-0.6,2.3-1.6c0,0-0.4,0.2-0.9,0.4
				c-0.5,0.2-1,0.4-1.3,0.4c0.1-0.4,0.3-0.8,0.5-1.2c0.2-0.4,0.5-0.8,0.8-1.1c0.7-0.7,1.3-0.7,1.9-0.7
				C108.1,89.4,108.6,89.4,109.2,88.8z"/>
			<path id="XMLID_328_" d="M109.9,82.7c0,0.5-0.2,1.1-0.3,1.6c-0.1,0.3-0.2,0.5-0.3,0.7c-0.1,0.2-0.2,0.5-0.3,0.7
				c-0.5,0.9-1,1.6-1.4,2c-0.8,0.9-1.7,0.8-2-0.2c0,0,0-0.1,0-0.1c0.2-0.1,0.5-0.3,0.9-0.6c0.4-0.3,0.8-0.7,1.1-1.2
				c0,0-0.3,0.2-0.8,0.5c-0.4,0.3-0.9,0.5-1.2,0.6c0-0.8,0.4-1.7,1-2.4c0.6-0.7,1.2-0.8,1.7-0.9C108.9,83.3,109.4,83.3,109.9,82.7z"
				/>
			<path id="XMLID_327_" d="M110.1,76.8c0,1-0.2,2.1-0.6,2.9c-0.4,0.9-0.8,1.6-1.2,2.1c-0.3,0.5-0.7,0.7-1.1,0.7
				c-0.3,0-0.6-0.2-0.8-0.6c0,0,0-0.1,0-0.1c0.3-0.2,1.2-0.9,1.7-1.9c0,0-0.3,0.3-0.7,0.6c-0.4,0.3-0.9,0.6-1.1,0.7
				c0-0.4,0.1-0.8,0.2-1.2c0.1-0.4,0.3-0.8,0.5-1.1c0.5-0.8,1.1-0.9,1.6-1C109.1,77.5,109.6,77.5,110.1,76.8z"/>
			<path id="XMLID_326_" d="M109.5,70.9c0.1,0.5,0.1,1,0,1.5c0,0.5-0.1,1-0.2,1.5c-0.1,0.2-0.1,0.4-0.2,0.7
				c-0.1,0.2-0.2,0.4-0.2,0.6c-0.2,0.4-0.3,0.7-0.5,0.9c-0.6,1-1.4,1-1.8,0.2c0,0,0-0.1-0.1-0.1c0.3-0.3,1.1-1,1.5-2
				c0,0-0.1,0.1-0.2,0.2c-0.1,0.1-0.3,0.3-0.5,0.4c-0.4,0.3-0.8,0.7-1.1,0.8c0-0.4,0-0.8,0.1-1.2c0.1-0.4,0.2-0.8,0.4-1.2
				c0.4-0.8,0.9-1,1.4-1.2C108.7,71.7,109.2,71.6,109.5,70.9z"/>
			<path id="XMLID_325_" d="M108.3,65.3c0.3,1,0.3,2,0.2,2.9c0,0.2-0.1,0.4-0.1,0.7c0,0.2-0.1,0.4-0.2,0.6c-0.1,0.4-0.2,0.7-0.4,0.9
				c-0.5,1-1.3,1.1-1.8,0.4c0,0,0-0.1-0.1-0.1c0.1-0.1,0.4-0.4,0.6-0.8c0.2-0.4,0.5-0.8,0.6-1.4c0,0-0.2,0.3-0.5,0.7
				c-0.3,0.4-0.7,0.7-0.9,0.9c-0.2-0.7-0.2-1.6,0.1-2.4c0.3-0.8,0.8-1.1,1.2-1.3C107.6,66.2,108.1,66,108.3,65.3z"/>
			<path id="XMLID_324_" d="M106.4,60c0.2,0.5,0.3,0.9,0.4,1.4c0.1,0.5,0.1,0.9,0.1,1.4c0,0.4,0,0.9-0.1,1.2
				c-0.1,0.4-0.2,0.7-0.2,0.9c-0.3,1-1.1,1.3-1.6,0.6c0,0-0.1-0.1-0.1-0.1c0.1-0.2,0.3-0.4,0.5-0.8c0.2-0.4,0.3-0.9,0.4-1.4
				c0,0-0.2,0.3-0.4,0.7c-0.2,0.4-0.5,0.8-0.8,1c-0.3-0.7-0.4-1.6-0.2-2.3c0.1-0.4,0.3-0.7,0.4-0.9c0.2-0.2,0.4-0.4,0.6-0.5
				C105.9,61,106.3,60.7,106.4,60z"/>
			<path id="XMLID_323_" d="M104.1,55.2c0.2,0.4,0.4,0.9,0.5,1.3c0.1,0.2,0.1,0.4,0.2,0.7c0,0.2,0.1,0.4,0.1,0.7
				c0.1,0.9,0.1,1.6-0.1,2.1c-0.2,1-0.9,1.3-1.5,0.8c0,0-0.1-0.1-0.1-0.1c0.2-0.3,0.6-1.2,0.6-2.2c0,0-0.1,0.3-0.3,0.7
				c-0.2,0.4-0.4,0.8-0.6,1c-0.2-0.3-0.3-0.7-0.4-1.1c-0.1-0.4-0.1-0.8,0-1.1c0.1-0.8,0.5-1.2,0.8-1.5
				C103.6,56.2,104,55.9,104.1,55.2z"/>
			<path id="XMLID_322_" d="M101.2,50.8c0.3,0.4,0.5,0.8,0.7,1.2c0.2,0.4,0.3,0.8,0.4,1.2c0.2,0.8,0.2,1.6,0.2,2
				c0,0.5-0.2,0.8-0.5,1c-0.3,0.2-0.6,0.1-0.9-0.1c0,0-0.1,0-0.1-0.1c0.1-0.3,0.4-1.2,0.3-2.2c0,0-0.1,0.3-0.2,0.7
				c-0.1,0.4-0.3,0.8-0.5,1c-0.2-0.3-0.4-0.6-0.5-1c-0.1-0.4-0.2-0.7-0.2-1.1c0-0.8,0.3-1.2,0.7-1.5
				C100.9,51.8,101.2,51.5,101.2,50.8z"/>
			<path id="XMLID_321_" d="M98.1,46.9c0.3,0.3,0.5,0.7,0.7,1.1c0.2,0.4,0.4,0.8,0.5,1.2c0.3,0.7,0.3,1.5,0.4,1.9c0,1-0.5,1.4-1.2,1
				c0,0-0.1,0-0.1-0.1c0-0.2,0.1-0.5,0.2-0.9c0-0.2,0-0.4,0-0.6c0-0.2,0-0.4-0.1-0.7c0,0-0.1,0.3-0.2,0.7c-0.1,0.4-0.2,0.8-0.4,1
				c-0.1-0.1-0.2-0.3-0.3-0.4c-0.1-0.1-0.2-0.3-0.3-0.5c-0.1-0.3-0.2-0.7-0.3-1c0-0.8,0.2-1.2,0.5-1.5
				C97.9,47.9,98.2,47.6,98.1,46.9z"/>
			<path id="XMLID_320_" d="M94.8,43.5c1.2,1.2,1.8,2.9,1.9,3.9c0.1,0.9-0.4,1.4-1.1,1.1c0,0-0.1,0-0.1-0.1c0.1-0.3,0.2-1.2-0.1-2.1
				c0,0,0,0.3-0.1,0.7c-0.1,0.4-0.2,0.8-0.3,1c-0.5-0.4-0.9-1.1-1-1.8c-0.1-0.7,0.1-1.1,0.4-1.5C94.7,44.4,94.9,44.1,94.8,43.5z"/>
			<path id="XMLID_319_" d="M91.4,40.4c1.3,1,1.9,2.7,2.1,3.6c0.2,0.9-0.3,1.4-1,1.1c0,0-0.1,0-0.1,0c0-0.3,0.1-1.2-0.2-2
				c0,0,0,0.1,0,0.2c0,0.1,0,0.3,0,0.5c0,0.4-0.1,0.8-0.2,1c-0.5-0.4-0.9-1-1.1-1.6c-0.2-0.7,0-1.1,0.2-1.5
				C91.3,41.3,91.5,41,91.4,40.4z"/>
			<path id="XMLID_318_" d="M87.8,37.7c0.3,0.2,0.6,0.5,0.9,0.8c0.3,0.3,0.5,0.6,0.7,0.9c0.4,0.6,0.6,1.2,0.7,1.6
				c0.2,0.8-0.2,1.3-0.9,1.2c0,0-0.1,0-0.1,0c0-0.3,0-1.1-0.4-1.9c0,0,0,0.3,0,0.7c0,0.4,0,0.8-0.1,1c-0.5-0.3-1-0.9-1.1-1.5
				c-0.2-0.7,0-1.1,0.1-1.4C87.8,38.6,88,38.3,87.8,37.7z"/>
			<path id="XMLID_317_" d="M84.3,35.4c1.3,0.8,2.1,2.2,2.4,3c0.3,0.8-0.1,1.3-0.8,1.2c0,0-0.1,0-0.1,0c0-0.3-0.1-1.1-0.5-1.8
				c0,0,0,0.3,0.1,0.6c0,0.3,0,0.7,0,1c-0.5-0.3-1-0.8-1.2-1.4C83.6,36.7,84.7,36.5,84.3,35.4z"/>
			<path id="XMLID_316_" d="M80.6,33.4c1.4,0.7,2.3,2,2.6,2.7c0.3,0.7,0,1.3-0.7,1.2c0,0-0.1,0-0.1,0c0-0.3-0.1-1-0.6-1.7
				c0,0,0.1,0.3,0.1,0.6c0,0.3,0.1,0.7,0,0.9c-0.5-0.2-1-0.7-1.3-1.2c-0.3-0.6-0.2-1-0.1-1.3C80.7,34.2,80.9,33.9,80.6,33.4z"/>
		</g>
		<g id="XMLID_5_">
			<path id="XMLID_20_" d="M66.7,34.6c-0.4-0.5,0.1-1,0-1.4c-0.1-0.3-0.3-0.6-0.5-0.7c0.2,0.3,0.1,0.7-0.2,1c0.2-0.3,0.2-0.5,0-0.7
				c-0.2-0.4-0.9-0.7-1-1.1c-0.1-0.3,0-0.6,0.4-0.9c-0.5,0.2-0.9,0.7-0.9,1.1c0,0.6,0.6,1.2,0.4,1.8c-0.1,0.3-1,1.3-1.4,1.8
				c-0.4,0.6-0.4,1.1-0.2,1.7c0.2,0.6,0.8,0.9,1.5,1.2c-0.4-0.3-0.7-0.8-0.7-1.3c0.1-1,0.9-1.4,1.1-2.1c0.1-0.3,0.2-0.8-0.1-1.1
				c0.6,0.3,1.2,1.1,1,1.9c-0.1,0.2-0.2,0.4-0.4,0.6h0c0.3-0.2,0.6-0.5,0.5-1c0.2,0.1,0.4,0.4,0.3,0.7c0,0.3-0.2,0.5-0.4,0.8
				c-0.1,0.2,0,0.5,0.3,0.4c0.3-0.1,0.3-0.5,0.1-0.7c0.6,0.3,0.6,1.1,0.1,1.6c-0.1,0.2-0.4,0.3-0.6,0.4c0.7-0.2,1.6-0.6,1.8-1.6
				C68,35.9,67.2,35.2,66.7,34.6z"/>
		</g>
		<g id="XMLID_2_">
			<g id="XMLID_4_">
				<path id="XMLID_7_" d="M42.1,85.2c-0.2-0.7-0.3-1.3-0.3-1.7c0-1.8,0.7-4,2.2-6.5c1.5-2.6,3.2-4.7,5.3-6.5c2-1.7,4.1-3.1,6.3-4
					c2.2-0.9,3.7-1.5,4.6-1.7c0.8-0.2,1.7-0.3,2.6-0.3c0.4,0,0.7,0,0.9,0c1.8,0,3.2,0.5,4.3,1.5c1.1,1,1.6,2.3,1.6,3.9
					c0,0.3-0.1,0.9-0.3,1.9c-0.2,1-0.6,2.2-1.2,3.5c-0.6,1.4-1.7,3.2-3.3,5.5L64,81.9l-3.5,4.9L59.1,89c-0.9,1.5-1.4,2.5-1.7,3.3
					C57.1,93,57,93.7,57,94.5c0,0.7,0.2,1.3,0.7,1.8c0.5,0.5,1.1,0.7,1.8,0.7c0.3,0,0.9-0.1,2-0.3c1-0.2,2.8-1.3,5.2-3.4
					c2.4-2,4.8-4.6,7.1-7.9c2.3-3.3,3.9-6.1,4.9-8.6c1-2.4,1.5-4.4,1.5-5.9c0-1.9-0.8-2.9-2.3-2.9c-0.3,0-0.5,0-0.6,0.1L77,68.2
					c-0.1,0-0.3,0-0.3-0.1c-0.1-0.1-0.1-0.4,0.1-0.9c0.1-0.5,0.3-0.9,0.5-1.2c0.3-0.3,0.5-0.6,0.8-0.8c0.2-0.2,0.5-0.3,0.9-0.4
					c0.4-0.1,0.8-0.2,1.2-0.2c0.9,0,1.7,0.3,2.2,0.9c0.6,0.6,0.9,1.4,0.9,2.4c0,0.9-0.1,1.8-0.3,2.7c-0.2,0.9-0.9,2.6-2,5.1
					c-1.1,2.5-2.7,5.2-5,8.3c-2.2,3-4.1,5.3-5.5,6.8c-1.5,1.6-3.2,3.1-5.1,4.7c-1.9,1.6-3.4,2.6-4.5,3c-1.1,0.5-2,0.8-2.9,1.1
					c-0.8,0.3-1.7,0.4-2.5,0.4c-0.2,0-0.5,0-0.8-0.1c-0.3,0-0.7-0.1-1.2-0.2c-0.5-0.1-1.1-0.5-1.7-1.3c-0.6-0.8-0.9-1.7-0.9-2.7
					c0-0.2,0.1-0.7,0.2-1.3c0.1-0.6,0.3-1.3,0.6-2.1c0.3-0.8,0.7-1.7,1.2-2.7L60.4,78l1.8-2.9c0.8-1.4,1.4-2.4,1.8-3.1
					c0.3-0.7,0.6-1.3,0.8-2c0.2-0.7,0.3-1.3,0.3-1.8c0-1.9-0.9-2.8-2.7-2.8c-2,0-4.1,0.6-6.2,1.7c-2.1,1.1-4.1,2.7-5.9,4.7
					c-1.8,2-3,3.9-3.8,5.7c-0.8,1.7-1.2,3.1-1.2,4.1c0,2.6,1.2,3.9,3.6,3.9c0.4,0,0.7,0,1-0.1c0.3-0.1,0.6-0.2,1-0.3
					c0.3-0.1,0.7-0.3,1.1-0.4l1.8-1.4l0.8-0.8c0,0,0.1-0.1,0.1-0.1l0.1,0.1c0,0.4-0.2,0.6-0.3,0.8L53.3,85c-0.4,0.4-0.7,0.7-0.9,0.9
					c-0.2,0.2-0.9,0.7-2,1.6c-1.1,0.8-2.4,1.3-3.9,1.3C44.3,88.7,42.8,87.5,42.1,85.2z"/>
			</g>
			<g id="XMLID_29_">
				<path id="XMLID_21_" d="M84.2,54.5c-1-1.4,0.2-2.7-0.1-3.9c-0.2-0.8-0.7-1.5-1.5-1.8c0.5,0.8,0.4,2-0.5,2.6c0.6-0.7,0.4-1.4,0-2
					c-0.6-1.1-2.4-1.8-2.8-3c-0.3-0.9,0.1-1.7,1.2-2.4C79,44.6,78,45.9,78,47.1c0,1.6,1.5,3.1,1,4.8c-0.3,0.9-2.7,3.4-3.7,5
					c-1,1.6-1.2,3.1-0.5,4.6c0.7,1.5,2.2,2.5,4.1,3.2c-1.1-0.8-1.9-2.1-1.9-3.4c0.1-2.6,2.3-3.8,3.1-5.8c0.3-0.9,0.6-2.1-0.2-2.9
					c1.7,0.7,3.1,3.1,2.6,5c-0.2,0.6-0.5,1.2-1,1.5h0.1c0.7-0.5,1.6-1.4,1.3-2.6c0.5,0.4,1,1.1,0.9,1.8c0,0.8-0.6,1.4-1,2.1
					c-0.3,0.6,0.1,1.3,0.7,1.1c0.8-0.2,0.9-1.4,0.2-2c1.6,0.9,1.5,3,0.4,4.3c-0.4,0.4-1,0.9-1.6,1.2c1.8-0.5,4.3-1.7,4.8-4.4
					C87.7,57.9,85.4,56.3,84.2,54.5z"/>
			</g>
		</g>
		<g id="XMLID_306_">
			<path id="XMLID_313_" d="M64.9,120.4c-0.3-0.2-0.5-0.5-0.8-0.7c-1-0.7-2.2-1.4-3.5-1.8c-0.3-0.1-0.7-0.2-1-0.3
				c-0.3-0.1-0.7-0.2-1-0.3c-0.7-0.2-1.4-0.4-2.1-0.7c-2.8-0.9-5.8-2-8.8-3.4c-3.1-1.4-6.2-3.1-9-5.4c-2.9-2.3-5.4-5.1-7.4-8.4
				c-1-1.6-1.8-3.4-2.5-5.2c-0.7-1.8-1.2-3.7-1.7-5.6c-1.5-7.6-1.7-15.7,0.3-22.8c0.1-0.2,0.1-0.4,0.2-0.7c0.1-0.2,0.1-0.4,0.2-0.7
				c0.1-0.4,0.3-0.9,0.4-1.3c0.1-0.2,0.1-0.4,0.2-0.6c0.1-0.2,0.2-0.4,0.2-0.6c0.2-0.4,0.3-0.8,0.5-1.2c0.2-0.4,0.4-0.8,0.5-1.2
				c0.1-0.2,0.2-0.4,0.3-0.6c0.1-0.2,0.2-0.4,0.3-0.6c0.2-0.4,0.4-0.8,0.6-1.1c0.2-0.4,0.4-0.7,0.6-1.1c0.8-1.5,1.8-2.8,2.7-4.1
				c0.2-0.3,0.5-0.6,0.7-0.9c0.2-0.3,0.5-0.6,0.7-0.9c0.5-0.6,1-1.2,1.5-1.7c2-2.2,3.9-4.1,5.7-5.6c1.8-1.5,3.5-2.8,4.9-3.7
				c1.4-1,2.6-1.7,3.4-2.1c0.8-0.5,1.2-0.7,1.2-0.7s-0.4,0.2-1.3,0.7c-0.8,0.4-2,1.1-3.4,2.1c-1.4,1-3.1,2.2-5,3.7
				c-1.8,1.5-3.8,3.4-5.8,5.6c-0.5,0.5-1,1.1-1.5,1.7c-0.3,0.3-0.5,0.6-0.7,0.9c-0.2,0.3-0.5,0.6-0.7,0.9c-0.9,1.3-1.9,2.6-2.7,4.1
				c-0.2,0.4-0.4,0.7-0.6,1.1c-0.2,0.4-0.4,0.8-0.6,1.1c-0.1,0.2-0.2,0.4-0.3,0.6c-0.1,0.2-0.2,0.4-0.3,0.6
				c-0.2,0.4-0.4,0.8-0.6,1.2c-0.2,0.4-0.3,0.8-0.5,1.2c-0.1,0.2-0.2,0.4-0.3,0.6c-0.1,0.2-0.2,0.4-0.2,0.6
				c-0.1,0.4-0.3,0.9-0.4,1.3c-0.1,0.2-0.2,0.4-0.2,0.7c-0.1,0.2-0.1,0.4-0.2,0.7c-1,3.6-1.6,7.4-1.6,11.3c0,3.9,0.3,7.8,1.1,11.7
				c0.4,1.9,0.9,3.8,1.6,5.7c0.7,1.8,1.5,3.6,2.5,5.3c2,3.4,4.6,6.3,7.5,8.6c2.9,2.3,6.1,4.1,9.1,5.6c3.1,1.4,6.1,2.6,8.9,3.5
				c0.7,0.2,1.4,0.5,2.1,0.7c0.3,0.1,0.7,0.2,1,0.3c0.3,0.1,0.6,0.2,0.9,0.3c1.2,0.5,2.3,1,3.3,1.7c0.3,0.2,0.5,0.4,0.7,0.6
				C64.4,120.8,64.7,120.6,64.9,120.4z"/>
		</g>
	</g>
	<g id="XMLID_1_">
		<g id="XMLID_265_">
			<path id="XMLID_429_" d="M121.5,100.9l0,0.3c0,0.4,0.2,0.6,0.7,0.6c0.4,0,0.7-0.1,1.1-0.4c0.4-0.3,0.6-0.5,0.6-0.8
				c0-0.3-0.2-0.5-0.5-0.7c-0.2-0.1-0.5-0.2-1-0.2c-0.6,0-1.4,0.2-2.2,0.5c-0.8,0.3-1.5,0.8-2.2,1.5c-0.9,0.9-1.4,1.7-1.4,2.5
				c0,0.4,0.2,0.8,0.5,1.1c0.3,0.3,0.8,0.4,1.3,0.4c0.8,0,1.6-0.3,2.6-0.9c0.8-0.5,1.5-1,1.9-1.5l0.3-0.4c-0.1,0-0.6,0-1.4,0.1
				c-0.8,0.1-1.3,0.1-1.4,0.1c-0.1,0-0.2,0-0.3,0c-0.2,0-0.3-0.1-0.3-0.2c0-0.2,0.2-0.3,0.7-0.4c0.5-0.1,1.3-0.2,2.5-0.2
				c1.2,0,1.9,0,2.3,0.1c0.1,0,0.1,0,0.1,0c0,0.1-0.2,0.1-0.7,0.2c-0.6,0-0.8,0.1-0.8,0.1c-0.7,0.9-1.5,2.2-2.5,4
				c-0.1,0.1-0.1,0.2-0.2,0.2c-0.1,0-0.1,0-0.1-0.1c0-0.2,0.2-0.7,0.5-1.3l0.7-1.3c-0.4,0.4-0.9,0.7-1.6,1c-0.8,0.4-1.6,0.6-2.3,0.6
				c-0.7,0-1.3-0.2-1.7-0.5c-0.4-0.3-0.6-0.7-0.6-1.3c0-1,0.6-2,1.8-3c0.6-0.5,1.3-0.9,2.2-1.3c0.8-0.3,1.6-0.5,2.2-0.5
				c0.6,0,1.1,0.1,1.5,0.4c0.3,0.2,0.4,0.4,0.4,0.7c0,0.4-0.2,0.7-0.7,1.1c-0.5,0.3-0.9,0.5-1.3,0.5c-0.6,0-0.9-0.3-0.9-1
				c0-0.3,0.1-0.4,0.2-0.4C121.5,100.7,121.5,100.8,121.5,100.9z"/>
			<path id="XMLID_427_" d="M126.9,105.7c0,0-0.1,0-0.2,0c-0.1,0-0.2,0-0.3-0.1c-0.1-0.1-0.2-0.2-0.2-0.3c0-0.1,0-0.3,0.1-0.4
				c0-0.2,0.1-0.3,0.1-0.4c-0.7,0.9-1.3,1.3-1.7,1.3c-0.3,0-0.4-0.2-0.4-0.5c0,0,0,0,0-0.1c0-0.3,0.2-0.6,0.5-1.1
				c-0.2,0.2-0.4,0.4-0.6,0.6c0,0-0.1,0-0.1,0c0,0,0,0,0,0s0-0.1,0.1-0.2l1.3-1.6c0.2-0.2,0.3-0.3,0.5-0.3c0.2,0,0.3,0.1,0.3,0.2
				c0,0,0,0.1-0.1,0.1c-0.3,0.2-0.6,0.6-1,1.2c-0.4,0.6-0.6,1-0.6,1.2c0,0.1,0,0.2,0.1,0.2c0.3,0,0.7-0.3,1.2-0.8
				c0.2-0.2,0.5-0.6,1-1.2c0.5-0.6,0.8-0.9,1-0.9c0.2,0,0.3,0.1,0.3,0.3c0,0.1-0.1,0.3-0.4,0.6c-0.4,0.4-0.6,0.8-0.8,1.1
				c-0.2,0.3-0.3,0.5-0.3,0.7c0,0.2,0,0.3,0.1,0.3c0,0,0.1,0,0.2,0c0.4-0.2,1-0.6,1.6-1.3c0,0,0.1-0.1,0.1-0.1c0,0,0.1,0,0.1,0.1
				c0,0,0,0.1-0.1,0.1c-0.3,0.3-0.6,0.6-1,1C127.4,105.5,127.1,105.6,126.9,105.7z"/>
			<path id="XMLID_424_" d="M128.7,105.7c-0.3,0-0.5-0.2-0.5-0.6c0-0.3,0.2-0.8,0.6-1.4c0.4-0.6,0.7-0.9,0.9-0.9
				c0.1,0,0.1,0,0.2,0.1c0.1,0.1,0.1,0.1,0.1,0.2c0,0-0.1,0.1-0.1,0.1c0,0.1-0.1,0.1-0.1,0.2c-0.1,0.1-0.1,0.2-0.2,0.3
				c-0.1,0.1-0.2,0.2-0.3,0.3c-0.5,0.6-0.7,1.1-0.7,1.3c0,0.2,0.1,0.4,0.2,0.4c0.1,0,0.3-0.1,0.5-0.2c0.5-0.3,1-0.7,1.3-1.1
				c0.1-0.1,0.2-0.2,0.2-0.2c0,0,0.1,0,0.1,0.1s-0.1,0.2-0.2,0.3c-0.1,0.2-0.3,0.3-0.4,0.4c-0.1,0.1-0.1,0.1-0.2,0.2
				c0,0-0.1,0.1-0.2,0.2c-0.1,0.1-0.2,0.1-0.2,0.2c0,0-0.1,0.1-0.2,0.1c-0.1,0.1-0.2,0.1-0.2,0.1c-0.1,0-0.1,0.1-0.2,0.1
				C129,105.7,128.9,105.7,128.7,105.7z M130.7,101.8c0.1,0.1,0.1,0.1,0.1,0.2c0,0.1,0,0.2-0.1,0.2c-0.1,0.1-0.2,0.1-0.3,0.1
				c-0.1,0-0.2,0-0.3-0.1c-0.1-0.1-0.1-0.2-0.1-0.2c0-0.2,0.1-0.3,0.4-0.3C130.5,101.7,130.6,101.7,130.7,101.8z"/>
			<path id="XMLID_421_" d="M133.7,102.7l0.1,0c0.1,0,0.1,0,0.2,0.1c0.1,0.1,0.1,0.1,0.1,0.1s-0.2,0.3-0.6,0.9
				c-0.4,0.6-0.6,1-0.6,1.2c0,0,0,0,0,0.1c0,0.1,0.1,0.2,0.2,0.2c0.3,0,0.9-0.6,1.8-1.7c0,0,0,0,0.1,0c0,0,0,0,0,0.1
				c0,0,0,0.1-0.1,0.2c-0.8,1.1-1.4,1.6-1.9,1.6c-0.1,0-0.1,0-0.2,0c-0.3-0.1-0.4-0.3-0.4-0.6c0-0.1,0-0.2,0-0.3l-0.6,0.6
				c-0.4,0.3-0.7,0.5-0.8,0.5c-0.2,0-0.3-0.1-0.5-0.2c-0.2-0.1-0.3-0.3-0.3-0.5c0-0.5,0.3-1,1-1.7c0.7-0.7,1.3-1,1.8-1
				c0.2,0,0.4,0.1,0.4,0.2C133.7,102.6,133.7,102.7,133.7,102.7C133.7,102.7,133.7,102.7,133.7,102.7z M130.8,105.1
				c0,0.2,0.1,0.3,0.2,0.3c0.4,0,0.9-0.4,1.5-1.2l1-1.4c-0.1-0.1-0.1-0.1-0.3-0.1c-0.4,0-0.9,0.3-1.6,0.9
				C131.2,104.2,130.8,104.7,130.8,105.1z"/>
			<path id="XMLID_419_" d="M136,102.6c0.2,0,0.3,0.1,0.3,0.2c0,0,0,0.1,0,0.1c-0.6,0.8-0.9,1.4-1,1.8c1.5-1.5,2.4-2.2,2.7-2.2
				c0,0,0.1,0,0.1,0c0.2,0,0.3,0.1,0.3,0.2c0,0,0,0.1,0,0.1c0,0-0.1,0.2-0.4,0.5c-0.3,0.3-0.5,0.7-0.7,1c-0.2,0.3-0.3,0.6-0.3,0.8
				c0,0.2,0,0.3,0.1,0.3c0.3,0,0.8-0.4,1.5-1.2c0,0,0,0,0.1-0.1c0.1-0.1,0.2-0.2,0.2-0.2s0,0,0,0.1s0,0.1-0.1,0.2
				c-0.8,0.9-1.4,1.4-1.7,1.4c-0.3,0-0.5-0.2-0.5-0.5s0.1-0.7,0.4-1.2l0.6-1c-0.4,0.3-0.8,0.7-1.2,1.1c-0.3,0.4-0.6,0.8-0.9,1.1
				c-0.3,0.4-0.4,0.5-0.5,0.5c-0.1,0-0.2,0-0.2-0.1s-0.1-0.2-0.1-0.3c0-0.1,0-0.3,0.1-0.5c0.1-0.2,0.2-0.4,0.3-0.7l-0.6,0.6
				c-0.1,0.1-0.2,0.2-0.3,0.2c0,0-0.1,0-0.1-0.1s0-0.1,0.1-0.1c0.2-0.2,0.4-0.5,0.6-0.7c0.2-0.2,0.5-0.6,1-1.3
				C135.9,102.6,136,102.6,136,102.6z"/>
			<path id="XMLID_416_" d="M141.5,102.7c0.7-1.2,1.2-1.8,1.5-1.8c0,0,0.1,0,0.2,0c0.1,0,0.1,0.1,0.1,0.1c0,0,0,0.1,0,0.1
				c-0.5,0.6-0.9,1.1-1.1,1.4c-0.8,1-1.2,1.6-1.3,2.1c0,0.1,0,0.2,0,0.3c0,0.3,0.1,0.4,0.4,0.4c0.5,0,1.1-0.4,1.9-1.3
				c0.1-0.1,0.1-0.1,0.2-0.1c0,0,0.1,0,0.1,0s0,0.1-0.1,0.1c-0.7,0.9-1.4,1.4-2,1.5c0,0-0.1,0-0.1,0c-0.2,0-0.3-0.1-0.4-0.2
				c-0.1-0.1-0.1-0.3-0.1-0.4c0-0.2,0-0.4,0.1-0.6l-0.8,0.8c-0.4,0.3-0.6,0.5-0.8,0.5s-0.4-0.1-0.5-0.2c-0.2-0.1-0.2-0.3-0.2-0.5
				c0-0.5,0.3-1,1-1.7c0.7-0.7,1.3-1,1.8-1c0.2,0,0.3,0,0.4,0.1C141.5,102.5,141.5,102.6,141.5,102.7z M138.7,105.1
				c0,0.2,0.1,0.3,0.2,0.3c0.3,0,0.7-0.4,1.4-1.1c0.1-0.1,0.5-0.6,1.2-1.5c0-0.1-0.1-0.1-0.2-0.1c-0.4,0-0.9,0.3-1.6,0.9
				C139,104.2,138.7,104.7,138.7,105.1z"/>
			<path id="XMLID_413_" d="M145.4,103.6c0,0.2-0.2,0.6-0.6,1.1c-0.5,0.6-0.9,0.9-1.3,0.9h-0.2c-0.2,0-0.3-0.1-0.4-0.3
				c-0.1-0.1-0.1-0.3-0.1-0.4c0-0.4,0.3-0.9,0.8-1.6s1-1,1.4-1c0.3,0,0.5,0.2,0.5,0.5c0,0.1,0,0.2,0,0.3c0,0,0.1,0,0.2,0
				c0.1,0,0.3-0.1,0.5-0.2C146.1,103.1,145.8,103.3,145.4,103.6C145.3,103.5,145.4,103.5,145.4,103.6z M144.7,103.1
				c-0.2,0-0.5,0.3-0.9,0.8c-0.4,0.5-0.6,0.9-0.6,1.1c0,0.2,0.1,0.4,0.2,0.4c0.3,0,0.6-0.2,1-0.8c0.4-0.5,0.6-0.9,0.6-1.1
				C145,103.5,144.9,103.3,144.7,103.1z"/>
			<path id="XMLID_411_" d="M150.1,101.8c0.2,0,0.4,0.1,0.5,0.2c0.1,0.1,0.2,0.3,0.2,0.5c0,0.5-0.4,1.1-1.3,1.9
				c-0.7,0.6-1.3,1-1.7,1.2c-0.1,0-0.2,0-0.3-0.1c-0.1-0.1-0.2-0.1-0.2-0.2c0-0.1,0.2-0.6,0.5-1.4c0.3-0.8,0.5-1.3,0.6-1.4
				c0,0,0.1,0,0.1,0c0.1,0,0.1,0,0.2,0.1c0.1,0.1,0.1,0.1,0.1,0.2c0,0-0.2,0.4-0.5,1.1c-0.3,0.7-0.5,1.2-0.4,1.3
				c0.3-0.1,0.8-0.4,1.5-1c0.7-0.6,1.1-1.1,1.1-1.6c0-0.3-0.1-0.5-0.4-0.6c0,0-0.1,0-0.1-0.1C150,101.9,150,101.8,150.1,101.8z"/>
			<path id="XMLID_408_" d="M152.9,103.6c0,0.2-0.2,0.6-0.6,1.1c-0.5,0.6-0.9,0.9-1.3,0.9h-0.2c-0.2,0-0.3-0.1-0.4-0.3
				c-0.1-0.1-0.1-0.3-0.1-0.4c0-0.4,0.3-0.9,0.8-1.6s1-1,1.4-1c0.3,0,0.5,0.2,0.5,0.5c0,0.1,0,0.2,0,0.3c0,0,0.1,0,0.2,0
				c0.1,0,0.3-0.1,0.5-0.2C153.6,103.1,153.3,103.3,152.9,103.6C152.9,103.5,152.9,103.5,152.9,103.6z M152.2,103.1
				c-0.2,0-0.5,0.3-0.9,0.8c-0.4,0.5-0.6,0.9-0.6,1.1c0,0.2,0.1,0.4,0.2,0.4c0.3,0,0.6-0.2,1-0.8c0.4-0.5,0.6-0.9,0.6-1.1
				C152.5,103.5,152.4,103.3,152.2,103.1z"/>
			<path id="XMLID_406_" d="M153.8,105.7c-0.1,0-0.1,0-0.2,0c-0.4-0.1-0.6-0.3-0.6-0.7c0-0.4,0.3-1,0.8-1.6c0.6-0.6,1.1-0.9,1.5-0.9
				c0.1,0,0.3,0,0.4,0.1c0.1,0.1,0.1,0.2,0.1,0.3s0,0.3-0.1,0.4c-0.1,0.2-0.2,0.2-0.4,0.2c-0.2,0-0.3-0.1-0.3-0.2
				c0-0.1,0-0.2,0.1-0.3c0.1-0.1,0.1-0.2,0.1-0.2c0,0,0,0,0,0c-0.2,0-0.4,0.1-0.7,0.4c-0.3,0.2-0.5,0.4-0.6,0.6l-0.4,0.5
				c-0.1,0.1-0.1,0.2-0.1,0.4c0,0.1,0,0.2,0,0.3c0,0.1,0,0.2,0.1,0.2c0.1,0.1,0.2,0.1,0.3,0.1c0.3,0,0.7-0.2,1.2-0.6
				c0.5-0.4,0.8-0.7,1.1-1.1c0,0,0.1-0.1,0.1-0.1c0,0,0.1,0,0.1,0c0,0,0,0.1,0,0.1c-0.4,0.5-0.8,0.9-1.3,1.2
				C154.5,105.6,154.1,105.7,153.8,105.7z"/>
			<path id="XMLID_359_" d="M156.3,105.7c-0.1,0-0.1,0-0.2,0c-0.4-0.1-0.6-0.3-0.6-0.7c0-0.4,0.3-1,0.8-1.6c0.6-0.6,1.1-0.9,1.5-0.9
				c0.1,0,0.3,0,0.4,0.1c0.1,0.1,0.1,0.2,0.1,0.3c0,0.4-0.3,0.7-0.8,1c-0.5,0.3-1,0.5-1.3,0.5c-0.1,0-0.1,0-0.1,0
				c-0.1,0.2-0.1,0.4-0.1,0.5c0,0.3,0.2,0.5,0.5,0.5c0.3,0,0.7-0.2,1.2-0.6c0.4-0.3,0.7-0.6,1-1c0.1-0.1,0.1-0.1,0.1-0.1
				c0,0,0.1,0,0.1,0.1s0,0.1-0.1,0.2c-0.4,0.5-0.8,0.9-1.3,1.2C157,105.6,156.6,105.7,156.3,105.7z M158.1,103
				c0-0.1-0.1-0.1-0.2-0.1c-0.2,0-0.4,0.1-0.7,0.4c-0.4,0.3-0.7,0.7-0.9,1c0,0,0.1,0,0.1,0c0.2,0,0.6-0.1,1-0.4
				C157.7,103.7,158,103.4,158.1,103C158.1,103,158.1,103,158.1,103z M158.1,101.8c-0.4,0.3-0.6,0.5-0.6,0.5c0,0-0.1,0-0.1-0.1
				c0,0,0.1-0.1,0.3-0.3c0.2-0.2,0.4-0.3,0.4-0.3l0,0c0.1,0.2,0.4,0.4,0.7,0.6l0,0l0,0c-0.1,0-0.2-0.1-0.4-0.2
				C158.3,101.9,158.1,101.8,158.1,101.8z"/>
			<path id="XMLID_309_" d="M163.4,102.7l0.1,0c0.1,0,0.1,0,0.2,0.1c0.1,0.1,0.1,0.1,0.1,0.1c0,0-0.2,0.3-0.6,0.9
				c-0.4,0.6-0.6,1-0.6,1.2c0,0,0,0,0,0.1c0,0.1,0.1,0.2,0.2,0.2c0.3,0,0.9-0.6,1.8-1.7c0,0,0,0,0.1,0c0,0,0,0,0,0.1
				c0,0,0,0.1-0.1,0.2c-0.8,1.1-1.4,1.6-1.9,1.6c-0.1,0-0.1,0-0.2,0c-0.3-0.1-0.4-0.3-0.4-0.6c0-0.1,0-0.2,0-0.3l-0.6,0.6
				c-0.4,0.3-0.6,0.5-0.8,0.5c-0.2,0-0.3-0.1-0.5-0.2c-0.2-0.1-0.3-0.3-0.3-0.5c0-0.5,0.3-1,1-1.7c0.7-0.7,1.3-1,1.8-1
				c0.2,0,0.4,0.1,0.4,0.2C163.3,102.6,163.3,102.7,163.4,102.7C163.3,102.7,163.3,102.7,163.4,102.7z M160.5,105.1
				c0,0.2,0.1,0.3,0.2,0.3c0.4,0,0.9-0.4,1.5-1.2c0.6-0.9,1-1.3,1-1.4c-0.1-0.1-0.1-0.1-0.3-0.1c-0.4,0-0.9,0.3-1.6,0.9
				C160.8,104.2,160.5,104.7,160.5,105.1z M163.4,101.8C163.4,101.8,163.4,101.9,163.4,101.8c-0.1,0.1-0.2,0-0.5-0.2
				c-0.3-0.2-0.4-0.3-0.5-0.3c0,0-0.1-0.1-0.1-0.1c0-0.1,0-0.1,0.1-0.1c0,0,0.2,0.1,0.5,0.3C163.2,101.6,163.3,101.7,163.4,101.8
				C163.4,101.8,163.4,101.8,163.4,101.8z"/>
			<path id="XMLID_307_" d="M168.6,101.8c0.2,0,0.4,0.1,0.5,0.2c0.1,0.1,0.2,0.3,0.2,0.5c0,0.5-0.4,1.1-1.3,1.9
				c-0.7,0.6-1.3,1-1.7,1.2c-0.1,0-0.2,0-0.3-0.1c-0.1-0.1-0.2-0.1-0.2-0.2c0-0.1,0.2-0.6,0.5-1.4c0.3-0.8,0.5-1.3,0.6-1.4
				c0,0,0.1,0,0.1,0c0.1,0,0.1,0,0.2,0.1c0.1,0.1,0.1,0.1,0.1,0.2c0,0-0.2,0.4-0.5,1.1c-0.3,0.7-0.5,1.2-0.4,1.3
				c0.3-0.1,0.8-0.4,1.5-1c0.7-0.6,1.1-1.1,1.1-1.6c0-0.3-0.1-0.5-0.4-0.6c0,0-0.1,0-0.1-0.1C168.5,101.9,168.6,101.8,168.6,101.8z"
				/>
			<path id="XMLID_303_" d="M169.3,105.7c-0.3,0-0.5-0.2-0.5-0.6c0-0.3,0.2-0.8,0.6-1.4c0.4-0.6,0.7-0.9,0.9-0.9
				c0.1,0,0.1,0,0.2,0.1c0.1,0.1,0.1,0.1,0.1,0.2c0,0-0.1,0.1-0.1,0.1c0,0.1-0.1,0.1-0.1,0.2c-0.1,0.1-0.1,0.2-0.2,0.3
				c-0.1,0.1-0.2,0.2-0.3,0.3c-0.5,0.6-0.7,1.1-0.7,1.3c0,0.2,0.1,0.4,0.2,0.4c0.1,0,0.3-0.1,0.5-0.2c0.5-0.3,1-0.7,1.3-1.1
				c0.1-0.1,0.2-0.2,0.2-0.2s0.1,0,0.1,0.1s-0.1,0.2-0.2,0.3c-0.1,0.2-0.3,0.3-0.4,0.4c-0.1,0.1-0.1,0.1-0.2,0.2s-0.1,0.1-0.2,0.2
				c-0.1,0.1-0.2,0.1-0.2,0.2c0,0-0.1,0.1-0.2,0.1s-0.2,0.1-0.2,0.1c-0.1,0-0.1,0.1-0.2,0.1C169.6,105.7,169.4,105.7,169.3,105.7z
				 M171.3,101.8c0.1,0.1,0.1,0.1,0.1,0.2c0,0.1,0,0.2-0.1,0.2c-0.1,0.1-0.2,0.1-0.3,0.1c-0.1,0-0.2,0-0.3-0.1
				c-0.1-0.1-0.1-0.2-0.1-0.2c0-0.2,0.1-0.3,0.4-0.3C171.1,101.7,171.2,101.7,171.3,101.8z"/>
			<path id="XMLID_301_" d="M173.6,102.5l1.4,0c0,0,0,0,0,0c0,0.1-0.4,0.1-1.2,0.2c-0.8,0.1-1.2,0.2-1.3,0.2c-0.1,0.1-0.3,0.4-0.7,1
				c-0.3,0.5-0.5,0.9-0.5,1.2c0,0.2,0.2,0.4,0.5,0.4c0.2,0,0.4,0,0.6-0.1c0.3-0.1,0.4-0.2,0.6-0.3c0.4-0.2,0.7-0.6,1.2-1
				c0.1-0.1,0.2-0.1,0.2-0.1c0,0,0,0,0,0.1c0,0,0,0.1-0.1,0.2c-0.3,0.4-0.7,0.7-1.1,1c-0.5,0.3-1,0.5-1.4,0.5c-0.2,0-0.4,0-0.5-0.1
				c-0.1-0.1-0.2-0.3-0.2-0.5c0-0.3,0.1-0.6,0.3-1.1c0.2-0.5,0.4-0.8,0.5-1c-0.1,0-0.2,0-0.2,0c-0.2,0-0.3-0.1-0.3-0.2
				c0-0.1,0.1-0.2,0.2-0.2c0,0,0,0,0.1,0h0.6c0.1-0.1,0.2-0.3,0.4-0.5c0.2-0.2,0.3-0.3,0.4-0.3s0.1,0,0.2,0.1
				c0.1,0.1,0.1,0.1,0.1,0.2s-0.2,0.3-0.5,0.6C173.1,102.5,173.3,102.5,173.6,102.5z"/>
			<path id="XMLID_297_" d="M176.5,103.6c0,0.2-0.2,0.6-0.6,1.1c-0.5,0.6-0.9,0.9-1.3,0.9h-0.2c-0.2,0-0.3-0.1-0.4-0.3
				c-0.1-0.1-0.1-0.3-0.1-0.4c0-0.4,0.3-0.9,0.8-1.6c0.6-0.7,1-1,1.4-1c0.3,0,0.5,0.2,0.5,0.5c0,0.1,0,0.2,0,0.3c0,0,0.1,0,0.2,0
				c0.1,0,0.3-0.1,0.5-0.2C177.2,103.1,176.9,103.3,176.5,103.6C176.5,103.5,176.5,103.5,176.5,103.6z M175.8,103.1
				c-0.2,0-0.5,0.3-0.9,0.8c-0.4,0.5-0.6,0.9-0.6,1.1c0,0.2,0.1,0.4,0.2,0.4c0.3,0,0.6-0.2,1-0.8c0.4-0.5,0.6-0.9,0.6-1.1
				C176.1,103.5,176,103.3,175.8,103.1z M177,101.6c-0.3,0.2-0.5,0.3-0.6,0.3c0,0-0.1,0-0.1-0.1c0,0,0,0,0-0.1
				c0.3-0.2,0.7-0.5,1-0.8c0.1-0.1,0.1-0.1,0.2-0.1c0.1,0,0.1,0,0.1,0.1c0,0.1,0,0.1-0.1,0.2C177.5,101.3,177.3,101.4,177,101.6z"/>
			<path id="XMLID_295_" d="M178.6,105.7c-0.5,0-0.7-0.3-0.7-0.8c0-0.3,0.1-0.6,0.2-0.9c0.1-0.3,0.3-0.6,0.5-0.8c0,0-0.1,0-0.1,0
				c-0.2,0-0.3-0.1-0.4-0.3l-0.7,0.9c-0.4,0.5-0.6,0.7-0.7,0.7c0,0,0,0,0,0c0-0.1,0.1-0.2,0.2-0.3c0.6-0.6,1-1.2,1.2-1.6
				c0.1-0.6,0.3-0.8,0.6-0.8c0.1,0,0.2,0.1,0.2,0.2c0,0.1-0.1,0.3-0.2,0.5l-0.2,0.3c0,0.1,0.1,0.2,0.3,0.2c0.1,0,0.2,0,0.4-0.1
				l0.3-0.2c0,0,0,0,0.1,0s0.1,0,0.2,0.1c0.1,0.1,0.1,0.1,0.1,0.2l-0.7,0.8c-0.4,0.5-0.6,0.9-0.6,1.2c0,0.3,0.1,0.5,0.4,0.5
				c0.3,0,0.7-0.2,1.1-0.5c0.3-0.2,0.5-0.4,0.7-0.6c0.2-0.2,0.3-0.3,0.3-0.3c0,0,0.1,0,0.1,0.1c0,0,0,0.1-0.1,0.2l-0.3,0.3
				c-0.2,0.2-0.4,0.4-0.6,0.5C179.4,105.5,178.9,105.7,178.6,105.7z"/>
			<path id="XMLID_292_" d="M180.8,105.7c-0.3,0-0.5-0.2-0.5-0.6c0-0.3,0.2-0.8,0.6-1.4c0.4-0.6,0.7-0.9,0.9-0.9
				c0.1,0,0.1,0,0.2,0.1c0.1,0.1,0.1,0.1,0.1,0.2c0,0-0.1,0.1-0.1,0.1c0,0.1-0.1,0.1-0.1,0.2c-0.1,0.1-0.1,0.2-0.2,0.3
				c-0.1,0.1-0.2,0.2-0.3,0.3c-0.5,0.6-0.7,1.1-0.7,1.3c0,0.2,0.1,0.4,0.2,0.4c0.1,0,0.3-0.1,0.5-0.2c0.5-0.3,1-0.7,1.3-1.1
				c0.1-0.1,0.2-0.2,0.2-0.2s0.1,0,0.1,0.1s-0.1,0.2-0.2,0.3c-0.1,0.2-0.3,0.3-0.4,0.4c-0.1,0.1-0.1,0.1-0.2,0.2
				c0,0-0.1,0.1-0.2,0.2c-0.1,0.1-0.2,0.1-0.2,0.2c0,0-0.1,0.1-0.2,0.1c-0.1,0.1-0.2,0.1-0.2,0.1c-0.1,0-0.1,0.1-0.2,0.1
				C181.1,105.7,181,105.7,180.8,105.7z M182.8,101.8c0.1,0.1,0.1,0.1,0.1,0.2c0,0.1,0,0.2-0.1,0.2s-0.2,0.1-0.3,0.1
				c-0.1,0-0.2,0-0.3-0.1c-0.1-0.1-0.1-0.2-0.1-0.2c0-0.2,0.1-0.3,0.4-0.3C182.6,101.7,182.7,101.7,182.8,101.8z"/>
			<path id="XMLID_289_" d="M185.8,102.7l0.1,0c0.1,0,0.1,0,0.2,0.1c0.1,0.1,0.1,0.1,0.1,0.1s-0.2,0.3-0.6,0.9
				c-0.4,0.6-0.6,1-0.6,1.2c0,0,0,0,0,0.1c0,0.1,0.1,0.2,0.2,0.2c0.3,0,0.9-0.6,1.8-1.7c0,0,0,0,0.1,0s0,0,0,0.1c0,0,0,0.1-0.1,0.2
				c-0.8,1.1-1.4,1.6-1.9,1.6c-0.1,0-0.1,0-0.2,0c-0.3-0.1-0.4-0.3-0.4-0.6c0-0.1,0-0.2,0-0.3l-0.6,0.6c-0.4,0.3-0.7,0.5-0.8,0.5
				c-0.2,0-0.3-0.1-0.5-0.2c-0.2-0.1-0.3-0.3-0.3-0.5c0-0.5,0.3-1,1-1.7c0.7-0.7,1.3-1,1.8-1c0.2,0,0.4,0.1,0.4,0.2
				C185.8,102.6,185.8,102.7,185.8,102.7C185.8,102.7,185.8,102.7,185.8,102.7z M182.9,105.1c0,0.2,0.1,0.3,0.2,0.3
				c0.4,0,0.9-0.4,1.5-1.2l1-1.4c-0.1-0.1-0.1-0.1-0.2-0.1c-0.4,0-0.9,0.3-1.6,0.9C183.3,104.2,182.9,104.7,182.9,105.1z"/>
			<path id="XMLID_286_" d="M191.6,102.7c0.7-1.2,1.2-1.8,1.5-1.8c0,0,0.1,0,0.2,0c0.1,0,0.1,0.1,0.1,0.1c0,0,0,0.1,0,0.1
				c-0.5,0.6-0.9,1.1-1.1,1.4c-0.8,1-1.2,1.6-1.3,2.1c0,0.1,0,0.2,0,0.3c0,0.3,0.1,0.4,0.4,0.4c0.5,0,1.1-0.4,1.9-1.3
				c0.1-0.1,0.1-0.1,0.2-0.1c0,0,0.1,0,0.1,0s0,0.1-0.1,0.1c-0.7,0.9-1.4,1.4-2,1.5c0,0-0.1,0-0.1,0c-0.2,0-0.3-0.1-0.4-0.2
				c-0.1-0.1-0.1-0.3-0.1-0.4c0-0.2,0-0.4,0.1-0.6l-0.8,0.8c-0.4,0.3-0.6,0.5-0.8,0.5s-0.4-0.1-0.5-0.2c-0.2-0.1-0.2-0.3-0.2-0.5
				c0-0.5,0.3-1,1-1.7c0.7-0.7,1.3-1,1.8-1c0.2,0,0.3,0,0.4,0.1C191.6,102.5,191.6,102.6,191.6,102.7z M188.8,105.1
				c0,0.2,0.1,0.3,0.2,0.3c0.3,0,0.7-0.4,1.4-1.1c0.1-0.1,0.5-0.6,1.2-1.5c0-0.1-0.1-0.1-0.2-0.1c-0.4,0-0.9,0.3-1.6,0.9
				C189.1,104.2,188.8,104.7,188.8,105.1z"/>
			<path id="XMLID_283_" d="M193.5,105.7c-0.1,0-0.1,0-0.2,0c-0.4-0.1-0.6-0.3-0.6-0.7c0-0.4,0.3-1,0.8-1.6c0.6-0.6,1.1-0.9,1.5-0.9
				c0.1,0,0.3,0,0.4,0.1c0.1,0.1,0.1,0.2,0.1,0.3c0,0.4-0.3,0.7-0.8,1c-0.5,0.3-1,0.5-1.3,0.5c-0.1,0-0.1,0-0.1,0
				c-0.1,0.2-0.1,0.4-0.1,0.5c0,0.3,0.2,0.5,0.5,0.5c0.3,0,0.7-0.2,1.2-0.6c0.4-0.3,0.7-0.6,1-1c0.1-0.1,0.1-0.1,0.1-0.1
				c0,0,0.1,0,0.1,0.1s0,0.1-0.1,0.2c-0.3,0.5-0.8,0.9-1.3,1.2C194.2,105.6,193.8,105.7,193.5,105.7z M195.3,103
				c0-0.1-0.1-0.1-0.2-0.1s-0.4,0.1-0.7,0.4c-0.4,0.3-0.7,0.7-0.9,1c0,0,0.1,0,0.1,0c0.2,0,0.6-0.1,1-0.4
				C194.9,103.7,195.2,103.4,195.3,103C195.3,103,195.3,103,195.3,103z"/>
			<path id="XMLID_281_" d="M202.6,102.9c-0.4,0-0.7-0.1-1-0.3c-0.3-0.2-0.4-0.4-0.4-0.7c0-0.3,0.2-0.7,0.7-1
				c0.1-0.1,0.1-0.1,0.2-0.1c0,0,0.1,0,0.1,0c0,0.1-0.1,0.1-0.2,0.2c-0.4,0.3-0.5,0.6-0.5,0.9c0,0.2,0.1,0.4,0.3,0.5
				c0.2,0.1,0.4,0.2,0.7,0.2c0.6,0,1.2-0.3,1.8-0.9c0.3-0.3,0.4-0.7,0.4-1.1s-0.2-0.7-0.5-0.9c-0.3-0.2-0.6-0.3-1-0.3
				c-0.6,0-1.3,0.2-1.9,0.5c-0.8,0.4-1.5,1-2.1,1.8c-0.6,0.8-0.9,1.6-0.9,2.3c0,0.6,0.2,1,0.6,1.4c0.4,0.3,0.9,0.5,1.5,0.5
				c0.7,0,1.3-0.2,2-0.5c0.5-0.3,0.9-0.6,1.3-1c0.1-0.1,0.2-0.2,0.2-0.2c0,0,0.1,0,0.1,0.1c0,0.1,0,0.1-0.1,0.2
				c-0.3,0.4-0.8,0.7-1.5,1c-0.8,0.4-1.6,0.6-2.4,0.6c-0.8,0-1.4-0.3-1.8-0.8c-0.3-0.3-0.4-0.8-0.4-1.2c0-0.2,0-0.4,0.1-0.7
				c0.2-0.8,0.6-1.6,1.4-2.4c0.5-0.6,1.2-1,1.9-1.3c0.7-0.3,1.4-0.5,2.1-0.5c0.3,0,0.6,0,0.9,0.1c0.7,0.2,1,0.7,1,1.3
				c0,0.4-0.1,0.8-0.4,1C204.1,102.6,203.4,102.9,202.6,102.9z"/>
			<path id="XMLID_279_" d="M206.3,105.7c-0.5,0-0.7-0.3-0.7-0.8c0-0.3,0.1-0.6,0.2-0.9c0.1-0.3,0.3-0.6,0.5-0.8c0,0-0.1,0-0.1,0
				c-0.2,0-0.3-0.1-0.4-0.3l-0.7,0.9c-0.4,0.5-0.6,0.7-0.7,0.7c0,0,0,0,0,0c0-0.1,0.1-0.2,0.2-0.3c0.6-0.6,1-1.2,1.2-1.6
				c0.1-0.6,0.3-0.8,0.6-0.8c0.1,0,0.2,0.1,0.2,0.2c0,0.1-0.1,0.3-0.2,0.5l-0.2,0.3c0,0.1,0.1,0.2,0.3,0.2c0.1,0,0.2,0,0.4-0.1
				l0.2-0.2c0,0,0,0,0.1,0c0.1,0,0.1,0,0.2,0.1c0.1,0.1,0.1,0.1,0.1,0.2l-0.7,0.8c-0.4,0.5-0.6,0.9-0.6,1.2c0,0.3,0.1,0.5,0.4,0.5
				c0.3,0,0.7-0.2,1.1-0.5c0.3-0.2,0.5-0.4,0.7-0.6c0.2-0.2,0.3-0.3,0.3-0.3c0,0,0.1,0,0.1,0.1c0,0,0,0.1-0.1,0.2l-0.3,0.3
				c-0.2,0.2-0.4,0.4-0.6,0.5C207,105.5,206.6,105.7,206.3,105.7z"/>
			<path id="XMLID_276_" d="M208.5,105.7c-0.3,0-0.5-0.2-0.5-0.6c0-0.3,0.2-0.8,0.6-1.4c0.4-0.6,0.7-0.9,0.9-0.9
				c0.1,0,0.1,0,0.2,0.1c0.1,0.1,0.1,0.1,0.1,0.2c0,0-0.1,0.1-0.1,0.1c0,0.1-0.1,0.1-0.1,0.2c-0.1,0.1-0.1,0.2-0.2,0.3
				c-0.1,0.1-0.2,0.2-0.3,0.3c-0.5,0.6-0.7,1.1-0.7,1.3c0,0.2,0.1,0.4,0.2,0.4c0.1,0,0.3-0.1,0.5-0.2c0.5-0.3,1-0.7,1.3-1.1
				c0.1-0.1,0.2-0.2,0.2-0.2s0.1,0,0.1,0.1s-0.1,0.2-0.2,0.3c-0.1,0.2-0.3,0.3-0.4,0.4c-0.1,0.1-0.1,0.1-0.2,0.2
				c0,0-0.1,0.1-0.2,0.2c-0.1,0.1-0.2,0.1-0.2,0.2c0,0-0.1,0.1-0.2,0.1c-0.1,0.1-0.2,0.1-0.2,0.1c-0.1,0-0.1,0.1-0.2,0.1
				C208.8,105.7,208.7,105.7,208.5,105.7z M210.5,101.8c0.1,0.1,0.1,0.1,0.1,0.2c0,0.1,0,0.2-0.1,0.2s-0.2,0.1-0.3,0.1
				c-0.1,0-0.2,0-0.3-0.1c-0.1-0.1-0.1-0.2-0.1-0.2c0-0.2,0.1-0.3,0.4-0.3C210.3,101.7,210.4,101.7,210.5,101.8z"/>
			<path id="XMLID_273_" d="M212.1,105.5c-0.2,0.1-0.4,0.2-0.7,0.2c-0.3,0-0.5-0.1-0.6-0.3c-0.1-0.2-0.3-0.5-0.4-0.9
				c-0.1,0.1-0.2,0.2-0.2,0.2c0,0,0,0,0-0.1c0,0,0-0.1,0-0.1c0.2-0.3,0.6-0.6,1.1-1.1l1.2-1.1c0.3-0.3,0.6-0.5,0.6-0.5
				c0.2,0,0.3,0.1,0.3,0.2c0,0.1,0,0.2-0.1,0.2c-0.1,0.1-0.1,0.1-0.1,0.2c0,0-0.1,0.1-0.1,0.1c-0.1,0.2-0.2,0.6-0.4,1.2
				c-0.1,0.6-0.2,1.1-0.3,1.3c0.5,0,1.1-0.4,1.6-1c0.1-0.1,0.1-0.1,0.1-0.1c0,0,0,0,0,0.1c0,0,0,0.1-0.1,0.2c-0.4,0.4-0.7,0.7-1,0.9
				c-0.2,0.1-0.4,0.2-0.8,0.2L212.1,105.5z M210.8,104.4c0,0.2,0.1,0.4,0.2,0.5c0.1,0.1,0.3,0.2,0.5,0.2c0.2,0,0.3,0,0.4-0.1
				c0.1-0.1,0.3-0.4,0.4-0.9c0.1-0.5,0.2-1,0.2-1.4l0-0.3c-0.4,0.3-0.7,0.6-1.1,1c-0.4,0.4-0.6,0.7-0.6,0.8
				C210.8,104.3,210.8,104.4,210.8,104.4z"/>
			<path id="XMLID_271_" d="M216.3,102.5l1.4,0c0,0,0,0,0,0c0,0.1-0.4,0.1-1.2,0.2c-0.8,0.1-1.2,0.2-1.3,0.2c-0.1,0.1-0.3,0.4-0.7,1
				c-0.3,0.5-0.5,0.9-0.5,1.2c0,0.2,0.2,0.4,0.5,0.4c0.2,0,0.4,0,0.6-0.1c0.3-0.1,0.4-0.2,0.6-0.3c0.4-0.2,0.7-0.6,1.2-1
				c0.1-0.1,0.2-0.1,0.2-0.1c0,0,0,0,0,0.1c0,0,0,0.1-0.1,0.2c-0.3,0.4-0.7,0.7-1.1,1c-0.5,0.3-1,0.5-1.4,0.5c-0.2,0-0.4,0-0.5-0.1
				c-0.1-0.1-0.2-0.3-0.2-0.5c0-0.3,0.1-0.6,0.3-1.1c0.2-0.5,0.4-0.8,0.5-1c-0.1,0-0.2,0-0.2,0c-0.2,0-0.3-0.1-0.3-0.2
				c0-0.1,0.1-0.2,0.2-0.2c0,0,0,0,0.1,0h0.6c0.1-0.1,0.2-0.3,0.4-0.5c0.2-0.2,0.3-0.3,0.4-0.3c0.1,0,0.1,0,0.2,0.1
				c0.1,0.1,0.1,0.1,0.1,0.2s-0.2,0.3-0.5,0.6C215.8,102.5,216,102.5,216.3,102.5z"/>
			<path id="XMLID_268_" d="M219.1,103.6c0,0.2-0.2,0.6-0.6,1.1c-0.5,0.6-0.9,0.9-1.3,0.9H217c-0.2,0-0.3-0.1-0.4-0.3
				c-0.1-0.1-0.1-0.3-0.1-0.4c0-0.4,0.3-0.9,0.8-1.6c0.6-0.7,1-1,1.4-1c0.3,0,0.5,0.2,0.5,0.5c0,0.1,0,0.2,0,0.3c0,0,0.1,0,0.2,0
				c0.1,0,0.3-0.1,0.5-0.2C219.9,103.1,219.6,103.3,219.1,103.6C219.1,103.5,219.1,103.5,219.1,103.6z M218.5,103.1
				c-0.2,0-0.5,0.3-0.9,0.8c-0.4,0.5-0.6,0.9-0.6,1.1c0,0.2,0.1,0.4,0.2,0.4c0.3,0,0.6-0.2,1-0.8c0.4-0.5,0.6-0.9,0.6-1.1
				C218.8,103.5,218.7,103.3,218.5,103.1z"/>
			<path id="XMLID_266_" d="M220.8,105.1c0.1,0.1,0.1,0.1,0.1,0.2c0,0.1,0,0.2-0.1,0.2c-0.1,0.1-0.2,0.1-0.3,0.1s-0.2,0-0.3-0.1
				c-0.1-0.1-0.1-0.1-0.1-0.2c0-0.2,0.1-0.3,0.4-0.3C220.6,105,220.7,105,220.8,105.1z"/>
		</g>
		<g id="XMLID_235_">
			<path id="XMLID_263_" d="M141.6,61.2c-0.1-0.4-0.2-0.8-0.2-1c0-1.1,0.4-2.4,1.3-3.9c0.9-1.5,1.9-2.8,3.2-3.9
				c1.2-1,2.5-1.9,3.8-2.4c1.3-0.6,2.2-0.9,2.7-1c0.5-0.1,1-0.2,1.5-0.2c0.2,0,0.4,0,0.5,0c1.1,0,1.9,0.3,2.6,0.9
				c0.6,0.6,1,1.4,1,2.3c0,0.2-0.1,0.5-0.2,1.1c-0.1,0.6-0.4,1.3-0.7,2.1c-0.4,0.8-1,1.9-2,3.3l-0.4,0.7l-2.1,2.9l-0.9,1.3
				c-0.5,0.9-0.9,1.5-1,2c-0.2,0.4-0.2,0.9-0.2,1.3c0,0.4,0.1,0.8,0.4,1.1c0.3,0.3,0.6,0.4,1.1,0.4c0.2,0,0.6-0.1,1.2-0.2
				c0.6-0.1,1.7-0.8,3.1-2c1.5-1.2,2.9-2.8,4.2-4.8c1.4-2,2.3-3.7,2.9-5.1c0.6-1.5,0.9-2.6,0.9-3.5c0-1.2-0.5-1.7-1.4-1.7
				c-0.2,0-0.3,0-0.4,0l-0.1,0c-0.1,0-0.2,0-0.2-0.1c-0.1-0.1,0-0.2,0-0.5c0.1-0.3,0.2-0.5,0.3-0.7c0.2-0.2,0.3-0.4,0.5-0.5
				c0.1-0.1,0.3-0.2,0.5-0.2c0.2-0.1,0.5-0.1,0.7-0.1c0.5,0,1,0.2,1.3,0.6c0.3,0.4,0.5,0.9,0.5,1.5c0,0.5-0.1,1.1-0.2,1.6
				c-0.1,0.5-0.5,1.6-1.2,3.1c-0.6,1.5-1.6,3.2-3,5c-1.3,1.8-2.5,3.2-3.3,4.1c-0.9,0.9-1.9,1.9-3.1,2.8c-1.2,0.9-2.1,1.6-2.7,1.8
				c-0.6,0.3-1.2,0.5-1.7,0.7c-0.5,0.2-1,0.2-1.5,0.2c-0.1,0-0.3,0-0.5,0c-0.2,0-0.4-0.1-0.7-0.1c-0.3-0.1-0.7-0.3-1.1-0.8
				c-0.4-0.5-0.6-1-0.6-1.6c0-0.1,0-0.4,0.1-0.8c0.1-0.4,0.2-0.8,0.4-1.3c0.2-0.5,0.4-1,0.7-1.6l4.6-7l1.1-1.7
				c0.5-0.8,0.8-1.4,1.1-1.8c0.2-0.4,0.4-0.8,0.5-1.2c0.1-0.4,0.2-0.8,0.2-1.1c0-1.1-0.5-1.7-1.6-1.7c-1.2,0-2.5,0.3-3.7,1
				c-1.3,0.7-2.5,1.6-3.5,2.9c-1.1,1.2-1.8,2.4-2.3,3.4c-0.5,1-0.7,1.9-0.7,2.5c0,1.6,0.7,2.4,2.2,2.4c0.2,0,0.4,0,0.6-0.1
				c0.2,0,0.4-0.1,0.6-0.2c0.2-0.1,0.4-0.2,0.6-0.3l1.1-0.8l0.5-0.5c0,0,0.1,0,0.1,0l0.1,0c0,0.2-0.1,0.4-0.2,0.5l-0.7,0.9
				c-0.2,0.2-0.4,0.4-0.5,0.6s-0.5,0.4-1.2,0.9c-0.7,0.5-1.5,0.8-2.4,0.8C142.9,63.4,142,62.7,141.6,61.2z"/>
			<path id="XMLID_261_" d="M161,65.7l3.2-4.7c0.4-0.5,0.5-0.9,0.5-1.2c0-0.1,0-0.2-0.1-0.4h3.5c0.1,0.2,0.1,0.5,0,0.7
				c-0.1,0.2-0.2,0.5-0.6,1l-3.7,5.5l-0.3,0.5c-0.3,0.6-0.5,1.1-0.5,1.4c-0.1,0.4,0.1,0.7,0.5,0.7c0.2,0,0.3-0.1,0.5-0.1
				c0.1,0,0.3-0.2,0.6-0.3c0.3-0.2,0.7-0.5,1.4-1.1c0.6-0.5,1.3-1.2,2.1-2l0.6-0.8c0.4-0.5,0.6-0.9,0.8-1.1c0.2-0.2,0.3-0.3,0.4-0.4
				l0.2,0.1l0,0.2l-0.1,0.2l-0.1,0.2l-0.5,0.7l-0.2,0.2l-0.8,0.9c-1.4,1.6-2.6,2.6-3.6,3.2c-0.9,0.6-1.8,0.9-2.6,0.9
				c-0.6,0-1.1-0.2-1.5-0.6c-0.4-0.4-0.6-0.8-0.6-1.4c0-0.2,0-0.4,0.1-0.5c0-0.2,0.1-0.3,0.1-0.4c0-0.1,0.1-0.2,0.2-0.4l0.4-0.8
				L161,65.7z"/>
			<path id="XMLID_259_" d="M169.2,64.2l2.1-3.2c0.3-0.5,0.5-0.8,0.6-0.9c0-0.1,0-0.3,0-0.5l0-0.2h3.3c0.1,0.2,0.1,0.3,0.1,0.5
				c0,0.2-0.2,0.7-0.7,1.3l-2.3,3.3l-0.5,0.8c-0.4,0.8-0.8,1.3-0.9,1.7c-0.2,0.4-0.3,0.7-0.3,0.9c0,0.4,0.1,0.7,0.4,0.9
				c0.3,0.2,0.6,0.3,0.9,0.2c0.5-0.1,1.1-0.4,1.9-0.9c0.7-0.5,1.4-1.2,2-2.1c0.6-0.8,1.1-1.5,1.4-2.1c0.3-0.6,0.6-1.1,0.8-1.6
				c0.2-0.5,0.3-1,0.4-1.4v-0.2v-0.2v-0.2l-0.1-0.2V60v-0.1l-0.2-0.2v-0.1v-0.1l0.2-0.2l0.5-0.3c0.2-0.1,0.4-0.1,0.6,0
				c0.2,0.1,0.3,0.3,0.3,0.5v0.6l-0.1,0.5l-0.1,0.4l-0.2,0.5l-0.2,0.4c-0.4,0.9-1,1.9-1.9,3.1c-0.8,1.2-1.6,2.1-2.3,2.8
				c-0.7,0.7-1.6,1.3-2.5,1.8c-1,0.5-1.8,0.7-2.4,0.7c-0.7,0-1.3-0.2-1.7-0.6c-0.4-0.4-0.6-0.9-0.6-1.5c0-0.2,0.1-0.6,0.2-1.1
				c0.1-0.5,0.5-1.2,0.9-2L169.2,64.2z"/>
			<path id="XMLID_256_" d="M189.6,60.9l1-1.4h3.3l-4.8,7.1l-0.2,0.4c-0.4,0.7-0.6,1.2-0.6,1.4c0,0.5,0.2,0.8,0.7,0.8
				c0.3-0.1,0.6-0.2,1-0.5c0.4-0.3,1-0.8,1.8-1.6c0.8-0.8,1.6-1.6,2.3-2.6l0.5-0.7l0.2-0.3l0.1-0.1l0.1,0l0.2,0.1
				c0,0.1-0.1,0.3-0.4,0.7c-0.3,0.4-0.6,0.8-1,1.3l-0.5,0.6c-1.3,1.4-2.3,2.4-3.2,3c-0.8,0.6-1.6,0.9-2.2,1c-1.6,0-2.4-0.7-2.4-2
				c0-0.3,0.1-0.6,0.2-1l-0.5,0.6c-1.3,1.3-2.3,2.1-3,2.2c-0.7,0.1-1.1,0.2-1.2,0.2c-0.1,0-0.2,0-0.2,0c-0.7,0-1.2-0.2-1.6-0.7
				c-0.4-0.5-0.6-1.2-0.6-2.1c0-0.9,0.4-1.9,1.3-3.1c0.8-1.2,1.9-2.1,3-3c1.2-0.8,2.1-1.4,2.8-1.6c0.7-0.3,1.4-0.4,2-0.4
				c0.7,0,1.3,0.2,1.7,0.5C189.6,60,189.7,60.4,189.6,60.9z M181.3,68c0.1,0.6,0.4,0.9,1,0.9c0.2,0,0.5-0.1,0.8-0.2
				c0.4-0.2,0.7-0.4,1.1-0.7c0.4-0.3,0.8-0.8,1.4-1.5l0.4-0.5l0.9-1.2c0.8-1.1,1.4-1.9,1.7-2.5c0.3-0.6,0.4-1.1,0.4-1.6
				c0-0.2-0.1-0.5-0.3-0.6c-0.2-0.2-0.4-0.2-0.7-0.2c-0.3,0.1-0.6,0.2-0.9,0.3c-0.3,0.2-0.7,0.4-1.1,0.8c-0.5,0.4-1,0.9-1.5,1.5
				c-0.5,0.6-1.1,1.3-1.6,1.9c-0.5,0.7-0.9,1.3-1.2,2C181.4,67.1,181.2,67.6,181.3,68z"/>
			<path id="XMLID_254_" d="M114.4,81.8c-0.1-0.4-0.2-0.8-0.2-1c0-1.1,0.4-2.4,1.3-3.9c0.9-1.5,1.9-2.8,3.2-3.9
				c1.2-1,2.5-1.9,3.8-2.4c1.3-0.6,2.2-0.9,2.7-1c0.5-0.1,1-0.2,1.5-0.2c0.2,0,0.4,0,0.5,0c1.1,0,1.9,0.3,2.6,0.9
				c0.6,0.6,1,1.4,1,2.3c0,0.2-0.1,0.5-0.2,1.1c-0.1,0.6-0.4,1.3-0.7,2.1c-0.4,0.8-1,1.9-2,3.3l-0.4,0.7l-2.1,2.9l-0.9,1.3
				c-0.5,0.9-0.9,1.5-1,2c-0.2,0.4-0.2,0.9-0.2,1.3c0,0.4,0.1,0.8,0.4,1.1c0.3,0.3,0.6,0.4,1.1,0.4c0.2,0,0.6-0.1,1.2-0.2
				c0.6-0.1,1.7-0.8,3.1-2c1.5-1.2,2.9-2.8,4.2-4.8c1.4-2,2.3-3.7,2.9-5.1c0.6-1.5,0.9-2.6,0.9-3.5c0-1.2-0.5-1.7-1.4-1.7
				c-0.2,0-0.3,0-0.4,0l-0.1,0c-0.1,0-0.2,0-0.2-0.1c-0.1-0.1,0-0.2,0-0.5c0.1-0.3,0.2-0.5,0.3-0.7c0.2-0.2,0.3-0.4,0.5-0.5
				c0.1-0.1,0.3-0.2,0.5-0.2c0.2-0.1,0.5-0.1,0.7-0.1c0.5,0,1,0.2,1.3,0.6c0.3,0.4,0.5,0.9,0.5,1.5c0,0.5-0.1,1.1-0.2,1.6
				c-0.1,0.5-0.5,1.6-1.2,3.1c-0.6,1.5-1.6,3.2-3,5c-1.3,1.8-2.5,3.2-3.3,4.1c-0.9,0.9-1.9,1.9-3.1,2.8c-1.2,0.9-2.1,1.6-2.7,1.8
				c-0.6,0.3-1.2,0.5-1.7,0.7c-0.5,0.2-1,0.2-1.5,0.2c-0.1,0-0.3,0-0.5,0c-0.2,0-0.4-0.1-0.7-0.1c-0.3-0.1-0.7-0.3-1.1-0.8
				c-0.4-0.5-0.6-1-0.6-1.6c0-0.1,0-0.4,0.1-0.8c0.1-0.4,0.2-0.8,0.4-1.3c0.2-0.5,0.4-1,0.7-1.6l4.6-7l1.1-1.7
				c0.5-0.8,0.8-1.4,1.1-1.8c0.2-0.4,0.4-0.8,0.5-1.2c0.1-0.4,0.2-0.8,0.2-1.1c0-1.1-0.5-1.7-1.6-1.7c-1.2,0-2.5,0.3-3.7,1
				c-1.3,0.7-2.5,1.6-3.5,2.9c-1.1,1.2-1.8,2.4-2.3,3.4c-0.5,1-0.7,1.9-0.7,2.5c0,1.6,0.7,2.4,2.2,2.4c0.2,0,0.4,0,0.6-0.1
				c0.2,0,0.4-0.1,0.6-0.2c0.2-0.1,0.4-0.2,0.6-0.3l1.1-0.8l0.5-0.5c0,0,0.1,0,0.1,0l0.1,0c0,0.2-0.1,0.4-0.2,0.5l-0.7,0.9
				c-0.2,0.2-0.4,0.4-0.5,0.6s-0.5,0.4-1.2,0.9c-0.7,0.5-1.5,0.8-2.4,0.8C115.8,83.9,114.9,83.2,114.4,81.8z"/>
			<path id="XMLID_251_" d="M137.6,85.7l-0.2,0.3l-0.2,0.4c-0.1,0.1-0.2,0.3-0.3,0.7c-0.1,0.3-0.2,0.6-0.3,0.8
				c-0.1,0.2-0.1,0.4-0.1,0.6c0,0.8,0.5,1.3,1.5,1.3c0.9,0,1.7-0.3,2.6-0.8c0.9-0.5,1.9-1.5,3.1-2.8l0.6-0.8
				c0.2-0.3,0.4-0.5,0.6-0.8c0.2-0.3,0.4-0.5,0.5-0.6l0.2,0.1l-0.1,0.3l-0.2,0.2l-0.6,0.8l-0.1,0.2l-0.8,1c-1.3,1.5-2.4,2.5-3.3,3
				c-0.9,0.5-1.6,0.8-2.3,0.9c-0.7,0.1-1.1,0.1-1.4,0.1c-0.4,0-0.7,0-0.9,0c-0.7-0.1-1.3-0.4-1.8-1c-0.5-0.5-0.7-1.2-0.7-1.9
				c0-0.4,0.2-1.1,0.5-2.2c0.3-1.1,1.2-2.2,2.5-3.1c1.3-0.9,2.3-1.5,2.7-1.8c0.5-0.2,1.1-0.5,1.8-0.7c0.7-0.2,1.4-0.3,2-0.3
				c0.4,0,0.8,0,1.2,0.1c0.4,0.1,0.7,0.2,0.9,0.4c0.2,0.2,0.3,0.5,0.3,0.9c0,0.3-0.1,0.7-0.4,1.1c-0.2,0.4-0.6,0.8-1.2,1.1
				c-0.5,0.4-1.4,0.8-2.5,1.3C140.2,85.1,138.9,85.5,137.6,85.7z M137.8,85.2c0.6-0.1,1.4-0.3,2.3-0.6c0.9-0.3,1.6-0.7,2-1.2
				c0.5-0.5,0.8-0.8,0.9-1c0.2-0.2,0.3-0.5,0.5-0.7c0.2-0.3,0.2-0.5,0.2-0.8c0-0.5-0.2-0.7-0.7-0.6c-0.4,0-0.7,0.1-1.1,0.4
				c-0.4,0.3-1.1,0.9-2.1,1.9c-0.5,0.4-1,1-1.4,1.6L137.8,85.2z"/>
			<path id="XMLID_249_" d="M141.6,90.3l6.2-9.2c0.3-0.4,0.4-0.8,0.3-1.2h3.4c0.1,0.4,0,0.8-0.3,1.2l-1.2,1.6l0.3-0.2l0.8-0.7
				c0.4-0.3,0.7-0.6,1-0.8c0.3-0.2,0.7-0.5,1.3-0.8c0.6-0.4,1.4-0.6,2.2-0.6c0.2,0,0.6,0.1,1.2,0.2c0.6,0.2,0.9,0.7,0.9,1.5
				c0,0.2-0.1,0.5-0.3,0.9c-0.2,0.4-0.5,1-1,1.8c-0.5,0.7-1.1,1.7-2,2.7c-0.8,1.1-1.3,1.8-1.3,2.1c0.1,0.3,0.3,0.5,0.7,0.5
				c0.1,0,0.2,0,0.4-0.1c0.2-0.1,0.4-0.2,0.6-0.3c0.2-0.1,0.5-0.3,0.8-0.5c0.3-0.2,0.8-0.6,1.4-1.2c0.7-0.6,1.2-1.2,1.6-1.8
				c0.4-0.6,0.7-1,0.8-1.1c0.2-0.2,0.3-0.3,0.4-0.4c0.1,0,0.1,0.1,0.2,0.2c0,0.1-0.1,0.3-0.2,0.4c-0.1,0.1-0.4,0.4-0.8,0.9l-1.8,2
				l-0.2,0.2l-0.5,0.5c-0.4,0.4-0.7,0.6-1,0.8c-0.2,0.2-0.6,0.4-1.1,0.7c-0.5,0.3-1,0.5-1.4,0.7c-0.4,0.2-0.8,0.2-1.2,0.2
				c-0.5,0-1-0.2-1.3-0.5c-0.3-0.3-0.5-0.7-0.5-1.2c0-0.1,0.1-0.4,0.2-0.9c0.1-0.5,0.4-1,0.8-1.5c0.4-0.5,1.4-1.9,3.2-4.2l0.3-0.5
				c0.1-0.2,0.1-0.3,0.1-0.5c0-0.4-0.2-0.7-0.6-0.7c-0.2,0-0.3,0-0.5,0c-0.1,0-0.4,0.1-0.7,0.2c-0.3,0.1-0.5,0.3-0.7,0.4
				c-0.1,0.1-0.3,0.2-0.5,0.4l-0.6,0.5l-0.4,0.4l-0.6,0.6l-0.7,0.7l-4.5,6.6L141.6,90.3z"/>
			<path id="XMLID_247_" d="M158.2,87.6c0.1-0.7,0.4-1.6,1.1-2.7l0.5-0.8c1.1-1.5,2.4-2.6,3.8-3.3c1.4-0.7,2.7-1.1,3.9-1.1
				c0.9,0,1.5,0.1,1.8,0.4c0.3,0.3,0.5,0.6,0.5,0.8c0,0.3-0.2,0.7-0.6,1l-0.5,0.4c-0.1,0.1-0.2,0.1-0.3,0l0-0.2l0.1-0.4v-0.3
				c-0.1-0.3-0.2-0.6-0.4-0.7c-0.2-0.2-0.4-0.3-0.7-0.3c-0.1,0-0.4,0.1-0.7,0.2c-0.3,0.2-0.7,0.5-1.2,1c-0.5,0.5-0.9,1-1.3,1.5
				c-0.4,0.5-0.7,0.9-1.1,1.4c-0.3,0.4-0.5,0.8-0.6,1l-0.7,1.5c-0.3,0.7-0.5,1.2-0.5,1.3c0,1.1,0.6,1.6,1.9,1.6
				c0.5,0,1.1-0.2,1.7-0.5c0.6-0.4,1.4-1,2.2-1.8l0.4-0.3l0.7-0.7c0.5-0.5,0.8-0.9,1-1.2c0.2-0.3,0.4-0.6,0.6-0.9
				c0.2-0.3,0.3-0.4,0.4-0.4l0.1,0.1l-0.1,0.3l-0.1,0.2l-0.5,0.7l-0.2,0.2l-0.7,0.9c-1.2,1.3-2.2,2.3-3,2.9c-0.8,0.6-1.6,1-2.4,1.1
				c-0.8,0.2-1.4,0.2-1.8,0.2c-2,0-3-0.9-3-2.7C158.2,87.8,158.2,87.7,158.2,87.6z"/>
			<path id="XMLID_244_" d="M171.9,85.7l-0.2,0.3l-0.2,0.4c-0.1,0.1-0.2,0.3-0.3,0.7c-0.1,0.3-0.2,0.6-0.3,0.8
				c-0.1,0.2-0.1,0.4-0.1,0.6c0,0.8,0.5,1.3,1.5,1.3c0.9,0,1.7-0.3,2.6-0.8c0.9-0.5,1.9-1.5,3.1-2.8l0.6-0.8
				c0.2-0.3,0.4-0.5,0.6-0.8c0.2-0.3,0.4-0.5,0.5-0.6l0.2,0.1l-0.1,0.3l-0.2,0.2l-0.6,0.8l-0.1,0.2l-0.8,1c-1.3,1.5-2.4,2.5-3.3,3
				c-0.9,0.5-1.6,0.8-2.3,0.9c-0.7,0.1-1.1,0.1-1.4,0.1c-0.4,0-0.7,0-0.9,0c-0.7-0.1-1.3-0.4-1.8-1c-0.5-0.5-0.7-1.2-0.7-1.9
				c0-0.4,0.2-1.1,0.5-2.2c0.3-1.1,1.2-2.2,2.5-3.1c1.3-0.9,2.3-1.5,2.7-1.8c0.5-0.2,1.1-0.5,1.8-0.7c0.7-0.2,1.4-0.3,2-0.3
				c0.4,0,0.8,0,1.2,0.1c0.4,0.1,0.7,0.2,0.9,0.4c0.2,0.2,0.3,0.5,0.3,0.9c0,0.3-0.1,0.7-0.4,1.1c-0.2,0.4-0.6,0.8-1.2,1.1
				c-0.5,0.4-1.4,0.8-2.5,1.3C174.5,85.1,173.3,85.5,171.9,85.7z M172.1,85.2c0.6-0.1,1.4-0.3,2.3-0.6c0.9-0.3,1.6-0.7,2-1.2
				c0.5-0.5,0.8-0.8,0.9-1c0.2-0.2,0.3-0.5,0.5-0.7c0.2-0.3,0.2-0.5,0.2-0.8c0-0.5-0.2-0.7-0.7-0.6c-0.4,0-0.7,0.1-1.1,0.4
				c-0.4,0.3-1.1,0.9-2.1,1.9c-0.5,0.4-1,1-1.4,1.6L172.1,85.2z"/>
			<path id="XMLID_242_" d="M176,90.3l6.2-9.2c0.3-0.4,0.4-0.8,0.3-1.2h3.4c0.1,0.4,0,0.8-0.3,1.2l-1.2,1.6l0.3-0.2l0.8-0.7
				c0.4-0.3,0.7-0.6,1-0.8c0.3-0.2,0.7-0.5,1.3-0.8c0.6-0.4,1.4-0.6,2.2-0.6c0.2,0,0.6,0.1,1.2,0.2c0.6,0.2,0.9,0.7,0.9,1.5
				c0,0.2-0.1,0.5-0.3,0.9c-0.2,0.4-0.5,1-1,1.8c-0.5,0.7-1.1,1.7-2,2.7c-0.8,1.1-1.3,1.8-1.3,2.1c0.1,0.3,0.3,0.5,0.7,0.5
				c0.1,0,0.2,0,0.4-0.1c0.2-0.1,0.4-0.2,0.6-0.3c0.2-0.1,0.5-0.3,0.8-0.5c0.3-0.2,0.8-0.6,1.4-1.2c0.7-0.6,1.2-1.2,1.6-1.8
				c0.4-0.6,0.7-1,0.8-1.1c0.2-0.2,0.3-0.3,0.4-0.4c0.1,0,0.1,0.1,0.2,0.2c0,0.1-0.1,0.3-0.2,0.4c-0.1,0.1-0.4,0.4-0.8,0.9l-1.8,2
				l-0.2,0.2l-0.5,0.5c-0.4,0.4-0.7,0.6-1,0.8c-0.2,0.2-0.6,0.4-1.1,0.7c-0.5,0.3-1,0.5-1.4,0.7c-0.4,0.2-0.8,0.2-1.2,0.2
				c-0.5,0-1-0.2-1.3-0.5c-0.3-0.3-0.5-0.7-0.5-1.2c0-0.1,0.1-0.4,0.2-0.9c0.1-0.5,0.4-1,0.8-1.5c0.4-0.5,1.4-1.9,3.2-4.2l0.3-0.5
				c0.1-0.2,0.1-0.3,0.1-0.5c0-0.4-0.2-0.7-0.6-0.7c-0.2,0-0.3,0-0.5,0c-0.2,0-0.4,0.1-0.7,0.2c-0.3,0.1-0.5,0.3-0.7,0.4
				c-0.1,0.1-0.3,0.2-0.5,0.4l-0.6,0.5l-0.4,0.4l-0.6,0.6l-0.7,0.7l-4.5,6.6L176,90.3z"/>
			<path id="XMLID_239_" d="M203.7,81.4l5.2-7.8c0.4-0.5,0.6-1,0.6-1.2c0-0.2,0-0.3-0.1-0.5h3.4c0.1,0.2,0.1,0.4,0.1,0.5
				c0,0.3-0.2,0.8-0.6,1.3l-8.4,12.5c-0.4,0.7-0.7,1.2-0.9,1.5s-0.3,0.7-0.4,1.2c-0.1,0.2,0,0.4,0.1,0.6c0.1,0.2,0.3,0.3,0.5,0.3
				c0.2,0,0.5-0.1,0.9-0.3c0.4-0.2,0.8-0.6,1.5-1.1c0.6-0.6,1.2-1.1,1.7-1.6c0.5-0.5,0.9-0.9,1.1-1.3c0.2-0.3,0.4-0.6,0.6-0.9
				c0.2-0.3,0.4-0.5,0.5-0.5l0.2,0.2c0,0.1,0,0.2-0.1,0.4c-0.1,0.2-0.5,0.7-1.2,1.5l-0.6,0.7l-0.2,0.2l-0.8,0.9
				c-0.9,0.9-1.6,1.6-2.1,1.9c-0.6,0.4-1.1,0.7-1.7,0.8c-0.6,0.2-1,0.2-1.2,0.2c-0.5,0-1-0.2-1.3-0.5s-0.5-0.8-0.5-1.3l0.1-0.8
				l0.2-0.7v-0.1l-0.5,0.5c-0.9,1-1.7,1.7-2.3,2.1c-0.6,0.4-1.1,0.7-1.5,0.8c-0.4,0.1-0.7,0.1-1,0.1c-0.7,0-1.3-0.2-1.7-0.7
				c-0.4-0.4-0.6-1-0.6-1.7c0-0.2,0.1-0.7,0.2-1.3c0.1-0.6,0.5-1.5,1.2-2.4c0.7-1,1.6-1.9,2.8-2.8c1.2-0.9,2.2-1.5,3-1.8
				c0.8-0.3,1.5-0.5,2.1-0.5c0.4,0,0.8,0.1,1.1,0.2c0.3,0.2,0.5,0.4,0.7,0.6C203.6,80.8,203.7,81.1,203.7,81.4z M195.5,88.7
				c0.1,0.5,0.4,0.8,0.9,0.8c0.3,0,0.5-0.1,0.8-0.2c0.3-0.2,0.5-0.3,0.8-0.6c0.3-0.2,0.5-0.4,0.7-0.7l0.5-0.6l1.2-1.4
				c1-1.2,1.8-2.2,2.2-3c0.4-0.8,0.6-1.4,0.5-1.9c0-0.3-0.1-0.5-0.3-0.7c-0.2-0.1-0.5-0.2-0.8,0c-0.5,0.1-1,0.4-1.5,0.7
				c-0.5,0.3-1,0.8-1.6,1.5c-0.6,0.6-1.1,1.2-1.4,1.7c-0.3,0.5-0.7,1-1,1.6c-0.4,0.6-0.6,1.1-0.8,1.5c-0.2,0.4-0.2,0.7-0.2,1
				C195.4,88.4,195.4,88.5,195.5,88.7z"/>
			<path id="XMLID_236_" d="M207.6,87.3c0-0.8,0.3-1.7,0.9-2.5c0.6-0.9,1-1.4,1.3-1.8c0.3-0.3,0.8-0.8,1.5-1.4
				c0.7-0.6,1.5-1.1,2.3-1.4c0.9-0.4,1.9-0.6,3.1-0.6c0.2,0,0.3,0,0.4,0c0.9,0,1.6,0.3,2.2,0.8c0.6,0.5,0.8,1.2,0.8,2.1
				c0,0.2,0,0.5,0,0.7c-0.1,0.2-0.2,0.7-0.3,1.2c-0.2,0.6-0.7,1.4-1.5,2.4c-0.9,1-1.7,1.8-2.5,2.3c-0.8,0.5-1.6,0.9-2.4,1.2
				c-0.8,0.3-1.4,0.4-2,0.3c-1.3,0-2.2-0.3-2.8-1C207.9,89.2,207.6,88.3,207.6,87.3z M210.2,88.3v0.7c0,0.7,0.4,1,1.2,1
				c0.3,0,0.6-0.1,0.9-0.2c0.4-0.1,0.8-0.5,1.4-1c0.6-0.5,1.3-1.4,2.2-2.5c0.9-1.1,1.5-2.3,1.9-3.3l0.6-1.7c0.2-1-0.3-1.4-1.5-1.2
				c-0.3,0.1-0.6,0.2-1,0.5c-0.4,0.3-0.9,0.6-1.5,1.1l-1.2,1.3c-1,1.2-1.7,2.2-2,2.9C210.6,87,210.3,87.8,210.2,88.3z"/>
		</g>
		<g id="XMLID_133_">
			<path id="XMLID_134_" d="M169.8,52.3c-0.4-0.6,0.1-1.3,0-1.8c-0.1-0.4-0.3-0.7-0.7-0.8c0.2,0.4,0.2,0.9-0.2,1.2
				c0.3-0.3,0.2-0.6,0-0.9c-0.3-0.5-1.1-0.9-1.3-1.4c-0.1-0.4,0-0.8,0.5-1.1c-0.7,0.3-1.2,0.9-1.2,1.4c0,0.8,0.7,1.5,0.4,2.2
				c-0.2,0.4-1.2,1.6-1.7,2.3c-0.5,0.7-0.6,1.4-0.3,2.1c0.3,0.7,1,1.2,1.9,1.5c-0.5-0.4-0.9-1-0.9-1.6c0.1-1.2,1.1-1.7,1.4-2.7
				c0.1-0.4,0.3-1-0.1-1.3c0.8,0.3,1.5,1.4,1.2,2.3c-0.1,0.3-0.2,0.5-0.5,0.7h0c0.3-0.2,0.7-0.6,0.6-1.2c0.2,0.2,0.5,0.5,0.4,0.8
				c0,0.4-0.3,0.7-0.5,1c-0.1,0.3,0,0.6,0.3,0.5c0.4-0.1,0.4-0.7,0.1-0.9c0.7,0.4,0.7,1.4,0.2,2c-0.2,0.2-0.5,0.4-0.8,0.6
				c0.8-0.2,2-0.8,2.2-2C171.5,53.9,170.4,53.1,169.8,52.3z"/>
		</g>
	</g>
</g>
</svg>
